<svg width="848" height="881" viewBox="0 0 848 881" fill="none" xmlns="http://www.w3.org/2000/svg">
<g clip-path="url(#clip0_5317_2)">
<path opacity="0.96" fill-rule="evenodd" clip-rule="evenodd" d="M245.859 130.098C253.859 130.098 261.859 130.098 269.859 130.098C271.354 131.943 273.021 132.276 274.859 131.098C277.324 131.365 279.658 132.032 281.859 133.098C284.202 135.466 286.868 137.633 289.859 139.598C290.796 140.29 291.462 140.123 291.859 139.098C292.526 139.098 292.859 139.431 292.859 140.098C292.728 140.837 292.895 141.504 293.359 142.098C297.405 145.319 301.238 148.652 304.859 152.098C305.204 154.796 306.537 156.796 308.859 158.098C309.697 158.44 310.031 159.106 309.859 160.098C309.786 161.625 310.453 162.625 311.859 163.098C311.525 166.089 312.525 168.422 314.859 170.098C314.525 173.089 315.525 175.422 317.859 177.098C320.171 186.153 322.171 195.32 323.859 204.598C326.017 206.032 327.35 205.198 327.859 202.098C350.1 189.169 372.1 176.669 393.859 164.598C405.53 155.742 413.03 144.242 416.359 130.098C417.851 131.732 419.351 133.398 420.859 135.098C420.65 135.684 420.316 136.184 419.859 136.598C422.096 142.518 423.429 148.684 423.859 155.098C422.919 157.73 422.752 160.396 423.359 163.098C424.816 160.94 426.649 159.107 428.859 157.598C445.305 147.993 462.638 145.993 480.859 151.598C481.696 152.609 482.029 153.776 481.859 155.098C473.722 156.833 466.722 160.667 460.859 166.598C465.03 166.556 469.196 166.056 473.359 165.098C479.618 166.204 485.784 167.704 491.859 169.598C497.836 173.899 503.836 178.233 509.859 182.598C510.696 183.609 511.029 184.776 510.859 186.098C507.26 184.899 503.594 183.899 499.859 183.098C493.286 180.519 486.619 180.686 479.859 183.598C489.213 186.172 498.213 188.838 506.859 191.598C508.192 192.265 508.192 192.931 506.859 193.598C505.526 193.931 504.192 194.265 502.859 194.598C503.775 194.876 504.441 195.376 504.859 196.098C510.254 200.129 516.254 203.129 522.859 205.098C523.568 206.002 524.568 206.335 525.859 206.098C525.859 203.765 525.859 201.431 525.859 199.098C527.957 191.569 529.957 183.902 531.859 176.098C534.014 173.981 535.014 171.314 534.859 168.098C535.019 166.445 535.685 165.112 536.859 164.098C538.767 163.112 539.767 161.446 539.859 159.098C544.519 153.437 549.186 147.77 553.859 142.098C553.859 141.431 554.192 141.098 554.859 141.098C554.794 141.536 554.96 141.87 555.359 142.098C558.107 140.14 560.941 138.307 563.859 136.598C564.611 135.927 564.945 135.094 564.859 134.098C566.78 133.235 568.78 132.569 570.859 132.098C570.919 132.641 571.252 132.974 571.859 133.098C575.313 132.085 578.646 131.085 581.859 130.098C592.557 129.861 603.224 130.194 613.859 131.098C614.296 132.672 615.296 133.839 616.859 134.598C621.731 135.701 626.397 137.368 630.859 139.598C639.298 144.226 647.298 149.393 654.859 155.098C663.213 161.971 669.547 169.971 673.859 179.098C675.012 182.738 676.679 186.072 678.859 189.098C678.911 191.944 679.911 194.278 681.859 196.098C682.978 202.794 684.311 209.461 685.859 216.098C686.106 217.311 686.773 217.978 687.859 218.098C688.731 224.387 689.064 230.72 688.859 237.098C688.242 237.209 687.742 237.542 687.359 238.098C686.291 244.074 685.458 250.074 684.859 256.098C685.096 257.389 684.763 258.389 683.859 259.098C682.092 261.39 681.092 264.056 680.859 267.098C678.685 270.113 677.018 273.447 675.859 277.098C673.959 281.33 671.292 284.997 667.859 288.098C666.526 288.765 665.526 289.765 664.859 291.098C663.526 293.098 661.859 294.765 659.859 296.098C655.747 298.326 651.747 300.826 647.859 303.598C643.898 305.196 639.898 306.696 635.859 308.098C635.061 308.555 634.728 309.222 634.859 310.098C631.017 311.6 627.017 312.266 622.859 312.098C620.371 310.21 617.371 309.543 613.859 310.098C613.632 312.531 614.632 314.197 616.859 315.098C618.609 316.257 619.609 317.924 619.859 320.098C621.402 324.622 623.736 328.622 626.859 332.098C632.504 346.528 637.67 361.195 642.359 376.098C643.884 379.799 645.384 382.799 646.859 385.098C647.697 385.44 648.031 386.106 647.859 387.098C647.194 391.021 647.694 395.021 649.359 399.098C654.613 401.677 659.78 404.343 664.859 407.098C665.697 407.44 666.031 408.106 665.859 409.098C667.118 412.623 669.118 415.623 671.859 418.098C672.395 426.252 673.062 434.252 673.859 442.098C686.771 440.66 694.771 446.327 697.859 459.098C697.47 466.762 697.137 474.428 696.859 482.098C696.764 484.384 696.097 486.384 694.859 488.098C693.499 489.644 692.499 491.478 691.859 493.598C694.043 496.61 696.376 499.443 698.859 502.098C700.085 508.119 700.085 514.119 698.859 520.098C696.183 529.114 690.85 536.114 682.859 541.098C680.086 550.82 677.253 560.82 674.359 571.098C670.549 579.044 667.049 587.044 663.859 595.098C656.472 605.825 649.472 616.825 642.859 628.098C635.322 639.64 626.655 650.307 616.859 660.098C616.924 659.66 616.758 659.326 616.359 659.098C614.557 660.387 613.39 662.054 612.859 664.098C612.192 665.431 611.192 666.431 609.859 667.098C605.254 670.034 601.254 673.7 597.859 678.098C595.148 681.81 591.815 684.81 587.859 687.098C571.601 699.238 554.601 710.405 536.859 720.598C527.455 724.639 518.122 728.639 508.859 732.598C508.107 733.269 507.773 734.102 507.859 735.098C471.213 748.776 433.546 753.11 394.859 748.098C394.748 747.481 394.415 746.981 393.859 746.598C390.663 745.793 387.663 745.96 384.859 747.098C384.192 747.098 383.526 747.098 382.859 747.098C382.945 746.102 382.611 745.269 381.859 744.598C370.933 742.7 360.266 739.867 349.859 736.098C348.646 736.345 347.979 737.012 347.859 738.098C347.192 738.098 346.859 737.765 346.859 737.098C346.889 736.101 346.389 735.434 345.359 735.098C340.56 732.317 335.394 730.484 329.859 729.598C324.137 726.319 318.304 723.152 312.359 720.098C311.895 720.692 311.728 721.359 311.859 722.098C311.192 722.098 310.859 721.765 310.859 721.098C304.748 716.439 298.248 712.106 291.359 708.098C290.96 708.326 290.794 708.66 290.859 709.098C290.526 709.098 290.192 709.098 289.859 709.098C289.417 706.266 288.084 705.266 285.859 706.098C285.192 706.098 284.859 705.765 284.859 705.098C272.257 695.006 259.757 684.673 247.359 674.098C246.96 674.326 246.794 674.66 246.859 675.098C245.859 674.765 245.192 674.098 244.859 673.098C240.192 666.431 234.526 660.765 227.859 656.098C227.859 655.765 227.859 655.431 227.859 655.098C226.549 652.125 224.549 649.791 221.859 648.098C219.671 644.391 217.004 641.058 213.859 638.098C213.621 636.194 212.621 634.86 210.859 634.098C208.772 633.013 207.439 631.347 206.859 629.098C204.596 624.233 201.596 619.9 197.859 616.098C191.13 604.312 184.63 592.312 178.359 580.098C173.072 567.568 169.405 554.568 167.359 541.098C166.976 540.542 166.476 540.209 165.859 540.098C164.129 539.572 162.795 538.572 161.859 537.098C161.192 534.431 159.526 532.765 156.859 532.098C156.621 530.194 155.621 528.86 153.859 528.098C152.685 527.084 152.019 525.751 151.859 524.098C152.031 523.106 151.697 522.44 150.859 522.098C150.764 519.812 150.097 517.812 148.859 516.098C147.916 512.89 147.749 509.224 148.359 505.098C148.733 503.107 149.566 501.44 150.859 500.098C153.587 498.371 155.587 496.038 156.859 493.098C155.696 489.591 154.363 486.257 152.859 483.098C151.382 479.365 150.548 475.365 150.359 471.098C149.876 472.046 149.71 473.046 149.859 474.098C148.876 470.3 148.542 466.3 148.859 462.098C151.532 459.419 153.199 456.086 153.859 452.098C153.913 449.966 154.913 448.633 156.859 448.098C160.994 445.035 165.66 443.035 170.859 442.098C172.812 442.754 174.812 443.087 176.859 443.098C176.067 437.468 175.734 431.801 175.859 426.098C176.692 420.593 178.692 415.593 181.859 411.098C185.909 405.922 191.243 402.422 197.859 400.598C199.182 399.782 199.848 398.615 199.859 397.098C204.279 380.922 209.279 364.922 214.859 349.098C216.728 345.032 218.895 341.032 221.359 337.098C221.849 335.805 222.016 334.471 221.859 333.098C222.735 333.229 223.402 332.896 223.859 332.098C224.872 329.41 225.872 326.744 226.859 324.098C228.463 323.311 229.13 321.978 228.859 320.098C231.181 318.796 232.514 316.796 232.859 314.098C234.463 313.311 235.13 311.978 234.859 310.098C227.572 310.529 220.405 309.862 213.359 308.098C212.594 308.168 212.094 308.501 211.859 309.098C211.526 309.098 211.192 309.098 210.859 309.098C207.516 306.093 203.516 304.093 198.859 303.098C197.332 303.171 196.332 302.504 195.859 301.098C188.157 294.397 181.157 287.064 174.859 279.098C172.997 276.15 171.33 273.15 169.859 270.098C167.043 261.819 164.543 253.486 162.359 245.098C162.049 233.577 161.882 222.244 161.859 211.098C161.859 210.765 161.859 210.431 161.859 210.098C162.855 210.184 163.688 209.85 164.359 209.098C167.345 195.8 172.512 183.466 179.859 172.098C186.128 164.491 192.795 157.158 199.859 150.098C199.859 149.431 200.192 149.098 200.859 149.098C208.999 144.527 217.333 140.193 225.859 136.098C226.657 135.641 226.99 134.974 226.859 134.098C227.192 134.098 227.526 134.098 227.859 134.098C227.919 134.641 228.252 134.974 228.859 135.098C230.654 134.333 232.487 133.666 234.359 133.098C235.389 132.762 235.889 132.095 235.859 131.098C236.526 131.098 237.192 131.098 237.859 131.098C238.094 131.695 238.594 132.028 239.359 132.098C241.705 131.608 243.872 130.941 245.859 130.098Z" fill="#CDCDCD"/>
<path opacity="0.69" fill-rule="evenodd" clip-rule="evenodd" d="M245.859 130.098C243.872 130.941 241.705 131.608 239.359 132.098C238.594 132.028 238.094 131.695 237.859 131.098C240.413 130.21 243.08 129.877 245.859 130.098Z" fill="#CDCDCD"/>
<path opacity="0.796" fill-rule="evenodd" clip-rule="evenodd" d="M269.859 130.098C271.774 129.814 273.44 130.147 274.859 131.098C273.021 132.276 271.354 131.943 269.859 130.098Z" fill="#CDCDCD"/>
<path opacity="0.498" fill-rule="evenodd" clip-rule="evenodd" d="M235.859 131.098C235.889 132.095 235.389 132.762 234.359 133.098C232.487 133.666 230.654 134.333 228.859 135.098C228.252 134.974 227.919 134.641 227.859 134.098C230.412 132.793 233.079 131.793 235.859 131.098Z" fill="#CDCDCD"/>
<path opacity="0.643" fill-rule="evenodd" clip-rule="evenodd" d="M581.859 130.098C578.646 131.085 575.313 132.085 571.859 133.098C571.252 132.974 570.919 132.641 570.859 132.098C574.235 130.516 577.901 129.849 581.859 130.098Z" fill="#CDCDCD"/>
<path opacity="0.176" fill-rule="evenodd" clip-rule="evenodd" d="M281.859 133.098C285.56 134.61 288.893 136.61 291.859 139.098C291.462 140.123 290.796 140.29 289.859 139.598C286.868 137.633 284.202 135.466 281.859 133.098Z" fill="#CDCDCD"/>
<path opacity="0.227" fill-rule="evenodd" clip-rule="evenodd" d="M564.859 134.098C564.945 135.094 564.611 135.927 563.859 136.598C560.941 138.307 558.107 140.14 555.359 142.098C554.96 141.87 554.794 141.536 554.859 141.098C557.805 138.285 561.138 135.952 564.859 134.098Z" fill="#CDCDCD"/>
<path fill-rule="evenodd" clip-rule="evenodd" d="M400.859 187.098C414.448 185.228 428.115 184.228 441.859 184.098C450.757 185.449 459.423 187.949 467.859 191.598C475.261 192.948 482.594 194.615 489.859 196.598C502.28 202.133 514.613 207.967 526.859 214.098C527.801 213.99 528.634 213.657 529.359 213.098C530.522 192.276 536.855 173.276 548.359 156.098C564.314 137.058 584.481 130.558 608.859 136.598C653.573 150.849 678.24 181.349 682.859 228.098C682.862 258.937 670.195 282.771 644.859 299.598C636.224 303.31 627.224 305.477 617.859 306.098C614.159 305.737 610.492 305.571 606.859 305.598C606.3 306.323 605.967 307.156 605.859 308.098C624.809 336.089 637.642 366.756 644.359 400.098C645.5 402.207 647 404.04 648.859 405.598C652.569 405.971 655.903 407.305 658.859 409.598C662.647 414.004 665.814 418.837 668.359 424.098C669.026 429.765 669.026 435.431 668.359 441.098C666.855 445.184 665.521 449.184 664.359 453.098C665.084 453.657 665.917 453.99 666.859 454.098C676.296 444.277 684.629 445.277 691.859 457.098C692.613 462.061 692.946 467.061 692.859 472.098C692.083 480.263 689.25 487.596 684.359 494.098C683.865 495.732 683.699 497.399 683.859 499.098C685.886 498.936 687.886 499.103 689.859 499.598C691.359 501.098 692.859 502.598 694.359 504.098C695.873 518.736 690.206 529.736 677.359 537.098C674.799 557.112 668.466 575.779 658.359 593.098C620.943 660.184 566.109 706.684 493.859 732.598C476.057 738.783 457.723 742.283 438.859 743.098C425.508 743.264 412.174 742.931 398.859 742.098C358.033 737.061 320.7 722.895 286.859 699.598C235.061 663.476 197.894 615.976 175.359 557.098C173.7 550.494 172.367 543.828 171.359 537.098C164.598 532.339 159.265 526.339 155.359 519.098C152.413 511.712 153.58 505.212 158.859 499.598C160.859 499.265 162.859 498.931 164.859 498.598C165.381 498.037 165.714 497.37 165.859 496.598C157.313 485.198 154.146 472.364 156.359 458.098C163.187 446.364 171.687 445.031 181.859 454.098C182.837 453.621 183.67 452.955 184.359 452.098C183.132 447.923 182.132 443.59 181.359 439.098C178.634 427.059 181.801 416.892 190.859 408.598C196.087 407.341 200.587 404.841 204.359 401.098C210.963 367.232 224.13 336.232 243.859 308.098C243.022 306.093 241.522 305.093 239.359 305.098C211.056 307.444 190.056 296.111 176.359 271.098C171.334 261.657 168.167 251.657 166.859 241.098C166.864 231.046 167.531 221.046 168.859 211.098C179.153 170.305 204.819 145.138 245.859 135.598C279.567 132.952 301.9 147.618 312.859 179.598C316.638 191.369 318.971 203.369 319.859 215.598C321.192 216.265 322.526 216.265 323.859 215.598C331.952 206.834 341.619 200.501 352.859 196.598C368.795 192.888 384.795 189.721 400.859 187.098Z" fill="#CDCDCD"/>
<path opacity="0.4" fill-rule="evenodd" clip-rule="evenodd" d="M226.859 134.098C226.99 134.974 226.657 135.641 225.859 136.098C217.333 140.193 208.999 144.527 200.859 149.098C208.541 142.584 217.208 137.584 226.859 134.098Z" fill="#CDCDCD"/>
<path opacity="0.392" fill-rule="evenodd" clip-rule="evenodd" d="M292.86 140.098C297.86 143.098 301.86 147.098 304.86 152.098C301.239 148.652 297.406 145.319 293.36 142.098C292.896 141.504 292.729 140.837 292.86 140.098Z" fill="#CDCDCD"/>
<path opacity="0.702" fill-rule="evenodd" clip-rule="evenodd" d="M553.859 142.098C549.186 147.77 544.519 153.437 539.859 159.098C543.021 152.262 547.688 146.595 553.859 142.098Z" fill="#CDCDCD"/>
<path opacity="0.416" fill-rule="evenodd" clip-rule="evenodd" d="M613.859 131.098C629.601 135.794 643.268 143.794 654.859 155.098C647.298 149.393 639.298 144.226 630.859 139.598C626.397 137.368 621.731 135.701 616.859 134.598C615.296 133.839 614.296 132.672 613.859 131.098Z" fill="#CDCDCD"/>
<path opacity="0.322" fill-rule="evenodd" clip-rule="evenodd" d="M304.859 152.098C306.685 153.745 308.019 155.745 308.859 158.098C306.537 156.796 305.204 154.796 304.859 152.098Z" fill="#CDCDCD"/>
<path opacity="0.576" fill-rule="evenodd" clip-rule="evenodd" d="M199.859 150.098C192.795 157.158 186.128 164.491 179.859 172.098C179.859 171.765 179.859 171.431 179.859 171.098C182.757 166.026 186.257 161.359 190.359 157.098C193.422 154.522 196.588 152.189 199.859 150.098Z" fill="#CDCDCD"/>
<path opacity="0.22" fill-rule="evenodd" clip-rule="evenodd" d="M309.859 160.098C311.265 160.571 311.932 161.571 311.859 163.098C310.453 162.625 309.786 161.625 309.859 160.098Z" fill="#CDCDCD"/>
<path opacity="0.867" fill-rule="evenodd" clip-rule="evenodd" d="M539.859 159.098C539.767 161.446 538.767 163.112 536.859 164.098C537.109 161.924 538.109 160.257 539.859 159.098Z" fill="#CDCDCD"/>
<path opacity="0.816" fill-rule="evenodd" clip-rule="evenodd" d="M311.86 163.098C313.425 165.107 314.425 167.441 314.86 170.098C312.526 168.422 311.526 166.089 311.86 163.098Z" fill="#CDCDCD"/>
<path opacity="0.827" fill-rule="evenodd" clip-rule="evenodd" d="M534.859 168.098C535.014 171.314 534.014 173.981 531.859 176.098C532.339 173.155 533.339 170.488 534.859 168.098Z" fill="#CDCDCD"/>
<path opacity="0.702" fill-rule="evenodd" clip-rule="evenodd" d="M314.86 170.098C316.425 172.107 317.425 174.441 317.86 177.098C315.526 175.422 314.526 173.089 314.86 170.098Z" fill="#CDCDCD"/>
<path fill-rule="evenodd" clip-rule="evenodd" d="M596.859 177.098C591.036 176.721 585.37 177.388 579.859 179.098C580.706 177.632 582.039 176.798 583.859 176.598C588.379 175.784 592.713 175.951 596.859 177.098Z" fill="#CDCDCD"/>
<path fill-rule="evenodd" clip-rule="evenodd" d="M596.859 177.098C631.234 186.858 647.068 209.525 644.359 245.098C636.849 270.947 619.683 283.114 592.859 281.598C586.105 277.511 580.605 272.011 576.359 265.098C570.359 259.098 564.359 253.098 558.359 247.098C546.917 223.758 550.417 202.924 568.859 184.598C572.001 181.694 575.668 179.86 579.859 179.098C585.37 177.388 591.036 176.721 596.859 177.098Z" fill="#CDCDCD"/>
<path fill-rule="evenodd" clip-rule="evenodd" d="M254.86 281.098C248.491 281.251 242.157 280.918 235.86 280.098C218.951 274.331 208.451 262.664 204.36 245.098C202 212.653 215.833 190.153 245.86 177.598C270.578 174.054 287.078 184.221 295.36 208.098C298.404 221.28 297.07 233.946 291.36 246.098C280.751 255.702 271.251 266.202 262.86 277.598C260.284 279.054 257.618 280.221 254.86 281.098Z" fill="#CDCDCD"/>
<path fill-rule="evenodd" clip-rule="evenodd" d="M264.859 183.098C258.823 182.958 252.823 183.291 246.859 184.098C250.054 182.568 253.554 181.902 257.359 182.098C260.049 182.101 262.549 182.434 264.859 183.098Z" fill="#CDCDCD"/>
<path opacity="0.01" fill-rule="evenodd" clip-rule="evenodd" d="M499.86 183.098C499.193 183.765 499.193 183.765 499.86 183.098V183.098Z" fill="#CDCDCD"/>
<path fill-rule="evenodd" clip-rule="evenodd" d="M596.859 183.098C590.705 182.776 584.705 183.443 578.859 185.098C580.201 183.805 581.868 182.972 583.859 182.598C588.379 181.784 592.713 181.951 596.859 183.098Z" fill="#CDCDCD"/>
<path opacity="0.133" fill-rule="evenodd" clip-rule="evenodd" d="M673.859 179.098C676.56 181.833 678.227 185.167 678.859 189.098C676.679 186.072 675.012 182.738 673.859 179.098Z" fill="#CDCDCD"/>
<path fill-rule="evenodd" clip-rule="evenodd" d="M264.86 183.098C285.711 192.189 294.545 208.189 291.36 231.098C290.4 234.896 289.066 238.563 287.36 242.098C278.088 250.678 269.755 260.011 262.36 270.098C258.62 274.717 253.787 276.717 247.86 276.098C227.254 274.335 214.421 263.335 209.36 243.098C207.725 214.355 220.225 194.688 246.86 184.098C252.824 183.291 258.824 182.958 264.86 183.098Z" fill="#CDCDCD"/>
<path fill-rule="evenodd" clip-rule="evenodd" d="M441.859 184.098C428.115 184.228 414.448 185.228 400.859 187.098C403.508 185.489 406.508 184.655 409.859 184.598C417.859 184.098 425.859 183.598 433.859 183.098C436.714 183.101 439.381 183.434 441.859 184.098Z" fill="#CDCDCD"/>
<path fill-rule="evenodd" clip-rule="evenodd" d="M596.86 183.098C626.85 191.917 641.017 211.917 639.36 243.098C632.303 269.028 615.803 279.194 589.86 273.598C581.803 262.536 572.637 252.369 562.36 243.098C553.461 222.467 556.961 204.301 572.86 188.598C574.765 187.177 576.765 186.01 578.86 185.098C584.706 183.443 590.706 182.776 596.86 183.098Z" fill="#CDCDCD"/>
<path opacity="0.482" fill-rule="evenodd" clip-rule="evenodd" d="M531.859 176.098C529.957 183.902 527.957 191.569 525.859 199.098C526.163 190.878 528.163 183.211 531.859 176.098Z" fill="#CDCDCD"/>
<path opacity="0.298" fill-rule="evenodd" clip-rule="evenodd" d="M678.859 189.098C680.424 191.107 681.424 193.441 681.859 196.098C679.911 194.278 678.911 191.944 678.859 189.098Z" fill="#CDCDCD"/>
<path opacity="0.263" fill-rule="evenodd" clip-rule="evenodd" d="M179.859 171.098C179.859 171.431 179.859 171.765 179.859 172.098C172.512 183.466 167.345 195.8 164.359 209.098C163.688 209.85 162.855 210.184 161.859 210.098C164.931 195.629 170.931 182.629 179.859 171.098Z" fill="#CDCDCD"/>
<path opacity="0.733" fill-rule="evenodd" clip-rule="evenodd" d="M504.859 196.098C511.456 198.063 517.456 201.063 522.859 205.098C516.254 203.129 510.254 200.129 504.859 196.098Z" fill="#CDCDCD"/>
<path opacity="0.471" fill-rule="evenodd" clip-rule="evenodd" d="M317.859 177.098C321.212 184.996 323.379 193.33 324.359 202.098C324.692 202.765 325.026 203.431 325.359 204.098C326.067 203.217 326.901 202.551 327.859 202.098C327.35 205.198 326.017 206.032 323.859 204.598C322.171 195.32 320.171 186.153 317.859 177.098Z" fill="#CDCDCD"/>
<path opacity="0.659" fill-rule="evenodd" clip-rule="evenodd" d="M525.859 199.098C525.859 201.431 525.859 203.765 525.859 206.098C524.568 206.335 523.568 206.002 522.859 205.098C524.419 203.442 525.419 201.442 525.859 199.098Z" fill="#CDCDCD"/>
<path opacity="0.592" fill-rule="evenodd" clip-rule="evenodd" d="M681.859 196.098C684.841 203.062 686.841 210.395 687.859 218.098C686.773 217.978 686.106 217.311 685.859 216.098C684.311 209.461 682.978 202.794 681.859 196.098Z" fill="#CDCDCD"/>
<path fill-rule="evenodd" clip-rule="evenodd" d="M168.859 211.098C167.531 221.046 166.864 231.046 166.859 241.098C165.705 234.611 165.538 227.944 166.359 221.098C166.508 217.465 167.341 214.132 168.859 211.098Z" fill="#CDCDCD"/>
<path fill-rule="evenodd" clip-rule="evenodd" d="M463.765 231.638C477.641 231.246 490.974 233.746 503.765 239.138C506.341 239.92 508.341 241.42 509.765 243.638C485.918 240.528 462.584 243.028 439.765 251.138C432.619 257.654 431.452 256.82 436.265 248.638C443.22 239.251 452.387 233.584 463.765 231.638Z" fill="#CDCDCD"/>
<path opacity="0.396" fill-rule="evenodd" clip-rule="evenodd" d="M688.859 237.098C688.478 243.75 687.144 250.084 684.859 256.098C685.458 250.074 686.291 244.074 687.359 238.098C687.742 237.542 688.242 237.209 688.859 237.098Z" fill="#CDCDCD"/>
<path fill-rule="evenodd" clip-rule="evenodd" d="M480.859 251.098C494.254 250.74 507.254 252.74 519.859 257.098C496.37 255.448 473.37 258.282 450.859 265.598C444.886 267.917 439.552 271.251 434.859 275.598C433.724 276.347 432.724 276.181 431.859 275.098C433.359 272.098 434.859 269.098 436.359 266.098C439.97 263.212 443.803 260.712 447.859 258.598C452.182 258.185 456.182 256.852 459.859 254.598C466.967 253.191 473.967 252.024 480.859 251.098Z" fill="#CDCDCD"/>
<path opacity="0.365" fill-rule="evenodd" clip-rule="evenodd" d="M161.859 211.098C161.882 222.244 162.049 233.577 162.359 245.098C164.543 253.486 167.043 261.819 169.859 270.098C169.192 269.765 168.526 269.431 167.859 269.098C159.678 250.445 157.678 231.112 161.859 211.098Z" fill="#CDCDCD"/>
<path opacity="0.443" fill-rule="evenodd" clip-rule="evenodd" d="M683.859 259.098C683.626 262.14 682.626 264.806 680.859 267.098C681.092 264.056 682.092 261.39 683.859 259.098Z" fill="#CDCDCD"/>
<path opacity="0.176" fill-rule="evenodd" clip-rule="evenodd" d="M680.859 267.098C680.232 271.018 678.566 274.351 675.859 277.098C677.018 273.447 678.685 270.113 680.859 267.098Z" fill="#CDCDCD"/>
<path opacity="0.012" fill-rule="evenodd" clip-rule="evenodd" d="M167.859 269.098C168.526 269.431 169.192 269.765 169.859 270.098C171.33 273.15 172.997 276.15 174.859 279.098C174.859 279.765 174.859 280.431 174.859 281.098C172.024 277.434 169.691 273.434 167.859 269.098Z" fill="#CDCDCD"/>
<path fill-rule="evenodd" clip-rule="evenodd" d="M235.859 280.098C242.156 280.918 248.49 281.251 254.859 281.098C252.381 281.762 249.714 282.095 246.859 282.098C242.89 282.304 239.224 281.637 235.859 280.098Z" fill="#CDCDCD"/>
<path opacity="0.012" fill-rule="evenodd" clip-rule="evenodd" d="M667.859 288.098C667.859 290.098 666.859 291.098 664.859 291.098C665.526 289.765 666.526 288.765 667.859 288.098Z" fill="#CDCDCD"/>
<path opacity="0.173" fill-rule="evenodd" clip-rule="evenodd" d="M174.859 279.098C181.157 287.064 188.157 294.397 195.859 301.098C187.59 295.83 180.59 289.163 174.859 281.098C174.859 280.431 174.859 279.765 174.859 279.098Z" fill="#CDCDCD"/>
<path opacity="0.312" fill-rule="evenodd" clip-rule="evenodd" d="M198.859 303.098C203.516 304.093 207.516 306.093 210.859 309.098C206.306 308.036 202.306 306.036 198.859 303.098Z" fill="#CDCDCD"/>
<path opacity="0.024" fill-rule="evenodd" clip-rule="evenodd" d="M659.86 296.098C652.927 303.069 644.594 307.736 634.86 310.098C634.729 309.222 635.062 308.555 635.86 308.098C639.899 306.696 643.899 305.196 647.86 303.598C651.748 300.826 655.748 298.326 659.86 296.098Z" fill="#CDCDCD"/>
<path opacity="0.816" fill-rule="evenodd" clip-rule="evenodd" d="M232.859 314.098C225.712 313.076 218.712 311.41 211.859 309.098C212.094 308.501 212.594 308.168 213.359 308.098C220.405 309.862 227.572 310.529 234.859 310.098C235.13 311.978 234.463 313.311 232.859 314.098Z" fill="#CDCDCD"/>
<path opacity="0.305" fill-rule="evenodd" clip-rule="evenodd" d="M622.86 312.098C620.516 312.538 618.516 313.538 616.86 315.098C614.633 314.197 613.633 312.531 613.86 310.098C617.372 309.543 620.372 310.21 622.86 312.098Z" fill="#CDCDCD"/>
<path opacity="0.22" fill-rule="evenodd" clip-rule="evenodd" d="M232.859 314.098C232.514 316.796 231.181 318.796 228.859 320.098C229.699 317.745 231.033 315.745 232.859 314.098Z" fill="#CDCDCD"/>
<path fill-rule="evenodd" clip-rule="evenodd" d="M340.859 313.098C347.866 313.432 354.866 313.932 361.859 314.598C370.494 320.105 371.161 326.438 363.859 333.598C362.222 334.199 360.556 334.699 358.859 335.098C348.183 333.78 337.516 333.947 326.859 335.598C318.443 338.515 310.276 342.015 302.359 346.098C296.668 344.572 293.168 340.906 291.859 335.098C292.835 330.657 295.168 327.157 298.859 324.598C307.986 321.51 317.152 318.344 326.359 315.098C331.355 314.564 336.189 313.898 340.859 313.098Z" fill="#CDCDCD"/>
<path fill-rule="evenodd" clip-rule="evenodd" d="M330.859 317.098C340.865 316.932 350.865 317.098 360.859 317.598C365.247 320.788 365.914 324.622 362.859 329.098C352.876 329.93 342.876 330.43 332.859 330.598C328.028 332.541 323.028 333.875 317.859 334.598C313.085 337.651 308.085 340.151 302.859 342.098C294.852 339.232 293.852 334.732 299.859 328.598C309.828 323.446 320.161 319.612 330.859 317.098Z" fill="#CDCDCD"/>
<path fill-rule="evenodd" clip-rule="evenodd" d="M484.859 313.098C492.892 313.343 500.892 314.01 508.859 315.098C518.497 317.933 527.83 321.433 536.859 325.598C540.672 327.622 543.005 330.788 543.859 335.098C542.059 343.331 537.059 346.497 528.859 344.598C522.442 341.016 515.775 338.016 508.859 335.598C496.837 334.157 484.837 333.657 472.859 334.098C467.649 330.618 465.983 325.785 467.859 319.598C469.547 317.579 471.547 315.912 473.859 314.598C477.715 314.421 481.382 313.921 484.859 313.098Z" fill="#CDCDCD"/>
<path fill-rule="evenodd" clip-rule="evenodd" d="M474.86 317.098C497.066 314.439 517.733 318.606 536.86 329.598C539.823 331.869 540.49 334.702 538.86 338.098C537.236 340.039 535.236 341.372 532.86 342.098C524.274 338.569 515.607 335.236 506.86 332.098C495.605 330.472 484.272 329.639 472.86 329.598C468.494 324.63 469.16 320.463 474.86 317.098Z" fill="#CDCDCD"/>
<path opacity="0.416" fill-rule="evenodd" clip-rule="evenodd" d="M228.859 320.098C229.13 321.978 228.463 323.311 226.859 324.098C227.019 322.445 227.685 321.112 228.859 320.098Z" fill="#CDCDCD"/>
<path opacity="0.129" fill-rule="evenodd" clip-rule="evenodd" d="M619.859 320.098C622.982 323.574 625.316 327.574 626.859 332.098C623.736 328.622 621.402 324.622 619.859 320.098Z" fill="#CDCDCD"/>
<path opacity="0.831" fill-rule="evenodd" clip-rule="evenodd" d="M226.859 324.098C225.872 326.744 224.872 329.41 223.859 332.098C223.402 332.896 222.735 333.229 221.859 333.098C222.769 329.606 224.435 326.606 226.859 324.098Z" fill="#CDCDCD"/>
<path opacity="0.118" fill-rule="evenodd" clip-rule="evenodd" d="M221.859 333.098C222.016 334.471 221.849 335.805 221.359 337.098C218.895 341.032 216.728 345.032 214.859 349.098C216.125 343.238 218.459 337.905 221.859 333.098Z" fill="#CDCDCD"/>
<path fill-rule="evenodd" clip-rule="evenodd" d="M320.859 361.098C334.278 361.035 344.445 366.701 351.359 378.098C357.902 390.075 359.569 402.741 356.359 416.098C349.07 429.337 337.904 434.504 322.859 431.598C285.73 423.883 278.897 405.05 302.359 375.098C307.643 369.064 313.81 364.397 320.859 361.098Z" fill="#CDCDCD"/>
<path fill-rule="evenodd" clip-rule="evenodd" d="M507.859 361.098C519.762 361.467 529.262 366.467 536.359 376.098C539.94 380.926 543.274 385.926 546.359 391.098C549.999 399.986 549.665 408.653 545.359 417.098C539.481 422.621 532.648 426.454 524.859 428.598C515.352 432.085 505.686 432.752 495.859 430.598C489.14 427.668 484.307 422.835 481.359 416.098C476.944 398.493 480.778 382.993 492.859 369.598C497.348 365.692 502.348 362.858 507.859 361.098Z" fill="#CDCDCD"/>
<path fill-rule="evenodd" clip-rule="evenodd" d="M322.859 427.098C320.844 425.674 318.511 425.008 315.859 425.098C292.951 420.283 287.118 407.616 298.359 387.098C303.579 377.544 311.079 370.378 320.859 365.598C333.708 365.077 343.208 370.577 349.359 382.098C350.151 385.677 351.484 389.01 353.359 392.098C354.026 398.765 354.026 405.431 353.359 412.098C350.833 419.957 345.666 425.124 337.859 427.598C332.775 428.376 327.775 428.209 322.859 427.098Z" fill="#CDCDCD"/>
<path fill-rule="evenodd" clip-rule="evenodd" d="M485.86 415.098C484.245 405.67 484.578 396.336 486.86 387.098C491.395 372.698 501.062 365.532 515.86 365.598C524.137 368.543 530.637 373.71 535.36 381.098C541.164 387.875 544.664 395.708 545.86 404.598C545.011 410.296 542.344 414.963 537.86 418.598C525.566 424.923 512.566 427.923 498.86 427.598C492.703 425.274 488.37 421.107 485.86 415.098Z" fill="#CDCDCD"/>
<path opacity="0.122" fill-rule="evenodd" clip-rule="evenodd" d="M626.859 332.098C635.478 348.946 642.145 366.613 646.859 385.098C645.384 382.799 643.884 379.799 642.359 376.098C637.67 361.195 632.504 346.528 626.859 332.098Z" fill="#CDCDCD"/>
<path opacity="0.255" fill-rule="evenodd" clip-rule="evenodd" d="M214.859 349.098C209.279 364.922 204.279 380.922 199.859 397.098C199.526 397.098 199.192 397.098 198.859 397.098C202.056 380.277 207.389 364.277 214.859 349.098Z" fill="#CDCDCD"/>
<path fill-rule="evenodd" clip-rule="evenodd" d="M320.859 388.098C335.064 386.801 341.23 393.134 339.359 407.098C333.398 416.093 326.065 417.426 317.359 411.098C311.829 402.382 312.996 394.716 320.859 388.098Z" fill="#CDCDCD"/>
<path fill-rule="evenodd" clip-rule="evenodd" d="M504.859 388.098C520.006 387.061 525.84 393.727 522.359 408.098C518.704 414.668 513.204 416.835 505.859 414.598C498.931 410.323 496.431 404.157 498.359 396.098C500.36 393.267 502.526 390.601 504.859 388.098Z" fill="#CDCDCD"/>
<path opacity="0.631" fill-rule="evenodd" clip-rule="evenodd" d="M647.859 387.098C648.885 391.203 650.218 395.203 651.859 399.098C657.061 400.524 661.395 403.191 664.859 407.098C659.78 404.343 654.613 401.677 649.359 399.098C647.694 395.021 647.194 391.021 647.859 387.098Z" fill="#CDCDCD"/>
<path opacity="0.455" fill-rule="evenodd" clip-rule="evenodd" d="M198.859 397.098C199.192 397.098 199.526 397.098 199.859 397.098C199.848 398.615 199.182 399.782 197.859 400.598C191.243 402.422 185.909 405.922 181.859 411.098C181.859 410.765 181.859 410.431 181.859 410.098C182.973 408.713 183.973 407.213 184.859 405.598C189.456 402.475 194.122 399.641 198.859 397.098Z" fill="#CDCDCD"/>
<path fill-rule="evenodd" clip-rule="evenodd" d="M486.86 387.098C484.578 396.336 484.245 405.67 485.86 415.098C485.092 414.335 484.592 413.335 484.36 412.098C483.693 405.765 483.693 399.431 484.36 393.098C484.926 390.875 485.76 388.875 486.86 387.098Z" fill="#CDCDCD"/>
<path opacity="0.306" fill-rule="evenodd" clip-rule="evenodd" d="M665.859 409.098C668.608 411.595 670.608 414.595 671.859 418.098C669.118 415.623 667.118 412.623 665.859 409.098Z" fill="#CDCDCD"/>
<path fill-rule="evenodd" clip-rule="evenodd" d="M315.859 425.098C318.511 425.008 320.844 425.674 322.859 427.098C320.207 427.188 317.874 426.522 315.859 425.098Z" fill="#CDCDCD"/>
<path opacity="0.043" fill-rule="evenodd" clip-rule="evenodd" d="M181.859 410.098C181.859 410.431 181.859 410.765 181.859 411.098C178.692 415.593 176.692 420.593 175.859 426.098C175.192 426.765 174.526 427.431 173.859 428.098C174.418 421.063 177.084 415.063 181.859 410.098Z" fill="#CDCDCD"/>
<path opacity="0.773" fill-rule="evenodd" clip-rule="evenodd" d="M671.859 418.098C673.286 419.746 674.119 421.746 674.359 424.098C675.105 430.149 674.938 436.149 673.859 442.098C673.062 434.252 672.395 426.252 671.859 418.098Z" fill="#CDCDCD"/>
<path opacity="0.625" fill-rule="evenodd" clip-rule="evenodd" d="M175.859 426.098C175.734 431.801 176.067 437.468 176.859 443.098C174.812 443.087 172.812 442.754 170.859 442.098C165.66 443.035 160.994 445.035 156.859 448.098C161.319 442.189 167.152 440.189 174.359 442.098C173.981 437.518 173.814 432.852 173.859 428.098C174.526 427.431 175.192 426.765 175.859 426.098Z" fill="#CDCDCD"/>
<path fill-rule="evenodd" clip-rule="evenodd" d="M451.86 723.098C439.933 724.802 427.933 725.469 415.86 725.098C378.736 720.203 346.403 705.037 318.86 679.598C299.05 660.802 281.883 639.969 267.36 617.098C255.99 597.985 250.99 577.318 252.36 555.098C254.221 536.186 263.054 521.686 278.86 511.598C289.635 508.252 300.635 505.918 311.86 504.598C321.443 501.141 330.11 496.141 337.86 489.598C349.35 476.763 363.016 467.096 378.86 460.598C384.987 458.187 391.32 456.52 397.86 455.598C412.86 454.931 427.86 454.931 442.86 455.598C460.547 456.916 476.547 462.583 490.86 472.598C501.279 482.354 512.279 491.354 523.86 499.598C528.632 502.188 533.632 504.188 538.86 505.598C551.702 506.185 563.702 509.518 574.86 515.598C585.509 524.27 592.009 535.437 594.36 549.098C596.967 563.7 595.967 578.033 591.36 592.098C583.67 612.131 573.003 630.464 559.36 647.098C543.509 666.093 525.676 682.927 505.86 697.598C489.292 709.048 471.292 717.548 451.86 723.098Z" fill="#CDCDCD"/>
<path opacity="0.302" fill-rule="evenodd" clip-rule="evenodd" d="M153.859 452.098C153.199 456.086 151.532 459.419 148.859 462.098C149.337 459.681 150.337 457.514 151.859 455.598C151.005 453.813 151.672 452.647 153.859 452.098Z" fill="#CDCDCD"/>
<path fill-rule="evenodd" clip-rule="evenodd" d="M394.86 717.098C392.845 715.674 390.512 715.008 387.86 715.098C363.49 707.247 341.823 694.747 322.86 677.598C298.302 655.279 278.469 629.445 263.36 600.098C256.845 582.58 255.179 564.58 258.36 546.098C260.89 534.197 267.057 524.697 276.86 517.598C279.965 515.73 283.298 514.563 286.86 514.098C291.484 513.835 295.818 512.835 299.86 511.098C314.037 509.201 326.704 503.701 337.86 494.598C349.168 482.619 362.168 472.953 376.86 465.598C396.697 459.402 417.03 457.402 437.86 459.598C453.567 459.858 468.234 463.858 481.86 471.598C494.86 481.931 507.86 492.265 520.86 502.598C533.391 509.065 546.724 512.731 560.86 513.598C577.601 520.021 587.434 532.188 590.36 550.098C593.255 575.094 587.921 598.094 574.36 619.098C549.849 657.944 517.349 688.111 476.86 709.598C450.386 721.871 423.053 724.371 394.86 717.098Z" fill="#CDCDCD"/>
<path fill-rule="evenodd" clip-rule="evenodd" d="M691.859 457.098C693.35 459.784 694.016 462.784 693.859 466.098C693.854 468.294 693.521 470.294 692.859 472.098C692.946 467.061 692.613 462.061 691.859 457.098Z" fill="#CDCDCD"/>
<path opacity="0.948" fill-rule="evenodd" clip-rule="evenodd" d="M697.859 459.098C698.657 461.769 699.324 464.602 699.859 467.598C699.415 472.682 698.415 477.516 696.859 482.098C697.137 474.428 697.47 466.762 697.859 459.098Z" fill="#CDCDCD"/>
<path opacity="0.027" fill-rule="evenodd" clip-rule="evenodd" d="M152.859 483.098C152.859 484.431 152.859 485.765 152.859 487.098C150.784 483.124 149.784 478.79 149.859 474.098C149.71 473.046 149.876 472.046 150.359 471.098C150.548 475.365 151.382 479.365 152.859 483.098Z" fill="#CDCDCD"/>
<path opacity="0.012" fill-rule="evenodd" clip-rule="evenodd" d="M152.859 483.098C154.363 486.257 155.696 489.591 156.859 493.098C155.587 496.038 153.587 498.371 150.859 500.098C151.683 497.283 153.35 495.116 155.859 493.598C154.445 491.605 153.445 489.438 152.859 487.098C152.859 485.765 152.859 484.431 152.859 483.098Z" fill="#CDCDCD"/>
<path opacity="0.043" fill-rule="evenodd" clip-rule="evenodd" d="M694.859 488.098C694.887 490.18 694.22 492.014 692.859 493.598C695.816 495.727 697.816 498.56 698.859 502.098C696.376 499.443 694.043 496.61 691.859 493.598C692.499 491.478 693.499 489.644 694.859 488.098Z" fill="#CDCDCD"/>
<path fill-rule="evenodd" clip-rule="evenodd" d="M550.859 551.098C551.763 550.389 552.096 549.389 551.859 548.098C548.526 548.098 545.192 548.098 541.859 548.098C540.558 546.714 540.558 545.214 541.859 543.598C553.89 541.325 563.39 545.158 570.359 555.098C571.026 556.765 571.026 558.431 570.359 560.098C569.641 561.049 568.808 561.215 567.859 560.598C565.271 555.985 561.605 552.985 556.859 551.598C547.551 568.908 534.718 583.075 518.359 594.098C503.907 620.216 485.407 643.05 462.859 662.598C448.903 673.251 433.236 678.251 415.859 677.598C402.834 673.254 391.167 666.587 380.859 657.598C359.549 638.305 342.049 616.139 328.359 591.098C314.444 580.358 303.277 567.358 294.859 552.098C293.994 551.015 292.994 550.849 291.859 551.598C288.821 554.301 286.154 557.301 283.859 560.598C280.271 561.209 279.105 559.709 280.359 556.098C287.253 545.914 296.753 541.747 308.859 543.598C310.192 545.265 310.192 546.931 308.859 548.598C305.806 548.777 302.806 549.277 299.859 550.098C327.784 594.729 368.118 615.562 420.859 612.598C422.01 602.842 422.177 593.009 421.359 583.098C410.666 579.535 399.833 576.368 388.859 573.598C367.704 565.385 360.204 550.219 366.359 528.098C375.79 508.972 390.957 502.138 411.859 507.598C415.45 508.75 419.117 509.583 422.859 510.098C437.563 506.563 452.23 506.397 466.859 509.598C482.25 519.808 487.75 533.974 483.359 552.098C479.609 560.849 473.443 567.349 464.859 571.598C453.321 575.409 441.654 578.909 429.859 582.098C428.72 592.431 428.72 602.764 429.859 613.098C482.301 615.38 522.634 594.714 550.859 551.098Z" fill="#CDCDCD"/>
<path opacity="0.522" fill-rule="evenodd" clip-rule="evenodd" d="M698.859 502.098C699.581 502.516 700.081 503.182 700.359 504.098C701.026 509.098 701.026 514.098 700.359 519.098C699.976 519.654 699.476 519.987 698.859 520.098C700.085 514.119 700.085 508.119 698.859 502.098Z" fill="#CDCDCD"/>
<path fill-rule="evenodd" clip-rule="evenodd" d="M299.859 511.098C295.817 512.835 291.483 513.835 286.859 514.098C287.277 513.376 287.943 512.876 288.859 512.598C292.529 512.05 296.196 511.55 299.859 511.098Z" fill="#CDCDCD"/>
<path fill-rule="evenodd" clip-rule="evenodd" d="M476.859 528.098C478.46 534.309 479.127 540.642 478.859 547.098C477.049 556.415 471.716 562.915 462.859 566.598C450.05 570.509 437.217 574.342 424.359 578.098C409.817 574.806 395.65 570.306 381.859 564.598C373.941 559.43 369.941 552.096 369.859 542.598C369.382 528.207 375.715 518.207 388.859 512.598C400.949 511.294 412.783 512.46 424.359 516.098C435.588 512.427 447.088 511.261 458.859 512.598C467.17 515.075 473.17 520.242 476.859 528.098Z" fill="#CDCDCD"/>
<path opacity="0.01" fill-rule="evenodd" clip-rule="evenodd" d="M148.86 516.098C150.098 517.812 150.765 519.812 150.86 522.098C149.08 520.608 148.414 518.608 148.86 516.098Z" fill="#CDCDCD"/>
<path opacity="0.114" fill-rule="evenodd" clip-rule="evenodd" d="M150.859 522.098C151.697 522.44 152.031 523.106 151.859 524.098C149.661 524.189 149.328 523.523 150.859 522.098Z" fill="#CDCDCD"/>
<path opacity="0.098" fill-rule="evenodd" clip-rule="evenodd" d="M153.859 528.098C155.621 528.86 156.621 530.194 156.859 532.098C155.097 531.336 154.097 530.002 153.859 528.098Z" fill="#CDCDCD"/>
<path opacity="0.749" fill-rule="evenodd" clip-rule="evenodd" d="M156.859 532.098C159.526 532.765 161.192 534.431 161.859 537.098C159.859 535.765 158.192 534.098 156.859 532.098Z" fill="#CDCDCD"/>
<path fill-rule="evenodd" clip-rule="evenodd" d="M476.859 528.098C479.867 534.207 480.533 540.54 478.859 547.098C479.127 540.642 478.46 534.309 476.859 528.098Z" fill="#CDCDCD"/>
<path fill-rule="evenodd" clip-rule="evenodd" d="M541.859 548.098C545.192 548.098 548.526 548.098 551.859 548.098C552.096 549.389 551.763 550.389 550.859 551.098C548.156 549.488 545.156 548.488 541.859 548.098Z" fill="#CDCDCD"/>
<path opacity="0.047" fill-rule="evenodd" clip-rule="evenodd" d="M682.859 541.098C680.793 560.748 674.46 578.748 663.859 595.098C667.049 587.044 670.549 579.044 674.359 571.098C677.253 560.82 680.086 550.82 682.859 541.098Z" fill="#CDCDCD"/>
<path opacity="0.157" fill-rule="evenodd" clip-rule="evenodd" d="M165.859 540.098C166.476 540.209 166.976 540.542 167.359 541.098C169.405 554.568 173.072 567.568 178.359 580.098C184.63 592.312 191.13 604.312 197.859 616.098C185.251 599.555 175.751 581.221 169.359 561.098C167.222 554.249 166.056 547.249 165.859 540.098Z" fill="#CDCDCD"/>
<path fill-rule="evenodd" clip-rule="evenodd" d="M399.859 643.098C394.886 640.838 389.553 639.838 383.859 640.098C382.75 640.041 381.75 639.708 380.859 639.098C378.844 637.674 376.511 637.008 373.859 637.098C367.455 635.197 362.289 631.531 358.359 626.098C350.977 616.865 344.477 607.532 338.859 598.098C353.898 607.955 370.232 614.455 387.859 617.598C394.501 618.429 401.168 618.929 407.859 619.098C426.205 619.204 444.538 618.704 462.859 617.598C478.017 614.684 492.35 609.518 505.859 602.098C506.88 602.6 507.047 603.266 506.359 604.098C499.8 614.046 492.633 623.546 484.859 632.598C457.691 645.229 429.357 648.729 399.859 643.098Z" fill="#CDCDCD"/>
<path opacity="0.112" fill-rule="evenodd" clip-rule="evenodd" d="M197.859 616.098C201.596 619.9 204.596 624.233 206.859 629.098C203.122 625.296 200.122 620.963 197.859 616.098Z" fill="#CDCDCD"/>
<path opacity="0.016" fill-rule="evenodd" clip-rule="evenodd" d="M663.859 595.098C660.558 602.364 656.725 609.364 652.359 616.098C649.709 620.573 646.542 624.573 642.859 628.098C649.472 616.825 656.472 605.825 663.859 595.098Z" fill="#CDCDCD"/>
<path opacity="0.016" fill-rule="evenodd" clip-rule="evenodd" d="M210.859 634.098C212.621 634.86 213.621 636.194 213.859 638.098C212.097 637.336 211.097 636.002 210.859 634.098Z" fill="#CDCDCD"/>
<path fill-rule="evenodd" clip-rule="evenodd" d="M373.859 637.098C376.511 637.008 378.844 637.674 380.859 639.098C378.207 639.188 375.874 638.522 373.859 637.098Z" fill="#CDCDCD"/>
<path fill-rule="evenodd" clip-rule="evenodd" d="M415.859 650.098C424.015 651.255 432.349 651.421 440.859 650.598C443.816 650.319 446.482 649.485 448.859 648.098C459.933 645.983 470.933 643.816 481.859 641.598C468.382 656.662 452.049 667.162 432.859 673.098C427.183 673.264 421.516 673.097 415.859 672.598C413.006 671.168 410.006 670.335 406.859 670.098C392.56 663.484 380.56 653.818 370.859 641.098C371.359 640.765 371.859 640.431 372.359 640.098C386.228 645.907 400.728 649.24 415.859 650.098Z" fill="#CDCDCD"/>
<path fill-rule="evenodd" clip-rule="evenodd" d="M383.859 640.098C389.553 639.838 394.886 640.838 399.859 643.098C394.298 642.642 388.965 641.642 383.859 640.098Z" fill="#CDCDCD"/>
<path opacity="0.537" fill-rule="evenodd" clip-rule="evenodd" d="M213.859 638.098C217.004 641.058 219.671 644.391 221.859 648.098C218.233 645.503 215.567 642.17 213.859 638.098Z" fill="#CDCDCD"/>
<path fill-rule="evenodd" clip-rule="evenodd" d="M448.859 648.098C446.482 649.485 443.816 650.319 440.859 650.598C432.349 651.421 424.015 651.255 415.859 650.098C426.933 650.428 437.933 649.761 448.859 648.098Z" fill="#CDCDCD"/>
<path opacity="0.592" fill-rule="evenodd" clip-rule="evenodd" d="M221.859 648.098C224.549 649.791 226.549 652.125 227.859 655.098C225.14 653.379 223.14 651.045 221.859 648.098Z" fill="#CDCDCD"/>
<path opacity="0.047" fill-rule="evenodd" clip-rule="evenodd" d="M227.859 656.098C234.526 660.765 240.192 666.431 244.859 673.098C238.859 667.765 233.192 662.098 227.859 656.098Z" fill="#CDCDCD"/>
<path opacity="0.063" fill-rule="evenodd" clip-rule="evenodd" d="M616.859 660.098C615.859 661.765 614.526 663.098 612.859 664.098C613.39 662.054 614.557 660.387 616.359 659.098C616.758 659.326 616.924 659.66 616.859 660.098Z" fill="#CDCDCD"/>
<path fill-rule="evenodd" clip-rule="evenodd" d="M406.859 670.098C410.006 670.335 413.006 671.168 415.859 672.598C421.516 673.097 427.183 673.264 432.859 673.098C427.04 674.251 421.04 674.417 414.859 673.598C411.883 672.893 409.217 671.727 406.859 670.098Z" fill="#CDCDCD"/>
<path opacity="0.059" fill-rule="evenodd" clip-rule="evenodd" d="M609.859 667.098C606.464 671.496 602.464 675.162 597.859 678.098C601.254 673.7 605.254 670.034 609.859 667.098Z" fill="#CDCDCD"/>
<path opacity="0.596" fill-rule="evenodd" clip-rule="evenodd" d="M284.859 705.098C279.155 702.24 273.822 698.74 268.859 694.598C261.265 688.316 253.932 681.816 246.859 675.098C246.794 674.66 246.96 674.326 247.359 674.098C259.757 684.673 272.257 695.006 284.859 705.098Z" fill="#CDCDCD"/>
<path opacity="0.188" fill-rule="evenodd" clip-rule="evenodd" d="M289.859 709.098C288.487 708.086 287.154 707.086 285.859 706.098C288.084 705.266 289.417 706.266 289.859 709.098Z" fill="#CDCDCD"/>
<path opacity="0.024" fill-rule="evenodd" clip-rule="evenodd" d="M310.859 721.098C303.521 718.101 296.854 714.101 290.859 709.098C290.794 708.66 290.96 708.326 291.359 708.098C298.248 712.106 304.748 716.439 310.859 721.098Z" fill="#CDCDCD"/>
<path fill-rule="evenodd" clip-rule="evenodd" d="M387.859 715.098C390.511 715.008 392.844 715.674 394.859 717.098C392.207 717.188 389.874 716.522 387.859 715.098Z" fill="#CDCDCD"/>
<path opacity="0.341" fill-rule="evenodd" clip-rule="evenodd" d="M346.86 737.098C334.614 733.46 322.947 728.46 311.86 722.098C311.729 721.359 311.896 720.692 312.36 720.098C318.305 723.152 324.138 726.319 329.86 729.598C335.395 730.484 340.561 732.317 345.36 735.098C346.39 735.434 346.89 736.101 346.86 737.098Z" fill="#CDCDCD"/>
<path opacity="0.194" fill-rule="evenodd" clip-rule="evenodd" d="M587.859 687.098C564.087 707.662 537.42 723.662 507.859 735.098C507.773 734.102 508.107 733.269 508.859 732.598C518.122 728.639 527.455 724.639 536.859 720.598C554.601 710.405 571.601 699.238 587.859 687.098Z" fill="#CDCDCD"/>
<path fill-rule="evenodd" clip-rule="evenodd" d="M451.859 723.098C448.825 724.616 445.492 725.449 441.859 725.598C433.016 726.422 424.349 726.255 415.859 725.098C427.932 725.469 439.932 724.802 451.859 723.098Z" fill="#CDCDCD"/>
<path opacity="0.128" fill-rule="evenodd" clip-rule="evenodd" d="M382.859 747.098C370.984 744.879 359.317 741.879 347.859 738.098C347.979 737.012 348.646 736.345 349.859 736.098C360.266 739.867 370.933 742.7 381.859 744.598C382.611 745.269 382.945 746.102 382.859 747.098Z" fill="#CDCDCD"/>
<path fill-rule="evenodd" clip-rule="evenodd" d="M398.859 742.098C412.174 742.931 425.508 743.264 438.859 743.098C433.536 743.764 428.036 744.097 422.359 744.098C414.299 744.291 406.466 743.625 398.859 742.098Z" fill="#CDCDCD"/>
<path opacity="0.875" fill-rule="evenodd" clip-rule="evenodd" d="M384.859 747.098C387.663 745.96 390.663 745.793 393.859 746.598C394.415 746.981 394.748 747.481 394.859 748.098C391.457 748.256 388.123 747.922 384.859 747.098Z" fill="#CDCDCD"/>
<g filter="url(#filter0_d_5317_2)">
<path d="M403.797 529.666V527.507C403.948 513.416 405.35 502.204 408.001 493.871C410.729 485.538 414.592 478.795 419.592 473.644C424.592 468.492 430.615 463.795 437.661 459.553C442.206 456.674 446.297 453.454 449.933 449.894C453.57 446.333 456.448 442.242 458.57 437.621C460.691 433 461.751 427.886 461.751 422.28C461.751 415.538 460.161 409.704 456.979 404.78C453.797 399.856 449.554 396.068 444.251 393.416C439.024 390.689 433.191 389.325 426.751 389.325C420.918 389.325 415.35 390.538 410.047 392.962C404.744 395.386 400.35 399.174 396.865 404.325C393.38 409.401 391.373 415.954 390.842 423.985H356.297C356.827 410.348 360.274 398.833 366.638 389.439C373.001 379.969 381.411 372.81 391.865 367.962C402.395 363.113 414.024 360.689 426.751 360.689C440.691 360.689 452.888 363.303 463.342 368.53C473.797 373.681 481.903 380.916 487.661 390.235C493.494 399.477 496.411 410.272 496.411 422.621C496.411 431.106 495.085 438.757 492.433 445.575C489.782 452.318 485.994 458.341 481.07 463.644C476.221 468.947 470.388 473.644 463.57 477.735C457.13 481.75 451.903 485.916 447.888 490.235C443.948 494.553 441.07 499.666 439.251 505.575C437.433 511.485 436.448 518.795 436.297 527.507V529.666H403.797ZM420.956 598.757C414.744 598.757 409.403 596.56 404.933 592.166C400.464 587.697 398.229 582.318 398.229 576.03C398.229 569.818 400.464 564.515 404.933 560.121C409.403 555.651 414.744 553.416 420.956 553.416C427.092 553.416 432.395 555.651 436.865 560.121C441.411 564.515 443.683 569.818 443.683 576.03C443.683 580.197 442.623 584.022 440.501 587.507C438.456 590.916 435.729 593.644 432.32 595.689C428.911 597.735 425.123 598.757 420.956 598.757Z" fill="black"/>
</g>
</g>
<defs>
<filter id="filter0_d_5317_2" x="256.297" y="260.689" width="340.114" height="438.068" filterUnits="userSpaceOnUse" color-interpolation-filters="sRGB">
<feFlood flood-opacity="0" result="BackgroundImageFix"/>
<feColorMatrix in="SourceAlpha" type="matrix" values="0 0 0 0 0 0 0 0 0 0 0 0 0 0 0 0 0 0 127 0" result="hardAlpha"/>
<feOffset/>
<feGaussianBlur stdDeviation="50"/>
<feComposite in2="hardAlpha" operator="out"/>
<feColorMatrix type="matrix" values="0 0 0 0 1 0 0 0 0 1 0 0 0 0 1 0 0 0 1 0"/>
<feBlend mode="normal" in2="BackgroundImageFix" result="effect1_dropShadow_5317_2"/>
<feBlend mode="normal" in="SourceGraphic" in2="effect1_dropShadow_5317_2" result="shape"/>
</filter>
<clipPath id="clip0_5317_2">
<rect width="553" height="621" fill="white" transform="translate(148 130)"/>
</clipPath>
</defs>
</svg>
