<svg width="553" height="621" viewBox="0 0 553 621" fill="none" xmlns="http://www.w3.org/2000/svg">
<g clip-path="url(#clip0_3195_358)">
<path opacity="0.96" fill-rule="evenodd" clip-rule="evenodd" d="M97.4999 0.499923C105.5 0.499923 113.5 0.499923 121.5 0.499923C122.995 2.34492 124.662 2.67792 126.5 1.49992C128.965 1.76692 131.299 2.43392 133.5 3.49992C135.843 5.86792 138.509 8.03492 141.5 9.99992C142.437 10.6919 143.103 10.5249 143.5 9.49992C144.167 9.49992 144.5 9.83292 144.5 10.4999C144.369 11.2389 144.536 11.9059 145 12.4999C149.046 15.7209 152.879 19.0539 156.5 22.4999C156.845 25.1979 158.178 27.1979 160.5 28.4999C161.338 28.8419 161.672 29.5079 161.5 30.4999C161.427 32.0269 162.094 33.0269 163.5 33.4999C163.166 36.4909 164.166 38.8239 166.5 40.4999C166.166 43.4909 167.166 45.8239 169.5 47.4999C171.812 56.5549 173.812 65.7219 175.5 74.9999C177.658 76.4339 178.991 75.5999 179.5 72.4999C201.741 59.5709 223.741 47.0709 245.5 34.9999C257.171 26.1439 264.671 14.6439 268 0.499923C269.492 2.13392 270.992 3.79992 272.5 5.49992C272.291 6.08592 271.957 6.58592 271.5 6.99992C273.737 12.9199 275.07 19.0859 275.5 25.4999C274.56 28.1319 274.393 30.7979 275 33.4999C276.457 31.3419 278.29 29.5089 280.5 27.9999C296.946 18.3949 314.279 16.3949 332.5 21.9999C333.337 23.0109 333.67 24.1779 333.5 25.4999C325.363 27.2349 318.363 31.0689 312.5 36.9999C316.671 36.9579 320.837 36.4579 325 35.4999C331.259 36.6059 337.425 38.1059 343.5 39.9999C349.477 44.3009 355.477 48.6349 361.5 52.9999C362.337 54.0109 362.67 55.1779 362.5 56.4999C358.901 55.3009 355.235 54.3009 351.5 53.4999C344.927 50.9209 338.26 51.0879 331.5 53.9999C340.854 56.5739 349.854 59.2399 358.5 61.9999C359.833 62.6669 359.833 63.3329 358.5 63.9999C357.167 64.3329 355.833 64.6669 354.5 64.9999C355.416 65.2779 356.082 65.7779 356.5 66.4999C361.895 70.5309 367.895 73.5309 374.5 75.4999C375.209 76.4039 376.209 76.7369 377.5 76.4999C377.5 74.1669 377.5 71.8329 377.5 69.4999C379.598 61.9709 381.598 54.3039 383.5 46.4999C385.655 44.3829 386.655 41.7159 386.5 38.4999C386.66 36.8469 387.326 35.5139 388.5 34.4999C390.408 33.5139 391.408 31.8479 391.5 29.4999C396.16 23.8389 400.827 18.1719 405.5 12.4999C405.5 11.8329 405.833 11.4999 406.5 11.4999C406.435 11.9379 406.601 12.2719 407 12.4999C409.748 10.5419 412.582 8.70892 415.5 6.99992C416.252 6.32892 416.586 5.49592 416.5 4.49992C418.421 3.63692 420.421 2.97092 422.5 2.49992C422.56 3.04292 422.893 3.37592 423.5 3.49992C426.954 2.48692 430.287 1.48692 433.5 0.499923C444.198 0.262923 454.865 0.595923 465.5 1.49992C465.937 3.07392 466.937 4.24092 468.5 4.99992C473.372 6.10292 478.038 7.76992 482.5 9.99992C490.939 14.6279 498.939 19.7949 506.5 25.4999C514.854 32.3729 521.188 40.3729 525.5 49.4999C526.653 53.1399 528.32 56.4739 530.5 59.4999C530.552 62.3459 531.552 64.6799 533.5 66.4999C534.619 73.1959 535.952 79.8629 537.5 86.4999C537.747 87.7129 538.414 88.3799 539.5 88.4999C540.372 94.7889 540.705 101.122 540.5 107.5C539.883 107.611 539.383 107.944 539 108.5C537.932 114.476 537.099 120.476 536.5 126.5C536.737 127.791 536.404 128.791 535.5 129.5C533.733 131.792 532.733 134.458 532.5 137.5C530.326 140.515 528.659 143.849 527.5 147.5C525.6 151.732 522.933 155.399 519.5 158.5C518.167 159.167 517.167 160.167 516.5 161.5C515.167 163.5 513.5 165.167 511.5 166.5C507.388 168.728 503.388 171.228 499.5 174C495.539 175.598 491.539 177.098 487.5 178.5C486.702 178.957 486.369 179.624 486.5 180.5C482.658 182.002 478.658 182.668 474.5 182.5C472.012 180.612 469.012 179.945 465.5 180.5C465.273 182.933 466.273 184.599 468.5 185.5C470.25 186.659 471.25 188.326 471.5 190.5C473.043 195.024 475.377 199.024 478.5 202.5C484.145 216.93 489.311 231.597 494 246.5C495.525 250.201 497.025 253.201 498.5 255.5C499.338 255.842 499.672 256.508 499.5 257.5C498.835 261.423 499.335 265.423 501 269.5C506.254 272.079 511.421 274.745 516.5 277.5C517.338 277.842 517.672 278.508 517.5 279.5C518.759 283.025 520.759 286.025 523.5 288.5C524.036 296.654 524.703 304.654 525.5 312.5C538.412 311.062 546.412 316.729 549.5 329.5C549.111 337.164 548.778 344.83 548.5 352.5C548.405 354.786 547.738 356.786 546.5 358.5C545.14 360.046 544.14 361.88 543.5 364C545.684 367.012 548.017 369.845 550.5 372.5C551.726 378.521 551.726 384.521 550.5 390.5C547.824 399.516 542.491 406.516 534.5 411.5C531.727 421.222 528.894 431.222 526 441.5C522.19 449.446 518.69 457.446 515.5 465.5C508.113 476.227 501.113 487.227 494.5 498.5C486.963 510.042 478.296 520.709 468.5 530.5C468.565 530.062 468.399 529.728 468 529.5C466.198 530.789 465.031 532.456 464.5 534.5C463.833 535.833 462.833 536.833 461.5 537.5C456.895 540.436 452.895 544.102 449.5 548.5C446.789 552.212 443.456 555.212 439.5 557.5C423.242 569.64 406.242 580.807 388.5 591C379.096 595.041 369.763 599.041 360.5 603C359.748 603.671 359.414 604.504 359.5 605.5C322.854 619.178 285.187 623.512 246.5 618.5C246.389 617.883 246.056 617.383 245.5 617C242.304 616.195 239.304 616.362 236.5 617.5C235.833 617.5 235.167 617.5 234.5 617.5C234.586 616.504 234.252 615.671 233.5 615C222.574 613.102 211.907 610.269 201.5 606.5C200.287 606.747 199.62 607.414 199.5 608.5C198.833 608.5 198.5 608.167 198.5 607.5C198.53 606.503 198.03 605.836 197 605.5C192.201 602.719 187.035 600.886 181.5 600C175.778 596.721 169.945 593.554 164 590.5C163.536 591.094 163.369 591.761 163.5 592.5C162.833 592.5 162.5 592.167 162.5 591.5C156.389 586.841 149.889 582.508 143 578.5C142.601 578.728 142.435 579.062 142.5 579.5C142.167 579.5 141.833 579.5 141.5 579.5C141.058 576.668 139.725 575.668 137.5 576.5C136.833 576.5 136.5 576.167 136.5 575.5C123.898 565.408 111.398 555.075 98.9999 544.5C98.6009 544.728 98.4349 545.062 98.4999 545.5C97.4999 545.167 96.8329 544.5 96.4999 543.5C91.8329 536.833 86.1669 531.167 79.4999 526.5C79.4999 526.167 79.4999 525.833 79.4999 525.5C78.1899 522.527 76.1899 520.193 73.4999 518.5C71.3119 514.793 68.6449 511.46 65.4999 508.5C65.2619 506.596 64.2619 505.262 62.4999 504.5C60.4129 503.415 59.0799 501.749 58.4999 499.5C56.2369 494.635 53.2369 490.302 49.4999 486.5C42.7709 474.714 36.2709 462.714 29.9999 450.5C24.7129 437.97 21.0459 424.97 18.9999 411.5C18.6169 410.944 18.1169 410.611 17.4999 410.5C15.7699 409.974 14.4359 408.974 13.4999 407.5C12.8329 404.833 11.1669 403.167 8.49986 402.5C8.26186 400.596 7.26186 399.262 5.49986 398.5C4.32586 397.486 3.65986 396.153 3.49986 394.5C3.67186 393.508 3.33786 392.842 2.49986 392.5C2.40486 390.214 1.73786 388.214 0.499855 386.5C-0.443145 383.292 -0.610145 379.626 -0.000144601 375.5C0.373855 373.509 1.20686 371.842 2.49986 370.5C5.22786 368.773 7.22786 366.44 8.49986 363.5C7.33685 359.993 6.00386 356.659 4.49986 353.5C3.02286 349.767 2.18886 345.767 1.99986 341.5C1.51686 342.448 1.35086 343.448 1.49986 344.5C0.516855 340.702 0.182855 336.702 0.499855 332.5C3.17286 329.821 4.83986 326.488 5.49986 322.5C5.55386 320.368 6.55385 319.035 8.49986 318.5C12.6349 315.437 17.3009 313.437 22.4999 312.5C24.4529 313.156 26.4529 313.489 28.4999 313.5C27.7079 307.87 27.3749 302.203 27.4999 296.5C28.3329 290.995 30.3329 285.995 33.4999 281.5C37.5499 276.324 42.8839 272.824 49.4999 271C50.8229 270.184 51.4889 269.017 51.4999 267.5C55.9199 251.324 60.9199 235.324 66.4999 219.5C68.3689 215.434 70.5359 211.434 72.9999 207.5C73.4899 206.207 73.6569 204.873 73.4999 203.5C74.3759 203.631 75.0429 203.298 75.4999 202.5C76.5129 199.812 77.5129 197.146 78.4999 194.5C80.1039 193.713 80.7709 192.38 80.4999 190.5C82.8219 189.198 84.1549 187.198 84.4999 184.5C86.1039 183.713 86.7709 182.38 86.4999 180.5C79.2129 180.931 72.0459 180.264 64.9999 178.5C64.2349 178.57 63.7349 178.903 63.4999 179.5C63.1669 179.5 62.8329 179.5 62.4999 179.5C59.1569 176.495 55.1569 174.495 50.4999 173.5C48.9729 173.573 47.9729 172.906 47.4999 171.5C39.7979 164.799 32.7979 157.466 26.4999 149.5C24.6379 146.552 22.9709 143.552 21.4999 140.5C18.6839 132.221 16.1839 123.888 13.9999 115.5C13.6899 103.979 13.5229 92.6459 13.4999 81.4999C13.4999 81.1669 13.4999 80.8329 13.4999 80.4999C14.4959 80.5859 15.3289 80.2519 15.9999 79.4999C18.9859 66.2019 24.1529 53.8679 31.4999 42.4999C37.7689 34.8929 44.4359 27.5599 51.4999 20.4999C51.4999 19.8329 51.8329 19.4999 52.4999 19.4999C60.6399 14.9289 68.9739 10.5949 77.4999 6.49992C78.2979 6.04292 78.6309 5.37592 78.4999 4.49992C78.8329 4.49992 79.1669 4.49992 79.4999 4.49992C79.5599 5.04292 79.8929 5.37592 80.4999 5.49992C82.2949 4.73492 84.1279 4.06792 85.9999 3.49992C87.0299 3.16392 87.5299 2.49692 87.4999 1.49992C88.1669 1.49992 88.8329 1.49992 89.4999 1.49992C89.7349 2.09692 90.2349 2.42992 90.9999 2.49992C93.3459 2.00992 95.5129 1.34292 97.4999 0.499923Z" fill="#CDCDCD"/>
<path opacity="0.69" fill-rule="evenodd" clip-rule="evenodd" d="M97.5 0.49995C95.513 1.34295 93.346 2.00995 91 2.49995C90.235 2.42995 89.735 2.09695 89.5 1.49995C92.054 0.61195 94.721 0.27895 97.5 0.49995Z" fill="#CDCDCD"/>
<path opacity="0.796" fill-rule="evenodd" clip-rule="evenodd" d="M121.5 0.499885C123.415 0.215885 125.081 0.548885 126.5 1.49989C124.662 2.67789 122.995 2.34489 121.5 0.499885Z" fill="#CDCDCD"/>
<path opacity="0.498" fill-rule="evenodd" clip-rule="evenodd" d="M87.5 1.5C87.53 2.497 87.03 3.164 86 3.5C84.128 4.068 82.295 4.735 80.5 5.5C79.893 5.376 79.56 5.043 79.5 4.5C82.053 3.195 84.72 2.195 87.5 1.5Z" fill="#CDCDCD"/>
<path opacity="0.643" fill-rule="evenodd" clip-rule="evenodd" d="M433.5 0.499986C430.287 1.48699 426.954 2.48699 423.5 3.49999C422.893 3.37599 422.56 3.04299 422.5 2.49999C425.876 0.917986 429.542 0.250986 433.5 0.499986Z" fill="#CDCDCD"/>
<path opacity="0.176" fill-rule="evenodd" clip-rule="evenodd" d="M133.5 3.5C137.201 5.012 140.534 7.012 143.5 9.5C143.103 10.525 142.437 10.692 141.5 10C138.509 8.035 135.843 5.868 133.5 3.5Z" fill="#CDCDCD"/>
<path opacity="0.227" fill-rule="evenodd" clip-rule="evenodd" d="M416.5 4.5C416.586 5.496 416.252 6.329 415.5 7C412.582 8.709 409.748 10.542 407 12.5C406.601 12.272 406.435 11.938 406.5 11.5C409.446 8.687 412.779 6.354 416.5 4.5Z" fill="#CDCDCD"/>
<path fill-rule="evenodd" clip-rule="evenodd" d="M252.5 57.4998C266.089 55.6298 279.756 54.6298 293.5 54.4998C302.398 55.8508 311.064 58.3508 319.5 61.9998C326.902 63.3498 334.235 65.0168 341.5 66.9998C353.921 72.5348 366.254 78.3688 378.5 84.4998C379.442 84.3918 380.275 84.0588 381 83.4998C382.163 62.6778 388.496 43.6778 400 26.4998C415.955 7.45978 436.122 0.959785 460.5 6.99979C505.214 21.2508 529.881 51.7508 534.5 98.4998C534.503 129.339 521.836 153.173 496.5 170C487.865 173.712 478.865 175.879 469.5 176.5C465.8 176.139 462.133 175.973 458.5 176C457.941 176.725 457.608 177.558 457.5 178.5C476.45 206.491 489.283 237.158 496 270.5C497.141 272.609 498.641 274.442 500.5 276C504.21 276.373 507.544 277.707 510.5 280C514.288 284.406 517.455 289.239 520 294.5C520.667 300.167 520.667 305.833 520 311.5C518.496 315.586 517.162 319.586 516 323.5C516.725 324.059 517.558 324.392 518.5 324.5C527.937 314.679 536.27 315.679 543.5 327.5C544.254 332.463 544.587 337.463 544.5 342.5C543.724 350.665 540.891 357.998 536 364.5C535.506 366.134 535.34 367.801 535.5 369.5C537.527 369.338 539.527 369.505 541.5 370C543 371.5 544.5 373 546 374.5C547.514 389.138 541.847 400.138 529 407.5C526.44 427.514 520.107 446.181 510 463.5C472.584 530.586 417.75 577.086 345.5 603C327.698 609.185 309.364 612.685 290.5 613.5C277.149 613.666 263.815 613.333 250.5 612.5C209.674 607.463 172.341 593.297 138.5 570C86.7016 533.878 49.5346 486.378 26.9996 427.5C25.3406 420.896 24.0076 414.23 22.9996 407.5C16.2386 402.741 10.9056 396.741 6.99963 389.5C4.05363 382.114 5.22063 375.614 10.4996 370C12.4996 369.667 14.4996 369.333 16.4996 369C17.0216 368.439 17.3546 367.772 17.4996 367C8.95363 355.6 5.78663 342.766 7.99963 328.5C14.8276 316.766 23.3276 315.433 33.4996 324.5C34.4776 324.023 35.3106 323.357 35.9996 322.5C34.7726 318.325 33.7726 313.992 32.9996 309.5C30.2746 297.461 33.4416 287.294 42.4996 279C47.7276 277.743 52.2276 275.243 55.9996 271.5C62.6036 237.634 75.7706 206.634 95.4996 178.5C94.6626 176.495 93.1626 175.495 90.9996 175.5C62.6966 177.846 41.6966 166.513 27.9996 141.5C22.9746 132.059 19.8076 122.059 18.4996 111.5C18.5046 101.448 19.1716 91.4478 20.4996 81.4998C30.7936 40.7068 56.4596 15.5398 97.4996 5.99979C131.208 3.35379 153.541 18.0198 164.5 49.9998C168.279 61.7708 170.612 73.7708 171.5 85.9998C172.833 86.6668 174.167 86.6668 175.5 85.9998C183.593 77.2358 193.26 70.9028 204.5 66.9998C220.436 63.2898 236.436 60.1228 252.5 57.4998Z" fill="#CDCDCD"/>
<path opacity="0.4" fill-rule="evenodd" clip-rule="evenodd" d="M78.5 4.5C78.631 5.376 78.298 6.043 77.5 6.5C68.974 10.595 60.64 14.929 52.5 19.5C60.182 12.986 68.849 7.986 78.5 4.5Z" fill="#CDCDCD"/>
<path opacity="0.392" fill-rule="evenodd" clip-rule="evenodd" d="M144.5 10.5C149.5 13.5 153.5 17.5 156.5 22.5C152.879 19.054 149.046 15.721 145 12.5C144.536 11.906 144.369 11.239 144.5 10.5Z" fill="#CDCDCD"/>
<path opacity="0.702" fill-rule="evenodd" clip-rule="evenodd" d="M405.5 12.5C400.827 18.172 396.16 23.839 391.5 29.5C394.662 22.664 399.329 16.997 405.5 12.5Z" fill="#CDCDCD"/>
<path opacity="0.416" fill-rule="evenodd" clip-rule="evenodd" d="M465.5 1.5C481.242 6.196 494.909 14.196 506.5 25.5C498.939 19.795 490.939 14.628 482.5 10C478.038 7.77 473.372 6.103 468.5 5C466.937 4.241 465.937 3.074 465.5 1.5Z" fill="#CDCDCD"/>
<path opacity="0.322" fill-rule="evenodd" clip-rule="evenodd" d="M156.5 22.5C158.326 24.147 159.66 26.147 160.5 28.5C158.178 27.198 156.845 25.198 156.5 22.5Z" fill="#CDCDCD"/>
<path opacity="0.576" fill-rule="evenodd" clip-rule="evenodd" d="M51.5 20.5C44.436 27.56 37.769 34.893 31.5 42.5C31.5 42.167 31.5 41.833 31.5 41.5C34.398 36.428 37.898 31.761 42 27.5C45.063 24.924 48.229 22.591 51.5 20.5Z" fill="#CDCDCD"/>
<path opacity="0.22" fill-rule="evenodd" clip-rule="evenodd" d="M161.5 30.5C162.906 30.973 163.573 31.973 163.5 33.5C162.094 33.027 161.427 32.027 161.5 30.5Z" fill="#CDCDCD"/>
<path opacity="0.867" fill-rule="evenodd" clip-rule="evenodd" d="M391.5 29.5C391.408 31.848 390.408 33.514 388.5 34.5C388.75 32.326 389.75 30.659 391.5 29.5Z" fill="#CDCDCD"/>
<path opacity="0.816" fill-rule="evenodd" clip-rule="evenodd" d="M163.5 33.5C165.065 35.509 166.065 37.843 166.5 40.5C164.166 38.824 163.166 36.491 163.5 33.5Z" fill="#CDCDCD"/>
<path opacity="0.827" fill-rule="evenodd" clip-rule="evenodd" d="M386.5 38.5C386.655 41.716 385.655 44.383 383.5 46.5C383.98 43.557 384.98 40.89 386.5 38.5Z" fill="#CDCDCD"/>
<path opacity="0.702" fill-rule="evenodd" clip-rule="evenodd" d="M166.5 40.5C168.065 42.509 169.065 44.843 169.5 47.5C167.166 45.824 166.166 43.491 166.5 40.5Z" fill="#CDCDCD"/>
<path fill-rule="evenodd" clip-rule="evenodd" d="M448.5 47.4998C442.677 47.1228 437.011 47.7898 431.5 49.4998C432.347 48.0338 433.68 47.1998 435.5 46.9998C440.02 46.1858 444.354 46.3528 448.5 47.4998Z" fill="#CDCDCD"/>
<path fill-rule="evenodd" clip-rule="evenodd" d="M448.5 47.4998C482.875 57.2598 498.709 79.9268 496 115.5C488.49 141.349 471.324 153.516 444.5 152C437.746 147.913 432.246 142.413 428 135.5C422 129.5 416 123.5 410 117.5C398.558 94.1598 402.058 73.3258 420.5 54.9998C423.642 52.0958 427.309 50.2618 431.5 49.4998C437.011 47.7898 442.677 47.1228 448.5 47.4998Z" fill="#CDCDCD"/>
<path fill-rule="evenodd" clip-rule="evenodd" d="M106.5 151.5C100.131 151.653 93.7971 151.32 87.5002 150.5C70.5912 144.733 60.0912 133.066 56.0002 115.5C53.6402 83.0548 67.4731 60.5548 97.5001 47.9998C122.218 44.4558 138.718 54.6228 147 78.4998C150.044 91.6818 148.71 104.348 143 116.5C132.391 126.104 122.891 136.604 114.5 148C111.924 149.456 109.258 150.623 106.5 151.5Z" fill="#CDCDCD"/>
<path fill-rule="evenodd" clip-rule="evenodd" d="M116.5 53.5C110.464 53.36 104.464 53.693 98.5 54.5C101.695 52.97 105.195 52.304 109 52.5C111.69 52.503 114.19 52.836 116.5 53.5Z" fill="#CDCDCD"/>
<path opacity="0.01" fill-rule="evenodd" clip-rule="evenodd" d="M351.5 53.5C350.833 54.167 350.833 54.167 351.5 53.5V53.5Z" fill="#CDCDCD"/>
<path fill-rule="evenodd" clip-rule="evenodd" d="M448.5 53.4998C442.346 53.1778 436.346 53.8448 430.5 55.4998C431.842 54.2068 433.509 53.3738 435.5 52.9998C440.02 52.1858 444.354 52.3528 448.5 53.4998Z" fill="#CDCDCD"/>
<path opacity="0.133" fill-rule="evenodd" clip-rule="evenodd" d="M525.5 49.5C528.201 52.235 529.868 55.569 530.5 59.5C528.32 56.474 526.653 53.14 525.5 49.5Z" fill="#CDCDCD"/>
<path fill-rule="evenodd" clip-rule="evenodd" d="M116.5 53.4998C137.351 62.5908 146.185 78.5908 143 101.5C142.04 105.298 140.706 108.965 139 112.5C129.728 121.08 121.395 130.413 114 140.5C110.26 145.119 105.427 147.119 99.5002 146.5C78.8942 144.737 66.0612 133.737 61.0002 113.5C59.3652 84.7568 71.8652 65.0898 98.5002 54.4998C104.464 53.6928 110.464 53.3598 116.5 53.4998Z" fill="#CDCDCD"/>
<path fill-rule="evenodd" clip-rule="evenodd" d="M293.5 54.5C279.756 54.63 266.089 55.63 252.5 57.5C255.149 55.891 258.149 55.057 261.5 55C269.5 54.5 277.5 54 285.5 53.5C288.355 53.503 291.022 53.836 293.5 54.5Z" fill="#CDCDCD"/>
<path fill-rule="evenodd" clip-rule="evenodd" d="M448.5 53.4998C478.49 62.3188 492.657 82.3188 491 113.5C483.943 139.43 467.443 149.596 441.5 144C433.443 132.938 424.277 122.771 414 113.5C405.101 92.8688 408.601 74.7028 424.5 58.9998C426.405 57.5788 428.405 56.4118 430.5 55.4998C436.346 53.8448 442.346 53.1778 448.5 53.4998Z" fill="#CDCDCD"/>
<path opacity="0.482" fill-rule="evenodd" clip-rule="evenodd" d="M383.5 46.5C381.598 54.304 379.598 61.971 377.5 69.5C377.804 61.28 379.804 53.613 383.5 46.5Z" fill="#CDCDCD"/>
<path opacity="0.298" fill-rule="evenodd" clip-rule="evenodd" d="M530.5 59.5C532.065 61.509 533.065 63.843 533.5 66.5C531.552 64.68 530.552 62.346 530.5 59.5Z" fill="#CDCDCD"/>
<path opacity="0.263" fill-rule="evenodd" clip-rule="evenodd" d="M31.5 41.5C31.5 41.833 31.5 42.167 31.5 42.5C24.153 53.868 18.986 66.202 16 79.5C15.329 80.252 14.496 80.586 13.5 80.5C16.572 66.031 22.572 53.031 31.5 41.5Z" fill="#CDCDCD"/>
<path opacity="0.733" fill-rule="evenodd" clip-rule="evenodd" d="M356.5 66.5C363.097 68.465 369.097 71.465 374.5 75.5C367.895 73.531 361.895 70.531 356.5 66.5Z" fill="#CDCDCD"/>
<path opacity="0.471" fill-rule="evenodd" clip-rule="evenodd" d="M169.5 47.5C172.853 55.398 175.02 63.732 176 72.5C176.333 73.167 176.667 73.833 177 74.5C177.708 73.619 178.542 72.953 179.5 72.5C178.991 75.6 177.658 76.434 175.5 75C173.812 65.722 171.812 56.555 169.5 47.5Z" fill="#CDCDCD"/>
<path opacity="0.659" fill-rule="evenodd" clip-rule="evenodd" d="M377.5 69.5C377.5 71.833 377.5 74.167 377.5 76.5C376.209 76.737 375.209 76.404 374.5 75.5C376.06 73.844 377.06 71.844 377.5 69.5Z" fill="#CDCDCD"/>
<path opacity="0.592" fill-rule="evenodd" clip-rule="evenodd" d="M533.5 66.5C536.482 73.464 538.482 80.797 539.5 88.5C538.414 88.38 537.747 87.713 537.5 86.5C535.952 79.863 534.619 73.196 533.5 66.5Z" fill="#CDCDCD"/>
<path fill-rule="evenodd" clip-rule="evenodd" d="M20.5 81.5C19.172 91.448 18.505 101.448 18.5 111.5C17.346 105.013 17.179 98.346 18 91.5C18.149 87.867 18.982 84.534 20.5 81.5Z" fill="#CDCDCD"/>
<path fill-rule="evenodd" clip-rule="evenodd" d="M315.405 102.04C329.281 101.648 342.614 104.148 355.405 109.54C357.981 110.322 359.981 111.822 361.405 114.04C337.558 110.93 314.224 113.43 291.405 121.54C284.259 128.056 283.092 127.222 287.905 119.04C294.86 109.653 304.027 103.986 315.405 102.04Z" fill="#CDCDCD"/>
<path opacity="0.396" fill-rule="evenodd" clip-rule="evenodd" d="M540.5 107.5C540.119 114.152 538.785 120.486 536.5 126.5C537.099 120.476 537.932 114.476 539 108.5C539.383 107.944 539.883 107.611 540.5 107.5Z" fill="#CDCDCD"/>
<path fill-rule="evenodd" clip-rule="evenodd" d="M332.5 121.5C345.895 121.142 358.895 123.142 371.5 127.5C348.011 125.85 325.011 128.684 302.5 136C296.527 138.319 291.193 141.653 286.5 146C285.365 146.749 284.365 146.583 283.5 145.5C285 142.5 286.5 139.5 288 136.5C291.611 133.614 295.444 131.114 299.5 129C303.823 128.587 307.823 127.254 311.5 125C318.608 123.593 325.608 122.426 332.5 121.5Z" fill="#CDCDCD"/>
<path opacity="0.365" fill-rule="evenodd" clip-rule="evenodd" d="M13.5 81.5C13.523 92.646 13.69 103.979 14 115.5C16.184 123.888 18.684 132.221 21.5 140.5C20.833 140.167 20.167 139.833 19.5 139.5C11.319 120.847 9.31901 101.514 13.5 81.5Z" fill="#CDCDCD"/>
<path opacity="0.443" fill-rule="evenodd" clip-rule="evenodd" d="M535.5 129.5C535.267 132.542 534.267 135.208 532.5 137.5C532.733 134.458 533.733 131.792 535.5 129.5Z" fill="#CDCDCD"/>
<path opacity="0.176" fill-rule="evenodd" clip-rule="evenodd" d="M532.5 137.5C531.873 141.42 530.207 144.753 527.5 147.5C528.659 143.849 530.326 140.515 532.5 137.5Z" fill="#CDCDCD"/>
<path opacity="0.012" fill-rule="evenodd" clip-rule="evenodd" d="M19.5 139.5C20.167 139.833 20.833 140.167 21.5 140.5C22.971 143.552 24.638 146.552 26.5 149.5C26.5 150.167 26.5 150.833 26.5 151.5C23.665 147.836 21.332 143.836 19.5 139.5Z" fill="#CDCDCD"/>
<path fill-rule="evenodd" clip-rule="evenodd" d="M87.5 150.5C93.797 151.32 100.131 151.653 106.5 151.5C104.022 152.164 101.355 152.497 98.5 152.5C94.531 152.706 90.865 152.039 87.5 150.5Z" fill="#CDCDCD"/>
<path opacity="0.012" fill-rule="evenodd" clip-rule="evenodd" d="M519.5 158.5C519.5 160.5 518.5 161.5 516.5 161.5C517.167 160.167 518.167 159.167 519.5 158.5Z" fill="#CDCDCD"/>
<path opacity="0.173" fill-rule="evenodd" clip-rule="evenodd" d="M26.5 149.5C32.798 157.466 39.798 164.799 47.5 171.5C39.231 166.232 32.231 159.565 26.5 151.5C26.5 150.833 26.5 150.167 26.5 149.5Z" fill="#CDCDCD"/>
<path opacity="0.312" fill-rule="evenodd" clip-rule="evenodd" d="M50.5 173.5C55.157 174.495 59.157 176.495 62.5 179.5C57.947 178.438 53.947 176.438 50.5 173.5Z" fill="#CDCDCD"/>
<path opacity="0.024" fill-rule="evenodd" clip-rule="evenodd" d="M511.5 166.5C504.567 173.471 496.234 178.138 486.5 180.5C486.369 179.624 486.702 178.957 487.5 178.5C491.539 177.098 495.539 175.598 499.5 174C503.388 171.228 507.388 168.728 511.5 166.5Z" fill="#CDCDCD"/>
<path opacity="0.816" fill-rule="evenodd" clip-rule="evenodd" d="M84.5 184.5C77.353 183.478 70.353 181.812 63.5 179.5C63.735 178.903 64.235 178.57 65 178.5C72.046 180.264 79.213 180.931 86.5 180.5C86.771 182.38 86.104 183.713 84.5 184.5Z" fill="#CDCDCD"/>
<path opacity="0.305" fill-rule="evenodd" clip-rule="evenodd" d="M474.5 182.5C472.156 182.94 470.156 183.94 468.5 185.5C466.273 184.599 465.273 182.933 465.5 180.5C469.012 179.945 472.012 180.612 474.5 182.5Z" fill="#CDCDCD"/>
<path opacity="0.22" fill-rule="evenodd" clip-rule="evenodd" d="M84.5 184.5C84.155 187.198 82.822 189.198 80.5 190.5C81.34 188.147 82.674 186.147 84.5 184.5Z" fill="#CDCDCD"/>
<path fill-rule="evenodd" clip-rule="evenodd" d="M192.5 183.5C199.507 183.834 206.507 184.334 213.5 185C222.135 190.507 222.802 196.84 215.5 204C213.863 204.601 212.197 205.101 210.5 205.5C199.824 204.182 189.157 204.349 178.5 206C170.084 208.917 161.917 212.417 154 216.5C148.309 214.974 144.809 211.308 143.5 205.5C144.476 201.059 146.809 197.559 150.5 195C159.627 191.912 168.793 188.746 178 185.5C182.996 184.966 187.83 184.3 192.5 183.5Z" fill="#CDCDCD"/>
<path fill-rule="evenodd" clip-rule="evenodd" d="M182.5 187.5C192.506 187.334 202.506 187.5 212.5 188C216.888 191.19 217.555 195.024 214.5 199.5C204.517 200.332 194.517 200.832 184.5 201C179.669 202.943 174.669 204.277 169.5 205C164.726 208.053 159.726 210.553 154.5 212.5C146.493 209.634 145.493 205.134 151.5 199C161.469 193.848 171.802 190.014 182.5 187.5Z" fill="#CDCDCD"/>
<path fill-rule="evenodd" clip-rule="evenodd" d="M336.5 183.5C344.533 183.745 352.533 184.412 360.5 185.5C370.138 188.335 379.471 191.835 388.5 196C392.313 198.024 394.646 201.19 395.5 205.5C393.7 213.733 388.7 216.899 380.5 215C374.083 211.418 367.416 208.418 360.5 206C348.478 204.559 336.478 204.059 324.5 204.5C319.29 201.02 317.624 196.187 319.5 190C321.188 187.981 323.188 186.314 325.5 185C329.356 184.823 333.023 184.323 336.5 183.5Z" fill="#CDCDCD"/>
<path fill-rule="evenodd" clip-rule="evenodd" d="M326.5 187.5C348.706 184.841 369.373 189.008 388.5 200C391.463 202.271 392.13 205.104 390.5 208.5C388.876 210.441 386.876 211.774 384.5 212.5C375.914 208.971 367.247 205.638 358.5 202.5C347.245 200.874 335.912 200.041 324.5 200C320.134 195.032 320.8 190.865 326.5 187.5Z" fill="#CDCDCD"/>
<path opacity="0.416" fill-rule="evenodd" clip-rule="evenodd" d="M80.5 190.5C80.771 192.38 80.104 193.713 78.5 194.5C78.66 192.847 79.326 191.514 80.5 190.5Z" fill="#CDCDCD"/>
<path opacity="0.129" fill-rule="evenodd" clip-rule="evenodd" d="M471.5 190.5C474.623 193.976 476.957 197.976 478.5 202.5C475.377 199.024 473.043 195.024 471.5 190.5Z" fill="#CDCDCD"/>
<path opacity="0.831" fill-rule="evenodd" clip-rule="evenodd" d="M78.5 194.5C77.513 197.146 76.513 199.812 75.5 202.5C75.043 203.298 74.376 203.631 73.5 203.5C74.41 200.008 76.076 197.008 78.5 194.5Z" fill="#CDCDCD"/>
<path opacity="0.118" fill-rule="evenodd" clip-rule="evenodd" d="M73.5 203.5C73.657 204.873 73.49 206.207 73 207.5C70.536 211.434 68.369 215.434 66.5 219.5C67.766 213.64 70.1 208.307 73.5 203.5Z" fill="#CDCDCD"/>
<path fill-rule="evenodd" clip-rule="evenodd" d="M172.5 231.5C185.919 231.437 196.086 237.103 203 248.5C209.543 260.477 211.21 273.143 208 286.5C200.711 299.739 189.545 304.906 174.5 302C137.371 294.285 130.538 275.452 154 245.5C159.284 239.466 165.451 234.799 172.5 231.5Z" fill="#CDCDCD"/>
<path fill-rule="evenodd" clip-rule="evenodd" d="M359.5 231.5C371.403 231.869 380.903 236.869 388 246.5C391.581 251.328 394.915 256.328 398 261.5C401.64 270.388 401.306 279.055 397 287.5C391.122 293.023 384.289 296.856 376.5 299C366.993 302.487 357.327 303.154 347.5 301C340.781 298.07 335.948 293.237 333 286.5C328.585 268.895 332.419 253.395 344.5 240C348.989 236.094 353.989 233.26 359.5 231.5Z" fill="#CDCDCD"/>
<path fill-rule="evenodd" clip-rule="evenodd" d="M174.5 297.5C172.485 296.076 170.152 295.41 167.5 295.5C144.592 290.685 138.759 278.018 150 257.5C155.22 247.946 162.72 240.78 172.5 236C185.349 235.479 194.849 240.979 201 252.5C201.792 256.079 203.125 259.412 205 262.5C205.667 269.167 205.667 275.833 205 282.5C202.474 290.359 197.307 295.526 189.5 298C184.416 298.778 179.416 298.611 174.5 297.5Z" fill="#CDCDCD"/>
<path fill-rule="evenodd" clip-rule="evenodd" d="M337.5 285.5C335.885 276.072 336.218 266.738 338.5 257.5C343.035 243.1 352.702 235.934 367.5 236C375.777 238.945 382.277 244.112 387 251.5C392.804 258.277 396.304 266.11 397.5 275C396.651 280.698 393.984 285.365 389.5 289C377.206 295.325 364.206 298.325 350.5 298C344.343 295.676 340.01 291.509 337.5 285.5Z" fill="#CDCDCD"/>
<path opacity="0.122" fill-rule="evenodd" clip-rule="evenodd" d="M478.5 202.5C487.119 219.348 493.786 237.015 498.5 255.5C497.025 253.201 495.525 250.201 494 246.5C489.311 231.597 484.145 216.93 478.5 202.5Z" fill="#CDCDCD"/>
<path opacity="0.255" fill-rule="evenodd" clip-rule="evenodd" d="M66.5 219.5C60.92 235.324 55.92 251.324 51.5 267.5C51.167 267.5 50.833 267.5 50.5 267.5C53.697 250.679 59.03 234.679 66.5 219.5Z" fill="#CDCDCD"/>
<path fill-rule="evenodd" clip-rule="evenodd" d="M172.5 258.5C186.705 257.203 192.871 263.536 191 277.5C185.039 286.495 177.706 287.828 169 281.5C163.47 272.784 164.637 265.118 172.5 258.5Z" fill="#CDCDCD"/>
<path fill-rule="evenodd" clip-rule="evenodd" d="M356.5 258.5C371.647 257.463 377.481 264.129 374 278.5C370.345 285.07 364.845 287.237 357.5 285C350.572 280.725 348.072 274.559 350 266.5C352.001 263.669 354.167 261.003 356.5 258.5Z" fill="#CDCDCD"/>
<path opacity="0.631" fill-rule="evenodd" clip-rule="evenodd" d="M499.5 257.5C500.526 261.605 501.859 265.605 503.5 269.5C508.702 270.926 513.036 273.593 516.5 277.5C511.421 274.745 506.254 272.079 501 269.5C499.335 265.423 498.835 261.423 499.5 257.5Z" fill="#CDCDCD"/>
<path opacity="0.455" fill-rule="evenodd" clip-rule="evenodd" d="M50.5 267.5C50.833 267.5 51.167 267.5 51.5 267.5C51.489 269.017 50.823 270.184 49.5 271C42.884 272.824 37.55 276.324 33.5 281.5C33.5 281.167 33.5 280.833 33.5 280.5C34.614 279.115 35.614 277.615 36.5 276C41.097 272.877 45.763 270.043 50.5 267.5Z" fill="#CDCDCD"/>
<path fill-rule="evenodd" clip-rule="evenodd" d="M338.5 257.5C336.218 266.738 335.885 276.072 337.5 285.5C336.732 284.737 336.232 283.737 336 282.5C335.333 276.167 335.333 269.833 336 263.5C336.566 261.277 337.4 259.277 338.5 257.5Z" fill="#CDCDCD"/>
<path opacity="0.306" fill-rule="evenodd" clip-rule="evenodd" d="M517.5 279.5C520.249 281.997 522.249 284.997 523.5 288.5C520.759 286.025 518.759 283.025 517.5 279.5Z" fill="#CDCDCD"/>
<path fill-rule="evenodd" clip-rule="evenodd" d="M167.5 295.5C170.152 295.41 172.485 296.076 174.5 297.5C171.848 297.59 169.515 296.924 167.5 295.5Z" fill="#CDCDCD"/>
<path opacity="0.043" fill-rule="evenodd" clip-rule="evenodd" d="M33.5 280.5C33.5 280.833 33.5 281.167 33.5 281.5C30.333 285.995 28.333 290.995 27.5 296.5C26.833 297.167 26.167 297.833 25.5 298.5C26.059 291.465 28.725 285.465 33.5 280.5Z" fill="#CDCDCD"/>
<path opacity="0.773" fill-rule="evenodd" clip-rule="evenodd" d="M523.5 288.5C524.927 290.148 525.76 292.148 526 294.5C526.746 300.551 526.579 306.551 525.5 312.5C524.703 304.654 524.036 296.654 523.5 288.5Z" fill="#CDCDCD"/>
<path opacity="0.625" fill-rule="evenodd" clip-rule="evenodd" d="M27.5 296.5C27.375 302.203 27.708 307.87 28.5 313.5C26.453 313.489 24.453 313.156 22.5 312.5C17.301 313.437 12.635 315.437 8.5 318.5C12.96 312.591 18.793 310.591 26 312.5C25.622 307.92 25.455 303.254 25.5 298.5C26.167 297.833 26.833 297.167 27.5 296.5Z" fill="#CDCDCD"/>
<path fill-rule="evenodd" clip-rule="evenodd" d="M303.5 593.5C291.573 595.204 279.573 595.871 267.5 595.5C230.376 590.605 198.043 575.439 170.5 550C150.69 531.204 133.523 510.371 119 487.5C107.63 468.387 102.63 447.72 104 425.5C105.861 406.588 114.694 392.088 130.5 382C141.275 378.654 152.275 376.32 163.5 375C173.083 371.543 181.75 366.543 189.5 360C200.99 347.165 214.656 337.498 230.5 331C236.627 328.589 242.96 326.922 249.5 326C264.5 325.333 279.5 325.333 294.5 326C312.187 327.318 328.187 332.985 342.5 343C352.919 352.756 363.919 361.756 375.5 370C380.272 372.59 385.272 374.59 390.5 376C403.342 376.587 415.342 379.92 426.5 386C437.149 394.672 443.649 405.839 446 419.5C448.607 434.102 447.607 448.435 443 462.5C435.31 482.533 424.643 500.866 411 517.5C395.149 536.495 377.316 553.329 357.5 568C340.932 579.45 322.932 587.95 303.5 593.5Z" fill="#CDCDCD"/>
<path opacity="0.302" fill-rule="evenodd" clip-rule="evenodd" d="M5.5 322.5C4.84 326.488 3.173 329.821 0.5 332.5C0.978 330.083 1.978 327.916 3.5 326C2.646 324.215 3.313 323.049 5.5 322.5Z" fill="#CDCDCD"/>
<path fill-rule="evenodd" clip-rule="evenodd" d="M246.5 587.5C244.485 586.076 242.152 585.41 239.5 585.5C215.13 577.649 193.463 565.149 174.5 548C149.942 525.681 130.109 499.847 115 470.5C108.485 452.982 106.819 434.982 110 416.5C112.53 404.599 118.697 395.099 128.5 388C131.605 386.132 134.938 384.965 138.5 384.5C143.124 384.237 147.458 383.237 151.5 381.5C165.677 379.603 178.344 374.103 189.5 365C200.808 353.021 213.808 343.355 228.5 336C248.337 329.804 268.67 327.804 289.5 330C305.207 330.26 319.874 334.26 333.5 342C346.5 352.333 359.5 362.667 372.5 373C385.031 379.467 398.364 383.133 412.5 384C429.241 390.423 439.074 402.59 442 420.5C444.895 445.496 439.561 468.496 426 489.5C401.489 528.346 368.989 558.513 328.5 580C302.026 592.273 274.693 594.773 246.5 587.5Z" fill="#CDCDCD"/>
<path fill-rule="evenodd" clip-rule="evenodd" d="M543.5 327.5C544.991 330.186 545.657 333.186 545.5 336.5C545.495 338.696 545.162 340.696 544.5 342.5C544.587 337.463 544.254 332.463 543.5 327.5Z" fill="#CDCDCD"/>
<path opacity="0.948" fill-rule="evenodd" clip-rule="evenodd" d="M549.5 329.5C550.298 332.171 550.965 335.004 551.5 338C551.056 343.084 550.056 347.918 548.5 352.5C548.778 344.83 549.111 337.164 549.5 329.5Z" fill="#CDCDCD"/>
<path opacity="0.027" fill-rule="evenodd" clip-rule="evenodd" d="M4.5001 353.5C4.5001 354.833 4.5001 356.167 4.5001 357.5C2.4251 353.526 1.4251 349.192 1.5001 344.5C1.3511 343.448 1.5171 342.448 2.0001 341.5C2.1891 345.767 3.0231 349.767 4.5001 353.5Z" fill="#CDCDCD"/>
<path opacity="0.012" fill-rule="evenodd" clip-rule="evenodd" d="M4.5 353.5C6.004 356.659 7.337 359.993 8.5 363.5C7.228 366.44 5.228 368.773 2.5 370.5C3.324 367.685 4.991 365.518 7.5 364C6.086 362.007 5.086 359.84 4.5 357.5C4.5 356.167 4.5 354.833 4.5 353.5Z" fill="#CDCDCD"/>
<path opacity="0.043" fill-rule="evenodd" clip-rule="evenodd" d="M546.5 358.5C546.528 360.582 545.861 362.416 544.5 364C547.457 366.129 549.457 368.962 550.5 372.5C548.017 369.845 545.684 367.012 543.5 364C544.14 361.88 545.14 360.046 546.5 358.5Z" fill="#CDCDCD"/>
<path fill-rule="evenodd" clip-rule="evenodd" d="M402.5 421.5C403.404 420.791 403.737 419.791 403.5 418.5C400.167 418.5 396.833 418.5 393.5 418.5C392.199 417.116 392.199 415.616 393.5 414C405.531 411.727 415.031 415.56 422 425.5C422.667 427.167 422.667 428.833 422 430.5C421.282 431.451 420.449 431.617 419.5 431C416.912 426.387 413.246 423.387 408.5 422C399.192 439.31 386.359 453.477 370 464.5C355.548 490.618 337.048 513.452 314.5 533C300.544 543.653 284.877 548.653 267.5 548C254.475 543.656 242.808 536.989 232.5 528C211.19 508.707 193.69 486.541 180 461.5C166.085 450.76 154.918 437.76 146.5 422.5C145.635 421.417 144.635 421.251 143.5 422C140.462 424.703 137.795 427.703 135.5 431C131.912 431.611 130.746 430.111 132 426.5C138.894 416.316 148.394 412.149 160.5 414C161.833 415.667 161.833 417.333 160.5 419C157.447 419.179 154.447 419.679 151.5 420.5C179.425 465.131 219.759 485.964 272.5 483C273.651 473.244 273.818 463.411 273 453.5C262.307 449.937 251.474 446.77 240.5 444C219.345 435.787 211.845 420.621 218 398.5C227.431 379.374 242.598 372.54 263.5 378C267.091 379.152 270.758 379.985 274.5 380.5C289.204 376.965 303.871 376.799 318.5 380C333.891 390.21 339.391 404.376 335 422.5C331.25 431.251 325.084 437.751 316.5 442C304.962 445.811 293.295 449.311 281.5 452.5C280.361 462.833 280.361 473.166 281.5 483.5C333.942 485.782 374.275 465.116 402.5 421.5Z" fill="#CDCDCD"/>
<path opacity="0.522" fill-rule="evenodd" clip-rule="evenodd" d="M550.5 372.5C551.222 372.918 551.722 373.584 552 374.5C552.667 379.5 552.667 384.5 552 389.5C551.617 390.056 551.117 390.389 550.5 390.5C551.726 384.521 551.726 378.521 550.5 372.5Z" fill="#CDCDCD"/>
<path fill-rule="evenodd" clip-rule="evenodd" d="M151.5 381.5C147.458 383.237 143.124 384.237 138.5 384.5C138.918 383.778 139.584 383.278 140.5 383C144.17 382.452 147.837 381.952 151.5 381.5Z" fill="#CDCDCD"/>
<path fill-rule="evenodd" clip-rule="evenodd" d="M328.5 398.5C330.101 404.711 330.768 411.044 330.5 417.5C328.69 426.817 323.357 433.317 314.5 437C301.691 440.911 288.858 444.744 276 448.5C261.458 445.208 247.291 440.708 233.5 435C225.582 429.832 221.582 422.498 221.5 413C221.023 398.609 227.356 388.609 240.5 383C252.59 381.696 264.424 382.862 276 386.5C287.229 382.829 298.729 381.663 310.5 383C318.811 385.477 324.811 390.644 328.5 398.5Z" fill="#CDCDCD"/>
<path opacity="0.01" fill-rule="evenodd" clip-rule="evenodd" d="M0.500356 386.5C1.73836 388.214 2.40536 390.214 2.50036 392.5C0.720356 391.01 0.0543558 389.01 0.500356 386.5Z" fill="#CDCDCD"/>
<path opacity="0.114" fill-rule="evenodd" clip-rule="evenodd" d="M2.49969 392.5C3.33769 392.842 3.67169 393.508 3.49969 394.5C1.30169 394.591 0.968689 393.925 2.49969 392.5Z" fill="#CDCDCD"/>
<path opacity="0.098" fill-rule="evenodd" clip-rule="evenodd" d="M5.5 398.5C7.262 399.262 8.262 400.596 8.5 402.5C6.738 401.738 5.738 400.404 5.5 398.5Z" fill="#CDCDCD"/>
<path opacity="0.749" fill-rule="evenodd" clip-rule="evenodd" d="M8.5 402.5C11.167 403.167 12.833 404.833 13.5 407.5C11.5 406.167 9.833 404.5 8.5 402.5Z" fill="#CDCDCD"/>
<path fill-rule="evenodd" clip-rule="evenodd" d="M328.5 398.5C331.508 404.609 332.174 410.942 330.5 417.5C330.768 411.044 330.101 404.711 328.5 398.5Z" fill="#CDCDCD"/>
<path fill-rule="evenodd" clip-rule="evenodd" d="M393.5 418.5C396.833 418.5 400.167 418.5 403.5 418.5C403.737 419.791 403.404 420.791 402.5 421.5C399.797 419.89 396.797 418.89 393.5 418.5Z" fill="#CDCDCD"/>
<path opacity="0.047" fill-rule="evenodd" clip-rule="evenodd" d="M534.5 411.5C532.434 431.15 526.101 449.15 515.5 465.5C518.69 457.446 522.19 449.446 526 441.5C528.894 431.222 531.727 421.222 534.5 411.5Z" fill="#CDCDCD"/>
<path opacity="0.157" fill-rule="evenodd" clip-rule="evenodd" d="M17.5 410.5C18.117 410.611 18.617 410.944 19 411.5C21.046 424.97 24.713 437.97 30 450.5C36.271 462.714 42.771 474.714 49.5 486.5C36.892 469.957 27.392 451.623 21 431.5C18.863 424.651 17.697 417.651 17.5 410.5Z" fill="#CDCDCD"/>
<path fill-rule="evenodd" clip-rule="evenodd" d="M251.5 513.5C246.527 511.24 241.194 510.24 235.5 510.5C234.391 510.443 233.391 510.11 232.5 509.5C230.485 508.076 228.152 507.41 225.5 507.5C219.096 505.599 213.93 501.933 210 496.5C202.618 487.267 196.118 477.934 190.5 468.5C205.539 478.357 221.873 484.857 239.5 488C246.142 488.831 252.809 489.331 259.5 489.5C277.846 489.606 296.179 489.106 314.5 488C329.658 485.086 343.991 479.92 357.5 472.5C358.521 473.002 358.688 473.668 358 474.5C351.441 484.448 344.274 493.948 336.5 503C309.332 515.631 280.998 519.131 251.5 513.5Z" fill="#CDCDCD"/>
<path opacity="0.112" fill-rule="evenodd" clip-rule="evenodd" d="M49.5 486.5C53.237 490.302 56.237 494.635 58.5 499.5C54.763 495.698 51.763 491.365 49.5 486.5Z" fill="#CDCDCD"/>
<path opacity="0.016" fill-rule="evenodd" clip-rule="evenodd" d="M515.5 465.5C512.199 472.766 508.366 479.766 504 486.5C501.35 490.975 498.183 494.975 494.5 498.5C501.113 487.227 508.113 476.227 515.5 465.5Z" fill="#CDCDCD"/>
<path opacity="0.016" fill-rule="evenodd" clip-rule="evenodd" d="M62.5 504.5C64.262 505.262 65.262 506.596 65.5 508.5C63.738 507.738 62.738 506.404 62.5 504.5Z" fill="#CDCDCD"/>
<path fill-rule="evenodd" clip-rule="evenodd" d="M225.5 507.5C228.152 507.41 230.485 508.076 232.5 509.5C229.848 509.59 227.515 508.924 225.5 507.5Z" fill="#CDCDCD"/>
<path fill-rule="evenodd" clip-rule="evenodd" d="M267.5 520.5C275.656 521.657 283.99 521.823 292.5 521C295.457 520.721 298.123 519.887 300.5 518.5C311.574 516.385 322.574 514.218 333.5 512C320.023 527.064 303.69 537.564 284.5 543.5C278.824 543.666 273.157 543.499 267.5 543C264.647 541.57 261.647 540.737 258.5 540.5C244.201 533.886 232.201 524.22 222.5 511.5C223 511.167 223.5 510.833 224 510.5C237.869 516.309 252.369 519.642 267.5 520.5Z" fill="#CDCDCD"/>
<path fill-rule="evenodd" clip-rule="evenodd" d="M235.5 510.5C241.194 510.24 246.527 511.24 251.5 513.5C245.939 513.044 240.606 512.044 235.5 510.5Z" fill="#CDCDCD"/>
<path opacity="0.537" fill-rule="evenodd" clip-rule="evenodd" d="M65.5 508.5C68.645 511.46 71.312 514.793 73.5 518.5C69.874 515.905 67.208 512.572 65.5 508.5Z" fill="#CDCDCD"/>
<path fill-rule="evenodd" clip-rule="evenodd" d="M300.5 518.5C298.123 519.887 295.457 520.721 292.5 521C283.99 521.823 275.656 521.657 267.5 520.5C278.574 520.83 289.574 520.163 300.5 518.5Z" fill="#CDCDCD"/>
<path opacity="0.592" fill-rule="evenodd" clip-rule="evenodd" d="M73.5 518.5C76.19 520.193 78.19 522.527 79.5 525.5C76.781 523.781 74.781 521.447 73.5 518.5Z" fill="#CDCDCD"/>
<path opacity="0.047" fill-rule="evenodd" clip-rule="evenodd" d="M79.5 526.5C86.167 531.167 91.833 536.833 96.5 543.5C90.5 538.167 84.833 532.5 79.5 526.5Z" fill="#CDCDCD"/>
<path opacity="0.063" fill-rule="evenodd" clip-rule="evenodd" d="M468.5 530.5C467.5 532.167 466.167 533.5 464.5 534.5C465.031 532.456 466.198 530.789 468 529.5C468.399 529.728 468.565 530.062 468.5 530.5Z" fill="#CDCDCD"/>
<path fill-rule="evenodd" clip-rule="evenodd" d="M258.5 540.5C261.647 540.737 264.647 541.57 267.5 543C273.157 543.499 278.824 543.666 284.5 543.5C278.681 544.653 272.681 544.819 266.5 544C263.524 543.295 260.858 542.129 258.5 540.5Z" fill="#CDCDCD"/>
<path opacity="0.059" fill-rule="evenodd" clip-rule="evenodd" d="M461.5 537.5C458.105 541.898 454.105 545.564 449.5 548.5C452.895 544.102 456.895 540.436 461.5 537.5Z" fill="#CDCDCD"/>
<path opacity="0.596" fill-rule="evenodd" clip-rule="evenodd" d="M136.5 575.5C130.796 572.642 125.463 569.142 120.5 565C112.906 558.718 105.573 552.218 98.5 545.5C98.435 545.062 98.601 544.728 99 544.5C111.398 555.075 123.898 565.408 136.5 575.5Z" fill="#CDCDCD"/>
<path opacity="0.188" fill-rule="evenodd" clip-rule="evenodd" d="M141.5 579.5C140.128 578.488 138.795 577.488 137.5 576.5C139.725 575.668 141.058 576.668 141.5 579.5Z" fill="#CDCDCD"/>
<path opacity="0.024" fill-rule="evenodd" clip-rule="evenodd" d="M162.5 591.5C155.162 588.503 148.495 584.503 142.5 579.5C142.435 579.062 142.601 578.728 143 578.5C149.889 582.508 156.389 586.841 162.5 591.5Z" fill="#CDCDCD"/>
<path fill-rule="evenodd" clip-rule="evenodd" d="M239.5 585.5C242.152 585.41 244.485 586.076 246.5 587.5C243.848 587.59 241.515 586.924 239.5 585.5Z" fill="#CDCDCD"/>
<path opacity="0.341" fill-rule="evenodd" clip-rule="evenodd" d="M198.5 607.5C186.254 603.862 174.587 598.862 163.5 592.5C163.369 591.761 163.536 591.094 164 590.5C169.945 593.554 175.778 596.721 181.5 600C187.035 600.886 192.201 602.719 197 605.5C198.03 605.836 198.53 606.503 198.5 607.5Z" fill="#CDCDCD"/>
<path opacity="0.194" fill-rule="evenodd" clip-rule="evenodd" d="M439.5 557.5C415.728 578.064 389.061 594.064 359.5 605.5C359.414 604.504 359.748 603.671 360.5 603C369.763 599.041 379.096 595.041 388.5 591C406.242 580.807 423.242 569.64 439.5 557.5Z" fill="#CDCDCD"/>
<path fill-rule="evenodd" clip-rule="evenodd" d="M303.5 593.5C300.466 595.018 297.133 595.851 293.5 596C284.657 596.824 275.99 596.657 267.5 595.5C279.573 595.871 291.573 595.204 303.5 593.5Z" fill="#CDCDCD"/>
<path opacity="0.128" fill-rule="evenodd" clip-rule="evenodd" d="M234.5 617.5C222.625 615.281 210.958 612.281 199.5 608.5C199.62 607.414 200.287 606.747 201.5 606.5C211.907 610.269 222.574 613.102 233.5 615C234.252 615.671 234.586 616.504 234.5 617.5Z" fill="#CDCDCD"/>
<path fill-rule="evenodd" clip-rule="evenodd" d="M250.5 612.5C263.815 613.333 277.149 613.666 290.5 613.5C285.177 614.166 279.677 614.499 274 614.5C265.94 614.693 258.107 614.027 250.5 612.5Z" fill="#CDCDCD"/>
<path opacity="0.875" fill-rule="evenodd" clip-rule="evenodd" d="M236.5 617.5C239.304 616.362 242.304 616.195 245.5 617C246.056 617.383 246.389 617.883 246.5 618.5C243.098 618.658 239.764 618.324 236.5 617.5Z" fill="#CDCDCD"/>
<g filter="url(#filter0_d_3195_358)">
<path d="M255.438 400.068V397.909C255.589 383.818 256.991 372.606 259.642 364.273C262.369 355.939 266.233 349.197 271.233 344.045C276.233 338.894 282.256 334.197 289.301 329.955C293.847 327.076 297.938 323.856 301.574 320.295C305.21 316.735 308.089 312.644 310.21 308.023C312.331 303.402 313.392 298.288 313.392 292.682C313.392 285.939 311.801 280.106 308.619 275.182C305.438 270.258 301.195 266.47 295.892 263.818C290.665 261.091 284.831 259.727 278.392 259.727C272.559 259.727 266.991 260.939 261.688 263.364C256.384 265.788 251.991 269.576 248.506 274.727C245.021 279.803 243.013 286.356 242.483 294.386H207.938C208.468 280.75 211.915 269.235 218.278 259.841C224.642 250.371 233.051 243.212 243.506 238.364C254.036 233.515 265.665 231.091 278.392 231.091C292.331 231.091 304.528 233.705 314.983 238.932C325.438 244.083 333.544 251.318 339.301 260.636C345.134 269.879 348.051 280.674 348.051 293.023C348.051 301.508 346.725 309.159 344.074 315.977C341.422 322.72 337.634 328.742 332.71 334.045C327.862 339.348 322.028 344.045 315.21 348.136C308.771 352.152 303.544 356.318 299.528 360.636C295.589 364.955 292.71 370.068 290.892 375.977C289.074 381.886 288.089 389.197 287.938 397.909V400.068H255.438ZM272.597 469.159C266.384 469.159 261.044 466.962 256.574 462.568C252.104 458.098 249.869 452.72 249.869 446.432C249.869 440.22 252.104 434.917 256.574 430.523C261.044 426.053 266.384 423.818 272.597 423.818C278.733 423.818 284.036 426.053 288.506 430.523C293.051 434.917 295.324 440.22 295.324 446.432C295.324 450.598 294.263 454.424 292.142 457.909C290.097 461.318 287.369 464.045 283.96 466.091C280.551 468.136 276.763 469.159 272.597 469.159Z" fill="black"/>
</g>
</g>
<defs>
<filter id="filter0_d_3195_358" x="107.938" y="131.091" width="340.114" height="438.068" filterUnits="userSpaceOnUse" color-interpolation-filters="sRGB">
<feFlood flood-opacity="0" result="BackgroundImageFix"/>
<feColorMatrix in="SourceAlpha" type="matrix" values="0 0 0 0 0 0 0 0 0 0 0 0 0 0 0 0 0 0 127 0" result="hardAlpha"/>
<feOffset/>
<feGaussianBlur stdDeviation="50"/>
<feComposite in2="hardAlpha" operator="out"/>
<feColorMatrix type="matrix" values="0 0 0 0 1 0 0 0 0 1 0 0 0 0 1 0 0 0 1 0"/>
<feBlend mode="normal" in2="BackgroundImageFix" result="effect1_dropShadow_3195_358"/>
<feBlend mode="normal" in="SourceGraphic" in2="effect1_dropShadow_3195_358" result="shape"/>
</filter>
<clipPath id="clip0_3195_358">
<rect width="553" height="621" fill="white"/>
</clipPath>
</defs>
</svg>
