<svg width="270" height="131" viewBox="0 0 270 131" fill="none" xmlns="http://www.w3.org/2000/svg">
<path d="M1.91113 125V109H4.3252V115.953H12.3018V109H14.7236V125H12.3018V118.023H4.3252V125H1.91113ZM23.2236 125.242C22.0413 125.242 21.0231 124.99 20.1689 124.484C19.32 123.974 18.6637 123.258 18.2002 122.336C17.7419 121.409 17.5127 120.323 17.5127 119.078C17.5127 117.849 17.7419 116.766 18.2002 115.828C18.6637 114.891 19.3096 114.159 20.1377 113.633C20.971 113.107 21.945 112.844 23.0596 112.844C23.7367 112.844 24.3929 112.956 25.0283 113.18C25.6637 113.404 26.234 113.755 26.7393 114.234C27.2445 114.714 27.6429 115.336 27.9346 116.102C28.2262 116.862 28.3721 117.786 28.3721 118.875V119.703H18.833V117.953H26.083C26.083 117.339 25.958 116.794 25.708 116.32C25.458 115.841 25.1064 115.464 24.6533 115.187C24.2054 114.911 23.6794 114.773 23.0752 114.773C22.4189 114.773 21.846 114.935 21.3564 115.258C20.8721 115.576 20.4971 115.992 20.2314 116.508C19.971 117.018 19.8408 117.573 19.8408 118.172V119.539C19.8408 120.341 19.9814 121.023 20.2627 121.586C20.5492 122.148 20.9476 122.578 21.458 122.875C21.9684 123.167 22.5648 123.312 23.2471 123.312C23.6898 123.312 24.0934 123.25 24.458 123.125C24.8226 122.995 25.1377 122.802 25.4033 122.547C25.6689 122.292 25.8721 121.977 26.0127 121.602L28.2236 122C28.0465 122.651 27.7288 123.221 27.2705 123.711C26.8174 124.195 26.2471 124.573 25.5596 124.844C24.8773 125.109 24.0986 125.242 23.2236 125.242ZM29.792 128.461V122.977H30.7686C31.0186 122.747 31.2295 122.474 31.4014 122.156C31.5785 121.839 31.7269 121.461 31.8467 121.023C31.9717 120.586 32.0758 120.076 32.1592 119.492C32.2425 118.904 32.3154 118.232 32.3779 117.477L32.7529 113H40.9092V122.977H42.7529V128.461H40.4717V125H32.1045V128.461H29.792ZM33.2686 122.977H38.6279V115H34.8467L34.5967 117.477C34.4769 118.737 34.3258 119.831 34.1436 120.758C33.9613 121.68 33.6696 122.419 33.2686 122.977ZM50.0908 125.242C48.9658 125.242 47.984 124.984 47.1455 124.469C46.307 123.953 45.6559 123.232 45.1924 122.305C44.7288 121.378 44.4971 120.294 44.4971 119.055C44.4971 117.81 44.7288 116.721 45.1924 115.789C45.6559 114.857 46.307 114.133 47.1455 113.617C47.984 113.102 48.9658 112.844 50.0908 112.844C51.2158 112.844 52.1976 113.102 53.0361 113.617C53.8747 114.133 54.5257 114.857 54.9893 115.789C55.4528 116.721 55.6846 117.81 55.6846 119.055C55.6846 120.294 55.4528 121.378 54.9893 122.305C54.5257 123.232 53.8747 123.953 53.0361 124.469C52.1976 124.984 51.2158 125.242 50.0908 125.242ZM50.0986 123.281C50.8278 123.281 51.432 123.089 51.9111 122.703C52.3903 122.318 52.7445 121.805 52.9736 121.164C53.208 120.523 53.3252 119.818 53.3252 119.047C53.3252 118.281 53.208 117.578 52.9736 116.937C52.7445 116.292 52.3903 115.773 51.9111 115.383C51.432 114.992 50.8278 114.797 50.0986 114.797C49.3643 114.797 48.7549 114.992 48.2705 115.383C47.7913 115.773 47.4346 116.292 47.2002 116.937C46.971 117.578 46.8564 118.281 46.8564 119.047C46.8564 119.818 46.971 120.523 47.2002 121.164C47.4346 121.805 47.7913 122.318 48.2705 122.703C48.7549 123.089 49.3643 123.281 50.0986 123.281ZM63.3467 125.242C62.1852 125.242 61.1852 124.979 60.3467 124.453C59.5133 123.922 58.8727 123.19 58.4248 122.258C57.9769 121.326 57.7529 120.258 57.7529 119.055C57.7529 117.836 57.9821 116.76 58.4404 115.828C58.8988 114.891 59.5446 114.159 60.3779 113.633C61.2113 113.107 62.193 112.844 63.3232 112.844C64.2347 112.844 65.0472 113.013 65.7607 113.352C66.4743 113.685 67.0498 114.154 67.4873 114.758C67.93 115.362 68.193 116.068 68.2764 116.875H66.0029C65.8779 116.312 65.5915 115.828 65.1436 115.422C64.7008 115.016 64.1071 114.812 63.3623 114.812C62.7113 114.812 62.141 114.984 61.6514 115.328C61.167 115.667 60.7894 116.151 60.5186 116.781C60.2477 117.406 60.1123 118.146 60.1123 119C60.1123 119.875 60.2451 120.63 60.5107 121.266C60.7764 121.901 61.1514 122.393 61.6357 122.742C62.1253 123.091 62.7008 123.266 63.3623 123.266C63.805 123.266 64.2061 123.185 64.5654 123.023C64.93 122.857 65.2347 122.62 65.4795 122.312C65.7295 122.005 65.904 121.635 66.0029 121.203H68.2764C68.193 121.979 67.9404 122.672 67.5186 123.281C67.0967 123.891 66.5316 124.37 65.8232 124.719C65.1201 125.068 64.2946 125.242 63.3467 125.242ZM69.8662 115.016V113H79.9912V115.016H76.0771V125H73.7959V115.016H69.8662ZM85.3955 125.266C84.6351 125.266 83.9476 125.125 83.333 124.844C82.7184 124.557 82.2314 124.143 81.8721 123.602C81.5179 123.06 81.3408 122.396 81.3408 121.609C81.3408 120.932 81.471 120.375 81.7314 119.937C81.9919 119.5 82.3434 119.154 82.7861 118.898C83.2288 118.643 83.7236 118.451 84.2705 118.32C84.8174 118.19 85.3747 118.091 85.9424 118.023C86.6611 117.94 87.2445 117.872 87.6924 117.82C88.1403 117.763 88.4658 117.672 88.6689 117.547C88.8721 117.422 88.9736 117.219 88.9736 116.937V116.883C88.9736 116.201 88.7809 115.672 88.3955 115.297C88.0153 114.922 87.4476 114.734 86.6924 114.734C85.9059 114.734 85.2861 114.909 84.833 115.258C84.3851 115.602 84.0752 115.984 83.9033 116.406L81.708 115.906C81.9684 115.177 82.3486 114.589 82.8486 114.141C83.3538 113.687 83.9346 113.359 84.5908 113.156C85.2471 112.948 85.9372 112.844 86.6611 112.844C87.1403 112.844 87.6481 112.901 88.1846 113.016C88.7262 113.125 89.2314 113.328 89.7002 113.625C90.1742 113.922 90.5622 114.346 90.8643 114.898C91.1663 115.445 91.3174 116.156 91.3174 117.031V125H89.0361V123.359H88.9424C88.7913 123.661 88.5648 123.958 88.2627 124.25C87.9606 124.542 87.5726 124.784 87.0986 124.977C86.6247 125.169 86.057 125.266 85.3955 125.266ZM85.9033 123.391C86.5492 123.391 87.1012 123.263 87.5596 123.008C88.0231 122.753 88.3747 122.419 88.6143 122.008C88.859 121.591 88.9814 121.146 88.9814 120.672V119.125C88.8981 119.208 88.7367 119.286 88.4971 119.359C88.2627 119.427 87.9945 119.487 87.6924 119.539C87.3903 119.586 87.096 119.63 86.8096 119.672C86.5231 119.708 86.2835 119.74 86.0908 119.766C85.6377 119.823 85.2236 119.919 84.8486 120.055C84.4788 120.19 84.182 120.385 83.958 120.641C83.7393 120.891 83.6299 121.224 83.6299 121.641C83.6299 122.219 83.8434 122.656 84.2705 122.953C84.6976 123.245 85.2419 123.391 85.9033 123.391ZM92.9404 115.016V113H103.065V115.016H99.1514V125H96.8701V115.016H92.9404ZM110.032 125.242C108.907 125.242 107.925 124.984 107.087 124.469C106.248 123.953 105.597 123.232 105.134 122.305C104.67 121.378 104.438 120.294 104.438 119.055C104.438 117.81 104.67 116.721 105.134 115.789C105.597 114.857 106.248 114.133 107.087 113.617C107.925 113.102 108.907 112.844 110.032 112.844C111.157 112.844 112.139 113.102 112.978 113.617C113.816 114.133 114.467 114.857 114.931 115.789C115.394 116.721 115.626 117.81 115.626 119.055C115.626 120.294 115.394 121.378 114.931 122.305C114.467 123.232 113.816 123.953 112.978 124.469C112.139 124.984 111.157 125.242 110.032 125.242ZM110.04 123.281C110.769 123.281 111.373 123.089 111.853 122.703C112.332 122.318 112.686 121.805 112.915 121.164C113.149 120.523 113.267 119.818 113.267 119.047C113.267 118.281 113.149 117.578 112.915 116.937C112.686 116.292 112.332 115.773 111.853 115.383C111.373 114.992 110.769 114.797 110.04 114.797C109.306 114.797 108.696 114.992 108.212 115.383C107.733 115.773 107.376 116.292 107.142 116.937C106.912 117.578 106.798 118.281 106.798 119.047C106.798 119.818 106.912 120.523 107.142 121.164C107.376 121.805 107.733 122.318 108.212 122.703C108.696 123.089 109.306 123.281 110.04 123.281ZM127.866 113V125H125.585V113H127.866ZM126.874 118.57V120.586C126.515 120.732 126.134 120.862 125.733 120.977C125.332 121.086 124.91 121.172 124.468 121.234C124.025 121.297 123.564 121.328 123.085 121.328C121.601 121.328 120.421 120.966 119.546 120.242C118.671 119.513 118.233 118.398 118.233 116.898V112.977H120.507V116.898C120.507 117.466 120.611 117.927 120.819 118.281C121.028 118.635 121.325 118.896 121.71 119.062C122.095 119.229 122.554 119.312 123.085 119.312C123.788 119.312 124.437 119.247 125.03 119.117C125.629 118.982 126.244 118.799 126.874 118.57ZM139.106 117.992V120.016H132.606V117.992H139.106ZM133.263 113V125H130.974V113H133.263ZM140.739 113V125H138.458V113H140.739ZM148.919 125.242C147.794 125.242 146.812 124.984 145.974 124.469C145.135 123.953 144.484 123.232 144.021 122.305C143.557 121.378 143.325 120.294 143.325 119.055C143.325 117.81 143.557 116.721 144.021 115.789C144.484 114.857 145.135 114.133 145.974 113.617C146.812 113.102 147.794 112.844 148.919 112.844C150.044 112.844 151.026 113.102 151.864 113.617C152.703 114.133 153.354 114.857 153.817 115.789C154.281 116.721 154.513 117.81 154.513 119.055C154.513 120.294 154.281 121.378 153.817 122.305C153.354 123.232 152.703 123.953 151.864 124.469C151.026 124.984 150.044 125.242 148.919 125.242ZM148.927 123.281C149.656 123.281 150.26 123.089 150.739 122.703C151.218 122.318 151.573 121.805 151.802 121.164C152.036 120.523 152.153 119.818 152.153 119.047C152.153 118.281 152.036 117.578 151.802 116.937C151.573 116.292 151.218 115.773 150.739 115.383C150.26 114.992 149.656 114.797 148.927 114.797C148.192 114.797 147.583 114.992 147.099 115.383C146.619 115.773 146.263 116.292 146.028 116.937C145.799 117.578 145.685 118.281 145.685 119.047C145.685 119.818 145.799 120.523 146.028 121.164C146.263 121.805 146.619 122.318 147.099 122.703C147.583 123.089 148.192 123.281 148.927 123.281ZM162.942 125V113H165.278V118.031H166.403L170.364 113H173.255L168.606 118.836L173.31 125H170.411L166.794 120.203H165.278V125H162.942ZM175.124 129.5V113H177.405V114.945H177.601C177.736 114.695 177.931 114.406 178.187 114.078C178.442 113.75 178.796 113.464 179.249 113.219C179.702 112.969 180.301 112.844 181.046 112.844C182.015 112.844 182.879 113.089 183.64 113.578C184.4 114.068 184.996 114.773 185.429 115.695C185.866 116.617 186.085 117.727 186.085 119.023C186.085 120.32 185.869 121.432 185.437 122.359C185.004 123.281 184.41 123.992 183.655 124.492C182.9 124.987 182.038 125.234 181.069 125.234C180.34 125.234 179.744 125.112 179.28 124.867C178.822 124.622 178.463 124.336 178.202 124.008C177.942 123.68 177.741 123.388 177.601 123.133H177.46V129.5H175.124ZM177.413 119C177.413 119.844 177.535 120.583 177.78 121.219C178.025 121.854 178.379 122.352 178.843 122.711C179.306 123.065 179.874 123.242 180.546 123.242C181.244 123.242 181.827 123.057 182.296 122.687C182.765 122.312 183.119 121.805 183.358 121.164C183.603 120.523 183.726 119.802 183.726 119C183.726 118.208 183.606 117.497 183.366 116.867C183.132 116.237 182.778 115.74 182.304 115.375C181.835 115.01 181.249 114.828 180.546 114.828C179.869 114.828 179.296 115.003 178.827 115.352C178.364 115.701 178.012 116.187 177.772 116.812C177.533 117.437 177.413 118.167 177.413 119ZM193.874 125.242C192.692 125.242 191.674 124.99 190.819 124.484C189.97 123.974 189.314 123.258 188.851 122.336C188.392 121.409 188.163 120.323 188.163 119.078C188.163 117.849 188.392 116.766 188.851 115.828C189.314 114.891 189.96 114.159 190.788 113.633C191.621 113.107 192.595 112.844 193.71 112.844C194.387 112.844 195.043 112.956 195.679 113.18C196.314 113.404 196.884 113.755 197.39 114.234C197.895 114.714 198.293 115.336 198.585 116.102C198.877 116.862 199.022 117.786 199.022 118.875V119.703H189.483V117.953H196.733C196.733 117.339 196.608 116.794 196.358 116.32C196.108 115.841 195.757 115.464 195.304 115.187C194.856 114.911 194.33 114.773 193.726 114.773C193.069 114.773 192.496 114.935 192.007 115.258C191.522 115.576 191.147 115.992 190.882 116.508C190.621 117.018 190.491 117.573 190.491 118.172V119.539C190.491 120.341 190.632 121.023 190.913 121.586C191.2 122.148 191.598 122.578 192.108 122.875C192.619 123.167 193.215 123.312 193.897 123.312C194.34 123.312 194.744 123.25 195.108 123.125C195.473 122.995 195.788 122.802 196.054 122.547C196.319 122.292 196.522 121.977 196.663 121.602L198.874 122C198.697 122.651 198.379 123.221 197.921 123.711C197.468 124.195 196.897 124.573 196.21 124.844C195.528 125.109 194.749 125.242 193.874 125.242ZM200.442 128.461V122.977H201.419C201.669 122.747 201.88 122.474 202.052 122.156C202.229 121.839 202.377 121.461 202.497 121.023C202.622 120.586 202.726 120.076 202.81 119.492C202.893 118.904 202.966 118.232 203.028 117.477L203.403 113H211.56V122.977H213.403V128.461H211.122V125H202.755V128.461H200.442ZM203.919 122.977H209.278V115H205.497L205.247 117.477C205.127 118.737 204.976 119.831 204.794 120.758C204.612 121.68 204.32 122.419 203.919 122.977ZM217.976 121.727L223.265 113H225.78V125H223.491V116.266L218.226 125H215.687V113H217.976V121.727ZM227.433 115.016V113H237.558V115.016H233.644V125H231.362V115.016H227.433ZM244.524 125.242C243.399 125.242 242.418 124.984 241.579 124.469C240.741 123.953 240.09 123.232 239.626 122.305C239.162 121.378 238.931 120.294 238.931 119.055C238.931 117.81 239.162 116.721 239.626 115.789C240.09 114.857 240.741 114.133 241.579 113.617C242.418 113.102 243.399 112.844 244.524 112.844C245.649 112.844 246.631 113.102 247.47 113.617C248.308 114.133 248.959 114.857 249.423 115.789C249.886 116.721 250.118 117.81 250.118 119.055C250.118 120.294 249.886 121.378 249.423 122.305C248.959 123.232 248.308 123.953 247.47 124.469C246.631 124.984 245.649 125.242 244.524 125.242ZM244.532 123.281C245.261 123.281 245.866 123.089 246.345 122.703C246.824 122.318 247.178 121.805 247.407 121.164C247.642 120.523 247.759 119.818 247.759 119.047C247.759 118.281 247.642 117.578 247.407 116.937C247.178 116.292 246.824 115.773 246.345 115.383C245.866 114.992 245.261 114.797 244.532 114.797C243.798 114.797 243.188 114.992 242.704 115.383C242.225 115.773 241.868 116.292 241.634 116.937C241.405 117.578 241.29 118.281 241.29 119.047C241.29 119.818 241.405 120.523 241.634 121.164C241.868 121.805 242.225 122.318 242.704 122.703C243.188 123.089 243.798 123.281 244.532 123.281ZM252.726 125V113H257.702C259.056 113 260.129 113.289 260.921 113.867C261.713 114.44 262.108 115.219 262.108 116.203C262.108 116.906 261.884 117.464 261.437 117.875C260.989 118.286 260.395 118.563 259.655 118.703C260.192 118.766 260.684 118.927 261.132 119.187C261.58 119.443 261.939 119.786 262.21 120.219C262.486 120.651 262.624 121.167 262.624 121.766C262.624 122.401 262.46 122.964 262.132 123.453C261.804 123.937 261.327 124.318 260.702 124.594C260.082 124.865 259.335 125 258.46 125H252.726ZM254.921 123.047H258.46C259.038 123.047 259.491 122.909 259.819 122.633C260.147 122.357 260.312 121.982 260.312 121.508C260.312 120.951 260.147 120.513 259.819 120.195C259.491 119.872 259.038 119.711 258.46 119.711H254.921V123.047ZM254.921 118H257.726C258.163 118 258.538 117.937 258.851 117.812C259.168 117.687 259.41 117.51 259.577 117.281C259.749 117.047 259.835 116.771 259.835 116.453C259.835 115.99 259.645 115.628 259.265 115.367C258.884 115.107 258.364 114.977 257.702 114.977H254.921V118ZM266.726 125.148C266.299 125.148 265.931 124.997 265.624 124.695C265.317 124.388 265.163 124.018 265.163 123.586C265.163 123.159 265.317 122.794 265.624 122.492C265.931 122.185 266.299 122.031 266.726 122.031C267.153 122.031 267.52 122.185 267.827 122.492C268.134 122.794 268.288 123.159 268.288 123.586C268.288 123.872 268.215 124.135 268.069 124.375C267.929 124.609 267.741 124.797 267.507 124.937C267.272 125.078 267.012 125.148 266.726 125.148Z" fill="white"/>
<circle cx="136" cy="42" r="42" fill="#373737"/>
<path d="M145.625 28L135.499 38.125L125.375 28L122 31.375L132.124 41.5L122 51.625L125.375 55L135.499 44.875L145.625 55L149 51.625L138.876 41.5L149 31.375L145.625 28Z" fill="#C4364E"/>
</svg>
