<?xml version="1.0" encoding="utf-8"?>
<svg xmlns="http://www.w3.org/2000/svg" xmlns:xlink="http://www.w3.org/1999/xlink">
  <symbol fill="none" viewBox="0 0 158 37" id="logo" xmlns="http://www.w3.org/2000/svg">
    <path d="M135.782 19.758c.176 0 .312.084.407.25.108.166.163.395.163.686 0 .54-.129.97-.387 1.29-.651.803-1.31 1.427-1.975 1.87-.664.43-1.452.646-2.361.646-.882 0-1.635-.243-2.259-.728-.611-.485-1.194-1.317-1.751-2.496-.447-.942-.8-1.636-1.058-2.08-.258-.457-.516-.783-.774-.977-.244-.194-.549-.312-.916-.353-.054.291-.21 1.206-.468 2.745a90.495 90.495 0 01-.203 1.268c-.136.846-.407 1.498-.814 1.955-.407.444-1.025.666-1.853.666-.909 0-1.716-.27-2.422-.811-.692-.555-1.228-1.317-1.608-2.288-.38-.984-.57-2.1-.57-3.348 0-2.329.394-4.34 1.181-6.03.8-1.692 1.913-2.981 3.338-3.868 1.438-.902 3.094-1.352 4.966-1.352 1.303 0 2.395.201 3.278.603.882.402 1.533.957 1.954 1.664.434.707.651 1.504.651 2.391 0 .776-.183 1.539-.55 2.287-.352.735-.888 1.387-1.608 1.955-.719.569-1.594.992-2.625 1.269.651.18 1.153.471 1.506.873s.706.991 1.059 1.768c.379.832.753 1.442 1.119 1.83.38.388.814.582 1.303.582.434 0 .848-.146 1.241-.437.394-.305.889-.818 1.486-1.539.163-.194.346-.29.55-.29zm-13.72-1.913c-.461 0-.78-.11-.956-.332a1.233 1.233 0 01-.244-.75c0-.332.101-.595.305-.79a1.07 1.07 0 01.733-.29h.509c.216-1.36.42-2.53.61-3.515.177-.901.747-1.352 1.71-1.352.774 0 1.16.354 1.16 1.06 0 .154-.006.271-.02.354l-.611 3.452a4.751 4.751 0 001.995-.54 3.657 3.657 0 001.445-1.331c.366-.569.55-1.213.55-1.934 0-.873-.292-1.56-.876-2.059-.583-.499-1.438-.748-2.564-.748-1.33 0-2.497.34-3.501 1.019-.991.665-1.764 1.663-2.321 2.994-.556 1.317-.834 2.925-.834 4.824 0 .888.088 1.65.265 2.288.176.638.393 1.116.651 1.435.258.319.502.478.732.478.177 0 .32-.09.428-.27.122-.18.217-.472.285-.874l.549-3.119zm22.622.167c.177 0 .312.09.407.27.095.18.142.409.142.686 0 .666-.196 1.06-.59 1.185-.814.292-1.71.458-2.687.5-.257 1.164-.767 2.1-1.526 2.807-.76.693-1.622 1.04-2.585 1.04-.814 0-1.513-.201-2.097-.604a3.843 3.843 0 01-1.303-1.6 5.23 5.23 0 01-.447-2.163c0-1.054.197-1.99.59-2.808.393-.831.936-1.476 1.628-1.934a3.997 3.997 0 012.3-.707c1.032 0 1.86.368 2.484 1.102.638.721 1.011 1.615 1.119 2.683.638-.042 1.398-.18 2.28-.416.108-.028.204-.041.285-.041zm-6.676 4.283c.434 0 .807-.18 1.119-.54.326-.36.543-.88.651-1.56a2.941 2.941 0 01-.977-1.144 3.538 3.538 0 01-.325-1.497c0-.222.02-.444.061-.665h-.102c-.543 0-.997.27-1.364.81-.352.527-.529 1.276-.529 2.246 0 .763.142 1.345.427 1.747.299.402.645.603 1.039.603zm13.193-2.537c.177 0 .312.084.407.25.109.166.163.395.163.686 0 .555-.129.984-.387 1.29a8.724 8.724 0 01-1.913 1.809c-.679.47-1.452.707-2.32.707-1.195 0-2.084-.555-2.667-1.664-.57-1.11-.855-2.544-.855-4.305 0-1.69.21-3.618.631-5.78.434-2.163 1.065-4.021 1.893-5.574.842-1.552 1.839-2.329 2.992-2.329.651 0 1.16.312 1.527.936.38.61.57 1.49.57 2.641 0 1.65-.448 3.563-1.344 5.74-.895 2.176-2.11 4.332-3.643 6.467.095.568.251.977.468 1.227.217.235.502.353.855.353.556 0 1.045-.16 1.465-.478.421-.333.957-.894 1.609-1.685.162-.194.345-.29.549-.29zm-2.504-12.851c-.312 0-.665.575-1.058 1.726-.394 1.15-.74 2.579-1.038 4.284a31.588 31.588 0 00-.489 4.907 27.166 27.166 0 002.301-4.866c.569-1.636.854-3.126.854-4.47 0-1.054-.19-1.581-.57-1.581zm7.311 14.556c.15-.138.299-.207.448-.207.163 0 .292.097.387.29.108.18.163.403.163.666 0 .582-.204 1.047-.611 1.393-.706.596-1.506.895-2.402.895-1.289 0-2.232-.548-2.829-1.643-.597-1.11-.896-2.551-.896-4.326 0-1.69.21-3.618.631-5.78.434-2.163 1.066-4.021 1.893-5.574.842-1.552 1.839-2.329 2.992-2.329.652 0 1.161.312 1.527.936.38.61.57 1.49.57 2.641 0 1.65-.448 3.563-1.344 5.74-.882 2.176-2.089 4.325-3.623 6.446.095.568.265.977.509 1.227.245.25.577.374.998.374.23 0 .488-.07.773-.208a3.21 3.21 0 00.814-.54zm-.671-14.556c-.313 0-.665.575-1.059 1.726-.394 1.15-.739 2.579-1.038 4.284a31.71 31.71 0 00-.489 4.907 27.166 27.166 0 002.301-4.866c.57-1.636.855-3.126.855-4.47 0-1.054-.191-1.581-.57-1.581z" fill="#C4364E"/>
    <path d="M36.376 7.156h7.823c2.712 0 4.976.995 6.79 2.986 1.816 1.971 2.723 4.391 2.723 7.26 0 2.85-.907 5.28-2.722 7.29-1.815 1.97-4.079 2.956-6.791 2.956h-7.823V7.156zm2.665 17.916h5.158c2.044 0 3.715-.732 5.014-2.195 1.3-1.484 1.949-3.308 1.949-5.475 0-2.166-.65-3.99-1.949-5.474-1.299-1.464-2.97-2.196-5.014-2.196H39.04v15.34zm27.67-4.303V13.01h2.493v14.637h-2.492V25.54c-.994 1.659-2.541 2.488-4.643 2.488-1.68 0-3.028-.537-4.04-1.61-1.013-1.093-1.519-2.567-1.519-4.42V13.01h2.493v8.841c0 1.171.316 2.088.946 2.752.63.663 1.5.995 2.608.995 1.28 0 2.292-.4 3.037-1.2.745-.82 1.118-2.03 1.118-3.63zm8.782-7.758v2.46c.821-1.816 2.312-2.723 4.47-2.723v2.664c-1.222-.059-2.273.273-3.152.995s-1.318 1.883-1.318 3.484v7.757H73V13.011h2.493zm17.989 2.518V13.01h2.493v14.637h-2.493V25.13c-1.223 1.932-3.028 2.898-5.416 2.898-2.025 0-3.735-.742-5.13-2.225-1.413-1.503-2.12-3.327-2.12-5.474 0-2.128.707-3.943 2.12-5.445 1.414-1.503 3.124-2.255 5.13-2.255 2.388 0 4.193.966 5.416 2.899zm-5.1 10.04c1.451 0 2.664-.497 3.638-1.492.975-1.035 1.462-2.284 1.462-3.747 0-1.484-.487-2.723-1.462-3.718-.974-1.015-2.187-1.522-3.639-1.522-1.432 0-2.636.507-3.61 1.522-.974.995-1.462 2.234-1.462 3.718 0 1.463.488 2.713 1.462 3.747.974.995 2.178 1.493 3.61 1.493zm16.413-5.473l7.078 7.552h-3.095l-6.533-6.938v6.938h-2.493V7.156h2.493v12.325l6.19-6.47h3.209l-6.849 7.085zM2.483 1.626C1.111 1.626 0 2.763 0 4.166v25.402c0 1.404 1.111 2.54 2.483 2.54h17.385c1.372 0 2.483-1.136 2.483-2.54v-25.4c0-1.404-1.111-2.54-2.483-2.54H2.483zm22.05.861c.183.529.302 1.088.302 1.68v25.402c0 1.4-.558 2.672-1.458 3.591l.92.15c1.354.218 2.627-.729 2.842-2.114l3.873-25.09c.215-1.385-.71-2.688-2.064-2.907l-4.414-.712zm-13.357 5.49c.255 0 .481.097.679.233l.058.015c2.204 1.835 6.713 6.383 6.713 9.278 0 2.455-1.946 4.445-4.346 4.445a4.236 4.236 0 01-2.646-.945c.638 1.741 1.644 2.813 2.879 3.53v.002a.634.634 0 01.388.588c0 .35-.278.635-.621.635H8.07a.628.628 0 01-.62-.635c0-.267.16-.494.387-.588v-.002c1.235-.715 2.241-1.789 2.88-3.53a4.235 4.235 0 01-2.647.945c-2.4 0-4.346-1.99-4.346-4.445 0-2.895 4.51-7.443 6.713-9.278l.058-.015c.198-.136.424-.233.68-.233z" fill="#fff"/>
  </symbol>
  <symbol fill="none" viewBox="0 0 140 28" id="logofooter" xmlns="http://www.w3.org/2000/svg">
    <path d="M120.571 18.657c.155 0 .274.076.358.229.096.152.143.362.143.628 0 .495-.113.89-.34 1.181-.572.737-1.151 1.308-1.736 1.715-.584.393-1.276.59-2.075.59-.776 0-1.438-.222-1.987-.667-.537-.444-1.05-1.206-1.539-2.285-.394-.864-.704-1.499-.931-1.905-.226-.42-.453-.718-.68-.895a1.506 1.506 0 00-.805-.324 220.05 220.05 0 00-.411 2.514 97.592 97.592 0 01-.179 1.162c-.12.775-.358 1.371-.716 1.79-.358.407-.901.61-1.629.61a3.318 3.318 0 01-2.129-.743c-.608-.508-1.08-1.206-1.414-2.095-.334-.902-.501-1.924-.501-3.067 0-2.133.346-3.974 1.038-5.524.704-1.549 1.682-2.73 2.935-3.542 1.264-.826 2.72-1.239 4.366-1.239 1.146 0 2.106.185 2.881.553.776.368 1.349.876 1.718 1.524.382.647.573 1.377.573 2.19a4.88 4.88 0 01-.483 2.095c-.31.673-.782 1.27-1.414 1.79-.632.521-1.402.909-2.309 1.163.573.165 1.014.431 1.325.8.31.368.62.908.931 1.619.333.762.662 1.32.983 1.676.335.355.716.533 1.146.533.382 0 .746-.133 1.092-.4.345-.279.781-.749 1.306-1.41.143-.177.304-.266.483-.266zm-12.062-1.752c-.405 0-.685-.102-.84-.305a1.157 1.157 0 01-.215-.686c0-.304.089-.546.268-.723a.922.922 0 01.644-.267h.448a107.8 107.8 0 01.537-3.22c.155-.825.656-1.237 1.503-1.237.68 0 1.02.323 1.02.971 0 .14-.006.248-.018.324l-.537 3.162a4.052 4.052 0 001.754-.495c.537-.293.96-.699 1.271-1.22.322-.52.483-1.11.483-1.77 0-.8-.257-1.43-.77-1.887-.513-.457-1.264-.685-2.255-.685-1.169 0-2.195.31-3.078.933-.871.61-1.55 1.524-2.04 2.743-.489 1.206-.733 2.68-.733 4.419 0 .813.077 1.511.232 2.095.155.584.346 1.022.573 1.314.227.293.441.439.644.439.155 0 .281-.083.376-.248.107-.165.191-.432.251-.8l.482-2.857zm19.888.152c.156 0 .275.083.358.248.084.165.126.374.126.628 0 .61-.173.972-.519 1.086a7.711 7.711 0 01-2.362.457c-.227 1.067-.675 1.924-1.343 2.572-.667.635-1.425.952-2.272.952-.716 0-1.33-.184-1.843-.552a3.498 3.498 0 01-1.146-1.467 4.964 4.964 0 01-.394-1.981c0-.965.174-1.822.52-2.571.345-.762.823-1.353 1.431-1.772a3.416 3.416 0 012.022-.648c.907 0 1.635.337 2.184 1.01.56.66.888 1.48.984 2.457.561-.038 1.229-.165 2.004-.38a.99.99 0 01.25-.039zm-5.869 3.924c.382 0 .71-.165.984-.495.286-.33.478-.807.573-1.429a2.66 2.66 0 01-.859-1.047 3.353 3.353 0 01-.287-1.372c0-.203.018-.406.054-.61h-.089c-.477 0-.877.248-1.199.743-.31.483-.466 1.169-.466 2.058 0 .698.126 1.231.376 1.6.263.368.567.552.913.552zm11.599-2.324c.155 0 .275.076.358.229.095.152.143.362.143.628 0 .508-.113.902-.34 1.181a7.827 7.827 0 01-1.682 1.657 3.392 3.392 0 01-2.04.648c-1.05 0-1.831-.508-2.344-1.524-.501-1.016-.752-2.33-.752-3.943 0-1.549.185-3.314.555-5.295.382-1.98.937-3.682 1.664-5.105.74-1.422 1.617-2.133 2.631-2.133.572 0 1.02.286 1.342.857.334.559.501 1.365.501 2.42 0 1.51-.394 3.263-1.181 5.256-.787 1.994-1.855 3.969-3.203 5.924.083.52.22.895.411 1.124a.956.956 0 00.752.324c.489 0 .918-.146 1.288-.438.37-.305.841-.82 1.414-1.543.143-.178.304-.267.483-.267zm-2.201-11.771c-.274 0-.584.527-.931 1.58-.346 1.055-.65 2.363-.912 3.925a30.257 30.257 0 00-.43 4.495 25.394 25.394 0 002.023-4.457c.501-1.499.751-2.864.751-4.096 0-.965-.167-1.447-.501-1.447zm6.427 13.333c.132-.127.263-.19.394-.19.143 0 .257.088.34.266.096.165.144.368.144.61 0 .533-.18.958-.537 1.276-.621.546-1.325.819-2.112.819-1.133 0-1.963-.502-2.488-1.505-.524-1.016-.787-2.336-.787-3.962 0-1.549.185-3.314.555-5.295.382-1.98.936-3.682 1.664-5.105.74-1.422 1.617-2.133 2.631-2.133.572 0 1.02.286 1.342.857.334.559.501 1.365.501 2.42 0 1.51-.394 3.263-1.181 5.256-.776 1.994-1.838 3.962-3.186 5.905.084.52.233.895.448 1.124.215.229.507.343.877.343.203 0 .429-.064.68-.19.262-.128.501-.293.715-.496zm-.59-13.333c-.275 0-.585.527-.931 1.58-.346 1.055-.65 2.363-.912 3.925a30.124 30.124 0 00-.43 4.495 25.394 25.394 0 002.023-4.457c.501-1.499.751-2.864.751-4.096 0-.965-.167-1.447-.501-1.447z" fill="#C4364E"/>
    <path d="M32 5h6.942c2.408 0 4.417.906 6.027 2.718 1.61 1.794 2.416 3.997 2.416 6.609 0 2.594-.805 4.805-2.416 6.635-1.61 1.794-3.62 2.692-6.027 2.692H32V5zm2.365 16.309h4.577c1.814 0 3.298-.667 4.45-1.999 1.153-1.35 1.73-3.011 1.73-4.983 0-1.972-.577-3.633-1.73-4.983-1.152-1.333-2.636-1.999-4.45-1.999h-4.577v13.964zm24.556-3.918V10.33h2.213v13.324H58.92v-1.92C58.04 23.246 56.666 24 54.801 24c-1.491 0-2.686-.488-3.585-1.466-.898-.994-1.348-2.336-1.348-4.023V10.33h2.213v8.047c0 1.066.28 1.901.839 2.505.56.604 1.33.906 2.314.906 1.136 0 2.034-.364 2.695-1.092.662-.747.992-1.848.992-3.305zm7.793-7.061v2.238c.73-1.652 2.052-2.478 3.968-2.478v2.425c-1.085-.054-2.018.248-2.798.906-.78.657-1.17 1.714-1.17 3.17v7.063h-2.212V10.33h2.212zm15.966 2.29v-2.29h2.212v13.324H82.68v-2.292C81.594 23.12 79.992 24 77.873 24c-1.798 0-3.315-.675-4.553-2.025-1.254-1.368-1.881-3.03-1.881-4.983 0-1.937.627-3.589 1.882-4.957 1.254-1.368 2.771-2.052 4.552-2.052 2.119 0 3.72.88 4.806 2.638zm-4.527 9.14c1.289 0 2.365-.452 3.23-1.358.864-.942 1.297-2.079 1.297-3.411 0-1.35-.433-2.479-1.297-3.385-.865-.923-1.941-1.385-3.23-1.385-1.271 0-2.34.462-3.204 1.385-.865.906-1.297 2.034-1.297 3.385 0 1.332.432 2.469 1.297 3.41.865.907 1.933 1.36 3.204 1.36zm14.567-4.983L99 23.654h-2.746l-5.798-6.316v6.316h-2.213V5h2.213v11.219l5.492-5.89h2.849l-6.078 6.45zM2.24 0A2.24 2.24 0 000 2.243V24.67a2.24 2.24 0 002.24 2.242h15.68a2.24 2.24 0 002.24-2.242V2.243A2.24 2.24 0 0017.92 0H2.24zm19.89.76c.164.466.27.96.27 1.483V24.67a4.47 4.47 0 01-1.314 3.17l.829.132a2.243 2.243 0 002.564-1.866l3.493-22.15a2.242 2.242 0 00-1.862-2.567L22.13.76zM10.08 5.607c.23 0 .435.086.613.206l.052.013c1.988 1.62 6.055 5.635 6.055 8.19a3.922 3.922 0 01-3.92 3.926c-.904 0-1.724-.32-2.386-.835.575 1.537 1.483 2.484 2.596 3.117v.002a.56.56 0 01-.21 1.08h-5.6a.56.56 0 01-.21-1.08v-.002c1.113-.632 2.021-1.58 2.597-3.117a3.871 3.871 0 01-2.387.835 3.922 3.922 0 01-3.92-3.925c0-2.556 4.067-6.57 6.055-8.191l.053-.013a1.09 1.09 0 01.612-.206z" fill="#fff"/>
  </symbol>
  <symbol fill="none" viewBox="0 0 24 18" id="youtube" xmlns="http://www.w3.org/2000/svg">
    <path d="M22.927 6.154v6.15c0 2.61-2.12 4.73-4.73 4.73H5.423a4.733 4.733 0 01-4.73-4.73v-6.15a4.731 4.731 0 014.73-4.73h12.772a4.732 4.732 0 014.731 4.73z" fill="#EA4640"/>
    <path d="M15.358 9.229L9.68 11.594v-4.73l5.677 2.365z" fill="#fff"/>
    <path d="M18.196.95H5.424A5.21 5.21 0 00.22 6.154v6.15a5.21 5.21 0 005.204 5.203h12.772a5.21 5.21 0 005.204-5.204v-6.15A5.21 5.21 0 0018.196.95zm4.258 11.353a4.262 4.262 0 01-4.258 4.258H5.424a4.262 4.262 0 01-4.258-4.258v-6.15a4.262 4.262 0 014.258-4.257h12.772a4.262 4.262 0 014.258 4.258v6.15z" fill="#231F20"/>
    <path d="M15.54 8.792L9.863 6.427a.473.473 0 00-.655.436v4.731a.473.473 0 00.655.437l5.677-2.366a.473.473 0 000-.873zm-5.386 2.092V7.573l3.974 1.656-3.974 1.655z" fill="#231F20"/>
  </symbol>
  <symbol fill="none" viewBox="0 0 24 18" id="vk_footer" xmlns="http://www.w3.org/2000/svg">
    <path d="M22.927 6.154v6.15c0 2.61-2.12 4.73-4.73 4.73H5.423a4.733 4.733 0 01-4.73-4.73v-6.15a4.731 4.731 0 014.73-4.73h12.772a4.732 4.732 0 014.731 4.73z" fill="#EA4640"/>
    <path d="M15.358 9.229L9.68 11.594v-4.73l5.677 2.365z" fill="#fff"/>
    <path d="M18.196.95H5.424A5.21 5.21 0 00.22 6.154v6.15a5.21 5.21 0 005.204 5.203h12.772a5.21 5.21 0 005.204-5.204v-6.15A5.21 5.21 0 0018.196.95zm4.258 11.353a4.262 4.262 0 01-4.258 4.258H5.424a4.262 4.262 0 01-4.258-4.258v-6.15a4.262 4.262 0 014.258-4.257h12.772a4.262 4.262 0 014.258 4.258v6.15z" fill="#231F20"/>
    <path d="M15.54 8.792L9.863 6.427a.473.473 0 00-.655.436v4.731a.473.473 0 00.655.437l5.677-2.366a.473.473 0 000-.873zm-5.386 2.092V7.573l3.974 1.656-3.974 1.655z" fill="#231F20"/>
  </symbol>
</svg>