<svg width="32" height="32" viewBox="0 0 32 32" fill="none" xmlns="http://www.w3.org/2000/svg">
<path d="M2.48347 0C1.11135 0 0 1.13673 0 2.54019V27.9421C0 29.3456 1.11135 30.4823 2.48347 30.4823H19.8677C21.2399 30.4823 22.3512 29.3456 22.3512 27.9421V2.54019C22.3512 1.13673 21.2399 0 19.8677 0H2.48347ZM24.5339 0.860787C24.7165 1.38915 24.8347 1.94833 24.8347 2.54019V27.9421C24.8347 29.343 24.2774 30.6145 23.3771 31.5341L24.2963 31.6829C25.651 31.9014 26.9238 30.9551 27.1387 29.5694L31.0118 4.48005C31.2266 3.09438 30.3026 1.79119 28.9479 1.57274L24.5339 0.860787ZM11.1756 6.35046C11.4314 6.35046 11.6573 6.44776 11.8547 6.58364L11.9129 6.59852C14.117 8.43384 18.626 12.9816 18.626 15.8762C18.626 18.3313 16.6802 20.3215 14.2799 20.3215C13.2779 20.3215 12.3679 19.9594 11.634 19.3764C12.2722 21.1177 13.2785 22.19 14.5128 22.9064V22.9089C14.74 23.0028 14.9008 23.2301 14.9008 23.4967C14.9008 23.8473 14.6226 24.1318 14.2799 24.1318H11.1756H8.07125C7.72855 24.1318 7.4504 23.8473 7.4504 23.4967C7.4504 23.2301 7.61122 23.0028 7.83843 22.9089V22.9064C9.07274 22.1913 10.079 21.1177 10.7172 19.3764C9.98337 19.9594 9.07334 20.3215 8.07125 20.3215C5.67101 20.3215 3.7252 18.3313 3.7252 15.8762C3.7252 12.9816 8.23423 8.43384 10.4383 6.59852L10.4965 6.58364C10.694 6.44776 10.9198 6.35046 11.1756 6.35046Z" fill="black"/>
</svg>
