<svg width="30" height="30" fill="none" xmlns="http://www.w3.org/2000/svg"><g filter="url(#filter0_d_102_169)"><path d="M26.991 9.004a3.132 3.132 0 00-2.202-2.208c-1.958-.537-9.79-.546-9.79-.546s-7.83-.009-9.788.505a3.2 3.2 0 00-2.207 2.223c-.517 1.957-.522 6.017-.522 6.017s-.005 4.08.508 6.018a3.132 3.132 0 002.204 2.206c1.977.537 9.787.546 9.787.546s7.831.009 9.789-.504a3.145 3.145 0 002.209-2.203c.517-1.957.52-6.015.52-6.015s.026-4.082-.508-6.04zm-14.496 9.752l.006-7.5 6.509 3.756-6.515 3.744z" fill="#FF5B5B"/></g><defs><filter id="filter0_d_102_169" x="-35.518" y="-27.75" width="101.018" height="93.515" filterUnits="userSpaceOnUse" color-interpolation-filters="sRGB"><feFlood flood-opacity="0" result="BackgroundImageFix"/><feColorMatrix in="SourceAlpha" values="0 0 0 0 0 0 0 0 0 0 0 0 0 0 0 0 0 0 127 0" result="hardAlpha"/><feOffset dy="4"/><feGaussianBlur stdDeviation="19"/><feComposite in2="hardAlpha" operator="out"/><feColorMatrix values="0 0 0 0 0 0 0 0 0 0 0 0 0 0 0 0 0 0 0.25 0"/><feBlend in2="BackgroundImageFix" result="effect1_dropShadow_102_169"/><feBlend in="SourceGraphic" in2="effect1_dropShadow_102_169" result="shape"/></filter></defs></svg>