<svg width="18" height="18" fill="none" xmlns="http://www.w3.org/2000/svg"><path d="M1.758 11.453l1.5 2.595a.75.75 0 001.024.274l1.047-.604c.435.342.916.623 1.422.834v1.198a.75.75 0 00.75.75h3a.75.75 0 00.75-.75v-1.198c.51-.213.987-.493 1.421-.835l1.047.605a.753.753 0 001.024-.274l1.5-2.595a.753.753 0 00-.273-1.024l-1.03-.595a5.79 5.79 0 000-1.668l1.028-.595a.752.752 0 00.274-1.024l-1.5-2.595a.75.75 0 00-1.025-.274l-1.046.604a6.026 6.026 0 00-1.421-.833V2.25a.75.75 0 00-.75-.75h-3a.75.75 0 00-.75.75v1.199a6.07 6.07 0 00-1.421.833l-1.047-.604a.75.75 0 00-1.024.274l-1.5 2.595a.753.753 0 00.274 1.024l1.029.595a5.762 5.762 0 000 1.668l-1.03.595a.752.752 0 00-.273 1.024zM9 6c1.655 0 3 1.346 3 3 0 1.655-1.345 3-3 3s-3-1.345-3-3c0-1.654 1.345-3 3-3z" fill="#575757"/></svg>