<svg width="60" height="60" fill="none" xmlns="http://www.w3.org/2000/svg"><path d="M30 .833C13.917.833.833 13.918.833 30v12.084c0 2.986 2.616 5.416 5.833 5.416h2.917a2.917 2.917 0 002.917-2.917v-15a2.917 2.917 0 00-2.917-2.917H6.935c1.621-11.287 11.334-20 23.065-20 11.73 0 21.443 8.713 23.065 20h-2.649a2.916 2.916 0 00-2.916 2.917V47.5a5.84 5.84 0 01-5.834 5.833h-5.833v-2.916H24.166v8.75h17.5c6.434 0 11.667-5.233 11.667-11.667 3.217 0 5.833-2.43 5.833-5.416V30C59.166 13.918 46.082.833 30 .833z" fill="#BFBFBF"/></svg>