<svg width="26" height="15" fill="none" xmlns="http://www.w3.org/2000/svg"><path d="M24.474 1.008c.175-.582 0-1.008-.828-1.008h-2.741c-.698 0-1.016.369-1.191.774 0 0-1.394 3.399-3.369 5.602-.637.641-.929.844-1.276.844-.174 0-.427-.202-.427-.784V1.008c0-.698-.2-1.008-.782-1.008H9.553c-.436 0-.698.323-.698.63 0 .66.987.812 1.089 2.673v4.035c0 .883-.159 1.045-.509 1.045-.929 0-3.189-3.412-4.53-7.317C4.644.307 4.38.001 3.68.001H.94C.156.001 0 .37 0 .775c0 .727.929 4.327 4.326 9.089 2.265 3.251 5.454 5.013 8.359 5.013 1.741 0 1.956-.39 1.956-1.066v-2.457c0-.783.166-.94.718-.94.405 0 1.102.205 2.728 1.771 1.858 1.857 2.166 2.691 3.21 2.691h2.74c.782 0 1.173-.391.948-1.163-.246-.77-1.134-1.888-2.311-3.212-.64-.755-1.596-1.567-1.888-1.973-.406-.524-.289-.756 0-1.22.002 0 3.34-4.702 3.688-6.3z" fill="#5B9DFF"/></svg>