<svg width="848" height="881" viewBox="0 0 848 881" fill="none" xmlns="http://www.w3.org/2000/svg">
<path opacity="0.999" fill-rule="evenodd" clip-rule="evenodd" d="M416.5 32.5C418.833 35.5 421.5 38.1667 424.5 40.5C427.502 43.1612 429.502 46.4945 430.5 50.5C430.796 52.403 431.463 54.0697 432.5 55.5C433.8 65.1622 433.8 74.8289 432.5 84.5C432.5 84.8333 432.5 85.1667 432.5 85.5C432.738 87.4044 433.738 88.7377 435.5 89.5C435.738 91.4044 436.738 92.7377 438.5 93.5C438.427 95.0269 439.094 96.0269 440.5 96.5C442.008 98.1815 443.008 100.181 443.5 102.5C443.66 104.153 444.326 105.486 445.5 106.5C446.13 110.048 447.13 113.381 448.5 116.5C449.253 120.517 449.92 124.684 450.5 129C449.697 133.845 449.03 138.345 448.5 142.5C447.455 142.687 446.788 143.854 446.5 146C446.639 147.301 447.305 148.134 448.5 148.5C448.833 149.167 449.167 149.833 449.5 150.5C449.577 151.75 450.244 152.583 451.5 153C453.387 153.78 455.054 153.613 456.5 152.5C457.5 152.5 458.5 152.5 459.5 152.5C460.221 154.382 461.221 154.715 462.5 153.5C468.665 154.209 474.665 155.542 480.5 157.5C480.791 158.649 481.624 159.316 483 159.5C484.735 160.226 486.235 160.226 487.5 159.5C487.833 159.5 488.167 159.5 488.5 159.5C489.475 161.513 491.142 162.846 493.5 163.5C494.107 163.376 494.44 163.043 494.5 162.5C513.905 170.364 530.238 182.364 543.5 198.5C544.08 200.749 545.413 202.415 547.5 203.5C548.117 203.611 548.617 203.944 549 204.5C551.946 195.942 555.946 187.942 561 180.5C562.535 177.706 564.702 175.706 567.5 174.5C570.243 172.761 572.243 170.427 573.5 167.5C573.833 166.5 574.5 165.833 575.5 165.5C578.167 164.833 579.833 163.167 580.5 160.5C592.638 149.199 604.971 138.032 617.5 127C619.387 126.22 621.054 126.387 622.5 127.5C622.66 129.153 623.326 130.486 624.5 131.5C625.15 133.435 625.483 135.435 625.5 137.5C627.701 147.3 630.034 156.967 632.5 166.5C633.795 170.267 634.461 174.267 634.5 178.5C634.335 181.518 634.502 184.518 635 187.5C635.278 188.416 635.778 189.082 636.5 189.5C636.5 189.833 636.5 190.167 636.5 190.5C636.295 200.192 636.295 209.859 636.5 219.5C636.384 222.86 636.051 226.193 635.5 229.5C633.656 231.279 632.99 233.612 633.5 236.5C633.089 240.221 632.422 243.888 631.5 247.5C628.339 249.92 626.673 253.253 626.5 257.5C625.674 260.485 624.341 263.151 622.5 265.5C621.094 265.973 620.427 266.973 620.5 268.5C617.941 273.073 614.941 277.406 611.5 281.5C614.161 283.494 616.494 285.827 618.5 288.5C618.973 289.906 619.973 290.573 621.5 290.5C622.833 291.833 624.167 293.167 625.5 294.5C626.419 297.089 628.086 299.089 630.5 300.5C631.5 301.167 632.5 301.833 633.5 302.5C633.427 304.027 634.094 305.027 635.5 305.5C636.419 308.089 638.086 310.089 640.5 311.5C641.5 311.833 642.167 312.5 642.5 313.5C642.427 315.027 643.094 316.027 644.5 316.5C644.738 318.404 645.738 319.738 647.5 320.5C649.192 322.205 650.525 324.205 651.5 326.5C651.427 328.027 652.094 329.027 653.5 329.5C654.674 330.514 655.34 331.847 655.5 333.5C655.427 335.027 656.094 336.027 657.5 336.5C660.949 341.735 663.616 347.402 665.5 353.5C666.36 358.207 668.027 362.541 670.5 366.5C672.751 378.711 675.418 390.711 678.5 402.5C678.5 403.5 678.5 404.5 678.5 405.5C677.167 415.5 677.167 425.5 678.5 435.5C678.5 435.833 678.5 436.167 678.5 436.5C677.275 437.152 676.608 438.319 676.5 440C676.514 441.385 676.848 442.551 677.5 443.5C677.5 443.833 677.5 444.167 677.5 444.5C676.883 444.611 676.383 444.944 676 445.5C675.661 448.036 675.161 450.536 674.5 453C674.57 453.765 674.903 454.265 675.5 454.5C675.5 454.833 675.5 455.167 675.5 455.5C674.414 455.62 673.747 456.287 673.5 457.5C672.698 460.449 672.364 463.449 672.5 466.5C672.5 466.833 672.5 467.167 672.5 467.5C670.256 471.793 668.923 476.46 668.5 481.5C667.63 486.223 665.964 490.556 663.5 494.5C662.412 496.516 661.412 498.683 660.5 501C660.57 501.765 660.903 502.265 661.5 502.5C661.5 503.167 661.167 503.5 660.5 503.5C659.503 503.47 658.836 503.97 658.5 505C657.434 508.094 656.768 511.26 656.5 514.5C656.5 516.5 656.5 518.5 656.5 520.5C654.955 521.23 654.122 522.563 654 524.5C653.204 527.039 653.371 529.372 654.5 531.5C654.5 533.5 654.5 535.5 654.5 537.5C652.954 542.119 653.62 546.452 656.5 550.5C658.105 553.378 659.439 556.378 660.5 559.5C661.5 562.5 663.5 564.5 666.5 565.5C669.032 566.596 671.365 567.929 673.5 569.5C673.918 570.222 674.584 570.722 675.5 571C678.833 571.333 682.167 571.667 685.5 572C686.066 572.995 686.733 573.828 687.5 574.5C687.573 576.027 686.906 577.027 685.5 577.5C684.094 577.973 683.427 578.973 683.5 580.5C671.307 593.968 656.307 598.635 638.5 594.5C636.264 596.574 635.597 598.908 636.5 601.5C636.5 601.833 636.5 602.167 636.5 602.5C635.837 604.641 635.503 606.975 635.5 609.5C635.363 613.447 636.03 617.114 637.5 620.5C637.603 623.636 638.603 626.302 640.5 628.5C641.11 629.391 641.443 630.391 641.5 631.5C641.427 633.027 642.094 634.027 643.5 634.5C643.5 634.833 643.5 635.167 643.5 635.5C643.427 637.027 644.094 638.027 645.5 638.5C648.528 643.564 651.195 648.897 653.5 654.5C653.66 656.153 654.326 657.486 655.5 658.5C656.309 660.028 656.976 661.694 657.5 663.5C659.155 671.834 661.155 679.834 663.5 687.5C663.64 693.536 663.307 699.536 662.5 705.5C661.351 705.791 660.684 706.624 660.5 708C659.388 712.496 658.388 716.996 657.5 721.5C657.204 723.403 656.537 725.07 655.5 726.5C653.992 728.181 652.992 730.181 652.5 732.5C634.846 761.502 608.846 775.668 574.5 775C569.554 776.806 564.888 779.139 560.5 782C556.968 783.632 553.301 784.799 549.5 785.5C545.832 786.556 542.165 787.722 538.5 789C537.244 789.417 536.577 790.25 536.5 791.5C516.923 797.727 496.923 802.061 476.5 804.5C474.372 803.371 472.039 803.204 469.5 804C467.347 804.099 465.681 804.933 464.5 806.5C463.167 806.5 461.833 806.5 460.5 806.5C457.66 805.083 454.993 805.416 452.5 807.5C433.167 807.5 413.833 807.5 394.5 807.5C393.306 806.223 391.64 805.556 389.5 805.5C387.631 805.507 385.964 805.84 384.5 806.5C383.833 806.5 383.167 806.5 382.5 806.5C380.68 804.539 378.68 804.206 376.5 805.5C365.13 804.049 353.796 802.383 342.5 800.5C341.281 798.699 339.448 797.699 337 797.5C336.235 797.57 335.735 797.903 335.5 798.5C328.455 796.655 321.455 794.655 314.5 792.5C312.208 790.733 309.542 789.733 306.5 789.5C304.574 787.707 302.241 786.707 299.5 786.5C297.297 786.396 295.297 785.73 293.5 784.5C290.753 781.793 287.42 780.127 283.5 779.5C281.517 778.529 279.517 777.529 277.5 776.5C276.177 774.318 274.51 773.651 272.5 774.5C259.912 775.714 247.912 773.714 236.5 768.5C232.151 765.659 227.484 763.326 222.5 761.5C207.797 753.139 197.463 741.139 191.5 725.5C189.536 718.482 187.536 712.149 185.5 706.5C184.509 700.021 184.176 693.354 184.5 686.5C185.646 682.164 186.646 677.664 187.5 673C187.43 672.235 187.097 671.735 186.5 671.5C186.5 671.167 186.5 670.833 186.5 670.5C188.755 668.469 190.088 665.802 190.5 662.5C191.263 658.863 192.597 655.53 194.5 652.5C196.25 651.341 197.25 649.674 197.5 647.5C201.52 638.411 205.52 629.411 209.5 620.5C211.625 616.562 212.625 612.228 212.5 607.5C212.867 603.347 211.867 599.68 209.5 596.5C208.432 595.566 207.099 595.232 205.5 595.5C198.329 594.642 190.995 593.976 183.5 593.5C182.391 593.443 181.391 593.11 180.5 592.5C177.76 590.44 174.76 588.774 171.5 587.5C170.167 586.833 169.167 585.833 168.5 584.5C166.785 582.118 164.785 580.118 162.5 578.5C160.466 576.345 160.133 574.012 161.5 571.5C165.182 571.665 168.848 571.499 172.5 571C173.756 570.583 174.423 569.75 174.5 568.5C178.646 566.927 182.313 564.593 185.5 561.5C186.906 561.027 187.573 560.027 187.5 558.5C191.724 550.377 193.391 541.711 192.5 532.5C193.645 528.689 193.812 524.689 193 520.5C192.617 519.944 192.117 519.611 191.5 519.5C191.5 519.167 191.5 518.833 191.5 518.5C190.548 510.978 188.215 503.978 184.5 497.5C184.5 497.167 184.5 496.833 184.5 496.5C182.965 489.784 180.632 483.45 177.5 477.5C176.699 475.958 176.366 474.292 176.5 472.5C176.211 466.328 174.544 460.662 171.5 455.5C171.167 453.5 170.833 451.5 170.5 449.5C171.139 448.903 171.472 448.07 171.5 447C170.877 443.519 170.377 440.019 170 436.5C169.617 435.944 169.117 435.611 168.5 435.5C168.5 435.167 168.5 434.833 168.5 434.5C169.33 424.341 169.83 414.008 170 403.5C171.386 392.739 173.219 382.072 175.5 371.5C175.721 368.933 176.388 366.599 177.5 364.5C179.02 362.11 180.02 359.443 180.5 356.5C181.611 352.277 183.278 348.277 185.5 344.5C187.539 343.089 188.539 341.089 188.5 338.5C189.906 338.027 190.573 337.027 190.5 335.5C191.584 332.996 192.917 330.663 194.5 328.5C195.906 328.027 196.573 327.027 196.5 325.5C197.34 323.147 198.674 321.147 200.5 319.5C202.727 318.599 203.727 316.933 203.5 314.5C204.833 312.5 206.5 310.833 208.5 309.5C210.914 308.089 212.581 306.089 213.5 303.5C214.167 302.167 215.167 301.167 216.5 300.5C218.833 298.833 220.833 296.833 222.5 294.5C226.331 289.836 230.664 285.67 235.5 282C234.619 281.292 233.953 280.458 233.5 279.5C233.573 277.973 232.906 276.973 231.5 276.5C228.095 272.705 225.429 268.372 223.5 263.5C222.624 259.418 220.957 255.751 218.5 252.5C218.405 250.214 217.738 248.214 216.5 246.5C215.076 244.485 214.41 242.152 214.5 239.5C214.41 237.304 214.077 235.137 213.5 233C213.316 231.624 212.649 230.791 211.5 230.5C211.5 229.5 211.5 228.5 211.5 227.5C212.139 226.903 212.472 226.07 212.5 225C211.885 213.348 211.218 201.848 210.5 190.5C210.5 190.167 210.5 189.833 210.5 189.5C213.141 181.284 214.808 172.618 215.5 163.5C215.325 161.379 215.659 159.379 216.5 157.5C217.38 155.863 218.046 154.03 218.5 152C218.43 151.235 218.097 150.735 217.5 150.5C217.5 150.167 217.5 149.833 217.5 149.5C220.504 145.157 222.17 140.157 222.5 134.5C222.523 132.073 223.023 129.74 224 127.5C225.943 126.193 227.777 126.193 229.5 127.5C230.911 129.914 232.911 131.581 235.5 132.5C237.167 133.5 238.5 134.833 239.5 136.5C240.911 138.914 242.911 140.581 245.5 141.5C246.5 141.833 247.167 142.5 247.5 143.5C248.585 145.587 250.251 146.92 252.5 147.5C253.833 148.167 254.833 149.167 255.5 150.5C255.973 151.906 256.973 152.573 258.5 152.5C264.823 157.491 270.823 162.824 276.5 168.5C276.5 170.5 277.5 171.5 279.5 171.5C280.5 171.833 281.167 172.5 281.5 173.5C282.08 175.749 283.413 177.415 285.5 178.5C287.19 178.856 288.19 179.856 288.5 181.5C288.738 183.404 289.738 184.738 291.5 185.5C291.427 187.027 292.094 188.027 293.5 188.5C293.427 190.027 294.094 191.027 295.5 191.5C297.065 193.509 298.065 195.843 298.5 198.5C299.025 202.533 300.358 206.2 302.5 209.5C302.345 212.853 303.012 213.186 304.5 210.5C306.338 205.335 309.338 201.001 313.5 197.5C315.262 196.738 316.262 195.404 316.5 193.5C317.5 191.833 318.833 190.5 320.5 189.5C323.5 188.5 325.5 186.5 326.5 183.5C340.781 172.442 356.781 164.609 374.5 160C376.921 155.154 379.587 150.488 382.5 146C381.025 142.65 380.358 139.15 380.5 135.5C380.593 129.484 380.926 123.484 381.5 117.5C382.47 110.581 384.804 104.248 388.5 98.5C389.906 98.0269 390.573 97.0269 390.5 95.5C392.226 91.8801 394.559 88.7134 397.5 86C394.992 79.4307 393.992 72.5974 394.5 65.5C396.904 60.9623 398.57 55.9623 399.5 50.5C399.66 48.847 400.326 47.5137 401.5 46.5C402.906 46.0269 403.573 45.0269 403.5 43.5C405.927 39.8951 408.593 36.3951 411.5 33C413.134 32.5065 414.801 32.3398 416.5 32.5Z" fill="#0E0C0F"/>
<path opacity="0.024" fill-rule="evenodd" clip-rule="evenodd" d="M416.5 32.5C420.167 34.1667 422.833 36.8333 424.5 40.5C421.5 38.1667 418.833 35.5 416.5 32.5Z" fill="#838383"/>
<path fill-rule="evenodd" clip-rule="evenodd" d="M414.5 40.5C423.437 48.3795 428.103 58.3795 428.5 70.5C427.542 77.4855 427.376 84.4855 428 91.5C441.839 107.371 446.006 125.538 440.5 146C445.079 155.658 449.246 165.491 453 175.5C454.717 185.815 454.883 196.148 453.5 206.5C454.423 210.648 456.257 214.314 459 217.5C460.599 220.991 460.766 224.491 459.5 228C434.394 241.772 415.394 261.439 402.5 287C387.574 288.148 374.407 283.981 363 274.5C362.125 273.127 361.625 271.627 361.5 270C362.745 248.266 368.079 227.6 377.5 208C374.262 192.874 375.429 178.041 381 163.5C383.795 157.541 387.295 152.207 391.5 147.5C389.285 144.975 388.118 141.975 388 138.5C387.333 131.833 387.333 125.167 388 118.5C389.773 112.287 392.106 106.287 395 100.5C398.695 95.6383 402.195 90.6383 405.5 85.5C398.868 68.662 401.868 53.662 414.5 40.5Z" fill="#F0CEF2"/>
<path opacity="0.165" fill-rule="evenodd" clip-rule="evenodd" d="M403.5 43.5C403.573 45.0269 402.906 46.0269 401.5 46.5C401.427 44.9731 402.094 43.9731 403.5 43.5Z" fill="#A2A2A2"/>
<path opacity="0.376" fill-rule="evenodd" clip-rule="evenodd" d="M430.5 50.5C432.213 51.6354 432.88 53.302 432.5 55.5C431.463 54.0697 430.796 52.403 430.5 50.5Z" fill="#9F9F9F"/>
<path opacity="0.525" fill-rule="evenodd" clip-rule="evenodd" d="M399.5 50.5C398.57 55.9623 396.904 60.9623 394.5 65.5C395.195 60.0828 396.861 55.0828 399.5 50.5Z" fill="#626262"/>
<path opacity="0.938" fill-rule="evenodd" clip-rule="evenodd" d="M432.5 55.5C434.629 60.1465 435.629 65.1465 435.5 70.5C435.733 75.5517 434.733 80.2184 432.5 84.5C433.8 74.8289 433.8 65.1622 432.5 55.5Z" fill="#434343"/>
<path opacity="0.012" fill-rule="evenodd" clip-rule="evenodd" d="M432.5 85.5C434.262 86.2623 435.262 87.5956 435.5 89.5C433.738 88.7377 432.738 87.4044 432.5 85.5Z" fill="#A3A3A3"/>
<path opacity="0.506" fill-rule="evenodd" clip-rule="evenodd" d="M435.5 89.5C437.262 90.2623 438.262 91.5956 438.5 93.5C436.738 92.7377 435.738 91.4044 435.5 89.5Z" fill="#8C8C8C"/>
<path opacity="0.173" fill-rule="evenodd" clip-rule="evenodd" d="M438.5 93.5C439.906 93.9731 440.573 94.9731 440.5 96.5C439.094 96.0269 438.427 95.0269 438.5 93.5Z" fill="#B7B7B7"/>
<path opacity="0.247" fill-rule="evenodd" clip-rule="evenodd" d="M390.5 95.5C390.573 97.0269 389.906 98.0269 388.5 98.5C388.427 96.9731 389.094 95.9731 390.5 95.5Z" fill="#9C9C9C"/>
<path opacity="0.145" fill-rule="evenodd" clip-rule="evenodd" d="M443.5 102.5C445.104 103.287 445.771 104.62 445.5 106.5C444.326 105.486 443.66 104.153 443.5 102.5Z" fill="#A7A7A7"/>
<path opacity="0.055" fill-rule="evenodd" clip-rule="evenodd" d="M445.5 106.5C447.68 109.381 448.68 112.714 448.5 116.5C447.13 113.381 446.13 110.048 445.5 106.5Z" fill="#A6A6A6"/>
<path opacity="0.178" fill-rule="evenodd" clip-rule="evenodd" d="M381.5 117.5C380.926 123.484 380.593 129.484 380.5 135.5C379.171 129.434 379.505 123.434 381.5 117.5Z" fill="#7B7B7B"/>
<path opacity="0.082" fill-rule="evenodd" clip-rule="evenodd" d="M229.5 127.5C232.089 128.419 234.089 130.086 235.5 132.5C232.911 131.581 230.911 129.914 229.5 127.5Z" fill="#7F7F7F"/>
<path opacity="0.133" fill-rule="evenodd" clip-rule="evenodd" d="M622.5 127.5C624.104 128.287 624.771 129.62 624.5 131.5C623.326 130.486 622.66 129.153 622.5 127.5Z" fill="#A7A7A7"/>
<path opacity="0.071" fill-rule="evenodd" clip-rule="evenodd" d="M239.5 136.5C242.089 137.419 244.089 139.086 245.5 141.5C242.911 140.581 240.911 138.914 239.5 136.5Z" fill="#828282"/>
<path fill-rule="evenodd" clip-rule="evenodd" d="M228.5 136.5C243.775 149.267 258.942 162.267 274 175.5C283.511 184.523 290.511 195.189 295 207.5C295.898 212.491 296.732 217.491 297.5 222.5C295.962 229.245 294.128 235.912 292 242.5C290.915 250.183 289.748 257.85 288.5 265.5C282.704 243.223 271.037 224.723 253.5 210C251.067 208.368 248.567 206.868 246 205.5C244.739 205.759 243.739 206.426 243 207.5C237.891 230.537 241.558 251.87 254 271.5C258.744 276.75 263.911 281.417 269.5 285.5C267.416 289.336 265.083 293.003 262.5 296.5C236.157 278.178 221.323 252.845 218 220.5C216.65 201.312 217.984 182.312 222 163.5C224.328 154.521 226.495 145.521 228.5 136.5Z" fill="#DECDF1"/>
<path fill-rule="evenodd" clip-rule="evenodd" d="M617.5 136.5C629.235 168.527 632.402 201.527 627 235.5C620.552 262.105 606.052 283.105 583.5 298.5C580.632 294.615 577.632 290.782 574.5 287C592.221 274.404 602.387 257.237 605 235.5C605.667 226.5 605.667 217.5 605 208.5C604.051 205.8 602.217 204.967 599.5 206C584.859 213.307 574.359 224.474 568 239.5C563.635 230.604 559.135 221.771 554.5 213C558.185 197.965 565.518 184.965 576.5 174C590.363 161.634 604.029 149.134 617.5 136.5Z" fill="#DECDF1"/>
<path opacity="0.42" fill-rule="evenodd" clip-rule="evenodd" d="M222.5 134.5C222.17 140.157 220.504 145.157 217.5 149.5C218.992 144.357 220.659 139.357 222.5 134.5Z" fill="#7D7D7D"/>
<path opacity="0.039" fill-rule="evenodd" clip-rule="evenodd" d="M247.5 143.5C249.749 144.08 251.415 145.413 252.5 147.5C250.251 146.92 248.585 145.587 247.5 143.5Z" fill="#898989"/>
<path opacity="0.055" fill-rule="evenodd" clip-rule="evenodd" d="M448.5 142.5C447.62 144.611 447.62 146.611 448.5 148.5C447.305 148.134 446.639 147.301 446.5 146C446.788 143.854 447.455 142.687 448.5 142.5Z" fill="#626262"/>
<path opacity="0.016" fill-rule="evenodd" clip-rule="evenodd" d="M255.5 150.5C257.027 150.427 258.027 151.094 258.5 152.5C256.973 152.573 255.973 151.906 255.5 150.5Z" fill="#898989"/>
<path opacity="0.318" fill-rule="evenodd" clip-rule="evenodd" d="M625.5 137.5C629.216 146.726 631.549 156.393 632.5 166.5C630.034 156.967 627.701 147.3 625.5 137.5Z" fill="#808080"/>
<path opacity="0.031" fill-rule="evenodd" clip-rule="evenodd" d="M449.5 150.5C451.701 151.566 454.035 152.233 456.5 152.5C455.054 153.613 453.387 153.78 451.5 153C450.244 152.583 449.577 151.75 449.5 150.5Z" fill="#797979"/>
<path opacity="0.518" fill-rule="evenodd" clip-rule="evenodd" d="M217.5 150.5C218.097 150.735 218.43 151.235 218.5 152C218.046 154.03 217.38 155.863 216.5 157.5C216.448 155.097 216.781 152.764 217.5 150.5Z" fill="#8A8A8A"/>
<path opacity="0.463" fill-rule="evenodd" clip-rule="evenodd" d="M459.5 152.5C460.791 152.263 461.791 152.596 462.5 153.5C461.221 154.715 460.221 154.382 459.5 152.5Z" fill="#929292"/>
<path opacity="0.055" fill-rule="evenodd" clip-rule="evenodd" d="M480.5 157.5C482.894 158.015 485.228 158.681 487.5 159.5C486.235 160.226 484.735 160.226 483 159.5C481.624 159.316 480.791 158.649 480.5 157.5Z" fill="#626262"/>
<path fill-rule="evenodd" clip-rule="evenodd" d="M455.5 160.5C512.114 168.274 548.614 199.607 565 254.5C566.719 264.295 564.385 272.961 558 280.5C542.722 292.56 526.222 302.727 508.5 311C489.148 318.509 470.148 326.842 451.5 336C427.769 348.062 410.602 366.228 400 390.5C384.165 324.327 404.332 272.16 460.5 234C465.167 231.667 469.833 229.333 474.5 227C475.833 225.333 475.833 223.667 474.5 222C472.102 221.626 469.769 221.626 467.5 222C466.257 217.088 463.757 212.921 460 209.5C460.505 199.193 460.505 188.859 460 178.5C458.803 172.411 457.303 166.411 455.5 160.5Z" fill="#B865FD"/>
<path opacity="0.345" fill-rule="evenodd" clip-rule="evenodd" d="M488.5 159.5C490.574 160.514 492.574 161.514 494.5 162.5C494.44 163.043 494.107 163.376 493.5 163.5C491.142 162.846 489.475 161.513 488.5 159.5Z" fill="#666666"/>
<path opacity="0.741" fill-rule="evenodd" clip-rule="evenodd" d="M580.5 160.5C579.833 163.167 578.167 164.833 575.5 165.5C576.833 163.5 578.5 161.833 580.5 160.5Z" fill="#707070"/>
<path opacity="0.667" fill-rule="evenodd" clip-rule="evenodd" d="M276.5 168.5C277.833 169.167 278.833 170.167 279.5 171.5C277.5 171.5 276.5 170.5 276.5 168.5Z" fill="#8C8C8C"/>
<path fill-rule="evenodd" clip-rule="evenodd" d="M370.5 168.5C371.586 168.62 372.253 169.287 372.5 170.5C369.35 183.182 368.684 196.015 370.5 209C360.157 229.204 354.99 250.704 355 273.5C344.687 296.48 327.854 312.647 304.5 322C297.844 324.078 291.344 326.578 285 329.5C284.5 329.167 284 328.833 283.5 328.5C288.426 320.328 291.926 311.661 294 302.5C293.589 280.578 295.589 258.911 300 237.5C311.183 201.816 334.683 178.816 370.5 168.5Z" fill="#B865FC"/>
<path opacity="0.733" fill-rule="evenodd" clip-rule="evenodd" d="M573.5 167.5C572.243 170.427 570.243 172.761 567.5 174.5C568.757 171.573 570.757 169.239 573.5 167.5Z" fill="#6C6C6C"/>
<path opacity="0.776" fill-rule="evenodd" clip-rule="evenodd" d="M281.5 173.5C283.587 174.585 284.92 176.251 285.5 178.5C283.413 177.415 282.08 175.749 281.5 173.5Z" fill="#707070"/>
<path opacity="0.2" fill-rule="evenodd" clip-rule="evenodd" d="M215.5 163.5C214.808 172.618 213.141 181.284 210.5 189.5C211.421 180.565 213.088 171.899 215.5 163.5Z" fill="#656565"/>
<path opacity="0.357" fill-rule="evenodd" clip-rule="evenodd" d="M634.5 178.5C635.687 181.946 636.354 185.613 636.5 189.5C635.778 189.082 635.278 188.416 635 187.5C634.502 184.518 634.335 181.518 634.5 178.5Z" fill="#5E5E5E"/>
<path opacity="0.376" fill-rule="evenodd" clip-rule="evenodd" d="M288.5 181.5C290.262 182.262 291.262 183.596 291.5 185.5C289.738 184.738 288.738 183.404 288.5 181.5Z" fill="#8A8A8A"/>
<path opacity="0.286" fill-rule="evenodd" clip-rule="evenodd" d="M291.5 185.5C292.906 185.973 293.573 186.973 293.5 188.5C292.094 188.027 291.427 187.027 291.5 185.5Z" fill="#979797"/>
<path opacity="0.737" fill-rule="evenodd" clip-rule="evenodd" d="M326.5 183.5C325.5 186.5 323.5 188.5 320.5 189.5C322.167 187.167 324.167 185.167 326.5 183.5Z" fill="#616161"/>
<path opacity="0.192" fill-rule="evenodd" clip-rule="evenodd" d="M293.5 188.5C294.906 188.973 295.573 189.973 295.5 191.5C294.094 191.027 293.427 190.027 293.5 188.5Z" fill="#A6A6A6"/>
<path opacity="0.682" fill-rule="evenodd" clip-rule="evenodd" d="M316.5 193.5C316.262 195.404 315.262 196.738 313.5 197.5C313.738 195.596 314.738 194.262 316.5 193.5Z" fill="#848484"/>
<path opacity="0.757" fill-rule="evenodd" clip-rule="evenodd" d="M543.5 198.5C545.587 199.585 546.92 201.251 547.5 203.5C545.413 202.415 544.08 200.749 543.5 198.5Z" fill="#6C6C6C"/>
<path opacity="0.067" fill-rule="evenodd" clip-rule="evenodd" d="M210.5 190.5C211.218 201.848 211.885 213.348 212.5 225C212.472 226.07 212.139 226.903 211.5 227.5C209.263 215.268 208.93 202.934 210.5 190.5Z" fill="#5A5A5A"/>
<path opacity="0.193" fill-rule="evenodd" clip-rule="evenodd" d="M636.5 190.5C637.804 200.174 637.804 209.84 636.5 219.5C636.295 209.859 636.295 200.192 636.5 190.5Z" fill="#5D5D5D"/>
<path opacity="0.573" fill-rule="evenodd" clip-rule="evenodd" d="M298.5 198.5C300.89 201.689 302.223 205.356 302.5 209.5C300.358 206.2 299.025 202.533 298.5 198.5Z" fill="#6F6F6F"/>
<path opacity="0.098" fill-rule="evenodd" clip-rule="evenodd" d="M302.5 209.5C303.167 209.833 303.833 210.167 304.5 210.5C303.012 213.186 302.345 212.853 302.5 209.5Z" fill="#B7B7B7"/>
<path fill-rule="evenodd" clip-rule="evenodd" d="M597.5 215.5C598.486 219.97 598.819 224.637 598.5 229.5C598.111 251.953 588.611 269.286 570 281.5C568.5 281.333 567.667 280.5 567.5 279C568.94 275.51 570.273 272.01 571.5 268.5C572.676 262.317 572.676 255.983 571.5 249.5C574.861 241.113 579.027 233.113 584 225.5C588.084 221.548 592.584 218.214 597.5 215.5Z" fill="#B194D3"/>
<path fill-rule="evenodd" clip-rule="evenodd" d="M248.5 215.5C266.208 228.914 277.541 246.58 282.5 268.5C279.891 272.284 277.057 275.951 274 279.5C258.447 269.404 249.78 255.07 248 236.5C247.24 229.45 247.407 222.45 248.5 215.5Z" fill="#B093D1"/>
<path fill-rule="evenodd" clip-rule="evenodd" d="M597.5 215.5C597.56 214.957 597.893 214.624 598.5 214.5C599.814 219.652 599.814 224.652 598.5 229.5C598.819 224.637 598.486 219.97 597.5 215.5Z" fill="#443951"/>
<path opacity="0.553" fill-rule="evenodd" clip-rule="evenodd" d="M635.5 229.5C635.279 232.067 634.612 234.401 633.5 236.5C632.99 233.612 633.656 231.279 635.5 229.5Z" fill="#656565"/>
<path opacity="0.498" fill-rule="evenodd" clip-rule="evenodd" d="M211.5 230.5C212.649 230.791 213.316 231.624 213.5 233C214.077 235.137 214.41 237.304 214.5 239.5C213.131 236.702 212.131 233.702 211.5 230.5Z" fill="#717171"/>
<path opacity="0.475" fill-rule="evenodd" clip-rule="evenodd" d="M216.5 246.5C217.738 248.214 218.405 250.214 218.5 252.5C216.926 250.898 216.259 248.898 216.5 246.5Z" fill="#868686"/>
<path opacity="0.137" fill-rule="evenodd" clip-rule="evenodd" d="M631.5 247.5C630.343 251.147 628.677 254.48 626.5 257.5C626.673 253.253 628.339 249.92 631.5 247.5Z" fill="#636363"/>
<path fill-rule="evenodd" clip-rule="evenodd" d="M571.5 249.5C572.676 255.983 572.676 262.317 571.5 268.5C571.233 261.966 571.233 255.632 571.5 249.5Z" fill="#67557A"/>
<path opacity="0.286" fill-rule="evenodd" clip-rule="evenodd" d="M218.5 252.5C220.957 255.751 222.624 259.418 223.5 263.5C221.043 260.249 219.376 256.582 218.5 252.5Z" fill="#868686"/>
<path opacity="0.01" fill-rule="evenodd" clip-rule="evenodd" d="M622.5 265.5C622.573 267.027 621.906 268.027 620.5 268.5C620.427 266.973 621.094 265.973 622.5 265.5Z" fill="#848484"/>
<path fill-rule="evenodd" clip-rule="evenodd" d="M520.5 604.5C519.818 595.302 518.985 585.968 518 576.5C516.701 573.994 515.701 571.327 515 568.5C514.051 566.907 512.885 565.574 511.5 564.5C511.923 563.735 512.257 562.902 512.5 562C510.253 554.378 505.253 549.711 497.5 548C491.763 547.211 486.097 547.544 480.5 549C474.488 551.67 468.821 554.836 463.5 558.5C455.785 537.065 446.952 516.065 437 495.5C434.533 491.4 431.699 487.566 428.5 484C425.594 482.682 422.594 482.348 419.5 483C414.565 487.932 410.399 493.432 407 499.5C397.917 518.99 389.417 538.657 381.5 558.5C374.852 553.677 367.519 550.177 359.5 548C345.503 544.986 336.503 550.152 332.5 563.5C329.805 567.738 327.972 572.405 327 577.5C326.501 581.486 326.334 585.486 326.5 589.5C325.124 577.254 319.457 567.42 309.5 560C262.457 534.084 242.29 494.251 249 440.5C250.605 424.45 252.605 408.45 255 392.5C255.297 395.295 256.797 396.961 259.5 397.5C261.461 396.921 262.461 395.587 262.5 393.5C248.235 353.327 254.068 316.327 280 282.5C282.667 279.833 285.333 277.167 288 274.5C290.795 296.766 285.461 316.766 272 334.5C270.836 337.567 271.836 339.233 275 339.5C295.04 333.707 313.873 325.207 331.5 314C343.655 305.027 352.989 293.86 359.5 280.5C367.277 286.556 375.944 290.722 385.5 293C389.821 293.499 394.154 293.666 398.5 293.5C384.001 330.782 383.835 368.115 398 405.5C401.716 408.475 404.049 407.475 405 402.5C406.727 389.713 411.727 378.38 420 368.5C434.318 353.416 451.151 341.916 470.5 334C504.115 322.529 535.115 306.362 563.5 285.5C593.784 317.021 600.784 353.188 584.5 394C587.758 398.817 590.258 398.317 592 392.5C598.344 423.231 600.01 454.231 597 485.5C588.653 517.846 569.82 542.012 540.5 558C529.368 565.072 522.868 575.239 521 588.5C520.501 593.823 520.334 599.156 520.5 604.5Z" fill="#DFCEF2"/>
<path opacity="0.055" fill-rule="evenodd" clip-rule="evenodd" d="M231.5 276.5C232.906 276.973 233.573 277.973 233.5 279.5C232.094 279.027 231.427 278.027 231.5 276.5Z" fill="#818181"/>
<path fill-rule="evenodd" clip-rule="evenodd" d="M604.5 287.5C605.552 287.351 606.552 287.517 607.5 288C658.31 330.399 678.81 384.566 669 450.5C667.158 461.362 664.491 472.029 661 482.5C653.204 498.961 648.371 516.294 646.5 534.5C646.618 548.22 651.285 560.054 660.5 570C665.19 573.845 670.523 576.345 676.5 577.5C669.107 585.358 659.94 589.025 649 588.5C638.669 589.283 630.169 585.783 623.5 578C619.333 576.833 617.833 578.333 619 582.5C622.528 586.675 626.695 590.008 631.5 592.5C628.852 599.276 628.018 606.276 629 613.5C630.193 620.412 632.193 627.079 635 633.5C641.801 645.435 647.801 657.768 653 670.5C662.127 715.419 645.627 746.586 603.5 764C596.541 765.966 589.541 766.799 582.5 766.5C594.046 754.209 599.713 739.543 599.5 722.5C594.956 656.834 590.789 591.167 587 525.5C600.09 506.408 606.256 485.241 605.5 462C604.235 432.542 601.568 403.209 597.5 374C602.693 349.31 599.026 326.144 586.5 304.5C593.125 299.543 599.125 293.877 604.5 287.5Z" fill="#B865FC"/>
<path fill-rule="evenodd" clip-rule="evenodd" d="M239.5 287.5C246.145 292.827 252.812 298.161 259.5 303.5C248.468 326.138 245.468 349.805 250.5 374.5C246.6 402.071 243.6 429.738 241.5 457.5C241.086 475.548 244.253 492.881 251 509.5C253.245 514.997 256.245 519.997 260 524.5C256.466 587.516 252.466 650.516 248 713.5C245.638 734.079 251.471 751.912 265.5 767C224.872 763.929 200.372 742.429 192 702.5C190.724 691.278 191.724 680.278 195 669.5C199.199 658.769 204.199 648.436 210 638.5C214.667 628.833 217.501 618.666 218.5 608C218.358 602.808 217.358 597.808 215.5 593C220.267 589.907 224.767 586.407 229 582.5C229.5 579 228 577.5 224.5 578C214.199 588.099 201.865 591.432 187.5 588C181.836 586.084 176.669 583.251 172 579.5C171.517 578.552 171.351 577.552 171.5 576.5C186.034 573.134 195.201 564.134 199 549.5C201.359 536.35 200.692 523.35 197 510.5C192.667 498.833 188.333 487.167 184 475.5C162.846 400.823 181.346 338.156 239.5 287.5Z" fill="#B865FD"/>
<path opacity="0.01" fill-rule="evenodd" clip-rule="evenodd" d="M618.5 288.5C620.027 288.427 621.027 289.094 621.5 290.5C619.973 290.573 618.973 289.906 618.5 288.5Z" fill="#CDCDCD"/>
<path opacity="0.761" fill-rule="evenodd" clip-rule="evenodd" d="M625.5 294.5C627.914 295.911 629.581 297.911 630.5 300.5C628.086 299.089 626.419 297.089 625.5 294.5Z" fill="#797979"/>
<path opacity="0.549" fill-rule="evenodd" clip-rule="evenodd" d="M222.5 294.5C220.833 296.833 218.833 298.833 216.5 300.5C217.5 297.5 219.5 295.5 222.5 294.5Z" fill="#888888"/>
<path opacity="0.584" fill-rule="evenodd" clip-rule="evenodd" d="M633.5 302.5C634.906 302.973 635.573 303.973 635.5 305.5C634.094 305.027 633.427 304.027 633.5 302.5Z" fill="#929292"/>
<path opacity="0.639" fill-rule="evenodd" clip-rule="evenodd" d="M213.5 303.5C212.581 306.089 210.914 308.089 208.5 309.5C209.419 306.911 211.086 304.911 213.5 303.5Z" fill="#656565"/>
<path opacity="0.384" fill-rule="evenodd" clip-rule="evenodd" d="M635.5 305.5C637.914 306.911 639.581 308.911 640.5 311.5C638.086 310.089 636.419 308.089 635.5 305.5Z" fill="#8C8C8C"/>
<path opacity="0.624" fill-rule="evenodd" clip-rule="evenodd" d="M642.5 313.5C643.906 313.973 644.573 314.973 644.5 316.5C643.094 316.027 642.427 315.027 642.5 313.5Z" fill="#8F8F8F"/>
<path opacity="0.573" fill-rule="evenodd" clip-rule="evenodd" d="M203.5 314.5C203.727 316.933 202.727 318.599 200.5 319.5C201.11 317.566 202.11 315.899 203.5 314.5Z" fill="#929292"/>
<path opacity="0.565" fill-rule="evenodd" clip-rule="evenodd" d="M644.5 316.5C646.262 317.262 647.262 318.596 647.5 320.5C645.738 319.738 644.738 318.404 644.5 316.5Z" fill="#8E8E8E"/>
<path opacity="0.267" fill-rule="evenodd" clip-rule="evenodd" d="M196.5 325.5C196.573 327.027 195.906 328.027 194.5 328.5C194.427 326.973 195.094 325.973 196.5 325.5Z" fill="#939393"/>
<path opacity="0.463" fill-rule="evenodd" clip-rule="evenodd" d="M651.5 326.5C652.906 326.973 653.573 327.973 653.5 329.5C652.094 329.027 651.427 328.027 651.5 326.5Z" fill="#9D9D9D"/>
<path opacity="0.322" fill-rule="evenodd" clip-rule="evenodd" d="M655.5 333.5C656.906 333.973 657.573 334.973 657.5 336.5C656.094 336.027 655.427 335.027 655.5 333.5Z" fill="#A2A2A2"/>
<path opacity="0.204" fill-rule="evenodd" clip-rule="evenodd" d="M190.5 335.5C190.573 337.027 189.906 338.027 188.5 338.5C188.427 336.973 189.094 335.973 190.5 335.5Z" fill="#A8A8A8"/>
<path opacity="0.173" fill-rule="evenodd" clip-rule="evenodd" d="M188.5 338.5C188.539 341.089 187.539 343.089 185.5 344.5C185.992 342.181 186.992 340.181 188.5 338.5Z" fill="#ABABAB"/>
<path fill-rule="evenodd" clip-rule="evenodd" d="M509.5 358.5C535.019 357.201 550.019 369.034 554.5 394C555.457 400.485 552.791 403.485 546.5 403C543.698 397.313 540.531 391.813 537 386.5C528.51 378.363 518.677 376.363 507.5 380.5C504.312 380.144 502.145 378.477 501 375.5C499.945 370.313 500.778 365.48 503.5 361C505.611 360.155 507.611 359.322 509.5 358.5Z" fill="#0F0C11"/>
<path fill-rule="evenodd" clip-rule="evenodd" d="M316.5 358.5C323.874 358.384 331.208 358.884 338.5 360C341.383 361.432 342.717 363.765 342.5 367C342.494 374.501 338.827 378.668 331.5 379.5C309.37 375.563 293.704 383.729 284.5 404C279.915 405.261 277.249 403.594 276.5 399C280.628 376.373 293.961 362.873 316.5 358.5Z" fill="#0D0A10"/>
<path opacity="0.263" fill-rule="evenodd" clip-rule="evenodd" d="M665.5 353.5C667.964 357.444 669.63 361.777 670.5 366.5C668.027 362.541 666.36 358.207 665.5 353.5Z" fill="#909090"/>
<path opacity="0.369" fill-rule="evenodd" clip-rule="evenodd" d="M180.5 356.5C180.02 359.443 179.02 362.11 177.5 364.5C177.415 361.351 178.415 358.684 180.5 356.5Z" fill="#9A9A9A"/>
<path fill-rule="evenodd" clip-rule="evenodd" d="M507.5 362.5C525.722 359.945 539.222 366.612 548 382.5C550.228 388.048 550.728 393.715 549.5 399.5C546.524 395.561 544.024 391.228 542 386.5C532.468 374.973 520.634 371.473 506.5 376C504.012 371.383 504.345 366.883 507.5 362.5Z" fill="#B362F5"/>
<path fill-rule="evenodd" clip-rule="evenodd" d="M316.5 362.5C323.547 362.337 330.547 362.837 337.5 364C338.912 367.703 338.412 371.203 336 374.5C322.107 372.845 308.94 375.345 296.5 382C293.667 384.833 290.833 387.667 288 390.5C280.407 404.006 278.74 403.006 283 387.5C290.071 373.586 301.237 365.253 316.5 362.5Z" fill="#B362F6"/>
<path opacity="0.424" fill-rule="evenodd" clip-rule="evenodd" d="M175.5 371.5C173.219 382.072 171.386 392.739 170 403.5C169.83 414.008 169.33 424.341 168.5 434.5C168.333 423.162 168.5 411.828 169 400.5C170.093 390.472 172.26 380.805 175.5 371.5Z" fill="#6C6C6C"/>
<path opacity="0.345" fill-rule="evenodd" clip-rule="evenodd" d="M670.5 366.5C674.399 378.109 677.066 390.109 678.5 402.5C675.418 390.711 672.751 378.711 670.5 366.5Z" fill="#5F5F5F"/>
<path fill-rule="evenodd" clip-rule="evenodd" d="M325.5 392.5C337.068 391.535 346.902 395.202 355 403.5C369.359 424.692 370.693 446.692 359 469.5C343.083 490.444 325.749 491.778 307 473.5C296.864 458.243 293.864 441.577 298 423.5C302.117 408.557 311.284 398.224 325.5 392.5Z" fill="#0F0F10"/>
<path fill-rule="evenodd" clip-rule="evenodd" d="M495.5 395.5C507.45 394.725 516.617 399.392 523 409.5C533.808 433.954 529.974 455.787 511.5 475C489.724 486.737 474.557 480.904 466 457.5C460.659 435.932 465.825 417.432 481.5 402C485.903 399.055 490.569 396.888 495.5 395.5Z" fill="#0E0E0F"/>
<path fill-rule="evenodd" clip-rule="evenodd" d="M326.5 400.5C345.691 400.164 357.524 409.497 362 428.5C362.667 436.833 362.667 445.167 362 453.5C359.894 464.722 354.061 473.389 344.5 479.5C330.751 484.974 319.584 481.64 311 469.5C299.712 450.565 299.712 431.565 311 412.5C315.459 407.381 320.625 403.381 326.5 400.5Z" fill="#F9F9F9"/>
<path fill-rule="evenodd" clip-rule="evenodd" d="M493.5 404.5C499.434 403.889 505.1 404.722 510.5 407C519.284 415.003 523.617 425.003 523.5 437C523.251 451.567 517.917 463.9 507.5 474C488.503 482.767 476.336 476.934 471 456.5C467.832 438.681 472.332 423.181 484.5 410C487.298 407.696 490.298 405.862 493.5 404.5Z" fill="#F8F8F8"/>
<path opacity="0.059" fill-rule="evenodd" clip-rule="evenodd" d="M678.5 405.5C679.774 415.511 679.774 425.511 678.5 435.5C677.167 425.5 677.167 415.5 678.5 405.5Z" fill="#6A6A6A"/>
<path fill-rule="evenodd" clip-rule="evenodd" d="M332.5 430.5C339.527 429.074 345.193 431.074 349.5 436.5C343.352 438.129 341.519 441.795 344 447.5C347.056 450.006 350.223 450.006 353.5 447.5C357.052 458.034 354.719 467.201 346.5 475C333.982 480.327 325.482 476.494 321 463.5C319.301 453.961 320.634 444.961 325 436.5C327.114 433.879 329.614 431.879 332.5 430.5Z" fill="#060606"/>
<path fill-rule="evenodd" clip-rule="evenodd" d="M497.5 430.5C502.242 430.136 506.408 431.47 510 434.5C511.009 436.025 511.509 437.692 511.5 439.5C507.43 438.508 505.43 440.008 505.5 444C506.384 449.716 509.217 450.883 514 447.5C516.37 461.084 510.87 469.75 497.5 473.5C490.638 472.138 486.138 468.138 484 461.5C480.448 447.297 484.948 436.964 497.5 430.5Z" fill="#050505"/>
<path opacity="0.569" fill-rule="evenodd" clip-rule="evenodd" d="M168.5 435.5C169.117 435.611 169.617 435.944 170 436.5C170.377 440.019 170.877 443.519 171.5 447C171.472 448.07 171.139 448.903 170.5 449.5C169.555 444.886 168.888 440.219 168.5 435.5Z" fill="#6D6D6D"/>
<path opacity="0.608" fill-rule="evenodd" clip-rule="evenodd" d="M678.5 436.5C678.326 438.861 677.993 441.194 677.5 443.5C676.848 442.551 676.514 441.385 676.5 440C676.608 438.319 677.275 437.152 678.5 436.5Z" fill="#626262"/>
<path opacity="0.478" fill-rule="evenodd" clip-rule="evenodd" d="M677.5 444.5C677.212 447.939 676.546 451.272 675.5 454.5C674.903 454.265 674.57 453.765 674.5 453C675.161 450.536 675.661 448.036 676 445.5C676.383 444.944 676.883 444.611 677.5 444.5Z" fill="#666666"/>
<path opacity="0.816" fill-rule="evenodd" clip-rule="evenodd" d="M675.5 455.5C674.866 459.373 673.866 463.039 672.5 466.5C672.364 463.449 672.698 460.449 673.5 457.5C673.747 456.287 674.414 455.62 675.5 455.5Z" fill="#4E4E4E"/>
<path opacity="0.788" fill-rule="evenodd" clip-rule="evenodd" d="M171.5 455.5C174.544 460.662 176.211 466.328 176.5 472.5C174.077 467.16 172.411 461.493 171.5 455.5Z" fill="#646464"/>
<path opacity="0.243" fill-rule="evenodd" clip-rule="evenodd" d="M672.5 467.5C672.15 472.54 670.816 477.206 668.5 481.5C668.923 476.46 670.256 471.793 672.5 467.5Z" fill="#838383"/>
<path fill-rule="evenodd" clip-rule="evenodd" d="M463.5 558.5C460.405 561.636 460.905 563.97 465 565.5C470.156 562.349 475.323 559.182 480.5 556C487.681 553.682 494.681 554.015 501.5 557C503.743 559.488 505.743 562.154 507.5 565C509.066 565.765 510.399 565.598 511.5 564.5C512.885 565.574 514.051 566.907 515 568.5C515.701 571.327 516.701 573.994 518 576.5C518.985 585.968 519.818 595.302 520.5 604.5C535.381 625.5 537.548 647.834 527 671.5C524.167 677.17 520.834 682.503 517 687.5C502.464 705.036 486.298 720.869 468.5 735C435.221 753.299 403.221 751.299 372.5 729C355.224 714.061 339.724 697.561 326 679.5C314.272 660.882 311.938 641.215 319 620.5C321.793 614.411 324.959 608.578 328.5 603C326.67 598.757 326.004 594.257 326.5 589.5C326.334 585.486 326.501 581.486 327 577.5C327.972 572.405 329.805 567.738 332.5 563.5C337.28 566.91 340.113 565.576 341 559.5C342.558 557.641 344.391 556.141 346.5 555C351.167 554.333 355.833 554.333 360.5 555C367.646 557.738 374.312 561.238 380.5 565.5C384.158 563.835 384.491 561.502 381.5 558.5C389.417 538.657 397.917 518.99 407 499.5C410.399 493.432 414.565 487.932 419.5 483C422.594 482.348 425.594 482.682 428.5 484C431.699 487.566 434.533 491.4 437 495.5C446.952 516.065 455.785 537.065 463.5 558.5Z" fill="#FCFCFC"/>
<path opacity="0.573" fill-rule="evenodd" clip-rule="evenodd" d="M177.5 477.5C180.632 483.45 182.965 489.784 184.5 496.5C181.738 490.466 179.072 484.299 176.5 478C176.728 477.601 177.062 477.435 177.5 477.5Z" fill="#757575"/>
<path opacity="0.098" fill-rule="evenodd" clip-rule="evenodd" d="M663.5 494.5C663.416 497.327 662.75 499.994 661.5 502.5C660.903 502.265 660.57 501.765 660.5 501C661.412 498.683 662.412 496.516 663.5 494.5Z" fill="#848484"/>
<path opacity="0.212" fill-rule="evenodd" clip-rule="evenodd" d="M184.5 497.5C188.215 503.978 190.548 510.978 191.5 518.5C188.999 511.663 186.665 504.663 184.5 497.5Z" fill="#7E7E7E"/>
<path opacity="0.686" fill-rule="evenodd" clip-rule="evenodd" d="M660.5 503.5C659.538 507.395 658.204 511.061 656.5 514.5C656.768 511.26 657.434 508.094 658.5 505C658.836 503.97 659.503 503.47 660.5 503.5Z" fill="#505050"/>
<path opacity="0.884" fill-rule="evenodd" clip-rule="evenodd" d="M191.5 519.5C192.117 519.611 192.617 519.944 193 520.5C193.812 524.689 193.645 528.689 192.5 532.5C192.628 528.119 192.295 523.785 191.5 519.5Z" fill="#5E5E5E"/>
<path opacity="0.047" fill-rule="evenodd" clip-rule="evenodd" d="M656.5 520.5C655.727 524.14 655.06 527.807 654.5 531.5C653.371 529.372 653.204 527.039 654 524.5C654.122 522.563 654.955 521.23 656.5 520.5Z" fill="#737373"/>
<path fill-rule="evenodd" clip-rule="evenodd" d="M259.5 644.5C261.215 636.736 261.882 628.736 261.5 620.5C262.934 609.698 263.601 598.698 263.5 587.5C264.21 569.805 265.377 552.138 267 534.5C272.5 540 278 545.5 283.5 551C292.5 557.167 301.5 563.333 310.5 569.5C317.355 578.047 320.688 587.88 320.5 599C319.027 605.464 316.527 611.631 313 617.5C304.32 642.28 307.653 665.28 323 686.5C338.833 706.333 356.667 724.167 376.5 740C410.894 760.244 444.561 759.244 477.5 737C496.051 720.782 512.885 702.949 528 683.5C540.81 662.73 543.477 640.73 536 617.5C533.74 612.049 530.74 607.049 527 602.5C526.346 593.103 528.012 584.103 532 575.5C534.463 572.035 537.296 568.869 540.5 566C555.477 557.762 568.644 547.262 580 534.5C584.537 597.835 589.037 661.168 593.5 724.5C592.325 741.016 585.658 754.85 573.5 766C558.617 775.398 542.617 782.398 525.5 787C465.296 802.569 404.629 804.569 343.5 793C319.824 788.22 297.491 779.886 276.5 768C262.823 756.981 255.49 742.647 254.5 725C256.142 698.161 257.808 671.327 259.5 644.5Z" fill="#DFCEF2"/>
<path opacity="0.796" fill-rule="evenodd" clip-rule="evenodd" d="M654.5 537.5C654.909 541.876 655.575 546.21 656.5 550.5C653.62 546.452 652.954 542.119 654.5 537.5Z" fill="#6C6C6C"/>
<path fill-rule="evenodd" clip-rule="evenodd" d="M381.5 558.5C384.491 561.502 384.158 563.835 380.5 565.5C374.312 561.238 367.646 557.738 360.5 555C355.833 554.333 351.167 554.333 346.5 555C344.391 556.141 342.558 557.641 341 559.5C340.113 565.576 337.28 566.91 332.5 563.5C336.503 550.152 345.503 544.986 359.5 548C367.519 550.177 374.852 553.677 381.5 558.5Z" fill="#0F0F0F"/>
<path fill-rule="evenodd" clip-rule="evenodd" d="M511.5 564.5C510.399 565.598 509.066 565.765 507.5 565C505.743 562.154 503.743 559.488 501.5 557C494.681 554.015 487.681 553.682 480.5 556C475.323 559.182 470.156 562.349 465 565.5C460.905 563.97 460.405 561.636 463.5 558.5C468.821 554.836 474.488 551.67 480.5 549C486.097 547.544 491.763 547.211 497.5 548C505.253 549.711 510.253 554.378 512.5 562C512.257 562.902 511.923 563.735 511.5 564.5Z" fill="#0F0F10"/>
<path opacity="0.373" fill-rule="evenodd" clip-rule="evenodd" d="M187.5 558.5C187.573 560.027 186.906 561.027 185.5 561.5C185.427 559.973 186.094 558.973 187.5 558.5Z" fill="#909090"/>
<path opacity="0.714" fill-rule="evenodd" clip-rule="evenodd" d="M660.5 559.5C662.833 561.167 664.833 563.167 666.5 565.5C663.5 564.5 661.5 562.5 660.5 559.5Z" fill="#696969"/>
<path opacity="0.714" fill-rule="evenodd" clip-rule="evenodd" d="M174.5 568.5C174.423 569.75 173.756 570.583 172.5 571C168.848 571.499 165.182 571.665 161.5 571.5C163.022 569.181 165.022 568.847 167.5 570.5C169.913 569.981 172.246 569.315 174.5 568.5Z" fill="#606060"/>
<path opacity="0.816" fill-rule="evenodd" clip-rule="evenodd" d="M673.5 569.5C677.182 569.335 680.848 569.501 684.5 570C686.863 570.589 687.863 572.089 687.5 574.5C686.733 573.828 686.066 572.995 685.5 572C682.167 571.667 678.833 571.333 675.5 571C674.584 570.722 673.918 570.222 673.5 569.5Z" fill="#6C6C6C"/>
<path fill-rule="evenodd" clip-rule="evenodd" d="M359.5 573.5C361.857 573.337 364.19 573.503 366.5 574C377.1 583.265 386.267 593.765 394 605.5C394.817 608.964 394.483 612.298 393 615.5C383.947 623.963 374.114 624.796 363.5 618C361.212 615.257 359.045 612.423 357 609.5C354.611 601.779 352.778 593.945 351.5 586C351.164 579.849 353.83 575.682 359.5 573.5Z" fill="#0C0B0D"/>
<path fill-rule="evenodd" clip-rule="evenodd" d="M478.5 573.5C484.421 572.877 489.254 574.877 493 579.5C493.585 590.655 491.585 601.321 487 611.5C480.499 620.661 471.665 624.161 460.5 622C453.058 618.947 449.891 613.447 451 605.5C459.628 594.372 468.795 583.705 478.5 573.5Z" fill="#0B0A0B"/>
<path opacity="0.016" fill-rule="evenodd" clip-rule="evenodd" d="M685.5 577.5C685.573 579.027 684.906 580.027 683.5 580.5C683.427 578.973 684.094 577.973 685.5 577.5Z" fill="#939393"/>
<path opacity="0.557" fill-rule="evenodd" clip-rule="evenodd" d="M162.5 578.5C164.785 580.118 166.785 582.118 168.5 584.5C165.522 583.522 163.522 581.522 162.5 578.5Z" fill="#7D7D7D"/>
<path fill-rule="evenodd" clip-rule="evenodd" d="M360.5 580.5C361.873 580.343 363.207 580.51 364.5 581C373.645 589.804 381.645 599.47 388.5 610C385.016 615.569 380.016 617.569 373.5 616C370.217 614.439 367.383 612.273 365 609.5C361.896 602.413 359.73 595.08 358.5 587.5C358.643 584.887 359.31 582.553 360.5 580.5Z" fill="#B092D1"/>
<path fill-rule="evenodd" clip-rule="evenodd" d="M480.5 580.5C485.255 579.978 487.255 582.145 486.5 587C486.287 596.209 483.62 604.542 478.5 612C471.662 617.658 464.829 617.825 458 612.5C457.294 610.029 457.627 607.695 459 605.5C466.002 597 473.169 588.666 480.5 580.5Z" fill="#B092D1"/>
<path opacity="0.094" fill-rule="evenodd" clip-rule="evenodd" d="M171.5 587.5C174.76 588.774 177.76 590.44 180.5 592.5C176.756 592.072 173.756 590.405 171.5 587.5Z" fill="#646464"/>
<path opacity="0.929" fill-rule="evenodd" clip-rule="evenodd" d="M183.5 593.5C190.995 593.976 198.329 594.642 205.5 595.5C197.883 597.12 190.55 596.454 183.5 593.5Z" fill="#424242"/>
<path opacity="0.247" fill-rule="evenodd" clip-rule="evenodd" d="M638.5 594.5C638.122 596.921 637.455 599.254 636.5 601.5C635.597 598.908 636.264 596.574 638.5 594.5Z" fill="#909090"/>
<path fill-rule="evenodd" clip-rule="evenodd" d="M263.5 587.5C263.601 598.698 262.934 609.698 261.5 620.5C261.399 609.302 262.066 598.302 263.5 587.5Z" fill="#988DA5"/>
<path opacity="0.376" fill-rule="evenodd" clip-rule="evenodd" d="M209.5 596.5C211.867 599.68 212.867 603.347 212.5 607.5C212.625 612.228 211.625 616.562 209.5 620.5C209.894 615.969 210.561 611.469 211.5 607C210.766 603.499 210.1 599.999 209.5 596.5Z" fill="#858585"/>
<path opacity="0.333" fill-rule="evenodd" clip-rule="evenodd" d="M636.5 602.5C636.425 608.529 636.759 614.529 637.5 620.5C636.03 617.114 635.363 613.447 635.5 609.5C635.503 606.975 635.837 604.641 636.5 602.5Z" fill="#8E8E8E"/>
<path opacity="0.796" fill-rule="evenodd" clip-rule="evenodd" d="M637.5 620.5C639.267 622.792 640.267 625.458 640.5 628.5C638.603 626.302 637.603 623.636 637.5 620.5Z" fill="#8D8D8D"/>
<path fill-rule="evenodd" clip-rule="evenodd" d="M344.5 630.5C348.881 629.534 351.881 631.034 353.5 635C353.095 635.945 352.428 636.612 351.5 637C343.563 636.179 342.23 638.179 347.5 643C381.977 660.684 418.31 665.684 456.5 658C470.675 655.165 484.009 650.165 496.5 643C501.91 638.672 500.91 636.672 493.5 637C490.502 633.182 491.502 631.016 496.5 630.5C507.021 632.194 514.021 638.027 517.5 648C517.233 651.164 515.567 652.164 512.5 651C511.206 648.913 510.039 646.746 509 644.5C508.439 643.978 507.772 643.645 507 643.5C503.039 645.957 499.206 648.624 495.5 651.5C486.899 666.605 476.566 680.438 464.5 693C438.581 714.876 412.581 714.876 386.5 693C373.506 680.967 362.173 667.634 352.5 653C347.002 650.085 341.668 646.919 336.5 643.5C334.461 645.742 332.795 648.242 331.5 651C326.917 651.934 325.417 650.1 327 645.5C331.161 638.509 336.995 633.509 344.5 630.5Z" fill="#0F0F0F"/>
<path opacity="0.161" fill-rule="evenodd" clip-rule="evenodd" d="M641.5 631.5C642.906 631.973 643.573 632.973 643.5 634.5C642.094 634.027 641.427 633.027 641.5 631.5Z" fill="#9E9E9E"/>
<path fill-rule="evenodd" clip-rule="evenodd" d="M261.5 620.5C261.882 628.736 261.215 636.736 259.5 644.5C259.776 636.319 260.443 628.319 261.5 620.5Z" fill="#998DA6"/>
<path opacity="0.208" fill-rule="evenodd" clip-rule="evenodd" d="M643.5 635.5C644.906 635.973 645.573 636.973 645.5 638.5C644.094 638.027 643.427 637.027 643.5 635.5Z" fill="#ADADAD"/>
<path opacity="0.204" fill-rule="evenodd" clip-rule="evenodd" d="M197.5 647.5C197.25 649.674 196.25 651.341 194.5 652.5C194.75 650.326 195.75 648.659 197.5 647.5Z" fill="#A2A2A2"/>
<path opacity="0.051" fill-rule="evenodd" clip-rule="evenodd" d="M653.5 654.5C655.104 655.287 655.771 656.62 655.5 658.5C654.326 657.486 653.66 656.153 653.5 654.5Z" fill="#CACACA"/>
<path fill-rule="evenodd" clip-rule="evenodd" d="M480.5 657.5C481.675 657.281 482.675 657.614 483.5 658.5C476.297 670.171 465.964 678.005 452.5 682C431.167 687.403 410.167 686.403 389.5 679C379.445 674.474 371.112 667.808 364.5 659C376.644 662.116 388.977 664.783 401.5 667C428.781 670.209 455.114 667.042 480.5 657.5Z" fill="#F7F7F7"/>
<path opacity="0.184" fill-rule="evenodd" clip-rule="evenodd" d="M190.5 662.5C190.088 665.802 188.755 668.469 186.5 670.5C187.278 667.461 188.612 664.794 190.5 662.5Z" fill="#8E8E8E"/>
<path opacity="0.327" fill-rule="evenodd" clip-rule="evenodd" d="M186.5 671.5C187.097 671.735 187.43 672.235 187.5 673C186.646 677.664 185.646 682.164 184.5 686.5C184.294 681.343 184.961 676.343 186.5 671.5Z" fill="#818181"/>
<path fill-rule="evenodd" clip-rule="evenodd" d="M375.5 675.5C397.569 689.437 421.236 693.27 446.5 687C455.05 684.207 463.384 681.207 471.5 678C460.562 690.614 447.228 699.614 431.5 705C424.332 705.988 417.332 705.322 410.5 703C396.882 696.699 384.882 688.199 374.5 677.5C374.863 676.817 375.196 676.15 375.5 675.5Z" fill="#F6F6F6"/>
<path opacity="0.337" fill-rule="evenodd" clip-rule="evenodd" d="M657.5 663.5C660.729 671.083 662.729 679.083 663.5 687.5C661.155 679.834 659.155 671.834 657.5 663.5Z" fill="#868686"/>
<path opacity="0.218" fill-rule="evenodd" clip-rule="evenodd" d="M191.5 725.5C187.921 719.76 185.921 713.427 185.5 706.5C187.536 712.149 189.536 718.482 191.5 725.5Z" fill="#757575"/>
<path opacity="0.51" fill-rule="evenodd" clip-rule="evenodd" d="M662.5 705.5C661.434 711.121 659.767 716.454 657.5 721.5C658.388 716.996 659.388 712.496 660.5 708C660.684 706.624 661.351 705.791 662.5 705.5Z" fill="#6E6E6E"/>
<path fill-rule="evenodd" clip-rule="evenodd" d="M328.5 725.5C332.222 726.017 335.888 726.85 339.5 728C342.833 732 346.167 736 349.5 740C353.362 743.091 357.362 745.925 361.5 748.5C359.579 749.641 357.579 749.808 355.5 749C343.554 745.376 334.221 738.376 327.5 728C327.743 727.098 328.077 726.265 328.5 725.5Z" fill="#0E0D0F"/>
<path opacity="0.098" fill-rule="evenodd" clip-rule="evenodd" d="M655.5 726.5C655.539 729.089 654.539 731.089 652.5 732.5C652.992 730.181 653.992 728.181 655.5 726.5Z" fill="#7D7D7D"/>
<path opacity="0.063" fill-rule="evenodd" clip-rule="evenodd" d="M222.5 761.5C227.484 763.326 232.151 765.659 236.5 768.5C231.247 767.207 226.581 764.874 222.5 761.5Z" fill="#555555"/>
<path opacity="0.165" fill-rule="evenodd" clip-rule="evenodd" d="M272.5 774.5C274.51 773.651 276.177 774.318 277.5 776.5C275.716 776.107 274.05 775.441 272.5 774.5Z" fill="#9A9A9A"/>
<path opacity="0.263" fill-rule="evenodd" clip-rule="evenodd" d="M283.5 779.5C287.42 780.127 290.753 781.793 293.5 784.5C289.849 783.341 286.515 781.674 283.5 779.5Z" fill="#707070"/>
<path opacity="0.353" fill-rule="evenodd" clip-rule="evenodd" d="M299.5 786.5C302.241 786.707 304.574 787.707 306.5 789.5C303.759 789.293 301.426 788.293 299.5 786.5Z" fill="#6E6E6E"/>
<path opacity="0.122" fill-rule="evenodd" clip-rule="evenodd" d="M549.5 785.5C545.409 787.871 541.076 789.871 536.5 791.5C536.577 790.25 537.244 789.417 538.5 789C542.165 787.722 545.832 786.556 549.5 785.5Z" fill="#555555"/>
<path opacity="0.29" fill-rule="evenodd" clip-rule="evenodd" d="M306.5 789.5C309.542 789.733 312.208 790.733 314.5 792.5C311.458 792.267 308.792 791.267 306.5 789.5Z" fill="#818181"/>
<path opacity="0.01" fill-rule="evenodd" clip-rule="evenodd" d="M335.5 798.5C335.735 797.903 336.235 797.57 337 797.5C339.448 797.699 341.281 798.699 342.5 800.5C340.167 799.833 337.833 799.167 335.5 798.5Z" fill="#787878"/>
<path opacity="0.612" fill-rule="evenodd" clip-rule="evenodd" d="M376.5 805.5C378.68 804.206 380.68 804.539 382.5 806.5C380.435 806.483 378.435 806.15 376.5 805.5Z" fill="#717171"/>
<path opacity="0.247" fill-rule="evenodd" clip-rule="evenodd" d="M476.5 804.5C472.523 805.259 468.523 805.925 464.5 806.5C465.681 804.933 467.347 804.099 469.5 804C472.039 803.204 474.372 803.371 476.5 804.5Z" fill="#4B4B4B"/>
<path opacity="0.337" fill-rule="evenodd" clip-rule="evenodd" d="M460.5 806.5C457.833 806.833 455.167 807.167 452.5 807.5C454.993 805.416 457.66 805.083 460.5 806.5Z" fill="#818181"/>
<path opacity="0.059" fill-rule="evenodd" clip-rule="evenodd" d="M384.5 806.5C385.964 805.84 387.631 805.507 389.5 805.5C391.64 805.556 393.306 806.223 394.5 807.5C391.14 807.384 387.807 807.051 384.5 806.5Z" fill="#626262"/>
</svg>
