<svg width="848" height="881" viewBox="0 0 848 881" fill="none" xmlns="http://www.w3.org/2000/svg">
<path opacity="0.843" fill-rule="evenodd" clip-rule="evenodd" d="M469.5 87.5C467.704 89.9 465.37 91.5667 462.5 92.5C464.296 90.1 466.63 88.4333 469.5 87.5Z" fill="#616161"/>
<path opacity="0.998" fill-rule="evenodd" clip-rule="evenodd" d="M469.5 87.5C470.167 87.5 470.833 87.5 471.5 87.5C471.953 89.5652 472.953 91.2318 474.5 92.5C474.677 96.7076 476.01 100.374 478.5 103.5C479.324 106.764 479.658 110.098 479.5 113.5C478.864 120.011 478.864 126.345 479.5 132.5C479.5 133.167 479.167 133.5 478.5 133.5C475.997 138.986 473.664 144.652 471.5 150.5C473.505 151.499 474.838 150.832 475.5 148.5C478.763 147.518 482.097 146.851 485.5 146.5C486.356 147.092 487.522 147.092 489 146.5C490.376 146.316 491.209 145.649 491.5 144.5C497.466 143.553 503.466 142.886 509.5 142.5C512.293 143.746 514.96 143.413 517.5 141.5C524.5 141.5 531.5 141.5 538.5 141.5C540.655 143.534 542.988 143.867 545.5 142.5C550.181 142.669 554.848 143.002 559.5 143.5C559.5 144.5 559.5 145.5 559.5 146.5C563.054 146.849 566.387 146.849 569.5 146.5C572.969 146.547 576.302 147.213 579.5 148.5C579.47 149.497 579.97 150.164 581 150.5C590.611 154.205 600.111 158.205 609.5 162.5C610.298 162.043 610.631 161.376 610.5 160.5C611.167 160.5 611.5 160.833 611.5 161.5C611.414 162.496 611.748 163.329 612.5 164C616.626 165.966 620.626 168.132 624.5 170.5C625.107 170.376 625.44 170.043 625.5 169.5C627.858 171.529 630.192 173.529 632.5 175.5C634.834 178.666 637.667 181.333 641 183.5C641.494 185.134 641.66 186.801 641.5 188.5C629.284 190.736 616.95 192.402 604.5 193.5C604.209 192.351 603.376 191.684 602 191.5C599.538 192.159 597.038 192.493 594.5 192.5C594.5 193.5 594.5 194.5 594.5 195.5C601.619 198.56 608.619 201.893 615.5 205.5C616.107 205.376 616.44 205.043 616.5 204.5C616.833 204.5 617.167 204.5 617.5 204.5C617.36 206.124 618.027 207.29 619.5 208C621.387 208.78 623.054 208.613 624.5 207.5C626.167 207.5 627.833 207.5 629.5 207.5C631.037 210.067 633.204 210.734 636 209.5C637.935 211.759 640.435 212.759 643.5 212.5C648.984 214.407 653.984 217.073 658.5 220.5C661.758 224.425 665.425 228.091 669.5 231.5C674.653 239.474 678.986 247.807 682.5 256.5C681.491 262.801 683.491 267.801 688.5 271.5C688.738 273.404 689.738 274.738 691.5 275.5C692.64 277.78 693.807 280.114 695 282.5C695.671 283.252 696.504 283.586 697.5 283.5C697.343 284.873 697.51 286.207 698 287.5C703.194 296.563 708.36 305.563 713.5 314.5C713.34 316.199 713.506 317.866 714 319.5C718.092 327.672 721.592 336.006 724.5 344.5C724.723 348.162 725.723 351.495 727.5 354.5C728.434 355.568 728.768 356.901 728.5 358.5C728.171 361.228 728.837 363.562 730.5 365.5C730.5 366.167 730.5 366.833 730.5 367.5C730.227 373.216 731.227 378.549 733.5 383.5C733.5 387.5 733.5 391.5 733.5 395.5C731.996 398.316 730.662 401.316 729.5 404.5C728.833 404.5 728.5 404.167 728.5 403.5C720.24 397.36 711.574 391.693 702.5 386.5C701.335 387.86 701.668 388.86 703.5 389.5C703.34 391.199 703.506 392.866 704 394.5C707.161 401.508 709.994 408.508 712.5 415.5C713.167 415.5 713.5 415.833 713.5 416.5C712.624 416.369 711.957 416.702 711.5 417.5C711.815 419.483 712.815 420.816 714.5 421.5C714.5 421.833 714.5 422.167 714.5 422.5C713.474 427.076 713.807 431.742 715.5 436.5C715.747 437.713 716.414 438.38 717.5 438.5C717.5 439.167 717.5 439.833 717.5 440.5C716.471 449.254 717.138 457.921 719.5 466.5C719.5 476.167 719.5 485.833 719.5 495.5C718.504 495.414 717.671 495.748 717 496.5C716.19 500.358 716.357 504.024 717.5 507.5C717.5 508.167 717.5 508.833 717.5 509.5C716.414 509.62 715.747 510.287 715.5 511.5C711.298 532.526 704.964 552.859 696.5 572.5C694.067 572.727 692.401 571.727 691.5 569.5C690.839 567.243 689.839 565.909 688.5 565.5C686.273 563.393 684.273 561.06 682.5 558.5C683.525 558.103 683.692 557.437 683 556.5C680.833 553.5 678.667 550.5 676.5 547.5C674.872 555.288 674.538 562.954 675.5 570.5C675.5 570.833 675.5 571.167 675.5 571.5C674.883 571.611 674.383 571.944 674 572.5C671.849 583.412 668.849 594.079 665 604.5C660.156 613.522 655.323 622.522 650.5 631.5C650.5 632.167 650.167 632.5 649.5 632.5C647.413 633.585 646.08 635.251 645.5 637.5C641.167 641.167 637.167 645.167 633.5 649.5C630.911 650.419 628.911 652.086 627.5 654.5C626.738 656.262 625.404 657.262 623.5 657.5C621.973 657.427 620.973 658.094 620.5 659.5C618.251 660.08 616.585 661.413 615.5 663.5C615.5 664.167 615.167 664.5 614.5 664.5C608.887 667.113 604.554 671.113 601.5 676.5C600.833 677.833 599.833 678.833 598.5 679.5C598.565 679.062 598.399 678.728 598 678.5C594.888 681.101 592.388 684.101 590.5 687.5C585.979 690.854 582.646 695.187 580.5 700.5C573.361 709.206 568.694 719.206 566.5 730.5C565.064 732.319 563.397 732.652 561.5 731.5C559.133 724.681 556.466 718.014 553.5 711.5C548.416 715.58 544.083 720.246 540.5 725.5C540.158 726.338 539.492 726.672 538.5 726.5C532.138 730.346 526.138 734.679 520.5 739.5C515.764 743.202 510.43 745.868 504.5 747.5C500.252 747.624 496.918 749.29 494.5 752.5C493.833 752.833 493.167 753.167 492.5 753.5C492.53 752.503 492.03 751.836 491 751.5C489.05 751.707 487.884 752.707 487.5 754.5C486.292 755.234 484.959 755.567 483.5 755.5C482.399 754.402 481.066 754.235 479.5 755C471.105 757.742 462.772 760.576 454.5 763.5C454.5 764.5 454.5 765.5 454.5 766.5C452.95 767.441 451.284 768.107 449.5 768.5C448.279 767.535 446.946 767.702 445.5 769C436.623 775.043 429.29 782.543 423.5 791.5C422.833 791.5 422.167 791.5 421.5 791.5C418.93 786.262 415.264 781.928 410.5 778.5C405.926 773.434 400.593 769.267 394.5 766C385.134 761.545 375.467 757.878 365.5 755C363.934 754.235 362.601 754.402 361.5 755.5C361.167 755.5 360.833 755.5 360.5 755.5C360.423 754.25 359.756 753.417 358.5 753C353.573 751.183 348.573 749.683 343.5 748.5C337.413 746.622 331.746 743.955 326.5 740.5C321.68 736.922 316.68 733.588 311.5 730.5C311.027 729.094 310.027 728.427 308.5 728.5C303.263 722.596 297.596 716.929 291.5 711.5C288.779 719.275 285.779 726.942 282.5 734.5C280.973 734.573 279.973 733.906 279.5 732.5C275.593 715.333 267.593 700.667 255.5 688.5C252.167 683.167 247.833 678.833 242.5 675.5C240.833 674.5 239.5 673.167 238.5 671.5C236.1 668.097 233.1 665.43 229.5 663.5C226.208 661.542 223.208 659.209 220.5 656.5C216.194 652.365 211.694 648.365 207 644.5C206.601 644.728 206.435 645.062 206.5 645.5C204.833 644.5 203.5 643.167 202.5 641.5C201.647 637.98 199.647 635.313 196.5 633.5C181.42 610.917 172.087 586.25 168.5 559.5C168.5 558.833 168.5 558.167 168.5 557.5C169.653 554.52 169.32 551.52 167.5 548.5C163.056 554.264 159.056 560.264 155.5 566.5C154.367 569.971 152.033 571.971 148.5 572.5C144.374 560.748 139.707 549.415 134.5 538.5C133.833 538.5 133.5 538.167 133.5 537.5C133.345 529.93 132.178 522.263 130 514.5C129.56 509.327 129.06 504.161 128.5 499C128.431 497.014 127.765 495.514 126.5 494.5C126.5 493.833 126.5 493.167 126.5 492.5C127.815 489.373 127.482 486.373 125.5 483.5C125.5 476.833 125.5 470.167 125.5 463.5C127.584 461.007 127.917 458.34 126.5 455.5C126.5 454.5 126.5 453.5 126.5 452.5C127.947 451.866 128.613 450.699 128.5 449C128.316 447.624 127.649 446.791 126.5 446.5C126.5 446.167 126.5 445.833 126.5 445.5C128.062 443.628 129.062 441.295 129.5 438.5C131.037 429.356 133.037 420.356 135.5 411.5C135.421 408.729 135.921 406.063 137 403.5C138.939 398.065 141.106 392.732 143.5 387.5C142.575 386.438 141.575 386.438 140.5 387.5C132.717 392.041 125.383 397.041 118.5 402.5C117.462 404.519 116.128 404.853 114.5 403.5C114.037 400.67 113.371 398.003 112.5 395.5C112.5 388.833 112.5 382.167 112.5 375.5C113.88 375.038 114.547 374.038 114.5 372.5C115.302 369.551 115.636 366.551 115.5 363.5C115.216 361.585 115.549 359.919 116.5 358.5C117.924 356.485 118.59 354.152 118.5 351.5C121.613 344.492 123.946 337.159 125.5 329.5C129.27 322.946 132.27 315.946 134.5 308.5C139.282 301.271 143.282 293.604 146.5 285.5C148.048 285.179 148.715 284.179 148.5 282.5C151.449 280.627 153.449 277.961 154.5 274.5C156.016 271.467 158.016 268.8 160.5 266.5C162.728 262.924 163.728 258.924 163.5 254.5C168.536 241.101 176.536 229.768 187.5 220.5C191.74 216.545 196.74 213.878 202.5 212.5C207.004 211.612 211.504 210.612 216 209.5C217.376 209.316 218.209 208.649 218.5 207.5C219.167 207.5 219.833 207.5 220.5 207.5C221.946 208.613 223.613 208.78 225.5 208C233.387 202.907 241.72 198.74 250.5 195.5C250.5 194.5 250.5 193.5 250.5 192.5C246.958 192.187 243.625 192.521 240.5 193.5C239.833 193.5 239.167 193.5 238.5 193.5C238.209 192.351 237.376 191.684 236 191.5C234.93 191.528 234.097 191.861 233.5 192.5C233.167 192.5 232.833 192.5 232.5 192.5C232.389 191.883 232.056 191.383 231.5 191C228.812 190.608 226.145 190.108 223.5 189.5C222.287 189.747 221.62 190.414 221.5 191.5C217.167 190.833 212.833 190.167 208.5 189.5C206.575 188.068 204.575 186.568 202.5 185C204.705 182.46 207.205 180.293 210 178.5C210.464 177.906 210.631 177.239 210.5 176.5C216.389 174.397 221.389 171.063 225.5 166.5C225.5 165.833 225.833 165.5 226.5 165.5C226.735 166.097 227.235 166.43 228 166.5C230.22 164.807 232.72 163.807 235.5 163.5C235.5 162.5 235.5 161.5 235.5 160.5C235.5 159.833 235.833 159.5 236.5 159.5C236.369 160.376 236.702 161.043 237.5 161.5C243.95 158.114 250.616 155.28 257.5 153C258.252 152.329 258.586 151.496 258.5 150.5C258.833 150.5 259.167 150.5 259.5 150.5C259.735 151.097 260.235 151.43 261 151.5C264.383 150.186 267.883 149.353 271.5 149C272.942 148.623 273.942 147.79 274.5 146.5C282.99 144.085 291.656 142.752 300.5 142.5C301.622 143.156 302.955 143.489 304.5 143.5C306.333 143.415 307.666 142.748 308.5 141.5C315.167 141.5 321.833 141.5 328.5 141.5C329.152 142.725 330.319 143.392 332 143.5C333.385 143.486 334.551 143.152 335.5 142.5C345.182 142.906 354.515 144.572 363.5 147.5C370.665 150.858 378.165 153.858 386 156.5C387.718 155.969 387.885 155.302 386.5 154.5C386.5 154.167 386.5 153.833 386.5 153.5C387.5 153.5 388.5 153.5 389.5 153.5C389.34 151.801 389.506 150.134 390 148.5C393.118 143.26 395.952 137.927 398.5 132.5C398.5 131.833 398.833 131.5 399.5 131.5C399.435 131.938 399.601 132.272 400 132.5C402.037 130.294 404.203 128.294 406.5 126.5C414.928 119.969 423.595 113.969 432.5 108.5C437.367 108.067 441.367 106.067 444.5 102.5C446.849 100.659 449.515 99.3257 452.5 98.5C456.565 97.7774 459.899 95.7774 462.5 92.5C465.37 91.5667 467.704 89.9 469.5 87.5Z" fill="#100A08"/>
<path opacity="0.686" fill-rule="evenodd" clip-rule="evenodd" d="M471.5 87.5C473.741 88.2998 474.741 89.9664 474.5 92.5C472.953 91.2318 471.953 89.5652 471.5 87.5Z" fill="#828282"/>
<path opacity="0.984" fill-rule="evenodd" clip-rule="evenodd" d="M462.5 92.5C459.899 95.7774 456.565 97.7774 452.5 98.5C455.494 96.0002 458.827 94.0002 462.5 92.5Z" fill="#424242"/>
<path fill-rule="evenodd" clip-rule="evenodd" d="M503.5 149.5C516.817 148.694 530.15 148.361 543.5 148.5C575.603 151.92 604.77 162.92 631 181.5C631.167 181.833 631.333 182.167 631.5 182.5C630.5 182.833 629.5 183.167 628.5 183.5C613.497 185.612 598.497 187.778 583.5 190C580.833 191.667 580.833 193.333 583.5 195C592.325 199.155 600.991 203.488 609.5 208C597.698 209.622 586.531 213.122 576 218.5C567.43 212.126 558.263 206.626 548.5 202C544.176 201.955 543.51 203.621 546.5 207C571.751 218.584 589.918 237.084 601 262.5C605.112 273.947 608.445 285.614 611 297.5C615.02 312.272 621.687 325.605 631 337.5C637.494 344.013 644.994 348.846 653.5 352C659.196 353.323 660.529 351.656 657.5 347C655.285 346.83 653.285 346.163 651.5 345C671.735 326.673 683.402 304.506 686.5 278.5C707.195 309.232 720.695 342.899 727 379.5C727.829 384.864 727.663 390.198 726.5 395.5C717.5 389.667 708.5 383.833 699.5 378C697.655 376.872 695.655 376.372 693.5 376.5C693.338 378.527 693.505 380.527 694 382.5C719.497 441.779 719.997 501.279 695.5 561C694.99 562.826 694.156 562.993 693 561.5C687.42 554.008 682.087 546.341 677 538.5C675.604 536.473 673.938 536.14 672 537.5C671.754 566.149 665.088 593.149 652 618.5C645.635 628.538 638.135 637.705 629.5 646C607.364 660.804 588.53 678.971 573 700.5C569.095 707.208 565.762 714.208 563 721.5C561.595 715.618 559.595 709.951 557 704.5C555.612 703.446 554.112 703.28 552.5 704C538.326 721.169 520.993 734.169 500.5 743C487.224 747.537 473.891 751.87 460.5 756C445.177 761.495 432.511 770.662 422.5 783.5C412.914 771.417 400.914 762.584 386.5 757C373.229 752.465 359.895 748.132 346.5 744C324.895 735.531 306.895 722.198 292.5 704C290.888 703.28 289.388 703.446 288 704.5C286 709.833 284 715.167 282 720.5C272.413 698.243 258.247 679.41 239.5 664C225.37 654.347 212.537 643.181 201 630.5C182.247 602.458 172.914 571.458 173 537.5C171.062 536.14 169.396 536.473 168 538.5C162.715 546.944 156.881 554.944 150.5 562.5C128.437 510.985 125.603 458.319 142 404.5C144.781 396.271 148.115 388.271 152 380.5C152.915 378.08 152.082 376.747 149.5 376.5C139.304 381.759 129.637 387.759 120.5 394.5C118.554 389.604 117.887 384.271 118.5 378.5C119.598 366.775 122.265 355.441 126.5 344.5C128.99 341.374 130.323 337.708 130.5 333.5C138.054 313.725 147.721 295.058 159.5 277.5C161.812 304.639 173.145 327.139 193.5 345C191.238 345.642 189.071 346.475 187 347.5C186.506 349.134 186.34 350.801 186.5 352.5C202.27 349.351 214.104 340.684 222 326.5C226.266 319.575 229.599 312.241 232 304.5C235.978 282.895 243.311 262.562 254 243.5C266.042 226.817 281.375 214.151 300 205.5C300.611 201.912 299.111 200.746 295.5 202C286.23 206.88 277.397 212.38 269 218.5C258.395 213.387 247.228 209.887 235.5 208C244.588 203.039 253.754 198.206 263 193.5C263.448 191.591 262.615 190.424 260.5 190C257.635 189.817 254.969 189.317 252.5 188.5C243.065 186.431 233.398 185.098 223.5 184.5C220.04 184.475 216.706 183.808 213.5 182.5C233.583 166.797 256.249 156.464 281.5 151.5C288.562 151.255 295.562 150.422 302.5 149C311.827 148.5 321.161 148.334 330.5 148.5C350.475 149.726 369.475 154.559 387.5 163C388.833 163.667 390.167 163.667 391.5 163C393.378 149.249 399.712 137.916 410.5 129C424.715 119.057 439.715 110.39 455.5 103C460.175 100.664 464.508 97.8309 468.5 94.5C471.585 98.5739 473.419 103.241 474 108.5C475.913 125.007 472.413 140.174 463.5 154C459.553 155.085 456.053 156.919 453 159.5C452.146 161.607 452.812 162.941 455 163.5C464.263 159.412 473.763 155.912 483.5 153C490.042 151.076 496.709 149.91 503.5 149.5Z" fill="#9A2E12"/>
<path opacity="0.776" fill-rule="evenodd" clip-rule="evenodd" d="M474.5 92.5C476.601 95.7966 477.935 99.4632 478.5 103.5C476.01 100.374 474.677 96.7076 474.5 92.5Z" fill="#717171"/>
<path opacity="0.69" fill-rule="evenodd" clip-rule="evenodd" d="M444.5 102.5C441.367 106.067 437.367 108.067 432.5 108.5C436.182 105.992 440.182 103.992 444.5 102.5Z" fill="#5A5A5A"/>
<path opacity="0.186" fill-rule="evenodd" clip-rule="evenodd" d="M432.5 108.5C423.595 113.969 414.928 119.969 406.5 126.5C406.5 125.833 406.5 125.167 406.5 124.5C414.155 117.665 422.821 112.332 432.5 108.5Z" fill="#535353"/>
<path opacity="0.778" fill-rule="evenodd" clip-rule="evenodd" d="M479.5 113.5C480.472 119.67 480.472 126.003 479.5 132.5C478.864 126.345 478.864 120.011 479.5 113.5Z" fill="#707070"/>
<path opacity="0.557" fill-rule="evenodd" clip-rule="evenodd" d="M406.5 124.5C406.5 125.167 406.5 125.833 406.5 126.5C404.203 128.294 402.037 130.294 400 132.5C399.601 132.272 399.435 131.938 399.5 131.5C401.5 128.833 403.833 126.5 406.5 124.5Z" fill="#999999"/>
<path opacity="0.851" fill-rule="evenodd" clip-rule="evenodd" d="M308.5 141.5C307.666 142.748 306.333 143.415 304.5 143.5C302.955 143.489 301.622 143.156 300.5 142.5C303.054 141.612 305.721 141.279 308.5 141.5Z" fill="#4D4D4D"/>
<path opacity="0.624" fill-rule="evenodd" clip-rule="evenodd" d="M328.5 141.5C330.95 141.298 333.283 141.631 335.5 142.5C334.551 143.152 333.385 143.486 332 143.5C330.319 143.392 329.152 142.725 328.5 141.5Z" fill="#6C6C6C"/>
<path opacity="0.714" fill-rule="evenodd" clip-rule="evenodd" d="M517.5 141.5C514.96 143.413 512.293 143.746 509.5 142.5C512.096 141.735 514.763 141.401 517.5 141.5Z" fill="#606060"/>
<path opacity="0.686" fill-rule="evenodd" clip-rule="evenodd" d="M538.5 141.5C540.95 141.298 543.283 141.631 545.5 142.5C542.988 143.867 540.655 143.534 538.5 141.5Z" fill="#6F6F6F"/>
<path opacity="0.22" fill-rule="evenodd" clip-rule="evenodd" d="M478.5 133.5C477.782 138.323 476.449 142.99 474.5 147.5C474.624 148.107 474.957 148.44 475.5 148.5C474.838 150.832 473.505 151.499 471.5 150.5C473.664 144.652 475.997 138.986 478.5 133.5Z" fill="#808080"/>
<path opacity="0.278" fill-rule="evenodd" clip-rule="evenodd" d="M491.5 144.5C491.209 145.649 490.376 146.316 489 146.5C487.522 147.092 486.356 147.092 485.5 146.5C487.374 145.715 489.374 145.048 491.5 144.5Z" fill="#757575"/>
<path opacity="0.792" fill-rule="evenodd" clip-rule="evenodd" d="M559.5 143.5C562.99 144.257 566.323 145.257 569.5 146.5C566.387 146.849 563.054 146.849 559.5 146.5C559.5 145.5 559.5 144.5 559.5 143.5Z" fill="#464646"/>
<path fill-rule="evenodd" clip-rule="evenodd" d="M330.5 148.5C321.161 148.334 311.827 148.5 302.5 149C295.562 150.422 288.562 151.255 281.5 151.5C297.669 147.595 314.003 146.595 330.5 148.5Z" fill="#5E1C0C"/>
<path fill-rule="evenodd" clip-rule="evenodd" d="M543.5 148.5C530.15 148.361 516.817 148.694 503.5 149.5C510.934 147.949 518.6 147.282 526.5 147.5C532.343 147.501 538.01 147.834 543.5 148.5Z" fill="#551A0B"/>
<path opacity="0.239" fill-rule="evenodd" clip-rule="evenodd" d="M398.5 132.5C395.952 137.927 393.118 143.26 390 148.5C389.506 150.134 389.34 151.801 389.5 153.5C388.5 153.5 387.5 153.5 386.5 153.5C388.896 145.978 392.896 138.978 398.5 132.5Z" fill="#888888"/>
<path opacity="0.627" fill-rule="evenodd" clip-rule="evenodd" d="M274.5 146.5C273.942 147.79 272.942 148.623 271.5 149C267.883 149.353 264.383 150.186 261 151.5C260.235 151.43 259.735 151.097 259.5 150.5C264.372 148.766 269.372 147.433 274.5 146.5Z" fill="#5A5A5A"/>
<path opacity="0.294" fill-rule="evenodd" clip-rule="evenodd" d="M579.5 148.5C590.31 151.324 600.643 155.324 610.5 160.5C610.631 161.376 610.298 162.043 609.5 162.5C600.111 158.205 590.611 154.205 581 150.5C579.97 150.164 579.47 149.497 579.5 148.5Z" fill="#4C4C4C"/>
<path opacity="0.078" fill-rule="evenodd" clip-rule="evenodd" d="M363.5 147.5C371.351 149.228 379.018 151.562 386.5 154.5C387.885 155.302 387.718 155.969 386 156.5C378.165 153.858 370.665 150.858 363.5 147.5Z" fill="#5B5B5B"/>
<path opacity="0.506" fill-rule="evenodd" clip-rule="evenodd" d="M258.5 150.5C258.586 151.496 258.252 152.329 257.5 153C250.616 155.28 243.95 158.114 237.5 161.5C236.702 161.043 236.369 160.376 236.5 159.5C243.672 156.109 251.006 153.109 258.5 150.5Z" fill="#646464"/>
<path opacity="0.667" fill-rule="evenodd" clip-rule="evenodd" d="M235.5 160.5C235.5 161.5 235.5 162.5 235.5 163.5C232.72 163.807 230.22 164.807 228 166.5C227.235 166.43 226.735 166.097 226.5 165.5C229.24 163.44 232.24 161.774 235.5 160.5Z" fill="#505050"/>
<path opacity="0.255" fill-rule="evenodd" clip-rule="evenodd" d="M611.5 161.5C616.465 163.649 621.132 166.316 625.5 169.5C625.44 170.043 625.107 170.376 624.5 170.5C620.626 168.132 616.626 165.966 612.5 164C611.748 163.329 611.414 162.496 611.5 161.5Z" fill="#5F5F5F"/>
<path opacity="0.741" fill-rule="evenodd" clip-rule="evenodd" d="M225.5 166.5C221.389 171.063 216.389 174.397 210.5 176.5C215.32 172.922 220.32 169.588 225.5 166.5Z" fill="#606060"/>
<path opacity="0.506" fill-rule="evenodd" clip-rule="evenodd" d="M632.5 175.5C636.569 177.299 640.069 179.966 643 183.5C643.599 185.535 643.099 187.201 641.5 188.5C641.66 186.801 641.494 185.134 641 183.5C637.667 181.333 634.834 178.666 632.5 175.5Z" fill="#696969"/>
<path fill-rule="evenodd" clip-rule="evenodd" d="M223.5 184.5C233.398 185.098 243.065 186.431 252.5 188.5C242.578 188.053 232.911 186.72 223.5 184.5Z" fill="#691F0E"/>
<path opacity="0.178" fill-rule="evenodd" clip-rule="evenodd" d="M210.5 176.5C210.631 177.239 210.464 177.906 210 178.5C207.205 180.293 204.705 182.46 202.5 185C204.575 186.568 206.575 188.068 208.5 189.5C204.829 190.002 202.495 188.502 201.5 185C203.701 181.299 206.701 178.465 210.5 176.5Z" fill="#7A7A7A"/>
<path opacity="0.725" fill-rule="evenodd" clip-rule="evenodd" d="M232.5 192.5C228.821 192.276 225.154 191.942 221.5 191.5C221.62 190.414 222.287 189.747 223.5 189.5C226.145 190.108 228.812 190.608 231.5 191C232.056 191.383 232.389 191.883 232.5 192.5Z" fill="#565656"/>
<path opacity="0.161" fill-rule="evenodd" clip-rule="evenodd" d="M233.5 192.5C234.097 191.861 234.93 191.528 236 191.5C237.376 191.684 238.209 192.351 238.5 193.5C236.784 193.371 235.117 193.038 233.5 192.5Z" fill="#727272"/>
<path opacity="0.459" fill-rule="evenodd" clip-rule="evenodd" d="M604.5 193.5C602.586 194.185 600.586 194.685 598.5 195C605.29 196.893 611.29 200.059 616.5 204.5C616.44 205.043 616.107 205.376 615.5 205.5C608.619 201.893 601.619 198.56 594.5 195.5C594.5 194.5 594.5 193.5 594.5 192.5C597.038 192.493 599.538 192.159 602 191.5C603.376 191.684 604.209 192.351 604.5 193.5Z" fill="#424242"/>
<path opacity="0.361" fill-rule="evenodd" clip-rule="evenodd" d="M240.5 193.5C243.625 192.521 246.958 192.187 250.5 192.5C250.5 193.5 250.5 194.5 250.5 195.5C241.72 198.74 233.387 202.907 225.5 208C223.613 208.78 221.946 208.613 220.5 207.5C228.867 203.153 237.534 198.987 246.5 195C244.482 194.495 242.482 193.995 240.5 193.5Z" fill="#5F5F5F"/>
<path opacity="0.38" fill-rule="evenodd" clip-rule="evenodd" d="M617.5 204.5C619.732 205.869 622.066 206.869 624.5 207.5C623.054 208.613 621.387 208.78 619.5 208C618.027 207.29 617.36 206.124 617.5 204.5Z" fill="#7F7F7F"/>
<path opacity="0.251" fill-rule="evenodd" clip-rule="evenodd" d="M629.5 207.5C633.201 208.118 636.867 208.951 640.5 210C641.942 210.377 642.942 211.21 643.5 212.5C640.435 212.759 637.935 211.759 636 209.5C633.204 210.734 631.037 210.067 629.5 207.5Z" fill="#565656"/>
<path opacity="0.988" fill-rule="evenodd" clip-rule="evenodd" d="M218.5 207.5C218.209 208.649 217.376 209.316 216 209.5C211.504 210.612 207.004 211.612 202.5 212.5C203.848 210.52 205.848 209.353 208.5 209C211.793 208.174 215.126 207.674 218.5 207.5Z" fill="#474747"/>
<path fill-rule="evenodd" clip-rule="evenodd" d="M244.5 249.5C241.059 250.097 237.725 250.763 234.5 251.5C221.542 254.454 212.542 262.121 207.5 274.5C205.97 277.695 205.304 281.195 205.5 285C205.503 287.69 205.836 290.19 206.5 292.5C207.593 303.351 211.926 312.684 219.5 320.5C214.595 329.407 207.928 336.74 199.5 342.5C180.448 327.402 169.448 307.736 166.5 283.5C166.523 275.817 166.857 268.15 167.5 260.5C177.519 226.961 200.186 211.461 235.5 214C239.894 214.303 244.227 214.97 248.5 216C253.801 218.152 259.135 219.986 264.5 221.5C260.949 226.235 257.116 230.901 253 235.5C249.904 240.028 247.071 244.695 244.5 249.5Z" fill="#E37D2D"/>
<path fill-rule="evenodd" clip-rule="evenodd" d="M674.5 251.5C675.259 256.43 676.592 261.097 678.5 265.5C681.451 297.253 670.451 322.92 645.5 342.5C636.8 336.969 630.467 329.469 626.5 320C632.386 312.729 636.552 304.562 639 295.5C642.182 274.018 633.682 259.518 613.5 252C609.459 251.827 605.459 251.327 601.5 250.5C595.96 240.093 588.96 230.76 580.5 222.5C597.185 213.611 614.851 211.111 633.5 215C652.965 220.721 666.632 232.887 674.5 251.5Z" fill="#E37D2D"/>
<path opacity="0.576" fill-rule="evenodd" clip-rule="evenodd" d="M658.5 220.5C663.188 223.188 666.855 226.855 669.5 231.5C665.425 228.091 661.758 224.425 658.5 220.5Z" fill="#5A5A5A"/>
<path fill-rule="evenodd" clip-rule="evenodd" d="M390.5 284.5C397.137 283.724 403.804 283.391 410.5 283.5C416.055 283.944 421.389 285.278 426.5 287.5C460.318 265.936 493.985 266.436 527.5 289C540.373 298.873 551.54 310.373 561 323.5C569.097 336.689 576.43 350.356 583 364.5C594.191 395.003 607.191 425.003 622 454.5C625.63 459.597 629.13 464.764 632.5 470C631.591 472.319 629.925 472.986 627.5 472C622.876 465.252 618.376 458.419 614 451.5C603.549 430.133 593.882 408.466 585 386.5C584.671 397.213 585.338 407.879 587 418.5C590.698 440.626 595.032 462.626 600 484.5C603.944 507.004 603.277 529.338 598 551.5C593.305 570.556 584.639 587.556 572 602.5C554.962 617.874 537.629 632.874 520 647.5C509.757 660.31 500.757 673.977 493 688.5C480.075 703.711 463.575 711.545 443.5 712C426.804 712.853 410.137 712.52 393.5 711C377.672 708.173 364.506 700.673 354 688.5C345.572 673.303 335.905 658.97 325 645.5C315.079 636.242 304.579 627.742 293.5 620C264.662 596.835 248.495 566.669 245 529.5C244.333 519.167 244.333 508.833 245 498.5C249.603 469.884 255.603 441.551 263 413.5C264.625 403.881 265.292 394.215 265 384.5C259.227 393.272 252.394 401.105 244.5 408C240.824 410.505 236.824 412.338 232.5 413.5C229.604 412.976 228.937 411.476 230.5 409C235.997 406.755 240.997 403.755 245.5 400C263.201 380.767 274.701 358.267 280 332.5C287.612 315.721 299.779 303.387 316.5 295.5C317.837 265.296 331.504 242.796 357.5 228C359.134 227.506 360.801 227.34 362.5 227.5C362.714 229.144 362.38 230.644 361.5 232C327.889 251.806 316.389 280.64 327 318.5C327.923 319.759 328.757 321.092 329.5 322.5C339.135 312.024 349.802 302.857 361.5 295C370.658 290.004 380.324 286.504 390.5 284.5Z" fill="#100805"/>
<path opacity="0.471" fill-rule="evenodd" clip-rule="evenodd" d="M187.5 220.5C176.536 229.768 168.536 241.101 163.5 254.5C166.617 242.107 172.95 231.607 182.5 223C184.078 221.906 185.745 221.072 187.5 220.5Z" fill="#737373"/>
<path opacity="0.376" fill-rule="evenodd" clip-rule="evenodd" d="M669.5 231.5C676.18 238.525 680.514 246.858 682.5 256.5C678.986 247.807 674.653 239.474 669.5 231.5Z" fill="#888888"/>
<path fill-rule="evenodd" clip-rule="evenodd" d="M244.5 249.5C241.663 251.402 238.329 252.069 234.5 251.5C237.725 250.763 241.059 250.097 244.5 249.5Z" fill="#723F16"/>
<path fill-rule="evenodd" clip-rule="evenodd" d="M674.5 251.5C676.816 255.794 678.15 260.46 678.5 265.5C676.592 261.097 675.259 256.43 674.5 251.5Z" fill="#91501D"/>
<path opacity="0.824" fill-rule="evenodd" clip-rule="evenodd" d="M163.5 254.5C163.728 258.924 162.728 262.924 160.5 266.5C160.755 262.2 161.755 258.2 163.5 254.5Z" fill="#5A5A5A"/>
<path fill-rule="evenodd" clip-rule="evenodd" d="M232.5 256.5C235.247 256.187 237.914 256.52 240.5 257.5C235.099 271.1 230.932 285.1 228 299.5C226.073 302.948 224.739 306.615 224 310.5C223.167 311.5 222.333 312.5 221.5 313.5C211.926 302.923 208.759 290.589 212 276.5C216.106 266.893 222.939 260.226 232.5 256.5Z" fill="#EAB686"/>
<path fill-rule="evenodd" clip-rule="evenodd" d="M604.5 256.5C616.845 256.927 626.011 262.594 632 273.5C636.091 286.619 634.424 298.952 627 310.5C625.981 311.687 624.814 312.687 623.5 313.5C621.227 310.154 619.393 306.488 618 302.5C614.425 286.863 609.925 271.53 604.5 256.5Z" fill="#E9B686"/>
<path opacity="0.769" fill-rule="evenodd" clip-rule="evenodd" d="M682.5 256.5C683.963 259.203 684.796 262.203 685 265.5C686.442 267.391 687.609 269.391 688.5 271.5C683.491 267.801 681.491 262.801 682.5 256.5Z" fill="#585858"/>
<path opacity="0.792" fill-rule="evenodd" clip-rule="evenodd" d="M688.5 271.5C690.262 272.262 691.262 273.596 691.5 275.5C689.738 274.738 688.738 273.404 688.5 271.5Z" fill="#818181"/>
<path fill-rule="evenodd" clip-rule="evenodd" d="M167.5 260.5C166.857 268.15 166.523 275.817 166.5 283.5C165.128 275.777 165.461 268.111 167.5 260.5Z" fill="#92501D"/>
<path fill-rule="evenodd" clip-rule="evenodd" d="M490.5 278.5C479.469 278.26 468.469 278.593 457.5 279.5C458.263 278.732 459.263 278.232 460.5 278C470.675 277.175 480.675 277.342 490.5 278.5Z" fill="#AC5E22"/>
<path fill-rule="evenodd" clip-rule="evenodd" d="M490.5 278.5C514.335 284.503 533.835 297.169 549 316.5C561.077 332.93 571.077 350.597 579 369.5C578.896 388.605 580.229 407.605 583 426.5C588.748 450.994 593.415 475.66 597 500.5C602.047 549.645 585.214 589.145 546.5 619C531.795 628.035 519.295 639.535 509 653.5C510.776 641.848 515.109 631.181 522 621.5C531 613.167 540 604.833 549 596.5C554.54 589.374 558.04 581.374 559.5 572.5C560.653 566.347 560.82 560.014 560 553.5C559.434 551.277 558.6 549.277 557.5 547.5C554.411 538.576 548.411 532.41 539.5 529C535.835 527.722 532.168 526.556 528.5 525.5C520.01 524.343 511.343 524.176 502.5 525C501.263 525.232 500.263 525.732 499.5 526.5C496.432 526.547 493.432 527.047 490.5 528C483.514 530.606 476.514 533.106 469.5 535.5C468.652 526.475 463.652 520.975 454.5 519C452.866 518.506 451.199 518.34 449.5 518.5C429.671 517.338 409.671 517.171 389.5 518C387.509 518.374 385.842 519.207 384.5 520.5C378.621 523.384 374.954 528.051 373.5 534.5C361.86 529.449 349.86 526.116 337.5 524.5C332.35 523.349 327.016 523.183 321.5 524C318.543 524.279 315.877 525.113 313.5 526.5C309.441 527.364 305.774 529.03 302.5 531.5C301.306 530.728 300.306 529.728 299.5 528.5C299.434 523.899 301.767 521.566 306.5 521.5C305.624 520.749 304.624 520.249 303.5 520C305.975 518.257 305.975 517.257 303.5 517C301.38 519.409 299.38 521.909 297.5 524.5C296.571 523.311 296.238 521.978 296.5 520.5C295.448 520.351 294.448 520.517 293.5 521C292.406 522.78 291.406 524.614 290.5 526.5C289.817 526.137 289.15 525.804 288.5 525.5C284.434 521.283 281.1 521.95 278.5 527.5C277.833 527.167 277.167 526.833 276.5 526.5C275.833 527.833 275.167 529.167 274.5 530.5C273.312 529.16 271.812 528.493 270 528.5C267.863 529.077 265.696 529.41 263.5 529.5C261.546 533.518 260.046 537.518 259 541.5C257.007 542.914 254.84 543.914 252.5 544.5C250.824 529.222 250.158 513.888 250.5 498.5C252.25 494.817 252.917 490.817 252.5 486.5C258.279 459.483 263.946 432.483 269.5 405.5C270.332 394.515 270.832 383.515 271 372.5C277.28 361.598 281.613 349.931 284 337.5C288.328 325.71 295.494 315.877 305.5 308C309.309 304.762 313.642 302.596 318.5 301.5C319.402 311.708 322.235 321.375 327 330.5C327.561 331.022 328.228 331.355 329 331.5C341.787 315.721 357.287 303.221 375.5 294C392.553 287.01 409.553 286.844 426.5 293.5C431.94 290.57 437.274 287.403 442.5 284C447.304 281.787 452.304 280.287 457.5 279.5C468.469 278.593 479.469 278.26 490.5 278.5Z" fill="#E47D2D"/>
<path opacity="0.237" fill-rule="evenodd" clip-rule="evenodd" d="M691.5 275.5C694.461 277.412 696.461 280.079 697.5 283.5C696.504 283.586 695.671 283.252 695 282.5C693.807 280.114 692.64 277.78 691.5 275.5Z" fill="#696969"/>
<path opacity="0.282" fill-rule="evenodd" clip-rule="evenodd" d="M154.5 274.5C153.449 277.961 151.449 280.627 148.5 282.5C150.016 279.467 152.016 276.8 154.5 274.5Z" fill="#7E7E7E"/>
<path fill-rule="evenodd" clip-rule="evenodd" d="M410.5 283.5C403.804 283.391 397.137 283.724 390.5 284.5C394.223 283.003 398.223 282.337 402.5 282.5C405.355 282.503 408.022 282.836 410.5 283.5Z" fill="#431408"/>
<path opacity="0.231" fill-rule="evenodd" clip-rule="evenodd" d="M148.5 282.5C148.715 284.179 148.048 285.179 146.5 285.5C146.427 283.973 147.094 282.973 148.5 282.5Z" fill="#B9B9B9"/>
<path fill-rule="evenodd" clip-rule="evenodd" d="M207.5 274.5C206.693 280.464 206.36 286.464 206.5 292.5C205.836 290.19 205.503 287.69 205.5 285C205.304 281.195 205.97 277.695 207.5 274.5Z" fill="#42250F"/>
<path opacity="0.318" fill-rule="evenodd" clip-rule="evenodd" d="M146.5 285.5C143.282 293.604 139.282 301.271 134.5 308.5C137.208 300.08 141.208 292.414 146.5 285.5Z" fill="#939393"/>
<path opacity="0.076" fill-rule="evenodd" clip-rule="evenodd" d="M697.5 283.5C704.126 293.084 709.46 303.417 713.5 314.5C708.36 305.563 703.194 296.563 698 287.5C697.51 286.207 697.343 284.873 697.5 283.5Z" fill="#969696"/>
<path opacity="0.098" fill-rule="evenodd" clip-rule="evenodd" d="M713.5 314.5C718.725 323.833 722.392 333.833 724.5 344.5C721.592 336.006 718.092 327.672 714 319.5C713.506 317.866 713.34 316.199 713.5 314.5Z" fill="#8B8B8B"/>
<path opacity="0.278" fill-rule="evenodd" clip-rule="evenodd" d="M134.5 308.5C132.27 315.946 129.27 322.946 125.5 329.5C127.542 322.025 130.542 315.025 134.5 308.5Z" fill="#8C8C8C"/>
<path opacity="0.384" fill-rule="evenodd" clip-rule="evenodd" d="M125.5 329.5C123.946 337.159 121.613 344.492 118.5 351.5C120.061 343.821 122.394 336.488 125.5 329.5Z" fill="#7B7B7B"/>
<path fill-rule="evenodd" clip-rule="evenodd" d="M130.5 333.5C130.323 337.708 128.99 341.374 126.5 344.5C127.462 340.605 128.796 336.939 130.5 333.5Z" fill="#5F1D0D"/>
<path fill-rule="evenodd" clip-rule="evenodd" d="M369.5 342.5C369.5 343.833 369.5 345.167 369.5 346.5C360.827 346.334 352.16 346.5 343.5 347C337.781 348.042 332.448 349.875 327.5 352.5C325.22 353.64 322.886 354.807 320.5 356C315.008 356.486 313.175 353.986 315 348.5C315.785 346.714 316.951 345.214 318.5 344C333.036 335.114 348.37 333.448 364.5 339C366.584 339.697 368.251 340.864 369.5 342.5Z" fill="#1C0D03"/>
<path fill-rule="evenodd" clip-rule="evenodd" d="M499.5 335.5C509.508 335.502 518.841 338.002 527.5 343C533.496 346.044 534.829 350.378 531.5 356C530.167 356.667 528.833 356.667 527.5 356C519.991 352.608 512.325 349.608 504.5 347C495.84 346.5 487.173 346.334 478.5 346.5C478.261 344.533 478.594 342.699 479.5 341C486.141 338.628 492.807 336.794 499.5 335.5Z" fill="#1C0D03"/>
<path fill-rule="evenodd" clip-rule="evenodd" d="M341.5 338.5C350.022 338.92 358.356 340.42 366.5 343C349.17 341.543 333.004 345.043 318 353.5C317.247 349.507 318.747 346.674 322.5 345C328.586 341.694 334.92 339.528 341.5 338.5Z" fill="#E43400"/>
<path fill-rule="evenodd" clip-rule="evenodd" d="M499.5 338.5C510.142 338.216 519.808 341.049 528.5 347C530.378 348.993 530.712 351.159 529.5 353.5C521.257 350.031 512.924 346.865 504.5 344C496.833 343.667 489.167 343.333 481.5 343C487.565 341.292 493.565 339.792 499.5 338.5Z" fill="#E23400"/>
<path fill-rule="evenodd" clip-rule="evenodd" d="M369.5 342.5C370.942 344.817 370.608 346.984 368.5 349C356.055 347.266 343.889 348.766 332 353.5C330.56 352.852 329.06 352.519 327.5 352.5C332.448 349.875 337.781 348.042 343.5 347C352.16 346.5 360.827 346.334 369.5 346.5C369.5 345.167 369.5 343.833 369.5 342.5Z" fill="#CC7029"/>
<path opacity="0.753" fill-rule="evenodd" clip-rule="evenodd" d="M724.5 344.5C726.277 347.505 727.277 350.838 727.5 354.5C725.723 351.495 724.723 348.162 724.5 344.5Z" fill="#797979"/>
<path opacity="0.231" fill-rule="evenodd" clip-rule="evenodd" d="M118.5 351.5C118.59 354.152 117.924 356.485 116.5 358.5C116.41 355.848 117.076 353.515 118.5 351.5Z" fill="#717171"/>
<path fill-rule="evenodd" clip-rule="evenodd" d="M363.5 443.5C360.273 443.676 357.273 444.343 354.5 445.5C347.931 446.141 341.931 444.641 336.5 441C318.219 423.998 313.052 403.498 321 379.5C325.095 368.776 332.262 360.942 342.5 356C363.781 352.917 377.614 361.75 384 382.5C389.153 402.405 385.486 420.405 373 436.5C369.855 438.976 366.688 441.31 363.5 443.5Z" fill="#140E09"/>
<path fill-rule="evenodd" clip-rule="evenodd" d="M495.5 356.5C510.946 358.106 520.779 366.439 525 381.5C528.917 399.37 525.25 415.37 514 429.5C499.499 444.035 485.165 444.035 471 429.5C461.086 410.932 461.086 392.266 471 373.5C477.217 364.746 485.384 359.079 495.5 356.5Z" fill="#150F0A"/>
<path fill-rule="evenodd" clip-rule="evenodd" d="M381.5 390.5C381.5 397.833 381.5 405.167 381.5 412.5C379.233 425.551 372.233 435.051 360.5 441C347.884 443.272 338.05 439.106 331 428.5C321.717 411.355 321.384 394.022 330 376.5C340.445 360.26 353.612 357.427 369.5 368C376.522 373.876 380.522 381.376 381.5 390.5Z" fill="#F7F6F4"/>
<path opacity="0.851" fill-rule="evenodd" clip-rule="evenodd" d="M728.5 358.5C729.612 360.599 730.279 362.933 730.5 365.5C728.837 363.562 728.171 361.228 728.5 358.5Z" fill="#6E6E6E"/>
<path opacity="0.651" fill-rule="evenodd" clip-rule="evenodd" d="M115.5 363.5C115.636 366.551 115.302 369.551 114.5 372.5C114.547 374.038 113.88 375.038 112.5 375.5C113.262 371.329 114.262 367.329 115.5 363.5Z" fill="#717171"/>
<path fill-rule="evenodd" clip-rule="evenodd" d="M519.5 387.5C519.621 395.858 519.288 404.191 518.5 412.5C516.815 417.389 514.648 422.056 512 426.5C508.636 429.774 505.136 432.941 501.5 436C489.932 440.336 480.765 437.502 474 427.5C466.43 411.351 466.93 395.351 475.5 379.5C484.288 365.554 495.954 362.387 510.5 370C515.764 374.696 518.764 380.529 519.5 387.5Z" fill="#F7F6F4"/>
<path opacity="0.906" fill-rule="evenodd" clip-rule="evenodd" d="M730.5 367.5C732.044 372.606 733.044 377.939 733.5 383.5C731.227 378.549 730.227 373.216 730.5 367.5Z" fill="#535353"/>
<path opacity="0.435" fill-rule="evenodd" clip-rule="evenodd" d="M728.5 403.5C720.671 399.42 713.004 395.087 705.5 390.5C705.5 389.833 705.167 389.5 704.5 389.5C704.167 388.167 703.833 388.167 703.5 389.5C701.668 388.86 701.335 387.86 702.5 386.5C711.574 391.693 720.24 397.36 728.5 403.5Z" fill="#616161"/>
<path fill-rule="evenodd" clip-rule="evenodd" d="M363.5 392.5C360.167 392.5 356.833 392.5 353.5 392.5C356.799 389.954 360.132 389.954 363.5 392.5Z" fill="#4B443F"/>
<path fill-rule="evenodd" clip-rule="evenodd" d="M353.5 392.5C356.833 392.5 360.167 392.5 363.5 392.5C365.838 393.682 367.838 395.348 369.5 397.5C364.384 398.44 362.217 401.44 363 406.5C364.135 408.803 365.968 410.136 368.5 410.5C370.332 409.179 372.332 408.179 374.5 407.5C375.624 415.601 374.124 423.268 370 430.5C358.979 440.667 349.979 439.001 343 425.5C338.147 413.507 340.314 403.007 349.5 394C350.745 393.209 352.078 392.709 353.5 392.5Z" fill="#080706"/>
<path fill-rule="evenodd" clip-rule="evenodd" d="M510.5 408.5C511.468 410.607 511.802 412.941 511.5 415.5C509.53 427.835 502.53 433.168 490.5 431.5C483.239 425.557 480.406 417.891 482 408.5C484.514 394.509 492.348 389.675 505.5 394C506.687 395.019 507.687 396.186 508.5 397.5C502.362 399.71 501.028 403.543 504.5 409C506.598 409.678 508.598 409.511 510.5 408.5Z" fill="#080605"/>
<path fill-rule="evenodd" clip-rule="evenodd" d="M118.5 378.5C117.887 384.271 118.554 389.604 120.5 394.5C119.791 395.404 118.791 395.737 117.5 395.5C117.178 389.642 117.511 383.975 118.5 378.5Z" fill="#53190A"/>
<path opacity="0.186" fill-rule="evenodd" clip-rule="evenodd" d="M140.5 387.5C140.5 388.167 140.5 388.833 140.5 389.5C133.469 394.349 126.135 398.682 118.5 402.5C125.383 397.041 132.717 392.041 140.5 387.5Z" fill="#575757"/>
<path fill-rule="evenodd" clip-rule="evenodd" d="M519.5 387.5C522.077 395.91 521.744 404.244 518.5 412.5C519.288 404.191 519.621 395.858 519.5 387.5Z" fill="#CBC0B8"/>
<path fill-rule="evenodd" clip-rule="evenodd" d="M381.5 390.5C384.167 397.833 384.167 405.167 381.5 412.5C381.5 405.167 381.5 397.833 381.5 390.5Z" fill="#C5B9B0"/>
<path opacity="0.714" fill-rule="evenodd" clip-rule="evenodd" d="M112.5 395.5C113.371 398.003 114.037 400.67 114.5 403.5C113.883 403.389 113.383 403.056 113 402.5C112.503 400.19 112.337 397.857 112.5 395.5Z" fill="#696969"/>
<path opacity="0.831" fill-rule="evenodd" clip-rule="evenodd" d="M733.5 395.5C734.071 399.487 732.738 402.487 729.5 404.5C730.662 401.316 731.996 398.316 733.5 395.5Z" fill="#5E5E5E"/>
<path opacity="0.125" fill-rule="evenodd" clip-rule="evenodd" d="M135.5 411.5C134.833 411.5 134.167 411.5 133.5 411.5C135.434 404.033 137.767 396.699 140.5 389.5C140.5 388.833 140.5 388.167 140.5 387.5C141.575 386.438 142.575 386.438 143.5 387.5C141.106 392.732 138.939 398.065 137 403.5C135.921 406.063 135.421 408.729 135.5 411.5Z" fill="#989898"/>
<path opacity="0.176" fill-rule="evenodd" clip-rule="evenodd" d="M703.5 389.5C703.833 389.5 704.167 389.5 704.5 389.5C705.167 389.5 705.5 389.833 705.5 390.5C708.44 398.655 710.773 406.988 712.5 415.5C709.994 408.508 707.161 401.508 704 394.5C703.506 392.866 703.34 391.199 703.5 389.5Z" fill="#999999"/>
<path fill-rule="evenodd" clip-rule="evenodd" d="M510.5 408.5C510.56 407.957 510.893 407.624 511.5 407.5C512.8 410.309 512.8 412.976 511.5 415.5C511.802 412.941 511.468 410.607 510.5 408.5Z" fill="#6C5C51"/>
<path opacity="0.149" fill-rule="evenodd" clip-rule="evenodd" d="M713.5 416.5C713.366 418.292 713.699 419.958 714.5 421.5C712.815 420.816 711.815 419.483 711.5 417.5C711.957 416.702 712.624 416.369 713.5 416.5Z" fill="#909090"/>
<path opacity="0.514" fill-rule="evenodd" clip-rule="evenodd" d="M133.5 411.5C134.167 411.5 134.833 411.5 135.5 411.5C133.037 420.356 131.037 429.356 129.5 438.5C129.062 441.295 128.062 443.628 126.5 445.5C128.191 434.013 130.525 422.68 133.5 411.5Z" fill="#5C5C5C"/>
<path opacity="0.686" fill-rule="evenodd" clip-rule="evenodd" d="M714.5 422.5C715.686 427.8 716.686 433.133 717.5 438.5C716.414 438.38 715.747 437.713 715.5 436.5C713.807 431.742 713.474 427.076 714.5 422.5Z" fill="#626262"/>
<path fill-rule="evenodd" clip-rule="evenodd" d="M363.5 443.5C360.829 445.118 357.829 445.785 354.5 445.5C357.273 444.343 360.273 443.676 363.5 443.5Z" fill="#7E4619"/>
<path opacity="0.376" fill-rule="evenodd" clip-rule="evenodd" d="M126.5 446.5C127.649 446.791 128.316 447.624 128.5 449C128.613 450.699 127.947 451.866 126.5 452.5C126.5 450.5 126.5 448.5 126.5 446.5Z" fill="#5E5E5E"/>
<path opacity="0.114" fill-rule="evenodd" clip-rule="evenodd" d="M717.5 440.5C719.006 449.079 719.672 457.746 719.5 466.5C717.138 457.921 716.471 449.254 717.5 440.5Z" fill="#4E4E4E"/>
<path opacity="0.753" fill-rule="evenodd" clip-rule="evenodd" d="M126.5 455.5C127.917 458.34 127.584 461.007 125.5 463.5C125.194 460.615 125.527 457.948 126.5 455.5Z" fill="#6B6B6B"/>
<path fill-rule="evenodd" clip-rule="evenodd" d="M564.5 465.5C565.598 466.601 565.765 467.934 565 469.5C561.393 478.981 557.393 488.315 553 497.5C550.889 502.278 549.555 507.278 549 512.5C546.763 514.647 544.763 516.98 543 519.5C547.277 507.345 551.61 495.012 556 482.5C558.741 476.771 561.574 471.105 564.5 465.5Z" fill="#F1BE98"/>
<path fill-rule="evenodd" clip-rule="evenodd" d="M555.5 463.5C556.376 463.369 557.043 463.702 557.5 464.5C550.795 480.077 544.462 495.744 538.5 511.5C537.369 509.926 537.202 508.259 538 506.5C540.736 501.902 542.403 496.902 543 491.5C546.878 482.073 551.045 472.74 555.5 463.5Z" fill="#F1BF99"/>
<path opacity="0.682" fill-rule="evenodd" clip-rule="evenodd" d="M125.5 483.5C127.482 486.373 127.815 489.373 126.5 492.5C125.523 489.713 125.19 486.713 125.5 483.5Z" fill="#797979"/>
<path fill-rule="evenodd" clip-rule="evenodd" d="M573.5 469.5C574.376 469.369 575.043 469.702 575.5 470.5C569.235 483.036 564.068 496.036 560 509.5C558.032 512.813 556.032 516.146 554 519.5C555.986 512.901 557.986 506.235 560 499.5C562.262 495.834 563.929 491.834 565 487.5C568.475 481.842 571.308 475.842 573.5 469.5Z" fill="#F1C19D"/>
<path fill-rule="evenodd" clip-rule="evenodd" d="M252.5 486.5C252.917 490.817 252.25 494.817 250.5 498.5C250.717 494.295 251.383 490.295 252.5 486.5Z" fill="#884B1B"/>
<path opacity="0.847" fill-rule="evenodd" clip-rule="evenodd" d="M719.5 495.5C718.833 499.5 718.167 503.5 717.5 507.5C716.357 504.024 716.19 500.358 717 496.5C717.671 495.748 718.504 495.414 719.5 495.5Z" fill="#4F4F4F"/>
<path opacity="0.588" fill-rule="evenodd" clip-rule="evenodd" d="M126.5 494.5C127.765 495.514 128.431 497.014 128.5 499C129.06 504.161 129.56 509.327 130 514.5C132.178 522.263 133.345 529.93 133.5 537.5C129.544 523.431 127.211 509.098 126.5 494.5Z" fill="#6E6E6E"/>
<path fill-rule="evenodd" clip-rule="evenodd" d="M287.5 509.5C289.028 509.517 289.528 510.184 289 511.5C287.89 513.037 286.39 513.703 284.5 513.5C284.833 515.5 285.167 517.5 285.5 519.5C284.5 519.5 283.5 519.5 282.5 519.5C282.5 518.5 282.5 517.5 282.5 516.5C279.833 516.5 277.167 516.5 274.5 516.5C275.112 512.861 277.112 511.861 280.5 513.5C282.525 511.436 284.858 510.102 287.5 509.5Z" fill="#E5582B"/>
<path fill-rule="evenodd" clip-rule="evenodd" d="M449.5 518.5C430.164 518.333 410.83 518.5 391.5 519C389.26 519.977 386.927 520.477 384.5 520.5C385.842 519.207 387.509 518.374 389.5 518C409.671 517.171 429.671 517.338 449.5 518.5Z" fill="#2A190B"/>
<path fill-rule="evenodd" clip-rule="evenodd" d="M337.5 524.5C329.428 524.403 321.428 525.07 313.5 526.5C315.877 525.113 318.543 524.279 321.5 524C327.016 523.183 332.35 523.349 337.5 524.5Z" fill="#A25920"/>
<path fill-rule="evenodd" clip-rule="evenodd" d="M288.5 525.5C288.281 526.675 288.614 527.675 289.5 528.5C292.986 526.01 296.319 526.01 299.5 528.5C300.306 529.728 301.306 530.728 302.5 531.5C297.865 536.1 293.698 541.1 290 546.5C288.878 548.407 288.045 550.407 287.5 552.5C286.625 554.568 285.459 556.568 284 558.5C281.733 557.065 279.733 557.398 278 559.5C278.077 558.262 277.911 557.262 277.5 556.5C275.455 558.047 273.289 559.381 271 560.5C270.5 560.167 270 559.833 269.5 559.5C270.665 558.416 271.998 557.583 273.5 557C272.929 555.795 272.262 554.628 271.5 553.5C270.264 554.246 268.93 554.579 267.5 554.5C267.649 555.552 267.483 556.552 267 557.5C263.305 558.418 260.472 560.418 258.5 563.5C257.662 563.158 257.328 562.492 257.5 561.5C258.609 558.619 260.609 556.619 263.5 555.5C262.833 554.167 261.833 553.167 260.5 552.5C259.164 554.171 257.831 555.838 256.5 557.5C253.192 553.903 251.859 549.569 252.5 544.5C254.84 543.914 257.007 542.914 259 541.5C260.046 537.518 261.546 533.518 263.5 529.5C265.696 529.41 267.863 529.077 270 528.5C271.812 528.493 273.312 529.16 274.5 530.5C275.167 529.167 275.833 527.833 276.5 526.5C277.167 526.833 277.833 527.167 278.5 527.5C281.1 521.95 284.434 521.283 288.5 525.5Z" fill="#E32626"/>
<path fill-rule="evenodd" clip-rule="evenodd" d="M528.5 525.5C518.801 525.275 509.134 525.608 499.5 526.5C500.263 525.732 501.263 525.232 502.5 525C511.343 524.176 520.01 524.343 528.5 525.5Z" fill="#4C2A11"/>
<path fill-rule="evenodd" clip-rule="evenodd" d="M299.5 528.5C296.319 526.01 292.986 526.01 289.5 528.5C288.614 527.675 288.281 526.675 288.5 525.5C289.15 525.804 289.817 526.137 290.5 526.5C291.406 524.614 292.406 522.78 293.5 521C294.448 520.517 295.448 520.351 296.5 520.5C296.238 521.978 296.571 523.311 297.5 524.5C299.38 521.909 301.38 519.409 303.5 517C305.975 517.257 305.975 518.257 303.5 520C304.624 520.249 305.624 520.749 306.5 521.5C301.767 521.566 299.434 523.899 299.5 528.5Z" fill="#E5572B"/>
<path fill-rule="evenodd" clip-rule="evenodd" d="M391.5 524.5C411.503 524.333 431.503 524.5 451.5 525C462.404 527.615 465.57 534.115 461 544.5C453.008 560.675 440.008 570.008 422 572.5C401.631 570.469 387.964 559.802 381 540.5C379.732 532.036 383.232 526.703 391.5 524.5Z" fill="#5F1A0A"/>
<path fill-rule="evenodd" clip-rule="evenodd" d="M339.5 530.5C332.132 530.317 324.799 530.65 317.5 531.5C317.918 530.778 318.584 530.278 319.5 530C326.346 529.179 333.013 529.346 339.5 530.5Z" fill="#795E45"/>
<path fill-rule="evenodd" clip-rule="evenodd" d="M506.5 642.5C504.39 646.502 503.057 650.835 502.5 655.5C495.172 687.99 474.838 705.157 441.5 707C428.167 707.667 414.833 707.667 401.5 707C378.483 704.957 361.65 693.79 351 673.5C346.203 657.162 340.537 641.162 334 625.5C332.667 623.5 331.333 621.5 330 619.5C321 611.167 312 602.833 303 594.5C291.41 578.683 289.41 561.683 297 543.5C302.293 536.675 309.126 532.675 317.5 531.5C324.799 530.65 332.132 530.317 339.5 530.5C345.537 531.341 351.537 532.508 357.5 534C362.789 535.987 368.122 537.987 373.5 540C381.059 561.948 396.392 574.115 419.5 576.5C419.666 582.509 419.499 588.509 419 594.5C418.064 598.207 416.231 601.374 413.5 604C393.105 612.837 373.772 610.837 355.5 598C345.176 590.18 336.843 580.68 330.5 569.5C332.253 567.3 334.586 566.133 337.5 566C338.38 564.644 338.714 563.144 338.5 561.5C326.225 562.608 319.392 569.275 318 581.5C318.837 583.007 320.004 583.507 321.5 583C322.892 580.276 324.058 577.443 325 574.5C325.718 573.549 326.551 573.383 327.5 574C331.724 580.946 336.557 587.446 342 593.5C349.925 612.913 362.425 628.58 379.5 640.5C383.613 645.61 388.946 647.944 395.5 647.5C398.984 649.077 402.651 650.41 406.5 651.5C411.925 652.984 417.591 653.651 423.5 653.5C427.167 653.333 430.833 653.167 434.5 653C437.797 652.796 440.797 651.963 443.5 650.5C445.728 650.223 447.395 649.223 448.5 647.5C453.437 648.397 457.437 646.897 460.5 643C461.448 642.517 462.448 642.351 463.5 642.5C463.5 641.5 463.5 640.5 463.5 639.5C464.222 639.918 464.722 640.584 465 641.5C473.604 635.895 481.271 629.228 488 621.5C494.757 611.658 500.757 601.325 506 590.5C510.569 585.696 514.402 580.363 517.5 574.5C518.5 573.167 519.5 573.167 520.5 574.5C521.813 577.248 522.813 580.081 523.5 583C524.784 583.684 525.951 583.517 527 582.5C527.001 572.466 522.167 565.632 512.5 562C510.527 561.505 508.527 561.338 506.5 561.5C506.343 562.873 506.51 564.207 507 565.5C509.911 566.37 512.411 567.87 514.5 570C499.076 597.048 475.742 610.048 444.5 609C434.992 607.825 428.825 602.658 426 593.5C425.501 587.843 425.334 582.176 425.5 576.5C447.268 573.73 461.934 562.063 469.5 541.5C488.573 532.185 508.573 528.685 529.5 531C549.127 536.412 557.627 549.246 555 569.5C553.65 578.894 549.983 587.227 544 594.5C534.476 602.934 525.143 611.601 516 620.5C512.543 627.743 509.377 635.076 506.5 642.5Z" fill="#EDB988"/>
<path opacity="0.031" fill-rule="evenodd" clip-rule="evenodd" d="M717.5 509.5C714.195 529.915 708.362 549.581 700 568.5C699.34 570.324 698.173 571.657 696.5 572.5C704.964 552.859 711.298 532.526 715.5 511.5C715.747 510.287 716.414 509.62 717.5 509.5Z" fill="#7F7F7F"/>
<path opacity="0.502" fill-rule="evenodd" clip-rule="evenodd" d="M134.5 538.5C139.707 549.415 144.374 560.748 148.5 572.5C141.716 562.176 137.05 550.843 134.5 538.5Z" fill="#8D8D8D"/>
<path fill-rule="evenodd" clip-rule="evenodd" d="M257.5 561.5C256.566 560.432 256.232 559.099 256.5 557.5C257.831 555.838 259.164 554.171 260.5 552.5C261.833 553.167 262.833 554.167 263.5 555.5C260.609 556.619 258.609 558.619 257.5 561.5Z" fill="#E0662B"/>
<path fill-rule="evenodd" clip-rule="evenodd" d="M287.5 552.5C284.832 568.157 287.999 582.491 297 595.5C305.763 604.864 315.096 613.53 325 621.5C330.66 631.145 335.16 641.311 338.5 652C338.167 652.5 337.833 653 337.5 653.5C333.101 646.596 327.768 640.429 321.5 635C304.181 622.915 288.348 609.082 274 593.5C266.975 584.451 261.809 574.451 258.5 563.5C260.472 560.418 263.305 558.418 267 557.5C267.483 556.552 267.649 555.552 267.5 554.5C268.93 554.579 270.264 554.246 271.5 553.5C272.262 554.628 272.929 555.795 273.5 557C271.998 557.583 270.665 558.416 269.5 559.5C270 559.833 270.5 560.167 271 560.5C273.289 559.381 275.455 558.047 277.5 556.5C277.911 557.262 278.077 558.262 278 559.5C279.733 557.398 281.733 557.065 284 558.5C285.459 556.568 286.625 554.568 287.5 552.5Z" fill="#E27B2D"/>
<path opacity="0.024" fill-rule="evenodd" clip-rule="evenodd" d="M168.5 557.5C167.691 555.708 167.191 553.708 167 551.5C164.069 557.255 160.236 562.255 155.5 566.5C159.056 560.264 163.056 554.264 167.5 548.5C169.32 551.52 169.653 554.52 168.5 557.5Z" fill="#858585"/>
<path fill-rule="evenodd" clip-rule="evenodd" d="M557.5 547.5C558.6 549.277 559.434 551.277 560 553.5C560.82 560.014 560.653 566.347 559.5 572.5C559.902 564.048 559.235 555.715 557.5 547.5Z" fill="#583012"/>
<path opacity="0.239" fill-rule="evenodd" clip-rule="evenodd" d="M682.5 558.5C680.512 556.535 679.012 554.202 678 551.5C677.398 557.877 676.565 564.211 675.5 570.5C674.538 562.954 674.872 555.288 676.5 547.5C678.667 550.5 680.833 553.5 683 556.5C683.692 557.437 683.525 558.103 682.5 558.5Z" fill="#565656"/>
<path opacity="0.282" fill-rule="evenodd" clip-rule="evenodd" d="M691.5 569.5C689.738 568.738 688.738 567.404 688.5 565.5C689.839 565.909 690.839 567.243 691.5 569.5Z" fill="#959595"/>
<path opacity="0.624" fill-rule="evenodd" clip-rule="evenodd" d="M168.5 559.5C172.087 586.25 181.42 610.917 196.5 633.5C184.385 618.934 176.218 602.268 172 583.5C170.073 575.604 168.906 567.604 168.5 559.5Z" fill="#727272"/>
<path opacity="0.239" fill-rule="evenodd" clip-rule="evenodd" d="M675.5 571.5C672.605 593.934 664.272 613.934 650.5 631.5C655.323 622.522 660.156 613.522 665 604.5C668.849 594.079 671.849 583.412 674 572.5C674.383 571.944 674.883 571.611 675.5 571.5Z" fill="#8D8D8D"/>
<path fill-rule="evenodd" clip-rule="evenodd" d="M393.5 621.5C393.5 619.5 393.5 617.5 393.5 615.5C395.099 615.768 396.432 615.434 397.5 614.5C407.555 613.309 416.055 608.976 423 601.5C425.531 605.696 429.031 608.862 433.5 611C439.678 613.118 446.011 614.284 452.5 614.5C452.973 617.833 451.64 620 448.5 621C430.155 625.425 411.822 625.592 393.5 621.5Z" fill="#F3F3F3"/>
<path fill-rule="evenodd" clip-rule="evenodd" d="M369.5 610.5C372.572 611.495 375.572 612.662 378.5 614C381.482 614.498 384.482 614.665 387.5 614.5C387.608 618.247 387.108 621.914 386 625.5C384.998 627.666 383.498 629.333 381.5 630.5C378.223 629.058 375.723 626.725 374 623.5C371.409 619.56 369.909 615.227 369.5 610.5Z" fill="#EEEEEE"/>
<path fill-rule="evenodd" clip-rule="evenodd" d="M475.5 613.5C475.631 612.761 475.464 612.094 475 611.5C472.379 612.991 469.545 613.658 466.5 613.5C469.619 612.13 472.952 611.13 476.5 610.5C476.737 611.791 476.404 612.791 475.5 613.5Z" fill="#989898"/>
<path fill-rule="evenodd" clip-rule="evenodd" d="M475.5 613.5C474.083 620.167 470.75 625.667 465.5 630C463.633 630.711 462.133 630.211 461 628.5C460.256 626.1 459.423 623.767 458.5 621.5C458.185 618.789 458.852 616.456 460.5 614.5C462.265 613.539 464.265 613.205 466.5 613.5C469.545 613.658 472.379 612.991 475 611.5C475.464 612.094 475.631 612.761 475.5 613.5Z" fill="#F1F1F1"/>
<path fill-rule="evenodd" clip-rule="evenodd" d="M397.5 614.5C396.432 615.434 395.099 615.768 393.5 615.5C393.5 617.5 393.5 619.5 393.5 621.5C392.532 619.393 392.198 617.059 392.5 614.5C394.167 614.5 395.833 614.5 397.5 614.5Z" fill="#848484"/>
<path fill-rule="evenodd" clip-rule="evenodd" d="M460.5 614.5C458.852 616.456 458.185 618.789 458.5 621.5C457.532 619.393 457.198 617.059 457.5 614.5C458.5 614.5 459.5 614.5 460.5 614.5Z" fill="#868686"/>
<path fill-rule="evenodd" clip-rule="evenodd" d="M395.5 647.5C388.946 647.944 383.613 645.61 379.5 640.5C381.616 637.211 383.949 634.044 386.5 631C391.381 630.866 394.214 633.366 395 638.5C395.498 641.482 395.665 644.482 395.5 647.5Z" fill="#F0EFEE"/>
<path fill-rule="evenodd" clip-rule="evenodd" d="M463.5 639.5C463.5 640.5 463.5 641.5 463.5 642.5C462.448 642.351 461.448 642.517 460.5 643C457.437 646.897 453.437 648.397 448.5 647.5C447.777 641.428 449.111 635.928 452.5 631C454.635 630.365 456.635 630.699 458.5 632C460.415 634.4 462.081 636.9 463.5 639.5Z" fill="#ECECEC"/>
<path opacity="0.355" fill-rule="evenodd" clip-rule="evenodd" d="M196.5 633.5C199.647 635.313 201.647 637.98 202.5 641.5C200.122 639.122 198.122 636.455 196.5 633.5Z" fill="#787878"/>
<path opacity="0.133" fill-rule="evenodd" clip-rule="evenodd" d="M649.5 632.5C648.92 634.749 647.587 636.415 645.5 637.5C646.08 635.251 647.413 633.585 649.5 632.5Z" fill="#7D7D7D"/>
<path opacity="0.11" fill-rule="evenodd" clip-rule="evenodd" d="M645.5 637.5C642.5 642.5 638.5 646.5 633.5 649.5C637.167 645.167 641.167 641.167 645.5 637.5Z" fill="#626262"/>
<path opacity="0.02" fill-rule="evenodd" clip-rule="evenodd" d="M220.5 656.5C215.254 653.589 210.587 649.922 206.5 645.5C206.435 645.062 206.601 644.728 207 644.5C211.694 648.365 216.194 652.365 220.5 656.5Z" fill="#676767"/>
<path fill-rule="evenodd" clip-rule="evenodd" d="M506.5 642.5C505.943 647.165 504.61 651.498 502.5 655.5C503.057 650.835 504.39 646.502 506.5 642.5Z" fill="#6B533D"/>
<path opacity="0.376" fill-rule="evenodd" clip-rule="evenodd" d="M633.5 649.5C632.089 651.914 630.089 653.581 627.5 654.5C628.911 652.086 630.911 650.419 633.5 649.5Z" fill="#666666"/>
<path fill-rule="evenodd" clip-rule="evenodd" d="M443.5 650.5C440.797 651.963 437.797 652.796 434.5 653C430.833 653.167 427.167 653.333 423.5 653.5C417.591 653.651 411.925 652.984 406.5 651.5C418.888 653.038 431.221 652.705 443.5 650.5Z" fill="#81644A"/>
<path opacity="0.086" fill-rule="evenodd" clip-rule="evenodd" d="M623.5 657.5C623.027 658.906 622.027 659.573 620.5 659.5C620.973 658.094 621.973 657.427 623.5 657.5Z" fill="#878787"/>
<path opacity="0.027" fill-rule="evenodd" clip-rule="evenodd" d="M620.5 659.5C619.415 661.587 617.749 662.92 615.5 663.5C616.585 661.413 618.251 660.08 620.5 659.5Z" fill="#646464"/>
<path opacity="0.749" fill-rule="evenodd" clip-rule="evenodd" d="M229.5 663.5C233.1 665.43 236.1 668.097 238.5 671.5C234.9 669.57 231.9 666.903 229.5 663.5Z" fill="#828282"/>
<path opacity="0.114" fill-rule="evenodd" clip-rule="evenodd" d="M614.5 664.5C610.398 668.723 606.065 672.723 601.5 676.5C604.554 671.113 608.887 667.113 614.5 664.5Z" fill="#6D6D6D"/>
<path opacity="0.416" fill-rule="evenodd" clip-rule="evenodd" d="M242.5 675.5C247.833 678.833 252.167 683.167 255.5 688.5C250.833 684.5 246.5 680.167 242.5 675.5Z" fill="#828282"/>
<path opacity="0.075" fill-rule="evenodd" clip-rule="evenodd" d="M598.5 679.5C596.167 682.5 593.5 685.167 590.5 687.5C592.388 684.101 594.888 681.101 598 678.5C598.399 678.728 598.565 679.062 598.5 679.5Z" fill="#8C8C8C"/>
<path opacity="0.2" fill-rule="evenodd" clip-rule="evenodd" d="M590.5 687.5C587.891 692.383 584.557 696.716 580.5 700.5C582.646 695.187 585.979 690.854 590.5 687.5Z" fill="#808080"/>
<path opacity="0.408" fill-rule="evenodd" clip-rule="evenodd" d="M566.5 730.5C565.364 734.713 563.197 735.38 560 732.5C556.877 726.463 554.543 720.13 553 713.5C549.556 718.296 545.389 722.296 540.5 725.5C544.083 720.246 548.416 715.58 553.5 711.5C556.466 718.014 559.133 724.681 561.5 731.5C563.397 732.652 565.064 732.319 566.5 730.5Z" fill="#767676"/>
<path opacity="0.382" fill-rule="evenodd" clip-rule="evenodd" d="M580.5 700.5C575.805 710.552 571.139 720.552 566.5 730.5C568.694 719.206 573.361 709.206 580.5 700.5Z" fill="#919191"/>
<path opacity="0.518" fill-rule="evenodd" clip-rule="evenodd" d="M308.5 728.5C302.571 724.076 297.071 719.076 292 713.5C290.572 719.689 288.572 725.689 286 731.5C285.28 733.056 284.113 734.056 282.5 734.5C285.779 726.942 288.779 719.275 291.5 711.5C297.596 716.929 303.263 722.596 308.5 728.5Z" fill="#818181"/>
<path opacity="0.133" fill-rule="evenodd" clip-rule="evenodd" d="M255.5 688.5C267.593 700.667 275.593 715.333 279.5 732.5C274.986 722.176 270.152 711.843 265 701.5C261.824 697.137 258.657 692.804 255.5 688.5Z" fill="#929292"/>
<path opacity="0.235" fill-rule="evenodd" clip-rule="evenodd" d="M538.5 726.5C537.375 728.129 536.041 729.629 534.5 731C530.193 734.483 525.527 737.317 520.5 739.5C526.138 734.679 532.138 730.346 538.5 726.5Z" fill="#6A6A6A"/>
<path opacity="0.353" fill-rule="evenodd" clip-rule="evenodd" d="M308.5 728.5C310.027 728.427 311.027 729.094 311.5 730.5C309.973 730.573 308.973 729.906 308.5 728.5Z" fill="#848484"/>
<path opacity="0.729" fill-rule="evenodd" clip-rule="evenodd" d="M311.5 730.5C316.68 733.588 321.68 736.922 326.5 740.5C320.631 738.404 315.631 735.071 311.5 730.5Z" fill="#666666"/>
<path opacity="0.565" fill-rule="evenodd" clip-rule="evenodd" d="M504.5 747.5C501.201 749.15 497.868 750.816 494.5 752.5C496.918 749.29 500.252 747.624 504.5 747.5Z" fill="#676767"/>
<path opacity="0.369" fill-rule="evenodd" clip-rule="evenodd" d="M343.5 748.5C348.573 749.683 353.573 751.183 358.5 753C359.756 753.417 360.423 754.25 360.5 755.5C354.168 754.508 348.502 752.175 343.5 748.5Z" fill="#4E4E4E"/>
<path opacity="0.063" fill-rule="evenodd" clip-rule="evenodd" d="M492.5 753.5C490.784 753.629 489.117 753.962 487.5 754.5C487.884 752.707 489.05 751.707 491 751.5C492.03 751.836 492.53 752.503 492.5 753.5Z" fill="#6A6A6A"/>
<path opacity="0.184" fill-rule="evenodd" clip-rule="evenodd" d="M483.5 755.5C473.796 758.843 464.129 762.51 454.5 766.5C454.5 765.5 454.5 764.5 454.5 763.5C462.772 760.576 471.105 757.742 479.5 755C481.066 754.235 482.399 754.402 483.5 755.5Z" fill="#5C5C5C"/>
<path opacity="0.184" fill-rule="evenodd" clip-rule="evenodd" d="M410.5 778.5C404.394 773.604 397.728 769.438 390.5 766C380.736 762.436 371.069 758.936 361.5 755.5C362.601 754.402 363.934 754.235 365.5 755C375.467 757.878 385.134 761.545 394.5 766C400.593 769.267 405.926 773.434 410.5 778.5Z" fill="#626262"/>
<path opacity="0.161" fill-rule="evenodd" clip-rule="evenodd" d="M449.5 768.5C440.286 773.544 432.786 780.544 427 789.5C426.184 790.823 425.017 791.489 423.5 791.5C429.29 782.543 436.623 775.043 445.5 769C446.946 767.702 448.279 767.535 449.5 768.5Z" fill="#7A7A7A"/>
<path opacity="0.478" fill-rule="evenodd" clip-rule="evenodd" d="M410.5 778.5C415.264 781.928 418.93 786.262 421.5 791.5C420.504 791.586 419.671 791.252 419 790.5C416.311 786.325 413.477 782.325 410.5 778.5Z" fill="#868686"/>
</svg>
