<svg width="848" height="881" viewBox="0 0 848 881" fill="none" xmlns="http://www.w3.org/2000/svg">
<path opacity="0.01" fill-rule="evenodd" clip-rule="evenodd" d="M660.5 69.4999C660.897 68.4749 661.563 68.3082 662.5 68.9999C661.906 69.4642 661.239 69.6309 660.5 69.4999Z" fill="black"/>
<path opacity="0.01" fill-rule="evenodd" clip-rule="evenodd" d="M663.5 70.4999C664.251 69.4264 665.251 69.2598 666.5 69.9999C665.648 71.7283 664.648 71.8949 663.5 70.4999Z" fill="black"/>
<path opacity="0.01" fill-rule="evenodd" clip-rule="evenodd" d="M448.5 79.5C450.973 79.9473 451.14 80.9473 449 82.5C447.272 81.6477 447.105 80.6477 448.5 79.5Z" fill="black"/>
<path opacity="0.01" fill-rule="evenodd" clip-rule="evenodd" d="M452.5 79.5C453.833 80.1667 453.833 80.1667 452.5 79.5V79.5Z" fill="black"/>
<path opacity="0.01" fill-rule="evenodd" clip-rule="evenodd" d="M440.5 90.4999C440.897 89.4749 441.563 89.3082 442.5 89.9999C441.906 90.4642 441.239 90.6309 440.5 90.4999Z" fill="#FE0000"/>
<path opacity="0.01" fill-rule="evenodd" clip-rule="evenodd" d="M704.5 90.5C706.085 91.0024 706.585 92.0024 706 93.5C704.961 92.7562 704.461 91.7562 704.5 90.5Z" fill="black"/>
<path opacity="0.01" fill-rule="evenodd" clip-rule="evenodd" d="M444.5 94.5C446.337 94.6395 446.67 95.3061 445.5 96.5C444.702 96.0431 444.369 95.3764 444.5 94.5Z" fill="#FE0000"/>
<path opacity="0.941" fill-rule="evenodd" clip-rule="evenodd" d="M640.5 590.5C640.663 588.143 640.497 585.81 640 583.5C636.223 603.271 629.389 621.937 619.5 639.5C619.25 641.674 618.25 643.341 616.5 644.5C615.094 644.973 614.427 645.973 614.5 647.5C613.974 649.23 612.974 650.564 611.5 651.5C609.016 653.8 607.016 656.467 605.5 659.5C605.5 660.167 605.167 660.5 604.5 660.5C598.833 665.5 593.5 670.833 588.5 676.5C583.891 681.471 578.557 685.471 572.5 688.5C569.669 689.079 567.336 690.412 565.5 692.5C562.157 693.619 558.823 694.952 555.5 696.5C554.702 696.957 554.369 697.624 554.5 698.5C551.61 701.472 549.276 701.139 547.5 697.5C548.647 693.354 548.814 689.02 548 684.5C547.667 684.833 547.333 685.167 547 685.5C544.377 694.735 541.21 703.735 537.5 712.5C535.273 713.401 534.273 715.067 534.5 717.5C532.204 718.733 530.87 720.733 530.5 723.5C530.672 724.492 530.338 725.158 529.5 725.5C527.629 725.859 526.129 726.859 525 728.5C523.25 730.734 521.75 733.068 520.5 735.5C520.5 736.167 520.167 736.5 519.5 736.5C519.565 736.062 519.399 735.728 519 735.5C515.167 738.667 511.333 741.833 507.5 745C505.859 746.129 504.859 747.629 504.5 749.5C504.167 749.5 503.833 749.5 503.5 749.5C503.565 749.062 503.399 748.728 503 748.5C500.168 749.962 498.001 751.962 496.5 754.5C496.167 754.5 495.833 754.5 495.5 754.5C495.44 753.957 495.107 753.624 494.5 753.5C492.446 755.194 490.112 756.361 487.5 757C486.748 757.671 486.414 758.504 486.5 759.5C486.167 759.5 485.833 759.5 485.5 759.5C485.565 759.062 485.399 758.728 485 758.5C480.066 760.923 474.9 762.756 469.5 764C467.24 764.549 465.574 765.716 464.5 767.5C464.167 767.5 463.833 767.5 463.5 767.5C462.054 766.387 460.387 766.22 458.5 767C456.5 767.5 454.5 768 452.5 768.5C451.287 768.747 450.62 769.414 450.5 770.5C446.574 771.552 442.574 772.218 438.5 772.5C436.866 771.839 435.033 771.506 433 771.5C430.705 771.547 428.871 772.213 427.5 773.5C417.5 773.5 407.5 773.5 397.5 773.5C396.666 772.252 395.333 771.585 393.5 771.5C389.662 770.499 385.995 770.499 382.5 771.5C381.833 771.5 381.167 771.5 380.5 771.5C380.38 770.414 379.713 769.747 378.5 769.5C375.792 768.959 373.126 768.292 370.5 767.5C369.702 767.957 369.369 768.624 369.5 769.5C367.167 768.833 364.833 768.167 362.5 767.5C360.631 765.348 358.131 764.014 355 763.5C354.235 763.57 353.735 763.903 353.5 764.5C353.167 764.5 352.833 764.5 352.5 764.5C349.433 761.608 345.766 759.441 341.5 758C339.129 757.265 336.795 756.432 334.5 755.5C333.893 755.624 333.56 755.957 333.5 756.5C332.833 756.5 332.5 756.167 332.5 755.5C330.496 753.299 328.163 751.299 325.5 749.5C323.338 747.98 321.005 746.98 318.5 746.5C318.489 744.983 317.823 743.816 316.5 743C312.39 740.191 308.557 737.025 305 733.5C302.015 728.689 298.515 724.356 294.5 720.5C290.156 715.153 286.823 709.153 284.5 702.5C283.225 696.176 281.059 690.176 278 684.5C277.833 685.167 277.667 685.833 277.5 686.5C277.871 690.156 278.871 693.49 280.5 696.5C279.492 698.339 277.992 699.672 276 700.5C273.486 698.996 270.986 697.662 268.5 696.5C264.496 692.918 259.83 690.252 254.5 688.5C251.726 687.277 249.059 685.777 246.5 684C242.641 680.968 238.974 677.802 235.5 674.5C231.561 668.892 226.894 663.892 221.5 659.5C220.5 659.167 219.833 658.5 219.5 657.5C219.262 655.596 218.262 654.262 216.5 653.5C202.593 634.122 192.926 612.788 187.5 589.5C187.253 588.287 186.586 587.62 185.5 587.5C185.5 587.167 185.5 586.833 185.5 586.5C186.097 586.265 186.43 585.765 186.5 585C185.77 581.206 185.27 577.373 185 573.5C184.722 572.584 184.222 571.918 183.5 571.5C182.662 571.158 182.328 570.492 182.5 569.5C184.176 568.817 184.843 567.483 184.5 565.5C182.801 565.66 181.134 565.494 179.5 565C178.432 562.562 177.098 560.395 175.5 558.5C174.833 558.5 174.5 558.167 174.5 557.5C174.23 551.942 173.063 546.275 171 540.5C170.042 535.877 169.375 531.21 169 526.5C168.31 525.262 167.81 525.262 167.5 526.5C166.549 525.081 166.216 523.415 166.5 521.5C167.649 521.209 168.316 520.376 168.5 519C167.933 515.359 167.599 511.692 167.5 508C168.131 499.492 168.797 490.992 169.5 482.5C170.811 479.08 170.644 475.747 169 472.5C165.89 467.936 163.056 463.269 160.5 458.5C159.602 453.466 157.935 448.799 155.5 444.5C155.419 439.593 154.752 434.759 153.5 430C153.316 428.624 152.649 427.791 151.5 427.5C151.5 426.167 151.5 424.833 151.5 423.5C152.833 418.167 152.833 412.833 151.5 407.5C151.5 406.833 151.5 406.167 151.5 405.5C153.61 399.399 155.277 393.066 156.5 386.5C161.882 376.451 169.549 368.784 179.5 363.5C181.435 362.85 183.435 362.517 185.5 362.5C191.349 363.674 197.015 365.674 202.5 368.5C203.925 370.031 204.591 369.698 204.5 367.5C205.376 367.631 206.043 367.298 206.5 366.5C208.082 361.915 209.749 357.415 211.5 353C211.472 351.93 211.139 351.097 210.5 350.5C210.291 349.078 209.791 347.745 209 346.5C205.797 345.23 203.13 343.23 201 340.5C197.706 332.515 197.373 324.515 200 316.5C202.593 310.978 205.426 305.645 208.5 300.5C209.022 298.781 210.022 297.448 211.5 296.5C213.137 294.525 214.804 292.525 216.5 290.5C218.203 291.66 218.869 290.993 218.5 288.5C219.167 288.5 219.5 288.167 219.5 287.5C228.827 281.768 238.827 277.268 249.5 274C251.705 272.294 254.038 270.794 256.5 269.5C265.268 254.296 273.768 238.963 282 223.5C289.751 210.996 297.751 198.663 306 186.5C312.46 178.371 319.294 170.537 326.5 163C332.817 157.841 339.484 153.174 346.5 149C346.546 149.042 346.043 148.586 346.5 149C346.588 148.947 347.958 147.71 348 147.5C348.042 147.29 350 146.5 350 146.5L348.5 147.5C348.5 147.5 349.027 147.148 350 146.5C369.884 139.819 390.051 133.986 410.5 129C425.97 126.299 441.304 122.966 456.5 119C477.911 116.157 499.245 112.824 520.5 109C528.031 106.714 535.364 104.047 542.5 101C546.5 100.333 550.5 100.333 554.5 101C566.785 110.765 580.785 116.432 596.5 118C606.816 121.796 615.149 127.463 621.5 135C621.167 135.333 620.833 135.667 620.5 136C620.923 137.509 622.09 139.009 624 140.5C632.855 167.86 642.522 194.86 653 221.5C658.856 243.411 664.523 265.411 670 287.5C671.132 291.76 672.799 295.76 675 299.5C680.511 324.545 686.178 349.545 692 374.5C698.036 386.252 704.036 398.585 710 411.5C716.274 419.439 721.274 428.105 725 437.5C725.398 443.856 725.065 450.189 724 456.5C717.742 473.934 711.075 491.268 704 508.5C702.499 516.838 700.999 525.171 699.5 533.5C700.813 543.627 700.146 553.627 697.5 563.5C700.837 563.38 704.171 562.214 707.5 560C725.736 558.168 741.569 563.335 755 575.5C759.62 590.079 757.62 603.745 749 616.5C744.779 620.721 740.946 624.554 737.5 628C734 628.167 730.5 628.333 727 628.5C709.619 625.888 692.119 623.388 674.5 621C663.775 615.546 653.942 608.712 645 600.5C643.725 596.958 642.225 593.625 640.5 590.5Z" fill="#0F0B09"/>
<path fill-rule="evenodd" clip-rule="evenodd" d="M552.5 108.5C562.884 115.732 574.217 120.399 586.5 122.5C586.611 123.117 586.944 123.617 587.5 124C589.81 124.497 592.143 124.663 594.5 124.5C602.342 127.08 609.175 131.413 615 137.5C617.42 142.33 619.254 147.33 620.5 152.5C620.41 155.152 621.076 157.485 622.5 159.5C622.166 162.491 623.166 164.824 625.5 166.5C627.396 169.46 628.396 172.793 628.5 176.5C628.259 178.898 628.926 180.898 630.5 182.5C631.977 185.357 633.31 188.357 634.5 191.5C634.41 194.152 635.076 196.485 636.5 198.5C636.345 201.716 637.345 204.383 639.5 206.5C640.441 208.05 641.107 209.716 641.5 211.5C641.345 214.716 642.345 217.383 644.5 219.5C644.5 219.833 644.5 220.167 644.5 220.5C644.259 222.898 644.926 224.898 646.5 226.5C646.5 227.167 646.5 227.833 646.5 228.5C646.166 231.491 647.166 233.824 649.5 235.5C650.038 241.651 651.371 247.651 653.5 253.5C653.259 255.898 653.926 257.898 655.5 259.5C655.232 261.099 655.566 262.432 656.5 263.5C656.41 266.152 657.076 268.485 658.5 270.5C659.15 272.435 659.483 274.435 659.5 276.5C659.69 279.855 660.69 282.855 662.5 285.5C664.183 290.879 665.85 296.212 667.5 301.5C667.41 304.152 668.076 306.485 669.5 308.5C670.237 311.725 670.903 315.059 671.5 318.5C671.77 323.45 672.77 328.117 674.5 332.5C675.561 338.001 676.895 343.334 678.5 348.5C679.341 353.739 680.674 358.739 682.5 363.5C682.433 364.959 682.766 366.292 683.5 367.5C683.41 370.152 684.076 372.485 685.5 374.5C689.313 384.124 693.647 393.457 698.5 402.5C698.502 406.165 699.835 409.165 702.5 411.5C703.529 413.517 704.529 415.517 705.5 417.5C706.08 419.749 707.413 421.415 709.5 422.5C712 425.494 714 428.827 715.5 432.5C717.295 439.621 717.962 446.954 717.5 454.5C713.907 462.612 710.907 470.945 708.5 479.5C707.094 479.973 706.427 480.973 706.5 482.5C705.042 485.327 704.042 488.327 703.5 491.5C701.279 495.478 699.612 499.811 698.5 504.5C697.883 504.611 697.383 504.944 697 505.5C695.925 509.77 695.425 514.103 695.5 518.5C695.013 519.473 694.513 520.473 694 521.5C693.915 535.942 692.749 550.276 690.5 564.5C689.542 564.953 688.708 565.619 688 566.5C686.008 574.013 688.508 576.346 695.5 573.5C699.501 570.833 703.834 568.666 708.5 567C718.332 566.825 727.998 568.158 737.5 571C742.116 573.464 746.116 576.631 749.5 580.5C749.691 588.201 749.358 595.868 748.5 603.5C745.514 610.328 740.847 615.828 734.5 620C725.056 620.939 715.723 620.439 706.5 618.5C701.95 617.509 697.283 616.509 692.5 615.5C684.902 616.543 677.902 615.21 671.5 611.5C668.88 609.838 666.213 608.172 663.5 606.5C658.651 604.164 654.484 600.831 651 596.5C649.527 592.221 647.527 588.221 645 584.5C644.503 581.854 644.336 579.187 644.5 576.5C644.5 573.167 644.5 569.833 644.5 566.5C648.908 566.938 650.575 564.938 649.5 560.5C654.999 545.35 657.999 529.683 658.5 513.5C659.4 508.668 660.066 503.668 660.5 498.5C661.164 491.483 662.164 484.483 663.5 477.5C662.485 473.869 662.319 470.202 663 466.5C666.335 459.323 669.168 451.99 671.5 444.5C674.114 441.032 675.114 437.032 674.5 432.5C675.268 431.737 675.768 430.737 676 429.5C676.823 420.99 676.657 412.656 675.5 404.5C675.5 404.167 675.5 403.833 675.5 403.5C675.706 400.505 675.04 397.838 673.5 395.5C670.821 379.132 661.487 368.799 645.5 364.5C643.696 363.838 641.696 363.505 639.5 363.5C636.473 363.287 633.807 363.953 631.5 365.5C628.14 367.213 624.807 368.88 621.5 370.5C618.773 362.486 615.939 354.486 613 346.5C605.067 344.355 597.233 341.688 589.5 338.5C586.916 336.528 583.916 335.528 580.5 335.5C502.638 312.456 423.305 305.956 342.5 316C329.423 317.508 316.423 319.341 303.5 321.5C301.599 321.567 299.766 321.233 298 320.5C297.333 321.167 296.667 321.833 296 322.5C292.714 320.604 289.214 320.104 285.5 321C283.725 322.439 281.725 323.439 279.5 324C280.737 324.232 281.737 324.732 282.5 325.5C266.643 328.738 250.976 332.738 235.5 337.5C232.848 337.41 230.515 338.076 228.5 339.5C227.5 339.5 226.5 339.5 225.5 339.5C220.774 340.19 216.107 340.19 211.5 339.5C208.856 338.856 207.189 337.189 206.5 334.5C206.392 329.13 206.725 323.797 207.5 318.5C209.88 309.401 214.546 301.735 221.5 295.5C224.1 294.532 226.434 293.199 228.5 291.5C230.861 287.982 234.195 285.982 238.5 285.5C243.463 284.027 248.463 282.527 253.5 281C254.381 280.292 255.047 279.458 255.5 278.5C257 276.821 258.833 275.488 261 274.5C266.689 263.772 272.856 253.439 279.5 243.5C281.245 241.967 282.245 239.967 282.5 237.5C284.418 232.657 287.084 228.323 290.5 224.5C292.245 222.967 293.245 220.967 293.5 218.5C301.901 202.93 312.067 188.596 324 175.5C332.156 166.684 341.323 159.184 351.5 153C361.675 152.424 371.841 152.591 382 153.5C395.522 152.155 409.022 151.155 422.5 150.5C429.519 150.021 436.519 149.354 443.5 148.5C448.45 148.23 453.117 147.23 457.5 145.5C460.287 144.523 463.287 144.19 466.5 144.5C470.767 143.744 474.767 142.411 478.5 140.5C493.08 134.881 506.413 127.214 518.5 117.5C520.544 116.492 522.544 115.492 524.5 114.5C527.145 112.69 530.145 111.69 533.5 111.5C539.735 109.866 546.068 108.866 552.5 108.5Z" fill="#FD0000"/>
<path opacity="0.01" fill-rule="evenodd" clip-rule="evenodd" d="M697.5 111.5C697.639 109.663 698.306 109.33 699.5 110.5C699.043 111.298 698.376 111.631 697.5 111.5Z" fill="black"/>
<path fill-rule="evenodd" clip-rule="evenodd" d="M552.5 108.5C546.068 108.866 539.735 109.866 533.5 111.5C536.269 110.028 539.269 108.861 542.5 108C546.027 107.192 549.36 107.359 552.5 108.5Z" fill="#8B0002"/>
<path opacity="0.01" fill-rule="evenodd" clip-rule="evenodd" d="M697.5 111.5C696.404 115.211 694.071 116.544 690.5 115.5C692.364 113.4 694.697 112.067 697.5 111.5Z" fill="black"/>
<path opacity="0.01" fill-rule="evenodd" clip-rule="evenodd" d="M677.5 112.5C678.675 112.281 679.675 112.614 680.5 113.5C678.948 114.798 677.948 114.465 677.5 112.5Z" fill="black"/>
<path fill-rule="evenodd" clip-rule="evenodd" d="M524.5 114.5C522.544 115.492 520.544 116.492 518.5 117.5C519.687 115.025 521.687 114.025 524.5 114.5Z" fill="#9F0003"/>
<path opacity="0.984" fill-rule="evenodd" clip-rule="evenodd" d="M504.5 117.5C500.455 119.177 496.122 119.844 491.5 119.5C495.618 118.291 499.951 117.624 504.5 117.5Z" fill="#A50002"/>
<path opacity="0.999" fill-rule="evenodd" clip-rule="evenodd" d="M404.5 136.5C407.495 136.706 410.162 136.04 412.5 134.5C438.354 127.597 464.687 122.597 491.5 119.5C496.122 119.844 500.455 119.177 504.5 117.5C506.288 116.378 508.288 116.211 510.5 117C493.938 130.438 474.938 138.771 453.5 142C426.716 146.898 399.716 148.898 372.5 148C370.744 147.798 369.078 147.298 367.5 146.5C368.167 146.167 368.833 145.833 369.5 145.5C381.505 143.635 393.171 140.635 404.5 136.5Z" fill="#F00000"/>
<path opacity="0.01" fill-rule="evenodd" clip-rule="evenodd" d="M671.5 118.5C672.978 118.238 674.311 118.571 675.5 119.5C673.047 122.445 670.38 122.778 667.5 120.5C668.274 119.289 669.107 119.289 670 120.5C670.717 119.956 671.217 119.289 671.5 118.5Z" fill="black"/>
<path fill-rule="evenodd" clip-rule="evenodd" d="M586.5 122.5C589.495 122.294 592.162 122.96 594.5 124.5C592.143 124.663 589.81 124.497 587.5 124C586.944 123.617 586.611 123.117 586.5 122.5Z" fill="#860003"/>
<path opacity="0.98" fill-rule="evenodd" clip-rule="evenodd" d="M412.5 134.5C410.162 136.04 407.495 136.706 404.5 136.5C406.905 135.232 409.572 134.565 412.5 134.5Z" fill="#8F0003"/>
<path fill-rule="evenodd" clip-rule="evenodd" d="M478.5 140.5C474.767 142.411 470.767 143.744 466.5 144.5C470.085 142.194 474.085 140.861 478.5 140.5Z" fill="#880002"/>
<path fill-rule="evenodd" clip-rule="evenodd" d="M457.5 145.5C453.117 147.23 448.45 148.23 443.5 148.5C443.5 148.167 443.5 147.833 443.5 147.5C448.132 146.617 452.798 145.95 457.5 145.5Z" fill="#A80001"/>
<path fill-rule="evenodd" clip-rule="evenodd" d="M443.5 147.5C443.5 147.833 443.5 148.167 443.5 148.5C436.519 149.354 429.519 150.021 422.5 150.5C429.276 148.865 436.276 147.865 443.5 147.5Z" fill="#5A0101"/>
<path fill-rule="evenodd" clip-rule="evenodd" d="M620.5 152.5C621.924 154.515 622.59 156.848 622.5 159.5C621.076 157.485 620.41 155.152 620.5 152.5Z" fill="#860002"/>
<path fill-rule="evenodd" clip-rule="evenodd" d="M622.5 159.5C624.065 161.509 625.065 163.843 625.5 166.5C623.166 164.824 622.166 162.491 622.5 159.5Z" fill="#930003"/>
<path fill-rule="evenodd" clip-rule="evenodd" d="M628.5 176.5C630.074 178.102 630.741 180.102 630.5 182.5C628.926 180.898 628.259 178.898 628.5 176.5Z" fill="#8C0002"/>
<path fill-rule="evenodd" clip-rule="evenodd" d="M634.5 191.5C635.924 193.515 636.59 195.848 636.5 198.5C635.076 196.485 634.41 194.152 634.5 191.5Z" fill="#880002"/>
<path fill-rule="evenodd" clip-rule="evenodd" d="M636.5 198.5C637.871 200.936 638.871 203.603 639.5 206.5C637.345 204.383 636.345 201.716 636.5 198.5Z" fill="#780002"/>
<path fill-rule="evenodd" clip-rule="evenodd" d="M641.5 211.5C642.871 213.936 643.871 216.603 644.5 219.5C642.345 217.383 641.345 214.716 641.5 211.5Z" fill="#790002"/>
<path fill-rule="evenodd" clip-rule="evenodd" d="M293.5 218.5C293.245 220.967 292.245 222.967 290.5 224.5C290.755 222.033 291.755 220.033 293.5 218.5Z" fill="#980003"/>
<path fill-rule="evenodd" clip-rule="evenodd" d="M644.5 220.5C646.074 222.102 646.741 224.102 646.5 226.5C644.926 224.898 644.259 222.898 644.5 220.5Z" fill="#9C0002"/>
<path fill-rule="evenodd" clip-rule="evenodd" d="M646.5 228.5C648.065 230.509 649.065 232.843 649.5 235.5C647.166 233.824 646.166 231.491 646.5 228.5Z" fill="#890003"/>
<path fill-rule="evenodd" clip-rule="evenodd" d="M282.5 237.5C282.245 239.967 281.245 241.967 279.5 243.5C279.755 241.033 280.755 239.033 282.5 237.5Z" fill="#890002"/>
<path fill-rule="evenodd" clip-rule="evenodd" d="M653.5 253.5C655.074 255.102 655.741 257.102 655.5 259.5C653.926 257.898 653.259 255.898 653.5 253.5Z" fill="#9D0002"/>
<path fill-rule="evenodd" clip-rule="evenodd" d="M656.5 263.5C657.924 265.515 658.59 267.848 658.5 270.5C657.076 268.485 656.41 266.152 656.5 263.5Z" fill="#710001"/>
<path fill-rule="evenodd" clip-rule="evenodd" d="M659.5 276.5C661.472 279.084 662.472 282.084 662.5 285.5C660.69 282.855 659.69 279.855 659.5 276.5Z" fill="#870003"/>
<path fill-rule="evenodd" clip-rule="evenodd" d="M255.5 278.5C255.047 279.458 254.381 280.292 253.5 281C248.463 282.527 243.463 284.027 238.5 285.5C243.869 282.552 249.535 280.218 255.5 278.5Z" fill="#A60003"/>
<path fill-rule="evenodd" clip-rule="evenodd" d="M228.5 291.5C226.434 293.199 224.1 294.532 221.5 295.5C223.121 293.058 225.454 291.725 228.5 291.5Z" fill="#960003"/>
<path fill-rule="evenodd" clip-rule="evenodd" d="M667.5 301.5C668.924 303.515 669.59 305.848 669.5 308.5C668.076 306.485 667.41 304.152 667.5 301.5Z" fill="#980001"/>
<path fill-rule="evenodd" clip-rule="evenodd" d="M584.5 380.5C584.471 386.409 585.138 392.243 586.5 398C586.306 399.86 585.972 401.693 585.5 403.5C588.659 421.409 590.159 439.409 590 457.5C587.538 468.027 585.372 478.694 583.5 489.5C581.083 497.665 577.083 504.998 571.5 511.5C570.495 507.318 568.995 503.318 567 499.5C565.333 498.167 563.667 498.167 562 499.5C559.111 511.216 551.611 517.883 539.5 519.5C529.15 519.56 518.817 519.226 508.5 518.5C501.159 518.334 493.826 518.5 486.5 519C483.376 519.479 480.543 520.646 478 522.5C479.291 513.245 479.624 503.911 479 494.5C477.573 487.713 475.073 481.38 471.5 475.5C470.116 474.199 468.616 474.199 467 475.5C461.54 467.706 455.04 460.873 447.5 455C443.29 455.909 438.956 456.409 434.5 456.5C423.417 453.558 412.084 452.391 400.5 453C398.705 454.885 397.372 457.052 396.5 459.5C395.401 463.148 393.401 466.148 390.5 468.5C389.833 468.5 389.5 468.833 389.5 469.5C388.5 469.5 387.5 469.5 386.5 469.5C382.741 469.138 379.407 467.805 376.5 465.5C376.177 462.598 374.844 460.765 372.5 460C364.91 465.588 358.744 472.421 354 480.5C351.577 478.006 349.244 478.006 347 480.5C342.726 489.215 341.559 498.215 343.5 507.5C343.5 508.5 343.5 509.5 343.5 510.5C343.813 513.247 343.48 515.914 342.5 518.5C339.989 517.219 337.322 516.552 334.5 516.5C328.33 516.982 322.33 517.649 316.5 518.5C313.119 518.46 309.786 518.793 306.5 519.5C299.8 519.83 293.134 519.497 286.5 518.5C281.576 516.534 276.576 514.868 271.5 513.5C266.404 510.325 263.571 505.658 263 499.5C261.333 498.167 259.667 498.167 258 499.5C256.223 502.72 254.723 506.053 253.5 509.5C242.914 494.918 236.747 478.585 235 460.5C234.229 448.467 234.395 436.467 235.5 424.5C237.415 418.101 238.415 411.435 238.5 404.5C241.223 382.772 244.223 361.106 247.5 339.5C260.643 335.675 273.976 332.675 287.5 330.5C293.554 329.367 299.554 328.867 305.5 329C307.356 327.11 310.022 325.61 313.5 324.5C320.849 323.998 328.183 323.331 335.5 322.5C345.079 322.409 354.412 321.409 363.5 319.5C416.801 315.165 469.801 317.332 522.5 326C541.829 330.832 561.162 335.666 580.5 340.5C581.552 353.864 582.885 367.197 584.5 380.5Z" fill="#FDB889"/>
<path fill-rule="evenodd" clip-rule="evenodd" d="M363.5 319.5C354.412 321.409 345.079 322.409 335.5 322.5C344.595 320.589 353.928 319.589 363.5 319.5Z" fill="#C08D69"/>
<path fill-rule="evenodd" clip-rule="evenodd" d="M303.5 321.5C296.763 323.57 289.763 324.903 282.5 325.5C281.737 324.732 280.737 324.232 279.5 324C281.725 323.439 283.725 322.439 285.5 321C289.214 320.104 292.714 320.604 296 322.5C296.667 321.833 297.333 321.167 298 320.5C299.766 321.233 301.599 321.567 303.5 321.5Z" fill="#C50001"/>
<path fill-rule="evenodd" clip-rule="evenodd" d="M207.5 318.5C206.725 323.797 206.392 329.13 206.5 334.5C205.612 331.517 204.946 328.35 204.5 325C204.859 322.454 205.859 320.287 207.5 318.5Z" fill="#B60002"/>
<path fill-rule="evenodd" clip-rule="evenodd" d="M313.5 324.5C310.022 325.61 307.356 327.11 305.5 329C299.554 328.867 293.554 329.367 287.5 330.5C296.051 328.512 304.718 326.512 313.5 324.5Z" fill="#C3926D"/>
<path fill-rule="evenodd" clip-rule="evenodd" d="M671.5 318.5C673.23 322.883 674.23 327.55 674.5 332.5C672.77 328.117 671.77 323.45 671.5 318.5Z" fill="#990002"/>
<path fill-rule="evenodd" clip-rule="evenodd" d="M580.5 335.5C583.916 335.528 586.916 336.528 589.5 338.5C586.215 338.072 583.215 337.072 580.5 335.5Z" fill="#9B0207"/>
<path fill-rule="evenodd" clip-rule="evenodd" d="M235.5 337.5C233.485 338.924 231.152 339.59 228.5 339.5C230.515 338.076 232.848 337.41 235.5 337.5Z" fill="#4E0902"/>
<path fill-rule="evenodd" clip-rule="evenodd" d="M211.5 339.5C216.107 340.19 220.774 340.19 225.5 339.5C222.145 340.551 218.645 341.551 215 342.5C213.358 342.022 212.191 341.022 211.5 339.5Z" fill="#A70204"/>
<path fill-rule="evenodd" clip-rule="evenodd" d="M230.5 420.5C229.02 428.616 228.354 436.95 228.5 445.5C228.501 451.011 228.834 456.344 229.5 461.5C230.601 466.773 231.267 472.106 231.5 477.5C232.057 482.165 233.39 486.498 235.5 490.5C239.758 501.283 245.924 510.95 254 519.5C254.49 520.793 254.657 522.127 254.5 523.5C236.522 523.844 222.855 516.344 213.5 501C211.888 500.28 210.388 500.446 209 501.5C213.026 535.543 230.859 559.376 262.5 573C270.941 576.092 279.607 578.258 288.5 579.5C286.582 583.004 284.416 586.337 282 589.5C281.257 591.441 281.424 593.274 282.5 595C295.484 594.317 308.484 594.483 321.5 595.5C326.217 597.238 331.217 597.904 336.5 597.5C354.005 623.88 378.838 637.213 411 637.5C444.171 637.001 470.338 623.501 489.5 597C494.785 595.974 500.118 595.307 505.5 595C517.852 594.519 530.186 594.519 542.5 595C543.554 593.612 543.72 592.112 543 590.5C540.833 586.833 538.667 583.167 536.5 579.5C569.724 574.979 594.224 557.979 610 528.5C613.862 519.913 615.862 510.913 616 501.5C614.612 500.446 613.112 500.28 611.5 501C601.892 515.806 588.225 523.306 570.5 523.5C571.608 519.869 573.774 516.869 577 514.5C592.363 492.552 599.53 468.052 598.5 441C598.075 430.73 597.075 420.563 595.5 410.5C595.638 405.586 594.972 400.919 593.5 396.5C590.909 379.875 588.575 363.209 586.5 346.5C586.833 345.5 587.167 344.5 587.5 343.5C595.223 345.281 602.39 348.281 609 352.5C621.817 383.456 633.483 414.789 644 446.5C646.551 458.878 649.051 471.212 651.5 483.5C652.238 494.15 652.572 504.817 652.5 515.5C652.191 528.374 649.858 540.708 645.5 552.5C644.402 550.368 643.402 548.202 642.5 546C640.888 545.28 639.388 545.446 638 546.5C638.272 596.706 620.105 638.873 583.5 673C574.832 679.823 565.498 685.656 555.5 690.5C554.933 680.097 553.933 669.764 552.5 659.5C549.956 659.104 547.789 659.771 546 661.5C540.977 710.525 515.144 743.025 468.5 759C431.137 770.275 393.803 770.275 356.5 759C312.4 742.573 287.234 711.073 281 664.5C280.591 659.027 278.258 657.694 274 660.5C271.394 670.404 270.894 680.404 272.5 690.5C268.638 689.572 264.971 688.072 261.5 686C234.535 668.6 214.701 645.1 202 615.5C198.377 605.256 195.044 594.922 192 584.5C190.527 571.874 189.527 559.208 189 546.5C187.612 545.446 186.112 545.28 184.5 546C183.113 548.045 181.946 550.212 181 552.5C173.992 531.406 171.659 509.739 174 487.5C177.617 466.032 182.95 445.032 190 424.5C200.453 399.036 210.453 373.369 220 347.5C226.553 344.652 233.387 342.652 240.5 341.5C236.914 367.775 233.58 394.108 230.5 420.5Z" fill="#DCD5BE"/>
<path fill-rule="evenodd" clip-rule="evenodd" d="M674.5 332.5C675.793 333.842 676.626 335.509 677 337.5C677.548 341.17 678.048 344.837 678.5 348.5C676.895 343.334 675.561 338.001 674.5 332.5Z" fill="#9D0002"/>
<path fill-rule="evenodd" clip-rule="evenodd" d="M678.5 348.5C680.995 353.069 682.328 358.069 682.5 363.5C680.674 358.739 679.341 353.739 678.5 348.5Z" fill="#7C0002"/>
<path opacity="0.063" fill-rule="evenodd" clip-rule="evenodd" d="M210.5 350.5C211.139 351.097 211.472 351.93 211.5 353C209.749 357.415 208.082 361.915 206.5 366.5C206.043 367.298 205.376 367.631 204.5 367.5C206.893 361.989 208.893 356.323 210.5 350.5Z" fill="#939393"/>
<path fill-rule="evenodd" clip-rule="evenodd" d="M645.5 364.5C640.797 364.437 636.13 364.771 631.5 365.5C633.807 363.953 636.473 363.287 639.5 363.5C641.696 363.505 643.696 363.838 645.5 364.5Z" fill="#431010"/>
<path opacity="0.522" fill-rule="evenodd" clip-rule="evenodd" d="M185.5 362.5C190.034 362.267 194.368 363.1 198.5 365C200.324 365.66 201.657 366.827 202.5 368.5C197.015 365.674 191.349 363.674 185.5 362.5Z" fill="#696969"/>
<path opacity="0.592" fill-rule="evenodd" clip-rule="evenodd" d="M179.5 363.5C169.549 368.784 161.882 376.451 156.5 386.5C160.478 375.189 168.145 367.522 179.5 363.5Z" fill="#696969"/>
<path fill-rule="evenodd" clip-rule="evenodd" d="M180.5 369.5C189.411 367.747 196.744 370.247 202.5 377C189.89 405.662 179.557 435.162 171.5 465.5C157.921 441.242 154.755 415.575 162 388.5C166.357 380.311 172.524 373.977 180.5 369.5Z" fill="#ECA97B"/>
<path fill-rule="evenodd" clip-rule="evenodd" d="M634.5 369.5C646.791 368.395 656.291 373.062 663 383.5C665.196 388.42 667.196 393.42 669 398.5C672.666 423.182 668.166 446.182 655.5 467.5C647.922 436.846 637.922 407.013 625.5 378C627.704 374.247 630.704 371.414 634.5 369.5Z" fill="#ECA97B"/>
<path fill-rule="evenodd" clip-rule="evenodd" d="M683.5 367.5C684.924 369.515 685.59 371.848 685.5 374.5C684.076 372.485 683.41 370.152 683.5 367.5Z" fill="#680001"/>
<path fill-rule="evenodd" clip-rule="evenodd" d="M310.5 384.5C330.384 381.156 346.551 387.156 359 402.5C365.817 414.034 367.817 426.367 365 439.5C362.5 446 358 450.5 351.5 453C331.732 459.757 312.399 458.757 293.5 450C278.399 440.311 272.899 426.811 277 409.5C281.147 403.356 285.98 397.856 291.5 393C297.708 389.711 304.041 386.878 310.5 384.5Z" fill="#12100E"/>
<path fill-rule="evenodd" clip-rule="evenodd" d="M498.5 383.5C513.12 383.54 526.454 387.707 538.5 396C555.739 412.603 555.739 429.269 538.5 446C531.357 451.273 523.357 454.607 514.5 456C499.198 459.339 484.531 457.672 470.5 451C466.245 447.734 463.078 443.568 461 438.5C457.71 409.009 470.21 390.675 498.5 383.5Z" fill="#120F0D"/>
<path opacity="0.153" fill-rule="evenodd" clip-rule="evenodd" d="M156.5 386.5C155.277 393.066 153.61 399.399 151.5 405.5C152.099 398.766 153.765 392.432 156.5 386.5Z" fill="#7B7B7B"/>
<path fill-rule="evenodd" clip-rule="evenodd" d="M330.5 390.5C324.131 390.347 317.797 390.68 311.5 391.5C311.918 390.778 312.584 390.278 313.5 390C319.349 389.182 325.015 389.348 330.5 390.5Z" fill="#717171"/>
<path fill-rule="evenodd" clip-rule="evenodd" d="M330.5 390.5C355.029 398.549 364.196 415.216 358 440.5C353.849 445.317 348.682 448.483 342.5 450C332.5 450.667 322.5 450.667 312.5 450C298.71 447.864 288.543 440.698 282 428.5C280.417 420.555 281.75 413.222 286 406.5C292.721 398.231 301.221 393.231 311.5 391.5C317.797 390.68 324.131 390.347 330.5 390.5Z" fill="#F9F9F9"/>
<path fill-rule="evenodd" clip-rule="evenodd" d="M508.5 390.5C504.486 390.334 500.486 390.501 496.5 391C493.647 392.43 490.647 393.263 487.5 393.5C494.116 389.608 501.116 388.608 508.5 390.5Z" fill="#848484"/>
<path fill-rule="evenodd" clip-rule="evenodd" d="M508.5 390.5C525.068 391.916 537.234 399.916 545 414.5C546.516 424.976 543.349 433.809 535.5 441C519.498 451.112 502.165 454.112 483.5 450C467.689 445.22 462.189 434.72 467 418.5C470.438 407.243 477.271 398.909 487.5 393.5C490.647 393.263 493.647 392.43 496.5 391C500.486 390.501 504.486 390.334 508.5 390.5Z" fill="#F9F9F9"/>
<path fill-rule="evenodd" clip-rule="evenodd" d="M673.5 395.5C675.04 397.838 675.706 400.505 675.5 403.5C674.232 401.095 673.565 398.428 673.5 395.5Z" fill="#992120"/>
<path fill-rule="evenodd" clip-rule="evenodd" d="M593.5 396.5C594.972 400.919 595.638 405.586 595.5 410.5C594.028 406.081 593.362 401.414 593.5 396.5Z" fill="#4B4941"/>
<path fill-rule="evenodd" clip-rule="evenodd" d="M317.5 403.5C325.798 402.735 331.965 406.068 336 413.5C336.813 428.017 329.979 434.184 315.5 432C304.77 424.433 303.77 415.766 312.5 406C314.315 405.243 315.981 404.41 317.5 403.5Z" fill="#0C0C0C"/>
<path fill-rule="evenodd" clip-rule="evenodd" d="M499.5 403.5C514.056 402.554 520.556 409.221 519 423.5C514.764 431.361 508.264 434.195 499.5 432C491.892 427.614 489.058 421.114 491 412.5C493.362 408.973 496.196 405.973 499.5 403.5Z" fill="#080808"/>
<path fill-rule="evenodd" clip-rule="evenodd" d="M698.5 402.5C700.592 405.088 701.925 408.088 702.5 411.5C699.835 409.165 698.502 406.165 698.5 402.5Z" fill="#960003"/>
<path opacity="0.511" fill-rule="evenodd" clip-rule="evenodd" d="M151.5 407.5C152.833 412.833 152.833 418.167 151.5 423.5C150.167 418.167 150.167 412.833 151.5 407.5Z" fill="#7C7C7C"/>
<path fill-rule="evenodd" clip-rule="evenodd" d="M238.5 404.5C238.415 411.435 237.415 418.101 235.5 424.5C235.958 417.62 236.958 410.953 238.5 404.5Z" fill="#866249"/>
<path fill-rule="evenodd" clip-rule="evenodd" d="M584.5 380.5C588.885 401.646 591.552 423.146 592.5 445C592.426 453.909 591.592 462.742 590 471.5C588.375 475.279 587.375 479.279 587 483.5C586.284 485.879 585.117 487.879 583.5 489.5C585.372 478.694 587.538 468.027 590 457.5C590.159 439.409 588.659 421.409 585.5 403.5C585.972 401.693 586.306 399.86 586.5 398C585.138 392.243 584.471 386.409 584.5 380.5Z" fill="#DBA379"/>
<path fill-rule="evenodd" clip-rule="evenodd" d="M705.5 417.5C707.587 418.585 708.92 420.251 709.5 422.5C707.413 421.415 706.08 419.749 705.5 417.5Z" fill="#970003"/>
<path fill-rule="evenodd" clip-rule="evenodd" d="M675.5 404.5C676.657 412.656 676.823 420.99 676 429.5C675.768 430.737 675.268 431.737 674.5 432.5C675.277 423.188 675.61 413.854 675.5 404.5Z" fill="#C91D1B"/>
<path opacity="0.337" fill-rule="evenodd" clip-rule="evenodd" d="M151.5 427.5C152.649 427.791 153.316 428.624 153.5 430C154.752 434.759 155.419 439.593 155.5 444.5C153.675 439.058 152.341 433.392 151.5 427.5Z" fill="#5C5C5C"/>
<path fill-rule="evenodd" clip-rule="evenodd" d="M674.5 432.5C675.114 437.032 674.114 441.032 671.5 444.5C672.51 440.386 673.51 436.386 674.5 432.5Z" fill="#B31714"/>
<path fill-rule="evenodd" clip-rule="evenodd" d="M715.5 432.5C716.232 433.808 717.066 435.142 718 436.5C718.819 442.681 718.653 448.681 717.5 454.5C717.962 446.954 717.295 439.621 715.5 432.5Z" fill="#A40002"/>
<path fill-rule="evenodd" clip-rule="evenodd" d="M230.5 420.5C229.716 434.152 229.382 447.819 229.5 461.5C228.834 456.344 228.501 451.011 228.5 445.5C228.354 436.95 229.02 428.616 230.5 420.5Z" fill="#4B4841"/>
<path opacity="0.463" fill-rule="evenodd" clip-rule="evenodd" d="M155.5 444.5C157.935 448.799 159.602 453.466 160.5 458.5C157.93 454.257 156.263 449.59 155.5 444.5Z" fill="#676767"/>
<path fill-rule="evenodd" clip-rule="evenodd" d="M386.5 469.5C387.5 469.5 388.5 469.5 389.5 469.5C387.173 472.176 384.506 475.343 381.5 479C381.833 479.333 382.167 479.667 382.5 480C380.697 481.262 379.364 482.929 378.5 485C378.833 485.333 379.167 485.667 379.5 486C377.833 488.155 376.833 490.655 376.5 493.5C376.745 497.078 376.745 500.745 376.5 504.5C376.901 506.434 377.901 507.934 379.5 509C378.739 511.179 379.072 513.345 380.5 515.5C382.648 517.811 384.148 520.478 385 523.5C385.333 523.167 385.667 522.833 386 522.5C386.49 523.793 386.657 525.127 386.5 526.5C393.768 530.384 400.935 533.718 408 536.5C411.938 536.432 415.938 536.432 420 536.5C421.892 535.87 423.559 534.87 425 533.5C426.333 533.5 427.667 533.5 429 533.5C429.333 532.5 429.667 531.5 430 530.5C431.558 531.345 432.558 530.679 433 528.5C433.414 528.957 433.914 529.291 434.5 529.5C435.976 527.429 437.976 526.429 440.5 526.5C441.783 523.99 442.783 521.323 443.5 518.5C444.5 518.5 445.5 518.5 446.5 518.5C447.671 515.946 448.671 513.28 449.5 510.5C446.869 508.995 447.203 508.329 450.5 508.5C450.216 505.223 450.549 502.057 451.5 499C450.712 495.924 450.212 492.758 450 489.5C448.762 484.345 446.595 479.345 443.5 474.5C436.967 470.562 430.801 466.562 425 462.5C417.955 461.343 410.622 461.343 403 462.5C399.193 465.32 395.026 467.32 390.5 468.5C393.401 466.148 395.401 463.148 396.5 459.5C402.598 455.865 409.264 454.365 416.5 455C423.596 455.771 430.262 457.771 436.5 461C435.167 461.667 435.167 462.333 436.5 463C437.449 463.617 438.282 463.451 439 462.5C439.908 464.439 441.408 465.439 443.5 465.5C443.325 468.329 444.658 469.996 447.5 470.5C452.503 477.617 455.836 485.283 457.5 493.5C456.975 494.192 456.308 494.692 455.5 495C456.308 495.308 456.975 495.808 457.5 496.5C456.359 497.425 456.359 498.259 457.5 499C455.109 500.309 455.109 501.309 457.5 502C456.833 502.667 456.167 503.333 455.5 504C456.051 505.398 456.384 506.732 456.5 508C454.956 510.999 453.789 514.166 453 517.5C451.825 520.448 449.991 523.448 447.5 526.5C445.816 528.351 443.983 530.018 442 531.5C441.667 531.167 441.333 530.833 441 530.5C437.1 535.743 432.1 539.41 426 541.5C425.692 540.692 425.192 540.025 424.5 539.5C421.171 541.989 417.671 543.323 414 543.5C411.195 543.224 408.195 542.557 405 541.5C403.419 539.153 402.086 539.153 401 541.5C398.457 539.646 395.624 538.479 392.5 538C384.316 531.864 377.649 523.864 372.5 514C371.886 511.146 371.219 508.313 370.5 505.5C372.022 503.844 371.689 502.677 369.5 502C370.167 501.667 370.833 501.333 371.5 501C369.043 499.488 369.043 498.154 371.5 497C368.833 496.333 368.833 495.667 371.5 495C370.692 494.692 370.025 494.192 369.5 493.5C370.991 491.193 371.991 488.693 372.5 486C372.167 485.667 371.833 485.333 371.5 485C373.3 480.59 375.466 476.423 378 472.5C379.333 471.833 380.333 470.833 381 469.5C382.943 470.807 384.777 470.807 386.5 469.5Z" fill="#FAC39F"/>
<path opacity="0.01" fill-rule="evenodd" clip-rule="evenodd" d="M160.5 458.5C163.056 463.269 165.89 467.936 169 472.5C170.644 475.747 170.811 479.08 169.5 482.5C168.833 482.833 168.167 483.167 167.5 483.5C168.468 480.555 168.634 477.555 168 474.5C164.663 469.495 162.163 464.162 160.5 458.5Z" fill="#888888"/>
<path fill-rule="evenodd" clip-rule="evenodd" d="M231.5 477.5C233.61 481.502 234.943 485.835 235.5 490.5C233.39 486.498 232.057 482.165 231.5 477.5Z" fill="#8D897A"/>
<path fill-rule="evenodd" clip-rule="evenodd" d="M708.5 479.5C708.573 481.027 707.906 482.027 706.5 482.5C706.427 480.973 707.094 479.973 708.5 479.5Z" fill="#760002"/>
<path fill-rule="evenodd" clip-rule="evenodd" d="M471.5 475.5C468.873 475.293 467.207 476.46 466.5 479C479.138 505.16 474.471 527.827 452.5 547C428.045 562.428 403.045 563.428 377.5 550C352.848 532.697 344.514 509.697 352.5 481C349.783 479.967 347.949 480.8 347 483.5C344.084 491.236 342.917 499.236 343.5 507.5C341.559 498.215 342.726 489.215 347 480.5C349.244 478.006 351.577 478.006 354 480.5C358.744 472.421 364.91 465.588 372.5 460C374.844 460.765 376.177 462.598 376.5 465.5C373.072 466.804 370.572 469.138 369 472.5C359.906 491.775 360.74 510.775 371.5 529.5C372.5 529.5 373.5 529.5 374.5 529.5C374.5 530.833 374.5 532.167 374.5 533.5C375.552 533.351 376.552 533.517 377.5 534C380.829 538.076 384.663 541.576 389 544.5C389.333 544.167 389.667 543.833 390 543.5C396.291 546.82 402.958 549.153 410 550.5C410.626 548.009 411.459 548.009 412.5 550.5C418.013 549.991 423.68 548.991 429.5 547.5C431.92 547.018 433.753 545.685 435 543.5C435.414 543.957 435.914 544.291 436.5 544.5C444.717 541.614 450.717 536.28 454.5 528.5C455.59 527.273 456.924 526.44 458.5 526C458.353 524.026 458.019 522.026 457.5 520C459.167 519 460.833 518 462.5 517C461.643 516.311 460.977 515.478 460.5 514.5C461.718 514.891 462.552 514.224 463 512.5C463.251 510.567 463.751 508.734 464.5 507C463.273 505.413 463.606 504.079 465.5 503C463.009 502.374 463.009 501.541 465.5 500.5C463.009 499.459 463.009 498.626 465.5 498C463.109 496.691 463.109 495.691 465.5 495C463.043 493.488 463.043 492.154 465.5 491C463.799 488.235 462.466 485.235 461.5 482C461.957 481.586 462.291 481.086 462.5 480.5C461.012 478.423 459.012 477.423 456.5 477.5C456.5 476.5 456.5 475.5 456.5 474.5C453.664 474.798 453.164 474.131 455 472.5C455.333 472.833 455.667 473.167 456 473.5C457.238 470.074 456.071 468.408 452.5 468.5C452.31 463.14 449.644 459.64 444.5 458C440.975 457.821 437.641 457.321 434.5 456.5C438.956 456.409 443.29 455.909 447.5 455C455.04 460.873 461.54 467.706 467 475.5C468.616 474.199 470.116 474.199 471.5 475.5Z" fill="#F5B88F"/>
<path fill-rule="evenodd" clip-rule="evenodd" d="M389.5 469.5C389.5 468.833 389.833 468.5 390.5 468.5C395.026 467.32 399.193 465.32 403 462.5C410.622 461.343 417.955 461.343 425 462.5C430.801 466.562 436.967 470.562 443.5 474.5C446.595 479.345 448.762 484.345 450 489.5C450.212 492.758 450.712 495.924 451.5 499C450.549 502.057 450.216 505.223 450.5 508.5C447.203 508.329 446.869 508.995 449.5 510.5C448.671 513.28 447.671 515.946 446.5 518.5C445.5 518.5 444.5 518.5 443.5 518.5C442.783 521.323 441.783 523.99 440.5 526.5C437.976 526.429 435.976 527.429 434.5 529.5C433.914 529.291 433.414 528.957 433 528.5C432.558 530.679 431.558 531.345 430 530.5C429.667 531.5 429.333 532.5 429 533.5C427.667 533.5 426.333 533.5 425 533.5C423.559 534.87 421.892 535.87 420 536.5C415.938 536.432 411.938 536.432 408 536.5C400.935 533.718 393.768 530.384 386.5 526.5C386.657 525.127 386.49 523.793 386 522.5C385.667 522.833 385.333 523.167 385 523.5C384.148 520.478 382.648 517.811 380.5 515.5C379.072 513.345 378.739 511.179 379.5 509C377.901 507.934 376.901 506.434 376.5 504.5C376.745 500.745 376.745 497.078 376.5 493.5C376.833 490.655 377.833 488.155 379.5 486C379.167 485.667 378.833 485.333 378.5 485C379.364 482.929 380.697 481.262 382.5 480C382.167 479.667 381.833 479.333 381.5 479C384.506 475.343 387.173 472.176 389.5 469.5Z" fill="#FBCAA9"/>
<path fill-rule="evenodd" clip-rule="evenodd" d="M703.5 491.5C702.786 496.324 701.12 500.658 698.5 504.5C699.612 499.811 701.279 495.478 703.5 491.5Z" fill="#8A0003"/>
<path opacity="0.412" fill-rule="evenodd" clip-rule="evenodd" d="M169.5 482.5C168.797 490.992 168.131 499.492 167.5 508C167.599 511.692 167.933 515.359 168.5 519C168.316 520.376 167.649 521.209 166.5 521.5C165.462 508.941 165.795 496.274 167.5 483.5C168.167 483.167 168.833 482.833 169.5 482.5Z" fill="#4F4F4F"/>
<path fill-rule="evenodd" clip-rule="evenodd" d="M651.5 483.5C652.98 489.769 653.647 496.269 653.5 503C653.499 507.347 653.166 511.514 652.5 515.5C652.572 504.817 652.238 494.15 651.5 483.5Z" fill="#797569"/>
<path fill-rule="evenodd" clip-rule="evenodd" d="M660.5 498.5C660.066 503.668 659.4 508.668 658.5 513.5C658.334 509.486 658.501 505.486 659 501.5C659.232 500.263 659.732 499.263 660.5 498.5Z" fill="#861C1B"/>
<path fill-rule="evenodd" clip-rule="evenodd" d="M698.5 504.5C697.862 509.357 696.862 514.023 695.5 518.5C695.425 514.103 695.925 509.77 697 505.5C697.383 504.944 697.883 504.611 698.5 504.5Z" fill="#520502"/>
<path fill-rule="evenodd" clip-rule="evenodd" d="M271.5 513.5C276.576 514.868 281.576 516.534 286.5 518.5C293.134 519.497 299.8 519.83 306.5 519.5C297.622 520.858 288.622 520.691 279.5 519C276.244 517.884 273.578 516.051 271.5 513.5Z" fill="#D29D75"/>
<path fill-rule="evenodd" clip-rule="evenodd" d="M343.5 510.5C344.945 513.937 345.945 517.603 346.5 521.5C336.712 518.895 326.712 517.895 316.5 518.5C322.33 517.649 328.33 516.982 334.5 516.5C337.322 516.552 339.989 517.219 342.5 518.5C343.48 515.914 343.813 513.247 343.5 510.5Z" fill="#D09C75"/>
<path fill-rule="evenodd" clip-rule="evenodd" d="M276.5 523.5C278.277 524.6 280.277 525.434 282.5 526C289.826 526.5 297.159 526.666 304.5 526.5C313.781 525.173 323.114 524.506 332.5 524.5C338.163 525.09 343.496 526.924 348.5 530C353.833 536 359.167 542 364.5 548C376.859 558.507 391.192 564.673 407.5 566.5C403.179 573.974 396.846 579.141 388.5 582C377.238 586.469 365.571 589.469 353.5 591C332.822 590.633 312.156 589.799 291.5 588.5C292.228 584.594 294.062 581.26 297 578.5C297.825 576.299 297.325 574.466 295.5 573C267.317 572.492 244.817 560.992 228 538.5C222.994 531.828 219.661 524.495 218 516.5C230.024 527.717 244.19 531.883 260.5 529C260.687 523.594 260.853 518.094 261 512.5C265.084 517.783 270.251 521.45 276.5 523.5Z" fill="#EBE7DB"/>
<path fill-rule="evenodd" clip-rule="evenodd" d="M508.5 518.5C518.817 519.226 529.15 519.56 539.5 519.5C535.514 520.166 531.347 520.499 527 520.5C520.594 520.674 514.427 520.007 508.5 518.5Z" fill="#AA7E5E"/>
<path fill-rule="evenodd" clip-rule="evenodd" d="M493.5 590.5C482.817 590.572 472.15 590.238 461.5 589.5C446.442 587.827 432.775 582.66 420.5 574C417.93 571.933 415.93 569.433 414.5 566.5C439.299 564.776 458.633 553.776 472.5 533.5C479.753 526.202 488.586 523.202 499 524.5C512.111 526.234 525.277 526.734 538.5 526C548.557 524.639 556.89 520.139 563.5 512.5C564.149 518.062 564.482 523.562 564.5 529C580.324 530.936 594.324 526.769 606.5 516.5C606.833 516.833 607.167 517.167 607.5 517.5C596.028 547.093 574.695 565.259 543.5 572C538.5 572.333 533.5 572.667 528.5 573C527.424 574.726 527.257 576.559 528 578.5C530.639 581.45 532.473 584.783 533.5 588.5C520.108 588.194 506.775 588.861 493.5 590.5Z" fill="#EBE7DB"/>
<path fill-rule="evenodd" clip-rule="evenodd" d="M332.5 524.5C323.114 524.506 313.781 525.173 304.5 526.5C304.5 526.167 304.5 525.833 304.5 525.5C313.936 523.656 323.27 523.323 332.5 524.5Z" fill="#76746F"/>
<path fill-rule="evenodd" clip-rule="evenodd" d="M276.5 523.5C285.718 525.273 295.051 525.94 304.5 525.5C304.5 525.833 304.5 526.167 304.5 526.5C297.159 526.666 289.826 526.5 282.5 526C280.277 525.434 278.277 524.6 276.5 523.5Z" fill="#43413E"/>
<path fill-rule="evenodd" clip-rule="evenodd" d="M434.5 456.5C437.641 457.321 440.975 457.821 444.5 458C449.644 459.64 452.31 463.14 452.5 468.5C456.071 468.408 457.238 470.074 456 473.5C455.667 473.167 455.333 472.833 455 472.5C453.164 474.131 453.664 474.798 456.5 474.5C456.5 475.5 456.5 476.5 456.5 477.5C459.012 477.423 461.012 478.423 462.5 480.5C462.291 481.086 461.957 481.586 461.5 482C462.466 485.235 463.799 488.235 465.5 491C463.043 492.154 463.043 493.488 465.5 495C463.109 495.691 463.109 496.691 465.5 498C463.009 498.626 463.009 499.459 465.5 500.5C463.009 501.541 463.009 502.374 465.5 503C463.606 504.079 463.273 505.413 464.5 507C463.751 508.734 463.251 510.567 463 512.5C462.552 514.224 461.718 514.891 460.5 514.5C460.977 515.478 461.643 516.311 462.5 517C460.833 518 459.167 519 457.5 520C458.019 522.026 458.353 524.026 458.5 526C456.924 526.44 455.59 527.273 454.5 528.5C450.717 536.28 444.717 541.614 436.5 544.5C435.914 544.291 435.414 543.957 435 543.5C433.753 545.685 431.92 547.018 429.5 547.5C423.68 548.991 418.013 549.991 412.5 550.5C411.459 548.009 410.626 548.009 410 550.5C402.958 549.153 396.291 546.82 390 543.5C389.667 543.833 389.333 544.167 389 544.5C384.663 541.576 380.829 538.076 377.5 534C376.552 533.517 375.552 533.351 374.5 533.5C374.5 532.167 374.5 530.833 374.5 529.5C373.5 529.5 372.5 529.5 371.5 529.5C360.74 510.775 359.906 491.775 369 472.5C370.572 469.138 373.072 466.804 376.5 465.5C379.407 467.805 382.741 469.138 386.5 469.5C384.777 470.807 382.943 470.807 381 469.5C380.333 470.833 379.333 471.833 378 472.5C375.466 476.423 373.3 480.59 371.5 485C371.833 485.333 372.167 485.667 372.5 486C371.991 488.693 370.991 491.193 369.5 493.5C370.025 494.192 370.692 494.692 371.5 495C368.833 495.667 368.833 496.333 371.5 497C369.043 498.154 369.043 499.488 371.5 501C370.833 501.333 370.167 501.667 369.5 502C371.689 502.677 372.022 503.844 370.5 505.5C371.219 508.313 371.886 511.146 372.5 514C377.649 523.864 384.316 531.864 392.5 538C395.624 538.479 398.457 539.646 401 541.5C402.086 539.153 403.419 539.153 405 541.5C408.195 542.557 411.195 543.224 414 543.5C417.671 543.323 421.171 541.989 424.5 539.5C425.192 540.025 425.692 540.692 426 541.5C432.1 539.41 437.1 535.743 441 530.5C441.333 530.833 441.667 531.167 442 531.5C443.983 530.018 445.816 528.351 447.5 526.5C449.991 523.448 451.825 520.448 453 517.5C453.789 514.166 454.956 510.999 456.5 508C456.384 506.732 456.051 505.398 455.5 504C456.167 503.333 456.833 502.667 457.5 502C455.109 501.309 455.109 500.309 457.5 499C456.359 498.259 456.359 497.425 457.5 496.5C456.975 495.808 456.308 495.308 455.5 495C456.308 494.692 456.975 494.192 457.5 493.5C455.836 485.283 452.503 477.617 447.5 470.5C444.658 469.996 443.325 468.329 443.5 465.5C441.408 465.439 439.908 464.439 439 462.5C438.282 463.451 437.449 463.617 436.5 463C435.167 462.333 435.167 461.667 436.5 461C430.262 457.771 423.596 455.771 416.5 455C409.264 454.365 402.598 455.865 396.5 459.5C397.372 457.052 398.705 454.885 400.5 453C412.084 452.391 423.417 453.558 434.5 456.5Z" fill="#F9BF99"/>
<path fill-rule="evenodd" clip-rule="evenodd" d="M407.5 474.5C411.868 474.37 416.202 474.703 420.5 475.5C423.324 477.052 426.324 478.052 429.5 478.5C429.5 479.5 429.5 480.5 429.5 481.5C430.5 481.5 431.5 481.5 432.5 481.5C432.792 485.614 434.459 489.114 437.5 492C437.167 492.333 436.833 492.667 436.5 493C437.167 495 437.833 497 438.5 499C437.363 502.111 436.363 505.278 435.5 508.5C433.668 511.754 431.835 515.087 430 518.5C429.586 518.043 429.086 517.709 428.5 517.5C426.613 519.282 424.78 520.949 423 522.5C421.413 521.273 420.079 521.606 419 523.5C418.667 522.833 418.333 522.167 418 521.5C416.333 522.167 414.667 522.833 413 523.5C411.475 523.112 409.808 523.112 408 523.5C406.665 521.395 404.998 520.729 403 521.5C401.777 518.553 399.777 517.553 397 518.5C395.614 515.466 393.781 512.8 391.5 510.5C390.04 506.625 389.373 502.292 389.5 497.5C389.696 492.468 390.696 487.801 392.5 483.5C395.833 483.5 397.5 481.833 397.5 478.5C401.083 477.53 404.417 476.196 407.5 474.5Z" fill="#FDD3B7"/>
<path opacity="0.439" fill-rule="evenodd" clip-rule="evenodd" d="M174.5 557.5C171.141 547.416 168.807 537.083 167.5 526.5C167.81 525.262 168.31 525.262 169 526.5C169.375 531.21 170.042 535.877 171 540.5C173.063 546.275 174.23 551.942 174.5 557.5Z" fill="#686868"/>
<path opacity="0.357" fill-rule="evenodd" clip-rule="evenodd" d="M175.5 558.5C177.098 560.395 178.432 562.562 179.5 565C181.134 565.494 182.801 565.66 184.5 565.5C184.843 567.483 184.176 568.817 182.5 569.5C182.5 568.5 182.5 567.5 182.5 566.5C177.432 566.399 175.099 563.733 175.5 558.5Z" fill="#6B6B6B"/>
<path fill-rule="evenodd" clip-rule="evenodd" d="M649.5 560.5C650.575 564.938 648.908 566.938 644.5 566.5C644.5 569.833 644.5 573.167 644.5 576.5C643.778 576.082 643.278 575.416 643 574.5C642.502 571.518 642.335 568.518 642.5 565.5C646.886 566.426 649.22 564.759 649.5 560.5Z" fill="#C31310"/>
<path fill-rule="evenodd" clip-rule="evenodd" d="M690.5 564.5C688.788 566.896 688.288 569.562 689 572.5C691.041 573.423 693.208 573.756 695.5 573.5C688.508 576.346 686.008 574.013 688 566.5C688.708 565.619 689.542 564.953 690.5 564.5Z" fill="#580202"/>
<path fill-rule="evenodd" clip-rule="evenodd" d="M410.5 573.5C415.919 578.387 421.919 582.553 428.5 586C416.359 591.363 404.025 591.863 391.5 587.5C398.995 584.329 405.328 579.662 410.5 573.5Z" fill="#EFB083"/>
<path opacity="0.059" fill-rule="evenodd" clip-rule="evenodd" d="M183.5 571.5C184.222 571.918 184.722 572.584 185 573.5C185.27 577.373 185.77 581.206 186.5 585C186.43 585.765 186.097 586.265 185.5 586.5C184.293 581.586 183.626 576.586 183.5 571.5Z" fill="#6A6A6A"/>
<path fill-rule="evenodd" clip-rule="evenodd" d="M749.5 580.5C751.033 582.634 751.7 585.134 751.5 588C751.368 593.474 750.368 598.64 748.5 603.5C749.358 595.868 749.691 588.201 749.5 580.5Z" fill="#B50002"/>
<path fill-rule="evenodd" clip-rule="evenodd" d="M435.5 589.5C445.325 592.211 455.325 594.545 465.5 596.5C453.887 605.795 440.554 610.962 425.5 612C411.384 613.149 397.384 612.482 383.5 610C373.837 607.336 365.171 602.836 357.5 596.5C365.758 595.155 373.925 593.488 382 591.5C396.224 595.859 410.724 596.692 425.5 594C429.061 592.768 432.394 591.268 435.5 589.5Z" fill="#F6F6F6"/>
<path fill-rule="evenodd" clip-rule="evenodd" d="M461.5 589.5C472.15 590.238 482.817 590.572 493.5 590.5C489.514 591.166 485.347 591.499 481 591.5C474.269 591.647 467.769 590.98 461.5 589.5Z" fill="#87857E"/>
<path fill-rule="evenodd" clip-rule="evenodd" d="M321.5 595.5C326.71 595.608 331.71 596.275 336.5 597.5C331.217 597.904 326.217 597.238 321.5 595.5Z" fill="#8E897A"/>
<path opacity="0.112" fill-rule="evenodd" clip-rule="evenodd" d="M640.5 590.5C636.772 608.386 629.772 624.72 619.5 639.5C629.389 621.937 636.223 603.271 640 583.5C640.497 585.81 640.663 588.143 640.5 590.5Z" fill="#777777"/>
<path fill-rule="evenodd" clip-rule="evenodd" d="M399.5 619.5C409.693 620.738 420.026 620.572 430.5 619C431.056 618.617 431.389 618.117 431.5 617.5C443.445 615.239 454.611 610.906 465 604.5C466.326 605.799 467.66 607.132 469 608.5C469.617 609.449 469.451 610.282 468.5 611C453.187 621.336 436.52 628.336 418.5 632C393.643 633.319 372.143 625.485 354 608.5C354.537 606.423 356.037 605.09 358.5 604.5C371.226 612.075 384.893 617.075 399.5 619.5Z" fill="#F4F4F4"/>
<path fill-rule="evenodd" clip-rule="evenodd" d="M663.5 606.5C666.213 608.172 668.88 609.838 671.5 611.5C667.87 611.299 665.203 609.632 663.5 606.5Z" fill="#9E0003"/>
<path opacity="0.031" fill-rule="evenodd" clip-rule="evenodd" d="M185.5 587.5C186.586 587.62 187.253 588.287 187.5 589.5C192.926 612.788 202.593 634.122 216.5 653.5C212.539 649.688 209.039 645.355 206 640.5C196.371 623.909 189.537 606.242 185.5 587.5Z" fill="#848484"/>
<path fill-rule="evenodd" clip-rule="evenodd" d="M692.5 615.5C697.283 616.509 701.95 617.509 706.5 618.5C701.36 619.09 696.693 618.09 692.5 615.5Z" fill="#6D0002"/>
<path fill-rule="evenodd" clip-rule="evenodd" d="M431.5 617.5C431.389 618.117 431.056 618.617 430.5 619C420.026 620.572 409.693 620.738 399.5 619.5C410.231 619.707 420.898 619.041 431.5 617.5Z" fill="#9A9A9A"/>
<path opacity="0.078" fill-rule="evenodd" clip-rule="evenodd" d="M616.5 644.5C616.573 646.027 615.906 647.027 614.5 647.5C614.427 645.973 615.094 644.973 616.5 644.5Z" fill="#999999"/>
<path fill-rule="evenodd" clip-rule="evenodd" d="M436.5 649.5C439.966 650.109 440.966 651.942 439.5 655C420.951 664.622 402.284 664.956 383.5 656C381.816 653.214 382.483 651.38 385.5 650.5C402.74 657.349 419.74 657.016 436.5 649.5Z" fill="#191917"/>
<path opacity="0.016" fill-rule="evenodd" clip-rule="evenodd" d="M216.5 653.5C218.262 654.262 219.262 655.596 219.5 657.5C217.554 656.965 216.554 655.632 216.5 653.5Z" fill="#A7A7A7"/>
<path opacity="0.047" fill-rule="evenodd" clip-rule="evenodd" d="M611.5 651.5C610.471 654.891 608.471 657.557 605.5 659.5C607.016 656.467 609.016 653.8 611.5 651.5Z" fill="#696969"/>
<path opacity="0.129" fill-rule="evenodd" clip-rule="evenodd" d="M221.5 659.5C226.894 663.892 231.561 668.892 235.5 674.5C230.106 670.108 225.439 665.108 221.5 659.5Z" fill="#666666"/>
<path opacity="0.157" fill-rule="evenodd" clip-rule="evenodd" d="M604.5 660.5C600.167 666.833 594.833 672.167 588.5 676.5C593.5 670.833 598.833 665.5 604.5 660.5Z" fill="#545454"/>
<path opacity="0.027" fill-rule="evenodd" clip-rule="evenodd" d="M572.5 688.5C570.664 690.588 568.331 691.921 565.5 692.5C567.336 690.412 569.669 689.079 572.5 688.5Z" fill="#676767"/>
<path opacity="0.227" fill-rule="evenodd" clip-rule="evenodd" d="M254.5 688.5C259.83 690.252 264.496 692.918 268.5 696.5C263.173 694.841 258.507 692.174 254.5 688.5Z" fill="#575757"/>
<path opacity="0.01" fill-rule="evenodd" clip-rule="evenodd" d="M284.5 702.5C283.299 699.798 281.966 697.798 280.5 696.5C278.871 693.49 277.871 690.156 277.5 686.5C277.667 685.833 277.833 685.167 278 684.5C281.059 690.176 283.225 696.176 284.5 702.5Z" fill="#848484"/>
<path opacity="0.502" fill-rule="evenodd" clip-rule="evenodd" d="M565.5 692.5C562.308 695.242 558.642 697.242 554.5 698.5C554.369 697.624 554.702 696.957 555.5 696.5C558.823 694.952 562.157 693.619 565.5 692.5Z" fill="#494948"/>
<path opacity="0.365" fill-rule="evenodd" clip-rule="evenodd" d="M547.5 697.5C546.732 696.737 546.232 695.737 546 694.5C543.821 700.902 540.988 706.902 537.5 712.5C541.21 703.735 544.377 694.735 547 685.5C547.333 685.167 547.667 684.833 548 684.5C548.814 689.02 548.647 693.354 547.5 697.5Z" fill="#737373"/>
<path opacity="0.035" fill-rule="evenodd" clip-rule="evenodd" d="M537.5 712.5C537.25 714.674 536.25 716.341 534.5 717.5C534.273 715.067 535.273 713.401 537.5 712.5Z" fill="#A0A0A0"/>
<path opacity="0.169" fill-rule="evenodd" clip-rule="evenodd" d="M534.5 717.5C533.66 719.853 532.326 721.853 530.5 723.5C530.87 720.733 532.204 718.733 534.5 717.5Z" fill="#858585"/>
<path opacity="0.11" fill-rule="evenodd" clip-rule="evenodd" d="M529.5 725.5C527.212 729.456 524.212 732.789 520.5 735.5C521.75 733.068 523.25 730.734 525 728.5C526.129 726.859 527.629 725.859 529.5 725.5Z" fill="#585858"/>
<path opacity="0.083" fill-rule="evenodd" clip-rule="evenodd" d="M294.5 720.5C298.515 724.356 302.015 728.689 305 733.5C308.557 737.025 312.39 740.191 316.5 743C317.823 743.816 318.489 744.983 318.5 746.5C308.043 740.045 300.043 731.379 294.5 720.5Z" fill="#707070"/>
<path opacity="0.086" fill-rule="evenodd" clip-rule="evenodd" d="M519.5 736.5C515.101 741.532 510.101 745.865 504.5 749.5C504.859 747.629 505.859 746.129 507.5 745C511.333 741.833 515.167 738.667 519 735.5C519.399 735.728 519.565 736.062 519.5 736.5Z" fill="#5D5D5D"/>
<path opacity="0.275" fill-rule="evenodd" clip-rule="evenodd" d="M318.5 746.5C321.005 746.98 323.338 747.98 325.5 749.5C328.163 751.299 330.496 753.299 332.5 755.5C327.291 753.281 322.624 750.281 318.5 746.5Z" fill="#606060"/>
<path opacity="0.102" fill-rule="evenodd" clip-rule="evenodd" d="M503.5 749.5C501.381 751.4 499.047 753.066 496.5 754.5C498.001 751.962 500.168 749.962 503 748.5C503.399 748.728 503.565 749.062 503.5 749.5Z" fill="#5E5E5E"/>
<path opacity="0.063" fill-rule="evenodd" clip-rule="evenodd" d="M495.5 754.5C492.76 756.56 489.76 758.226 486.5 759.5C486.414 758.504 486.748 757.671 487.5 757C490.112 756.361 492.446 755.194 494.5 753.5C495.107 753.624 495.44 753.957 495.5 754.5Z" fill="#686868"/>
<path opacity="0.753" fill-rule="evenodd" clip-rule="evenodd" d="M333.5 756.5C333.56 755.957 333.893 755.624 334.5 755.5C336.795 756.432 339.129 757.265 341.5 758C345.766 759.441 349.433 761.608 352.5 764.5C345.999 762.222 339.665 759.555 333.5 756.5Z" fill="#4D4D4D"/>
<path opacity="0.047" fill-rule="evenodd" clip-rule="evenodd" d="M485.5 759.5C478.872 762.935 471.872 765.602 464.5 767.5C465.574 765.716 467.24 764.549 469.5 764C474.9 762.756 480.066 760.923 485 758.5C485.399 758.728 485.565 759.062 485.5 759.5Z" fill="#595959"/>
<path opacity="0.059" fill-rule="evenodd" clip-rule="evenodd" d="M362.5 767.5C359.254 766.946 356.254 765.946 353.5 764.5C353.735 763.903 354.235 763.57 355 763.5C358.131 764.014 360.631 765.348 362.5 767.5Z" fill="#4D4D4D"/>
<path opacity="0.486" fill-rule="evenodd" clip-rule="evenodd" d="M463.5 767.5C459.279 768.878 454.946 769.878 450.5 770.5C450.62 769.414 451.287 768.747 452.5 768.5C454.5 768 456.5 767.5 458.5 767C460.387 766.22 462.054 766.387 463.5 767.5Z" fill="#454545"/>
<path opacity="0.355" fill-rule="evenodd" clip-rule="evenodd" d="M380.5 771.5C376.833 770.833 373.167 770.167 369.5 769.5C369.369 768.624 369.702 767.957 370.5 767.5C373.126 768.292 375.792 768.959 378.5 769.5C379.713 769.747 380.38 770.414 380.5 771.5Z" fill="#555555"/>
<path opacity="0.129" fill-rule="evenodd" clip-rule="evenodd" d="M382.5 771.5C385.995 770.499 389.662 770.499 393.5 771.5C395.333 771.585 396.666 772.252 397.5 773.5C392.362 773.566 387.362 772.9 382.5 771.5Z" fill="#3B3B3B"/>
<path opacity="0.882" fill-rule="evenodd" clip-rule="evenodd" d="M438.5 772.5C434.901 773.344 431.234 773.677 427.5 773.5C428.871 772.213 430.705 771.547 433 771.5C435.033 771.506 436.866 771.839 438.5 772.5Z" fill="#494949"/>
</svg>
