<svg width="848" height="881" viewBox="0 0 848 881" fill="none" xmlns="http://www.w3.org/2000/svg">
<path opacity="0.96" fill-rule="evenodd" clip-rule="evenodd" d="M245.5 142.5C253.5 142.5 261.5 142.5 269.5 142.5C270.995 144.345 272.662 144.678 274.5 143.5C276.965 143.767 279.299 144.434 281.5 145.5C283.843 147.868 286.509 150.035 289.5 152C290.437 152.692 291.103 152.525 291.5 151.5C292.167 151.5 292.5 151.833 292.5 152.5C292.369 153.239 292.536 153.906 293 154.5C297.046 157.721 300.879 161.054 304.5 164.5C304.845 167.198 306.178 169.198 308.5 170.5C309.338 170.842 309.672 171.508 309.5 172.5C309.427 174.027 310.094 175.027 311.5 175.5C311.166 178.491 312.166 180.824 314.5 182.5C314.166 185.491 315.166 187.824 317.5 189.5C319.812 198.555 321.812 207.722 323.5 217C325.658 218.434 326.991 217.6 327.5 214.5C349.741 201.571 371.741 189.071 393.5 177C405.171 168.144 412.671 156.644 416 142.5C417.492 144.134 418.992 145.8 420.5 147.5C420.291 148.086 419.957 148.586 419.5 149C421.737 154.92 423.07 161.086 423.5 167.5C422.56 170.132 422.393 172.798 423 175.5C424.457 173.342 426.29 171.509 428.5 170C444.946 160.395 462.279 158.395 480.5 164C481.337 165.011 481.67 166.178 481.5 167.5C473.363 169.235 466.363 173.069 460.5 179C464.671 178.958 468.837 178.458 473 177.5C479.259 178.606 485.425 180.106 491.5 182C497.477 186.301 503.477 190.635 509.5 195C510.337 196.011 510.67 197.178 510.5 198.5C506.901 197.301 503.235 196.301 499.5 195.5C492.927 192.921 486.26 193.088 479.5 196C488.854 198.574 497.854 201.24 506.5 204C507.833 204.667 507.833 205.333 506.5 206C505.167 206.333 503.833 206.667 502.5 207C503.416 207.278 504.082 207.778 504.5 208.5C509.895 212.531 515.895 215.531 522.5 217.5C523.209 218.404 524.209 218.737 525.5 218.5C525.5 216.167 525.5 213.833 525.5 211.5C527.598 203.971 529.598 196.304 531.5 188.5C533.655 186.383 534.655 183.716 534.5 180.5C534.66 178.847 535.326 177.514 536.5 176.5C538.408 175.514 539.408 173.848 539.5 171.5C544.16 165.839 548.827 160.172 553.5 154.5C553.5 153.833 553.833 153.5 554.5 153.5C554.435 153.938 554.601 154.272 555 154.5C557.748 152.542 560.582 150.709 563.5 149C564.252 148.329 564.586 147.496 564.5 146.5C566.421 145.637 568.421 144.971 570.5 144.5C570.56 145.043 570.893 145.376 571.5 145.5C574.954 144.487 578.287 143.487 581.5 142.5C592.198 142.263 602.865 142.596 613.5 143.5C613.937 145.074 614.937 146.241 616.5 147C621.372 148.103 626.038 149.77 630.5 152C638.939 156.628 646.939 161.795 654.5 167.5C662.854 174.373 669.188 182.373 673.5 191.5C674.653 195.14 676.32 198.474 678.5 201.5C678.552 204.346 679.552 206.68 681.5 208.5C682.619 215.196 683.952 221.863 685.5 228.5C685.747 229.713 686.414 230.38 687.5 230.5C688.372 236.789 688.705 243.122 688.5 249.5C687.883 249.611 687.383 249.944 687 250.5C685.932 256.476 685.099 262.476 684.5 268.5C684.737 269.791 684.404 270.791 683.5 271.5C681.733 273.792 680.733 276.458 680.5 279.5C678.326 282.515 676.659 285.849 675.5 289.5C673.6 293.732 670.933 297.399 667.5 300.5C666.167 301.167 665.167 302.167 664.5 303.5C663.167 305.5 661.5 307.167 659.5 308.5C655.388 310.728 651.388 313.228 647.5 316C643.539 317.598 639.539 319.098 635.5 320.5C634.702 320.957 634.369 321.624 634.5 322.5C630.658 324.002 626.658 324.668 622.5 324.5C620.012 322.612 617.012 321.945 613.5 322.5C613.273 324.933 614.273 326.599 616.5 327.5C618.25 328.659 619.25 330.326 619.5 332.5C621.043 337.024 623.377 341.024 626.5 344.5C632.145 358.93 637.311 373.597 642 388.5C643.525 392.201 645.025 395.201 646.5 397.5C647.338 397.842 647.672 398.508 647.5 399.5C646.835 403.423 647.335 407.423 649 411.5C654.254 414.079 659.421 416.745 664.5 419.5C665.338 419.842 665.672 420.508 665.5 421.5C666.759 425.025 668.759 428.025 671.5 430.5C672.036 438.654 672.703 446.654 673.5 454.5C686.412 453.062 694.412 458.729 697.5 471.5C697.111 479.164 696.778 486.83 696.5 494.5C696.405 496.786 695.738 498.786 694.5 500.5C693.14 502.046 692.14 503.88 691.5 506C693.684 509.012 696.017 511.845 698.5 514.5C699.726 520.521 699.726 526.521 698.5 532.5C695.824 541.516 690.491 548.516 682.5 553.5C679.727 563.222 676.894 573.222 674 583.5C670.19 591.446 666.69 599.446 663.5 607.5C656.113 618.227 649.113 629.227 642.5 640.5C634.963 652.042 626.296 662.709 616.5 672.5C616.565 672.062 616.399 671.728 616 671.5C614.198 672.789 613.031 674.456 612.5 676.5C611.833 677.833 610.833 678.833 609.5 679.5C604.895 682.436 600.895 686.102 597.5 690.5C594.789 694.212 591.456 697.212 587.5 699.5C571.242 711.64 554.242 722.807 536.5 733C527.096 737.041 517.763 741.041 508.5 745C507.748 745.671 507.414 746.504 507.5 747.5C470.854 761.178 433.187 765.512 394.5 760.5C394.389 759.883 394.056 759.383 393.5 759C390.304 758.195 387.304 758.362 384.5 759.5C383.833 759.5 383.167 759.5 382.5 759.5C382.586 758.504 382.252 757.671 381.5 757C370.574 755.102 359.907 752.269 349.5 748.5C348.287 748.747 347.62 749.414 347.5 750.5C346.833 750.5 346.5 750.167 346.5 749.5C346.53 748.503 346.03 747.836 345 747.5C340.201 744.719 335.035 742.886 329.5 742C323.778 738.721 317.945 735.554 312 732.5C311.536 733.094 311.369 733.761 311.5 734.5C310.833 734.5 310.5 734.167 310.5 733.5C304.389 728.841 297.889 724.508 291 720.5C290.601 720.728 290.435 721.062 290.5 721.5C290.167 721.5 289.833 721.5 289.5 721.5C289.058 718.668 287.725 717.668 285.5 718.5C284.833 718.5 284.5 718.167 284.5 717.5C271.898 707.408 259.398 697.075 247 686.5C246.601 686.728 246.435 687.062 246.5 687.5C245.5 687.167 244.833 686.5 244.5 685.5C239.833 678.833 234.167 673.167 227.5 668.5C227.5 668.167 227.5 667.833 227.5 667.5C226.19 664.527 224.19 662.193 221.5 660.5C219.312 656.793 216.645 653.46 213.5 650.5C213.262 648.596 212.262 647.262 210.5 646.5C208.413 645.415 207.08 643.749 206.5 641.5C204.237 636.635 201.237 632.302 197.5 628.5C190.771 616.714 184.271 604.714 178 592.5C172.713 579.97 169.046 566.97 167 553.5C166.617 552.944 166.117 552.611 165.5 552.5C163.77 551.974 162.436 550.974 161.5 549.5C160.833 546.833 159.167 545.167 156.5 544.5C156.262 542.596 155.262 541.262 153.5 540.5C152.326 539.486 151.66 538.153 151.5 536.5C151.672 535.508 151.338 534.842 150.5 534.5C150.405 532.214 149.738 530.214 148.5 528.5C147.557 525.292 147.39 521.626 148 517.5C148.374 515.509 149.207 513.842 150.5 512.5C153.228 510.773 155.228 508.44 156.5 505.5C155.337 501.993 154.004 498.659 152.5 495.5C151.023 491.767 150.189 487.767 150 483.5C149.517 484.448 149.351 485.448 149.5 486.5C148.517 482.702 148.183 478.702 148.5 474.5C151.173 471.821 152.84 468.488 153.5 464.5C153.554 462.368 154.554 461.035 156.5 460.5C160.635 457.437 165.301 455.437 170.5 454.5C172.453 455.156 174.453 455.489 176.5 455.5C175.708 449.87 175.375 444.203 175.5 438.5C176.333 432.995 178.333 427.995 181.5 423.5C185.55 418.324 190.884 414.824 197.5 413C198.823 412.184 199.489 411.017 199.5 409.5C203.92 393.324 208.92 377.324 214.5 361.5C216.369 357.434 218.536 353.434 221 349.5C221.49 348.207 221.657 346.873 221.5 345.5C222.376 345.631 223.043 345.298 223.5 344.5C224.513 341.812 225.513 339.146 226.5 336.5C228.104 335.713 228.771 334.38 228.5 332.5C230.822 331.198 232.155 329.198 232.5 326.5C234.104 325.713 234.771 324.38 234.5 322.5C227.213 322.931 220.046 322.264 213 320.5C212.235 320.57 211.735 320.903 211.5 321.5C211.167 321.5 210.833 321.5 210.5 321.5C207.157 318.495 203.157 316.495 198.5 315.5C196.973 315.573 195.973 314.906 195.5 313.5C187.798 306.799 180.798 299.466 174.5 291.5C172.638 288.552 170.971 285.552 169.5 282.5C166.684 274.221 164.184 265.888 162 257.5C161.69 245.979 161.523 234.646 161.5 223.5C161.5 223.167 161.5 222.833 161.5 222.5C162.496 222.586 163.329 222.252 164 221.5C166.986 208.202 172.153 195.868 179.5 184.5C185.769 176.893 192.436 169.56 199.5 162.5C199.5 161.833 199.833 161.5 200.5 161.5C208.64 156.929 216.974 152.595 225.5 148.5C226.298 148.043 226.631 147.376 226.5 146.5C226.833 146.5 227.167 146.5 227.5 146.5C227.56 147.043 227.893 147.376 228.5 147.5C230.295 146.735 232.128 146.068 234 145.5C235.03 145.164 235.53 144.497 235.5 143.5C236.167 143.5 236.833 143.5 237.5 143.5C237.735 144.097 238.235 144.43 239 144.5C241.346 144.01 243.513 143.343 245.5 142.5Z" fill="#0D0A09"/>
<path opacity="0.69" fill-rule="evenodd" clip-rule="evenodd" d="M245.5 142.5C243.513 143.343 241.346 144.01 239 144.5C238.235 144.43 237.735 144.097 237.5 143.5C240.054 142.612 242.721 142.279 245.5 142.5Z" fill="#5B5B5B"/>
<path opacity="0.796" fill-rule="evenodd" clip-rule="evenodd" d="M269.5 142.5C271.415 142.216 273.081 142.549 274.5 143.5C272.662 144.678 270.995 144.345 269.5 142.5Z" fill="#585858"/>
<path opacity="0.498" fill-rule="evenodd" clip-rule="evenodd" d="M235.5 143.5C235.53 144.497 235.03 145.164 234 145.5C232.128 146.068 230.295 146.735 228.5 147.5C227.893 147.376 227.56 147.043 227.5 146.5C230.053 145.195 232.72 144.195 235.5 143.5Z" fill="#747474"/>
<path opacity="0.643" fill-rule="evenodd" clip-rule="evenodd" d="M581.5 142.5C578.287 143.487 574.954 144.487 571.5 145.5C570.893 145.376 570.56 145.043 570.5 144.5C573.876 142.918 577.542 142.251 581.5 142.5Z" fill="#616161"/>
<path opacity="0.176" fill-rule="evenodd" clip-rule="evenodd" d="M281.5 145.5C285.201 147.012 288.534 149.012 291.5 151.5C291.103 152.525 290.437 152.692 289.5 152C286.509 150.035 283.843 147.868 281.5 145.5Z" fill="#646464"/>
<path opacity="0.227" fill-rule="evenodd" clip-rule="evenodd" d="M564.5 146.5C564.586 147.496 564.252 148.329 563.5 149C560.582 150.709 557.748 152.542 555 154.5C554.601 154.272 554.435 153.938 554.5 153.5C557.446 150.687 560.779 148.354 564.5 146.5Z" fill="#747474"/>
<path fill-rule="evenodd" clip-rule="evenodd" d="M400.5 199.5C414.089 197.63 427.756 196.63 441.5 196.5C450.398 197.851 459.064 200.351 467.5 204C474.902 205.35 482.235 207.017 489.5 209C501.921 214.535 514.254 220.369 526.5 226.5C527.442 226.392 528.275 226.059 529 225.5C530.163 204.678 536.496 185.678 548 168.5C563.955 149.46 584.122 142.96 608.5 149C653.214 163.251 677.881 193.751 682.5 240.5C682.503 271.339 669.836 295.173 644.5 312C635.865 315.712 626.865 317.879 617.5 318.5C613.8 318.139 610.133 317.973 606.5 318C605.941 318.725 605.608 319.558 605.5 320.5C624.45 348.491 637.283 379.158 644 412.5C645.141 414.609 646.641 416.442 648.5 418C652.21 418.373 655.544 419.707 658.5 422C662.288 426.406 665.455 431.239 668 436.5C668.667 442.167 668.667 447.833 668 453.5C666.496 457.586 665.162 461.586 664 465.5C664.725 466.059 665.558 466.392 666.5 466.5C675.937 456.679 684.27 457.679 691.5 469.5C692.254 474.463 692.587 479.463 692.5 484.5C691.724 492.665 688.891 499.998 684 506.5C683.506 508.134 683.34 509.801 683.5 511.5C685.527 511.338 687.527 511.505 689.5 512C691 513.5 692.5 515 694 516.5C695.514 531.138 689.847 542.138 677 549.5C674.44 569.514 668.107 588.181 658 605.5C620.584 672.586 565.75 719.086 493.5 745C475.698 751.185 457.364 754.685 438.5 755.5C425.149 755.666 411.815 755.333 398.5 754.5C357.674 749.463 320.341 735.297 286.5 712C234.702 675.878 197.535 628.378 175 569.5C173.341 562.896 172.008 556.23 171 549.5C164.239 544.741 158.906 538.741 155 531.5C152.054 524.114 153.221 517.614 158.5 512C160.5 511.667 162.5 511.333 164.5 511C165.022 510.439 165.355 509.772 165.5 509C156.954 497.6 153.787 484.766 156 470.5C162.828 458.766 171.328 457.433 181.5 466.5C182.478 466.023 183.311 465.357 184 464.5C182.773 460.325 181.773 455.992 181 451.5C178.275 439.461 181.442 429.294 190.5 421C195.728 419.743 200.228 417.243 204 413.5C210.604 379.634 223.771 348.634 243.5 320.5C242.663 318.495 241.163 317.495 239 317.5C210.697 319.846 189.697 308.513 176 283.5C170.975 274.059 167.808 264.059 166.5 253.5C166.505 243.448 167.172 233.448 168.5 223.5C178.794 182.707 204.46 157.54 245.5 148C279.208 145.354 301.541 160.02 312.5 192C316.279 203.771 318.612 215.771 319.5 228C320.833 228.667 322.167 228.667 323.5 228C331.593 219.236 341.26 212.903 352.5 209C368.436 205.29 384.436 202.123 400.5 199.5Z" fill="#AC734F"/>
<path opacity="0.4" fill-rule="evenodd" clip-rule="evenodd" d="M226.5 146.5C226.631 147.376 226.298 148.043 225.5 148.5C216.974 152.595 208.64 156.929 200.5 161.5C208.182 154.986 216.849 149.986 226.5 146.5Z" fill="#5D5D5D"/>
<path opacity="0.392" fill-rule="evenodd" clip-rule="evenodd" d="M292.5 152.5C297.5 155.5 301.5 159.5 304.5 164.5C300.879 161.054 297.046 157.721 293 154.5C292.536 153.906 292.369 153.239 292.5 152.5Z" fill="#646464"/>
<path opacity="0.702" fill-rule="evenodd" clip-rule="evenodd" d="M553.5 154.5C548.827 160.172 544.16 165.839 539.5 171.5C542.662 164.664 547.329 158.997 553.5 154.5Z" fill="#6E6E6E"/>
<path opacity="0.416" fill-rule="evenodd" clip-rule="evenodd" d="M613.5 143.5C629.242 148.196 642.909 156.196 654.5 167.5C646.939 161.795 638.939 156.628 630.5 152C626.038 149.77 621.372 148.103 616.5 147C614.937 146.241 613.937 145.074 613.5 143.5Z" fill="#3B3B3B"/>
<path opacity="0.322" fill-rule="evenodd" clip-rule="evenodd" d="M304.5 164.5C306.326 166.147 307.66 168.147 308.5 170.5C306.178 169.198 304.845 167.198 304.5 164.5Z" fill="#767676"/>
<path opacity="0.576" fill-rule="evenodd" clip-rule="evenodd" d="M199.5 162.5C192.436 169.56 185.769 176.893 179.5 184.5C179.5 184.167 179.5 183.833 179.5 183.5C182.398 178.428 185.898 173.761 190 169.5C193.063 166.924 196.229 164.591 199.5 162.5Z" fill="#6B6B6B"/>
<path opacity="0.22" fill-rule="evenodd" clip-rule="evenodd" d="M309.5 172.5C310.906 172.973 311.573 173.973 311.5 175.5C310.094 175.027 309.427 174.027 309.5 172.5Z" fill="#A3A3A3"/>
<path opacity="0.867" fill-rule="evenodd" clip-rule="evenodd" d="M539.5 171.5C539.408 173.848 538.408 175.514 536.5 176.5C536.75 174.326 537.75 172.659 539.5 171.5Z" fill="#626262"/>
<path opacity="0.816" fill-rule="evenodd" clip-rule="evenodd" d="M311.5 175.5C313.065 177.509 314.065 179.843 314.5 182.5C312.166 180.824 311.166 178.491 311.5 175.5Z" fill="#5F5F5F"/>
<path opacity="0.827" fill-rule="evenodd" clip-rule="evenodd" d="M534.5 180.5C534.655 183.716 533.655 186.383 531.5 188.5C531.98 185.557 532.98 182.89 534.5 180.5Z" fill="#5D5D5D"/>
<path opacity="0.702" fill-rule="evenodd" clip-rule="evenodd" d="M314.5 182.5C316.065 184.509 317.065 186.843 317.5 189.5C315.166 187.824 314.166 185.491 314.5 182.5Z" fill="#686868"/>
<path fill-rule="evenodd" clip-rule="evenodd" d="M596.5 189.5C590.677 189.123 585.011 189.79 579.5 191.5C580.347 190.034 581.68 189.2 583.5 189C588.02 188.186 592.354 188.353 596.5 189.5Z" fill="#503525"/>
<path fill-rule="evenodd" clip-rule="evenodd" d="M596.5 189.5C630.875 199.26 646.709 221.927 644 257.5C636.49 283.349 619.324 295.516 592.5 294C585.746 289.913 580.246 284.413 576 277.5C570 271.5 564 265.5 558 259.5C546.558 236.16 550.058 215.326 568.5 197C571.642 194.096 575.309 192.262 579.5 191.5C585.011 189.79 590.677 189.123 596.5 189.5Z" fill="#130E0A"/>
<path fill-rule="evenodd" clip-rule="evenodd" d="M254.5 293.5C248.131 293.653 241.797 293.32 235.5 292.5C218.591 286.733 208.091 275.066 204 257.5C201.64 225.055 215.473 202.555 245.5 190C270.218 186.456 286.718 196.623 295 220.5C298.044 233.682 296.71 246.348 291 258.5C280.391 268.104 270.891 278.604 262.5 290C259.924 291.456 257.258 292.623 254.5 293.5Z" fill="#120D09"/>
<path fill-rule="evenodd" clip-rule="evenodd" d="M264.5 195.5C258.464 195.36 252.464 195.693 246.5 196.5C249.695 194.97 253.195 194.304 257 194.5C259.69 194.503 262.19 194.836 264.5 195.5Z" fill="#897252"/>
<path opacity="0.01" fill-rule="evenodd" clip-rule="evenodd" d="M499.5 195.5C498.833 196.167 498.833 196.167 499.5 195.5V195.5Z" fill="black"/>
<path fill-rule="evenodd" clip-rule="evenodd" d="M596.5 195.5C590.346 195.178 584.346 195.845 578.5 197.5C579.842 196.207 581.509 195.374 583.5 195C588.02 194.186 592.354 194.353 596.5 195.5Z" fill="#9A805C"/>
<path opacity="0.133" fill-rule="evenodd" clip-rule="evenodd" d="M673.5 191.5C676.201 194.235 677.868 197.569 678.5 201.5C676.32 198.474 674.653 195.14 673.5 191.5Z" fill="#686868"/>
<path fill-rule="evenodd" clip-rule="evenodd" d="M264.5 195.5C285.351 204.591 294.185 220.591 291 243.5C290.04 247.298 288.706 250.965 287 254.5C277.728 263.08 269.395 272.413 262 282.5C258.26 287.119 253.427 289.119 247.5 288.5C226.894 286.737 214.061 275.737 209 255.5C207.365 226.757 219.865 207.09 246.5 196.5C252.464 195.693 258.464 195.36 264.5 195.5Z" fill="#E8C18B"/>
<path fill-rule="evenodd" clip-rule="evenodd" d="M441.5 196.5C427.756 196.63 414.089 197.63 400.5 199.5C403.149 197.891 406.149 197.057 409.5 197C417.5 196.5 425.5 196 433.5 195.5C436.355 195.503 439.022 195.836 441.5 196.5Z" fill="#543827"/>
<path fill-rule="evenodd" clip-rule="evenodd" d="M596.5 195.5C626.49 204.319 640.657 224.319 639 255.5C631.943 281.43 615.443 291.596 589.5 286C581.443 274.938 572.277 264.771 562 255.5C553.101 234.869 556.601 216.703 572.5 201C574.405 199.579 576.405 198.412 578.5 197.5C584.346 195.845 590.346 195.178 596.5 195.5Z" fill="#E9C28B"/>
<path opacity="0.482" fill-rule="evenodd" clip-rule="evenodd" d="M531.5 188.5C529.598 196.304 527.598 203.971 525.5 211.5C525.804 203.28 527.804 195.613 531.5 188.5Z" fill="#7C7C7C"/>
<path opacity="0.298" fill-rule="evenodd" clip-rule="evenodd" d="M678.5 201.5C680.065 203.509 681.065 205.843 681.5 208.5C679.552 206.68 678.552 204.346 678.5 201.5Z" fill="#6D6D6D"/>
<path opacity="0.263" fill-rule="evenodd" clip-rule="evenodd" d="M179.5 183.5C179.5 183.833 179.5 184.167 179.5 184.5C172.153 195.868 166.986 208.202 164 221.5C163.329 222.252 162.496 222.586 161.5 222.5C164.572 208.031 170.572 195.031 179.5 183.5Z" fill="#9A9A9A"/>
<path opacity="0.733" fill-rule="evenodd" clip-rule="evenodd" d="M504.5 208.5C511.097 210.465 517.097 213.465 522.5 217.5C515.895 215.531 509.895 212.531 504.5 208.5Z" fill="#444444"/>
<path opacity="0.471" fill-rule="evenodd" clip-rule="evenodd" d="M317.5 189.5C320.853 197.398 323.02 205.732 324 214.5C324.333 215.167 324.667 215.833 325 216.5C325.708 215.619 326.542 214.953 327.5 214.5C326.991 217.6 325.658 218.434 323.5 217C321.812 207.722 319.812 198.555 317.5 189.5Z" fill="#838383"/>
<path opacity="0.659" fill-rule="evenodd" clip-rule="evenodd" d="M525.5 211.5C525.5 213.833 525.5 216.167 525.5 218.5C524.209 218.737 523.209 218.404 522.5 217.5C524.06 215.844 525.06 213.844 525.5 211.5Z" fill="#7D7D7D"/>
<path opacity="0.592" fill-rule="evenodd" clip-rule="evenodd" d="M681.5 208.5C684.482 215.464 686.482 222.797 687.5 230.5C686.414 230.38 685.747 229.713 685.5 228.5C683.952 221.863 682.619 215.196 681.5 208.5Z" fill="#474747"/>
<path fill-rule="evenodd" clip-rule="evenodd" d="M168.5 223.5C167.172 233.448 166.505 243.448 166.5 253.5C165.346 247.013 165.179 240.346 166 233.5C166.149 229.867 166.982 226.534 168.5 223.5Z" fill="#5E3F2B"/>
<path fill-rule="evenodd" clip-rule="evenodd" d="M463.5 244.5C477.376 244.108 490.709 246.608 503.5 252C506.076 252.782 508.076 254.282 509.5 256.5C485.653 253.39 462.319 255.89 439.5 264C432.354 270.516 431.187 269.682 436 261.5C442.955 252.113 452.122 246.446 463.5 244.5Z" fill="#B7805D"/>
<path opacity="0.396" fill-rule="evenodd" clip-rule="evenodd" d="M688.5 249.5C688.119 256.152 686.785 262.486 684.5 268.5C685.099 262.476 685.932 256.476 687 250.5C687.383 249.944 687.883 249.611 688.5 249.5Z" fill="#4E4E4E"/>
<path fill-rule="evenodd" clip-rule="evenodd" d="M480.5 263.5C493.895 263.142 506.895 265.142 519.5 269.5C496.011 267.85 473.011 270.684 450.5 278C444.527 280.319 439.193 283.653 434.5 288C433.365 288.749 432.365 288.583 431.5 287.5C433 284.5 434.5 281.5 436 278.5C439.611 275.614 443.444 273.114 447.5 271C451.823 270.587 455.823 269.254 459.5 267C466.608 265.593 473.608 264.426 480.5 263.5Z" fill="#B7805D"/>
<path opacity="0.365" fill-rule="evenodd" clip-rule="evenodd" d="M161.5 223.5C161.523 234.646 161.69 245.979 162 257.5C164.184 265.888 166.684 274.221 169.5 282.5C168.833 282.167 168.167 281.833 167.5 281.5C159.319 262.847 157.319 243.514 161.5 223.5Z" fill="#757575"/>
<path opacity="0.443" fill-rule="evenodd" clip-rule="evenodd" d="M683.5 271.5C683.267 274.542 682.267 277.208 680.5 279.5C680.733 276.458 681.733 273.792 683.5 271.5Z" fill="#616161"/>
<path opacity="0.176" fill-rule="evenodd" clip-rule="evenodd" d="M680.5 279.5C679.873 283.42 678.207 286.753 675.5 289.5C676.659 285.849 678.326 282.515 680.5 279.5Z" fill="#797979"/>
<path opacity="0.012" fill-rule="evenodd" clip-rule="evenodd" d="M167.5 281.5C168.167 281.833 168.833 282.167 169.5 282.5C170.971 285.552 172.638 288.552 174.5 291.5C174.5 292.167 174.5 292.833 174.5 293.5C171.665 289.836 169.332 285.836 167.5 281.5Z" fill="#C3C3C3"/>
<path fill-rule="evenodd" clip-rule="evenodd" d="M235.5 292.5C241.797 293.32 248.131 293.653 254.5 293.5C252.022 294.164 249.355 294.497 246.5 294.5C242.531 294.706 238.865 294.039 235.5 292.5Z" fill="#5B3D2A"/>
<path opacity="0.012" fill-rule="evenodd" clip-rule="evenodd" d="M667.5 300.5C667.5 302.5 666.5 303.5 664.5 303.5C665.167 302.167 666.167 301.167 667.5 300.5Z" fill="#959595"/>
<path opacity="0.173" fill-rule="evenodd" clip-rule="evenodd" d="M174.5 291.5C180.798 299.466 187.798 306.799 195.5 313.5C187.231 308.232 180.231 301.565 174.5 293.5C174.5 292.833 174.5 292.167 174.5 291.5Z" fill="#737373"/>
<path opacity="0.312" fill-rule="evenodd" clip-rule="evenodd" d="M198.5 315.5C203.157 316.495 207.157 318.495 210.5 321.5C205.947 320.438 201.947 318.438 198.5 315.5Z" fill="#656565"/>
<path opacity="0.024" fill-rule="evenodd" clip-rule="evenodd" d="M659.5 308.5C652.567 315.471 644.234 320.138 634.5 322.5C634.369 321.624 634.702 320.957 635.5 320.5C639.539 319.098 643.539 317.598 647.5 316C651.388 313.228 655.388 310.728 659.5 308.5Z" fill="#373737"/>
<path opacity="0.816" fill-rule="evenodd" clip-rule="evenodd" d="M232.5 326.5C225.353 325.478 218.353 323.812 211.5 321.5C211.735 320.903 212.235 320.57 213 320.5C220.046 322.264 227.213 322.931 234.5 322.5C234.771 324.38 234.104 325.713 232.5 326.5Z" fill="#3B3B3B"/>
<path opacity="0.305" fill-rule="evenodd" clip-rule="evenodd" d="M622.5 324.5C620.156 324.94 618.156 325.94 616.5 327.5C614.273 326.599 613.273 324.933 613.5 322.5C617.012 321.945 620.012 322.612 622.5 324.5Z" fill="#323232"/>
<path opacity="0.22" fill-rule="evenodd" clip-rule="evenodd" d="M232.5 326.5C232.155 329.198 230.822 331.198 228.5 332.5C229.34 330.147 230.674 328.147 232.5 326.5Z" fill="#808080"/>
<path fill-rule="evenodd" clip-rule="evenodd" d="M340.5 325.5C347.507 325.834 354.507 326.334 361.5 327C370.135 332.507 370.802 338.84 363.5 346C361.863 346.601 360.197 347.101 358.5 347.5C347.824 346.182 337.157 346.349 326.5 348C318.084 350.917 309.917 354.417 302 358.5C296.309 356.974 292.809 353.308 291.5 347.5C292.476 343.059 294.809 339.559 298.5 337C307.627 333.912 316.793 330.746 326 327.5C330.996 326.966 335.83 326.3 340.5 325.5Z" fill="#160E09"/>
<path fill-rule="evenodd" clip-rule="evenodd" d="M330.5 329.5C340.506 329.334 350.506 329.5 360.5 330C364.888 333.19 365.555 337.024 362.5 341.5C352.517 342.332 342.517 342.832 332.5 343C327.669 344.943 322.669 346.277 317.5 347C312.726 350.053 307.726 352.553 302.5 354.5C294.493 351.634 293.493 347.134 299.5 341C309.469 335.848 319.802 332.014 330.5 329.5Z" fill="#6C3D26"/>
<path fill-rule="evenodd" clip-rule="evenodd" d="M484.5 325.5C492.533 325.745 500.533 326.412 508.5 327.5C518.138 330.335 527.471 333.835 536.5 338C540.313 340.024 542.646 343.19 543.5 347.5C541.7 355.733 536.7 358.899 528.5 357C522.083 353.418 515.416 350.418 508.5 348C496.478 346.559 484.478 346.059 472.5 346.5C467.29 343.02 465.624 338.187 467.5 332C469.188 329.981 471.188 328.314 473.5 327C477.356 326.823 481.023 326.323 484.5 325.5Z" fill="#150D08"/>
<path fill-rule="evenodd" clip-rule="evenodd" d="M474.5 329.5C496.706 326.841 517.373 331.008 536.5 342C539.463 344.271 540.13 347.104 538.5 350.5C536.876 352.441 534.876 353.774 532.5 354.5C523.914 350.971 515.247 347.638 506.5 344.5C495.245 342.874 483.912 342.041 472.5 342C468.134 337.032 468.8 332.865 474.5 329.5Z" fill="#6C3D26"/>
<path opacity="0.416" fill-rule="evenodd" clip-rule="evenodd" d="M228.5 332.5C228.771 334.38 228.104 335.713 226.5 336.5C226.66 334.847 227.326 333.514 228.5 332.5Z" fill="#7F7F7F"/>
<path opacity="0.129" fill-rule="evenodd" clip-rule="evenodd" d="M619.5 332.5C622.623 335.976 624.957 339.976 626.5 344.5C623.377 341.024 621.043 337.024 619.5 332.5Z" fill="#626262"/>
<path opacity="0.831" fill-rule="evenodd" clip-rule="evenodd" d="M226.5 336.5C225.513 339.146 224.513 341.812 223.5 344.5C223.043 345.298 222.376 345.631 221.5 345.5C222.41 342.008 224.076 339.008 226.5 336.5Z" fill="#696969"/>
<path opacity="0.118" fill-rule="evenodd" clip-rule="evenodd" d="M221.5 345.5C221.657 346.873 221.49 348.207 221 349.5C218.536 353.434 216.369 357.434 214.5 361.5C215.766 355.64 218.1 350.307 221.5 345.5Z" fill="#797979"/>
<path fill-rule="evenodd" clip-rule="evenodd" d="M320.5 373.5C333.919 373.437 344.086 379.103 351 390.5C357.543 402.477 359.21 415.143 356 428.5C348.711 441.739 337.545 446.906 322.5 444C285.371 436.285 278.538 417.452 302 387.5C307.284 381.466 313.451 376.799 320.5 373.5Z" fill="#181512"/>
<path fill-rule="evenodd" clip-rule="evenodd" d="M507.5 373.5C519.403 373.869 528.903 378.869 536 388.5C539.581 393.328 542.915 398.328 546 403.5C549.64 412.388 549.306 421.055 545 429.5C539.122 435.023 532.289 438.856 524.5 441C514.993 444.487 505.327 445.154 495.5 443C488.781 440.07 483.948 435.237 481 428.5C476.585 410.895 480.419 395.395 492.5 382C496.989 378.094 501.989 375.26 507.5 373.5Z" fill="#181412"/>
<path fill-rule="evenodd" clip-rule="evenodd" d="M322.5 439.5C320.485 438.076 318.152 437.41 315.5 437.5C292.592 432.685 286.759 420.018 298 399.5C303.22 389.946 310.72 382.78 320.5 378C333.349 377.479 342.849 382.979 349 394.5C349.792 398.079 351.125 401.412 353 404.5C353.667 411.167 353.667 417.833 353 424.5C350.474 432.359 345.307 437.526 337.5 440C332.416 440.778 327.416 440.611 322.5 439.5Z" fill="#F7F7F7"/>
<path fill-rule="evenodd" clip-rule="evenodd" d="M485.5 427.5C483.885 418.072 484.218 408.738 486.5 399.5C491.035 385.1 500.702 377.934 515.5 378C523.777 380.945 530.277 386.112 535 393.5C540.804 400.277 544.304 408.11 545.5 417C544.651 422.698 541.984 427.365 537.5 431C525.206 437.325 512.206 440.325 498.5 440C492.343 437.676 488.01 433.509 485.5 427.5Z" fill="#F8F8F8"/>
<path opacity="0.122" fill-rule="evenodd" clip-rule="evenodd" d="M626.5 344.5C635.119 361.348 641.786 379.015 646.5 397.5C645.025 395.201 643.525 392.201 642 388.5C637.311 373.597 632.145 358.93 626.5 344.5Z" fill="#636363"/>
<path opacity="0.255" fill-rule="evenodd" clip-rule="evenodd" d="M214.5 361.5C208.92 377.324 203.92 393.324 199.5 409.5C199.167 409.5 198.833 409.5 198.5 409.5C201.697 392.679 207.03 376.679 214.5 361.5Z" fill="#929292"/>
<path fill-rule="evenodd" clip-rule="evenodd" d="M320.5 400.5C334.705 399.203 340.871 405.536 339 419.5C333.039 428.495 325.706 429.828 317 423.5C311.47 414.784 312.637 407.118 320.5 400.5Z" fill="#0A0A0A"/>
<path fill-rule="evenodd" clip-rule="evenodd" d="M504.5 400.5C519.647 399.463 525.481 406.129 522 420.5C518.345 427.07 512.845 429.237 505.5 427C498.572 422.725 496.072 416.559 498 408.5C500.001 405.669 502.167 403.003 504.5 400.5Z" fill="#0A0A0A"/>
<path opacity="0.631" fill-rule="evenodd" clip-rule="evenodd" d="M647.5 399.5C648.526 403.605 649.859 407.605 651.5 411.5C656.702 412.926 661.036 415.593 664.5 419.5C659.421 416.745 654.254 414.079 649 411.5C647.335 407.423 646.835 403.423 647.5 399.5Z" fill="#3B3B3B"/>
<path opacity="0.455" fill-rule="evenodd" clip-rule="evenodd" d="M198.5 409.5C198.833 409.5 199.167 409.5 199.5 409.5C199.489 411.017 198.823 412.184 197.5 413C190.884 414.824 185.55 418.324 181.5 423.5C181.5 423.167 181.5 422.833 181.5 422.5C182.614 421.115 183.614 419.615 184.5 418C189.097 414.877 193.763 412.043 198.5 409.5Z" fill="#5B5B5B"/>
<path fill-rule="evenodd" clip-rule="evenodd" d="M486.5 399.5C484.218 408.738 483.885 418.072 485.5 427.5C484.732 426.737 484.232 425.737 484 424.5C483.333 418.167 483.333 411.833 484 405.5C484.566 403.277 485.4 401.277 486.5 399.5Z" fill="#A6A6A6"/>
<path opacity="0.306" fill-rule="evenodd" clip-rule="evenodd" d="M665.5 421.5C668.249 423.997 670.249 426.997 671.5 430.5C668.759 428.025 666.759 425.025 665.5 421.5Z" fill="#808080"/>
<path fill-rule="evenodd" clip-rule="evenodd" d="M315.5 437.5C318.152 437.41 320.485 438.076 322.5 439.5C319.848 439.59 317.515 438.924 315.5 437.5Z" fill="#919191"/>
<path opacity="0.043" fill-rule="evenodd" clip-rule="evenodd" d="M181.5 422.5C181.5 422.833 181.5 423.167 181.5 423.5C178.333 427.995 176.333 432.995 175.5 438.5C174.833 439.167 174.167 439.833 173.5 440.5C174.059 433.465 176.725 427.465 181.5 422.5Z" fill="#9E9E9E"/>
<path opacity="0.773" fill-rule="evenodd" clip-rule="evenodd" d="M671.5 430.5C672.927 432.148 673.76 434.148 674 436.5C674.746 442.551 674.579 448.551 673.5 454.5C672.703 446.654 672.036 438.654 671.5 430.5Z" fill="#434343"/>
<path opacity="0.625" fill-rule="evenodd" clip-rule="evenodd" d="M175.5 438.5C175.375 444.203 175.708 449.87 176.5 455.5C174.453 455.489 172.453 455.156 170.5 454.5C165.301 455.437 160.635 457.437 156.5 460.5C160.96 454.591 166.793 452.591 174 454.5C173.622 449.92 173.455 445.254 173.5 440.5C174.167 439.833 174.833 439.167 175.5 438.5Z" fill="#535353"/>
<path fill-rule="evenodd" clip-rule="evenodd" d="M451.5 735.5C439.573 737.204 427.573 737.871 415.5 737.5C378.376 732.605 346.043 717.439 318.5 692C298.69 673.204 281.523 652.371 267 629.5C255.63 610.387 250.63 589.72 252 567.5C253.861 548.588 262.694 534.088 278.5 524C289.275 520.654 300.275 518.32 311.5 517C321.083 513.543 329.75 508.543 337.5 502C348.99 489.165 362.656 479.498 378.5 473C384.627 470.589 390.96 468.922 397.5 468C412.5 467.333 427.5 467.333 442.5 468C460.187 469.318 476.187 474.985 490.5 485C500.919 494.756 511.919 503.756 523.5 512C528.272 514.59 533.272 516.59 538.5 518C551.342 518.587 563.342 521.92 574.5 528C585.149 536.672 591.649 547.839 594 561.5C596.607 576.102 595.607 590.435 591 604.5C583.31 624.533 572.643 642.866 559 659.5C543.149 678.495 525.316 695.329 505.5 710C488.932 721.45 470.932 729.95 451.5 735.5Z" fill="#17120D"/>
<path opacity="0.302" fill-rule="evenodd" clip-rule="evenodd" d="M153.5 464.5C152.84 468.488 151.173 471.821 148.5 474.5C148.978 472.083 149.978 469.916 151.5 468C150.646 466.215 151.313 465.049 153.5 464.5Z" fill="#929292"/>
<path fill-rule="evenodd" clip-rule="evenodd" d="M394.5 729.5C392.485 728.076 390.152 727.41 387.5 727.5C363.13 719.649 341.463 707.149 322.5 690C297.942 667.681 278.109 641.847 263 612.5C256.485 594.982 254.819 576.982 258 558.5C260.53 546.599 266.697 537.099 276.5 530C279.605 528.132 282.938 526.965 286.5 526.5C291.124 526.237 295.458 525.237 299.5 523.5C313.677 521.603 326.344 516.103 337.5 507C348.808 495.021 361.808 485.355 376.5 478C396.337 471.804 416.67 469.804 437.5 472C453.207 472.26 467.874 476.26 481.5 484C494.5 494.333 507.5 504.667 520.5 515C533.031 521.467 546.364 525.133 560.5 526C577.241 532.423 587.074 544.59 590 562.5C592.895 587.496 587.561 610.496 574 631.5C549.489 670.346 516.989 700.513 476.5 722C450.026 734.273 422.693 736.773 394.5 729.5Z" fill="#E9C28B"/>
<path fill-rule="evenodd" clip-rule="evenodd" d="M691.5 469.5C692.991 472.186 693.657 475.186 693.5 478.5C693.495 480.696 693.162 482.696 692.5 484.5C692.587 479.463 692.254 474.463 691.5 469.5Z" fill="#65432E"/>
<path opacity="0.948" fill-rule="evenodd" clip-rule="evenodd" d="M697.5 471.5C698.298 474.171 698.965 477.004 699.5 480C699.056 485.084 698.056 489.918 696.5 494.5C696.778 486.83 697.111 479.164 697.5 471.5Z" fill="#343434"/>
<path opacity="0.027" fill-rule="evenodd" clip-rule="evenodd" d="M152.5 495.5C152.5 496.833 152.5 498.167 152.5 499.5C150.425 495.526 149.425 491.192 149.5 486.5C149.351 485.448 149.517 484.448 150 483.5C150.189 487.767 151.023 491.767 152.5 495.5Z" fill="#BEBEBE"/>
<path opacity="0.012" fill-rule="evenodd" clip-rule="evenodd" d="M152.5 495.5C154.004 498.659 155.337 501.993 156.5 505.5C155.228 508.44 153.228 510.773 150.5 512.5C151.324 509.685 152.991 507.518 155.5 506C154.086 504.007 153.086 501.84 152.5 499.5C152.5 498.167 152.5 496.833 152.5 495.5Z" fill="#7A7A7A"/>
<path opacity="0.043" fill-rule="evenodd" clip-rule="evenodd" d="M694.5 500.5C694.528 502.582 693.861 504.416 692.5 506C695.457 508.129 697.457 510.962 698.5 514.5C696.017 511.845 693.684 509.012 691.5 506C692.14 503.88 693.14 502.046 694.5 500.5Z" fill="#4D4D4D"/>
<path fill-rule="evenodd" clip-rule="evenodd" d="M550.5 563.5C551.404 562.791 551.737 561.791 551.5 560.5C548.167 560.5 544.833 560.5 541.5 560.5C540.199 559.116 540.199 557.616 541.5 556C553.531 553.727 563.031 557.56 570 567.5C570.667 569.167 570.667 570.833 570 572.5C569.282 573.451 568.449 573.617 567.5 573C564.912 568.387 561.246 565.387 556.5 564C547.192 581.31 534.359 595.477 518 606.5C503.548 632.618 485.048 655.452 462.5 675C448.544 685.653 432.877 690.653 415.5 690C402.475 685.656 390.808 678.989 380.5 670C359.19 650.707 341.69 628.541 328 603.5C314.085 592.76 302.918 579.76 294.5 564.5C293.635 563.417 292.635 563.251 291.5 564C288.462 566.703 285.795 569.703 283.5 573C279.912 573.611 278.746 572.111 280 568.5C286.894 558.316 296.394 554.149 308.5 556C309.833 557.667 309.833 559.333 308.5 561C305.447 561.179 302.447 561.679 299.5 562.5C327.425 607.131 367.759 627.964 420.5 625C421.651 615.244 421.818 605.411 421 595.5C410.307 591.937 399.474 588.77 388.5 586C367.345 577.787 359.845 562.621 366 540.5C375.431 521.374 390.598 514.54 411.5 520C415.091 521.152 418.758 521.985 422.5 522.5C437.204 518.965 451.871 518.799 466.5 522C481.891 532.21 487.391 546.376 483 564.5C479.25 573.251 473.084 579.751 464.5 584C452.962 587.811 441.295 591.311 429.5 594.5C428.361 604.833 428.361 615.166 429.5 625.5C481.942 627.782 522.275 607.116 550.5 563.5Z" fill="#15120F"/>
<path opacity="0.522" fill-rule="evenodd" clip-rule="evenodd" d="M698.5 514.5C699.222 514.918 699.722 515.584 700 516.5C700.667 521.5 700.667 526.5 700 531.5C699.617 532.056 699.117 532.389 698.5 532.5C699.726 526.521 699.726 520.521 698.5 514.5Z" fill="#696969"/>
<path fill-rule="evenodd" clip-rule="evenodd" d="M299.5 523.5C295.458 525.237 291.124 526.237 286.5 526.5C286.918 525.778 287.584 525.278 288.5 525C292.17 524.452 295.837 523.952 299.5 523.5Z" fill="#A38861"/>
<path fill-rule="evenodd" clip-rule="evenodd" d="M476.5 540.5C478.101 546.711 478.768 553.044 478.5 559.5C476.69 568.817 471.357 575.317 462.5 579C449.691 582.911 436.858 586.744 424 590.5C409.458 587.208 395.291 582.708 381.5 577C373.582 571.832 369.582 564.498 369.5 555C369.023 540.609 375.356 530.609 388.5 525C400.59 523.696 412.424 524.862 424 528.5C435.229 524.829 446.729 523.663 458.5 525C466.811 527.477 472.811 532.644 476.5 540.5Z" fill="#AA5A31"/>
<path opacity="0.01" fill-rule="evenodd" clip-rule="evenodd" d="M148.5 528.5C149.738 530.214 150.405 532.214 150.5 534.5C148.72 533.01 148.054 531.01 148.5 528.5Z" fill="#CDCDCD"/>
<path opacity="0.114" fill-rule="evenodd" clip-rule="evenodd" d="M150.5 534.5C151.338 534.842 151.672 535.508 151.5 536.5C149.302 536.591 148.969 535.925 150.5 534.5Z" fill="#B8B8B8"/>
<path opacity="0.098" fill-rule="evenodd" clip-rule="evenodd" d="M153.5 540.5C155.262 541.262 156.262 542.596 156.5 544.5C154.738 543.738 153.738 542.404 153.5 540.5Z" fill="#8F8F8F"/>
<path opacity="0.749" fill-rule="evenodd" clip-rule="evenodd" d="M156.5 544.5C159.167 545.167 160.833 546.833 161.5 549.5C159.5 548.167 157.833 546.5 156.5 544.5Z" fill="#5F5F5F"/>
<path fill-rule="evenodd" clip-rule="evenodd" d="M476.5 540.5C479.508 546.609 480.174 552.942 478.5 559.5C478.768 553.044 478.101 546.711 476.5 540.5Z" fill="#65361D"/>
<path fill-rule="evenodd" clip-rule="evenodd" d="M541.5 560.5C544.833 560.5 548.167 560.5 551.5 560.5C551.737 561.791 551.404 562.791 550.5 563.5C547.797 561.89 544.797 560.89 541.5 560.5Z" fill="#6E5C42"/>
<path opacity="0.047" fill-rule="evenodd" clip-rule="evenodd" d="M682.5 553.5C680.434 573.15 674.101 591.15 663.5 607.5C666.69 599.446 670.19 591.446 674 583.5C676.894 573.222 679.727 563.222 682.5 553.5Z" fill="#696969"/>
<path opacity="0.157" fill-rule="evenodd" clip-rule="evenodd" d="M165.5 552.5C166.117 552.611 166.617 552.944 167 553.5C169.046 566.97 172.713 579.97 178 592.5C184.271 604.714 190.771 616.714 197.5 628.5C184.892 611.957 175.392 593.623 169 573.5C166.863 566.651 165.697 559.651 165.5 552.5Z" fill="#929292"/>
<path fill-rule="evenodd" clip-rule="evenodd" d="M399.5 655.5C394.527 653.24 389.194 652.24 383.5 652.5C382.391 652.443 381.391 652.11 380.5 651.5C378.485 650.076 376.152 649.41 373.5 649.5C367.096 647.599 361.93 643.933 358 638.5C350.618 629.267 344.118 619.934 338.5 610.5C353.539 620.357 369.873 626.857 387.5 630C394.142 630.831 400.809 631.331 407.5 631.5C425.846 631.606 444.179 631.106 462.5 630C477.658 627.086 491.991 621.92 505.5 614.5C506.521 615.002 506.688 615.668 506 616.5C499.441 626.448 492.274 635.948 484.5 645C457.332 657.631 428.998 661.131 399.5 655.5Z" fill="#F9F9F9"/>
<path opacity="0.112" fill-rule="evenodd" clip-rule="evenodd" d="M197.5 628.5C201.237 632.302 204.237 636.635 206.5 641.5C202.763 637.698 199.763 633.365 197.5 628.5Z" fill="#828282"/>
<path opacity="0.016" fill-rule="evenodd" clip-rule="evenodd" d="M663.5 607.5C660.199 614.766 656.366 621.766 652 628.5C649.35 632.975 646.183 636.975 642.5 640.5C649.113 629.227 656.113 618.227 663.5 607.5Z" fill="#646464"/>
<path opacity="0.016" fill-rule="evenodd" clip-rule="evenodd" d="M210.5 646.5C212.262 647.262 213.262 648.596 213.5 650.5C211.738 649.738 210.738 648.404 210.5 646.5Z" fill="#808080"/>
<path fill-rule="evenodd" clip-rule="evenodd" d="M373.5 649.5C376.152 649.41 378.485 650.076 380.5 651.5C377.848 651.59 375.515 650.924 373.5 649.5Z" fill="#8B8B8B"/>
<path fill-rule="evenodd" clip-rule="evenodd" d="M415.5 662.5C423.656 663.657 431.99 663.823 440.5 663C443.457 662.721 446.123 661.887 448.5 660.5C459.574 658.385 470.574 656.218 481.5 654C468.023 669.064 451.69 679.564 432.5 685.5C426.824 685.666 421.157 685.499 415.5 685C412.647 683.57 409.647 682.737 406.5 682.5C392.201 675.886 380.201 666.22 370.5 653.5C371 653.167 371.5 652.833 372 652.5C385.869 658.309 400.369 661.642 415.5 662.5Z" fill="#F9F9F9"/>
<path fill-rule="evenodd" clip-rule="evenodd" d="M383.5 652.5C389.194 652.24 394.527 653.24 399.5 655.5C393.939 655.044 388.606 654.044 383.5 652.5Z" fill="#AEAEAE"/>
<path opacity="0.537" fill-rule="evenodd" clip-rule="evenodd" d="M213.5 650.5C216.645 653.46 219.312 656.793 221.5 660.5C217.874 657.905 215.208 654.572 213.5 650.5Z" fill="#7E7E7E"/>
<path fill-rule="evenodd" clip-rule="evenodd" d="M448.5 660.5C446.123 661.887 443.457 662.721 440.5 663C431.99 663.823 423.656 663.657 415.5 662.5C426.574 662.83 437.574 662.163 448.5 660.5Z" fill="#C4C4C4"/>
<path opacity="0.592" fill-rule="evenodd" clip-rule="evenodd" d="M221.5 660.5C224.19 662.193 226.19 664.527 227.5 667.5C224.781 665.781 222.781 663.447 221.5 660.5Z" fill="#767676"/>
<path opacity="0.047" fill-rule="evenodd" clip-rule="evenodd" d="M227.5 668.5C234.167 673.167 239.833 678.833 244.5 685.5C238.5 680.167 232.833 674.5 227.5 668.5Z" fill="#6B6B6B"/>
<path opacity="0.063" fill-rule="evenodd" clip-rule="evenodd" d="M616.5 672.5C615.5 674.167 614.167 675.5 612.5 676.5C613.031 674.456 614.198 672.789 616 671.5C616.399 671.728 616.565 672.062 616.5 672.5Z" fill="#5D5D5D"/>
<path fill-rule="evenodd" clip-rule="evenodd" d="M406.5 682.5C409.647 682.737 412.647 683.57 415.5 685C421.157 685.499 426.824 685.666 432.5 685.5C426.681 686.653 420.681 686.819 414.5 686C411.524 685.295 408.858 684.129 406.5 682.5Z" fill="#A3A3A3"/>
<path opacity="0.059" fill-rule="evenodd" clip-rule="evenodd" d="M609.5 679.5C606.105 683.898 602.105 687.564 597.5 690.5C600.895 686.102 604.895 682.436 609.5 679.5Z" fill="#636363"/>
<path opacity="0.596" fill-rule="evenodd" clip-rule="evenodd" d="M284.5 717.5C278.796 714.642 273.463 711.142 268.5 707C260.906 700.718 253.573 694.218 246.5 687.5C246.435 687.062 246.601 686.728 247 686.5C259.398 697.075 271.898 707.408 284.5 717.5Z" fill="#696969"/>
<path opacity="0.188" fill-rule="evenodd" clip-rule="evenodd" d="M289.5 721.5C288.128 720.488 286.795 719.488 285.5 718.5C287.725 717.668 289.058 718.668 289.5 721.5Z" fill="#6C6C6C"/>
<path opacity="0.024" fill-rule="evenodd" clip-rule="evenodd" d="M310.5 733.5C303.162 730.503 296.495 726.503 290.5 721.5C290.435 721.062 290.601 720.728 291 720.5C297.889 724.508 304.389 728.841 310.5 733.5Z" fill="#6C6C6C"/>
<path fill-rule="evenodd" clip-rule="evenodd" d="M387.5 727.5C390.152 727.41 392.485 728.076 394.5 729.5C391.848 729.59 389.515 728.924 387.5 727.5Z" fill="#856F4F"/>
<path opacity="0.341" fill-rule="evenodd" clip-rule="evenodd" d="M346.5 749.5C334.254 745.862 322.587 740.862 311.5 734.5C311.369 733.761 311.536 733.094 312 732.5C317.945 735.554 323.778 738.721 329.5 742C335.035 742.886 340.201 744.719 345 747.5C346.03 747.836 346.53 748.503 346.5 749.5Z" fill="#6F6F6F"/>
<path opacity="0.194" fill-rule="evenodd" clip-rule="evenodd" d="M587.5 699.5C563.728 720.064 537.061 736.064 507.5 747.5C507.414 746.504 507.748 745.671 508.5 745C517.763 741.041 527.096 737.041 536.5 733C554.242 722.807 571.242 711.64 587.5 699.5Z" fill="#3B3B3B"/>
<path fill-rule="evenodd" clip-rule="evenodd" d="M451.5 735.5C448.466 737.018 445.133 737.851 441.5 738C432.657 738.824 423.99 738.657 415.5 737.5C427.573 737.871 439.573 737.204 451.5 735.5Z" fill="#6D4932"/>
<path opacity="0.128" fill-rule="evenodd" clip-rule="evenodd" d="M382.5 759.5C370.625 757.281 358.958 754.281 347.5 750.5C347.62 749.414 348.287 748.747 349.5 748.5C359.907 752.269 370.574 755.102 381.5 757C382.252 757.671 382.586 758.504 382.5 759.5Z" fill="#606060"/>
<path fill-rule="evenodd" clip-rule="evenodd" d="M398.5 754.5C411.815 755.333 425.149 755.666 438.5 755.5C433.177 756.166 427.677 756.499 422 756.5C413.94 756.693 406.107 756.027 398.5 754.5Z" fill="#553827"/>
<path opacity="0.875" fill-rule="evenodd" clip-rule="evenodd" d="M384.5 759.5C387.304 758.362 390.304 758.195 393.5 759C394.056 759.383 394.389 759.883 394.5 760.5C391.098 760.658 387.764 760.324 384.5 759.5Z" fill="#464646"/>
</svg>
