<svg width="848" height="881" viewBox="0 0 848 881" fill="none" xmlns="http://www.w3.org/2000/svg">
<path opacity="0.985" fill-rule="evenodd" clip-rule="evenodd" d="M505.5 220.5C504.227 221.077 504.227 221.743 505.5 222.5C517.856 228.185 528.856 235.851 538.5 245.5C539.5 245.5 540.5 245.5 541.5 245.5C541.47 246.497 541.97 247.164 543 247.5C547.38 249.076 551.88 250.076 556.5 250.5C560.044 250.885 563.377 251.885 566.5 253.5C566.47 254.497 566.97 255.164 568 255.5C574.275 257.755 580.441 260.088 586.5 262.5C590.173 264 593.506 266 596.5 268.5C597.648 271.087 599.315 272.087 601.5 271.5C602.167 271.5 602.5 271.833 602.5 272.5C605.425 276.091 608.758 279.425 612.5 282.5C613.419 285.089 615.086 287.089 617.5 288.5C620.535 291.902 622.535 295.902 623.5 300.5C623.395 304.258 624.395 307.592 626.5 310.5C627.167 310.5 627.5 310.833 627.5 311.5C627.5 311.833 627.5 312.167 627.5 312.5C628.974 318.697 630.641 324.864 632.5 331C632.836 332.03 633.503 332.53 634.5 332.5C634.5 332.833 634.5 333.167 634.5 333.5C633.652 337.854 634.319 342.188 636.5 346.5C637.107 346.376 637.44 346.043 637.5 345.5C637.833 345.5 638.167 345.5 638.5 345.5C647.504 345.969 656.504 347.302 665.5 349.5C667.153 349.66 668.486 350.326 669.5 351.5C670.785 353.452 672.451 355.118 674.5 356.5C675.5 356.833 676.167 357.5 676.5 358.5C676.427 360.027 677.094 361.027 678.5 361.5C679.338 361.842 679.672 362.508 679.5 363.5C681.656 368.134 683.323 372.967 684.5 378C684.836 379.03 685.503 379.53 686.5 379.5C688.042 380.301 689.708 380.634 691.5 380.5C695.591 381.895 699.924 382.728 704.5 383C708.584 384.595 711.917 387.095 714.5 390.5C714.229 392.38 714.896 393.713 716.5 394.5C717.301 396.042 717.634 397.708 717.5 399.5C718.42 407.769 720.086 415.769 722.5 423.5C722.5 423.833 722.5 424.167 722.5 424.5C722.427 430.73 723.427 436.063 725.5 440.5C726.338 440.842 726.672 441.508 726.5 442.5C725.853 443.274 725.52 444.274 725.5 445.5C725.956 449.678 726.623 453.678 727.5 457.5C728.451 458.919 728.784 460.585 728.5 462.5C727.205 466.267 726.539 470.267 726.5 474.5C726.672 475.492 726.338 476.158 725.5 476.5C724.094 476.973 723.427 477.973 723.5 479.5C718.503 485.999 711.836 489.332 703.5 489.5C702.84 490.964 702.507 492.631 702.5 494.5C702.556 496.64 703.223 498.306 704.5 499.5C704.5 502.5 704.5 505.5 704.5 508.5C703.883 508.611 703.383 508.944 703 509.5C702.001 515.324 700.501 520.991 698.5 526.5C690.27 537.949 678.937 543.615 664.5 543.5C664.927 547.824 665.261 552.158 665.5 556.5C664.838 558.304 664.505 560.304 664.5 562.5C664.636 568.793 665.636 574.793 667.5 580.5C668.404 581.209 668.737 582.209 668.5 583.5C667.352 587.981 667.185 592.648 668 597.5C668.383 598.056 668.883 598.389 669.5 598.5C670.166 608.486 670.499 618.486 670.5 628.5C669.307 628.97 668.64 629.97 668.5 631.5C668.52 632.726 668.853 633.726 669.5 634.5C669.5 635.167 669.5 635.833 669.5 636.5C666.644 643.367 664.644 650.7 663.5 658.5C660.249 664.001 657.249 669.667 654.5 675.5C652.583 676.909 650.75 678.576 649 680.5C648.308 681.437 648.475 682.103 649.5 682.5C646.149 685.848 642.482 688.848 638.5 691.5C633.657 693.418 629.323 696.084 625.5 699.5C621.129 702.014 616.463 704.014 611.5 705.5C609.283 708.775 607.616 712.442 606.5 716.5C604.952 716.821 604.285 717.821 604.5 719.5C599.309 723.262 594.309 727.262 589.5 731.5C583.279 733.773 577.613 736.773 572.5 740.5C572.167 740.5 571.833 740.5 571.5 740.5C567.438 741.359 563.438 742.526 559.5 744C558.944 744.383 558.611 744.883 558.5 745.5C534.575 753.552 509.908 758.552 484.5 760.5C484.083 759.876 483.416 759.543 482.5 759.5C478.529 760.197 474.529 760.697 470.5 761C469.944 761.383 469.611 761.883 469.5 762.5C444.517 763.431 419.517 763.764 394.5 763.5C393.666 762.252 392.333 761.585 390.5 761.5C388.955 761.511 387.622 761.844 386.5 762.5C382.143 762.414 377.81 762.08 373.5 761.5C369.817 759.75 365.817 759.083 361.5 759.5C358.287 759.81 355.287 759.477 352.5 758.5C352.082 757.778 351.416 757.278 350.5 757C346.961 756.718 343.461 756.218 340 755.5C339.235 755.57 338.735 755.903 338.5 756.5C338.167 756.5 337.833 756.5 337.5 756.5C331.69 754.501 325.523 752.834 319 751.5C317.93 751.528 317.097 751.861 316.5 752.5C315.833 752.5 315.5 752.167 315.5 751.5C310.806 749.386 305.806 748.053 300.5 747.5C297.548 744.721 294.214 743.721 290.5 744.5C290.167 744.5 289.833 744.5 289.5 744.5C287.91 742.179 285.577 741.179 282.5 741.5C280.847 741.34 279.514 740.674 278.5 739.5C272.024 735.455 265.358 731.789 258.5 728.5C255.312 725.632 252.145 722.632 249 719.5C246.008 715.25 243.508 710.917 241.5 706.5C230.439 703.384 220.439 698.384 211.5 691.5C205.833 686.5 200.5 681.167 195.5 675.5C193.35 670.532 190.683 665.865 187.5 661.5C187.585 658.351 186.585 655.684 184.5 653.5C183.769 647.252 182.435 641.252 180.5 635.5C179.211 614.505 179.878 593.505 182.5 572.5C183.117 572.389 183.617 572.056 184 571.5C184.815 566.648 184.648 561.981 183.5 557.5C184.078 552.962 184.745 548.462 185.5 544C175.761 543.651 166.761 540.984 158.5 536C157.619 535.292 156.953 534.458 156.5 533.5C154.833 531.167 152.833 529.167 150.5 527.5C147.791 521.242 145.458 514.909 143.5 508.5C143.5 505.167 143.5 501.833 143.5 498.5C144.693 498.03 145.36 497.03 145.5 495.5C145.48 494.274 145.147 493.274 144.5 492.5C144.586 491.504 144.252 490.671 143.5 490C135.646 489.077 129.313 485.577 124.5 479.5C124.573 477.973 123.906 476.973 122.5 476.5C121.35 471.066 120.35 465.733 119.5 460.5C119.5 460.167 119.5 459.833 119.5 459.5C121.164 458.051 121.998 456.051 122 453.5C122.28 448.803 122.78 444.137 123.5 439.5C123.457 438.584 123.124 437.917 122.5 437.5C122.5 437.167 122.5 436.833 122.5 436.5C123.117 436.389 123.617 436.056 124 435.5C125.549 429.591 126.382 423.591 126.5 417.5C128.454 411.741 129.787 405.741 130.5 399.5C130.595 397.214 131.262 395.214 132.5 393.5C133.674 392.486 134.34 391.153 134.5 389.5C136.296 388.207 137.963 386.707 139.5 385C141.345 383.872 143.345 383.372 145.5 383.5C145.5 382.5 145.5 381.5 145.5 380.5C146.167 380.5 146.833 380.5 147.5 380.5C152.534 381.084 157.534 382.084 162.5 383.5C163.891 376.659 165.891 369.993 168.5 363.5C171.323 355.845 176.656 350.679 184.5 348C188.378 346.53 192.378 345.697 196.5 345.5C202.016 346.305 207.682 346.972 213.5 347.5C214.306 344.715 214.972 341.881 215.5 339C215.486 337.615 215.152 336.449 214.5 335.5C214.5 335.167 214.5 334.833 214.5 334.5C215.931 334.119 216.764 333.119 217 331.5C217.834 327.998 218.667 324.498 219.5 321C219.43 320.235 219.097 319.735 218.5 319.5C218.5 319.167 218.5 318.833 218.5 318.5C220.741 317.7 221.741 316.034 221.5 313.5C223.382 305.002 226.548 296.669 231 288.5C233 285.334 235.5 282.668 238.5 280.5C240.167 279.5 241.5 278.167 242.5 276.5C245.135 275.527 247.135 273.86 248.5 271.5C251.198 271.155 253.198 269.822 254.5 267.5C267.076 259.218 280.742 253.051 295.5 249C296.328 247.008 297.661 245.508 299.5 244.5C305.089 238.411 311.422 233.244 318.5 229C317.906 228.536 317.239 228.369 316.5 228.5C305.189 208.996 294.022 189.329 283 169.5C281.299 157.363 286.465 150.03 298.5 147.5C300.5 148.167 302.5 148.833 304.5 149.5C308.364 147.411 312.364 147.077 316.5 148.5C324.706 140.603 333.373 139.936 342.5 146.5C348.177 141.865 354.344 140.865 361 143.5C365.53 140.309 370.196 139.975 375 142.5C378.544 137.646 383.377 135.312 389.5 135.5C396.147 135.406 401.313 138.073 405 143.5C408 142.167 411 142.167 414 143.5C417.365 137.566 422.531 134.899 429.5 135.5C435.587 135.294 440.42 137.627 444 142.5C448.783 140.016 453.45 140.35 458 143.5C464.768 140.856 470.768 142.189 476 147.5C481.576 141.484 488.076 140.317 495.5 144C497.723 145.733 500.056 147.233 502.5 148.5C506.604 147.251 510.604 147.584 514.5 149.5C524.266 146.719 531.433 150.052 536 159.5C536.667 162.833 536.667 166.167 536 169.5C526.039 186.112 515.873 203.112 505.5 220.5Z" fill="#0C0E0E"/>
<path fill-rule="evenodd" clip-rule="evenodd" d="M398.5 144.5C398.539 147.321 399.205 149.988 400.5 152.5C401.107 152.376 401.44 152.043 401.5 151.5C407.257 145.925 412.757 146.258 418 152.5C419.219 141.628 425.052 138.128 435.5 142C436.71 143.039 437.71 144.206 438.5 145.5C438.448 149.198 438.114 152.865 437.5 156.5C437.5 157.167 437.5 157.833 437.5 158.5C436.366 160.966 436.199 163.633 437 166.5C437.41 165.099 437.91 163.766 438.5 162.5C438.814 156.378 441.148 151.212 445.5 147C449.865 146.029 453.865 146.862 457.5 149.5C466.346 145.423 472.013 148.09 474.5 157.5C472.833 162.834 471.166 168.168 469.5 173.5C468.095 175.225 467.595 177.225 468 179.5C468.847 177.807 469.68 176.14 470.5 174.5C473.366 166.405 476.533 158.405 480 150.5C489.15 144.901 495.484 147.235 499 157.5C503.426 153.011 508.426 152.344 514 155.5C520.769 152.204 526.102 153.87 530 160.5C530.701 163.928 530.368 167.262 529 170.5C519.239 187.029 509.239 203.363 499 219.5C496.97 219.046 495.137 218.38 493.5 217.5C491.485 216.076 489.152 215.41 486.5 215.5C483.219 215.58 480.219 214.913 477.5 213.5C473.31 210.946 468.643 209.946 463.5 210.5C430.684 203.354 398.018 203.854 365.5 212C351.097 216.913 336.763 221.58 322.5 226C311 206.5 299.5 187 288 167.5C287.435 159.886 290.935 155.22 298.5 153.5C300.611 153.486 302.445 154.152 304 155.5C310.781 151.749 316.115 153.083 320 159.5C319.828 152.177 323.328 148.177 330.5 147.5C337.429 148.429 341.429 152.429 342.5 159.5C344.169 165.838 346.669 171.838 350 177.5C347.681 170.023 345.848 162.357 344.5 154.5C348.347 147.29 354.014 145.624 361.5 149.5C367.412 144.988 372.579 145.655 377 151.5C378.333 156.167 379.667 160.833 381 165.5C380.558 158.51 380.224 151.51 380 144.5C386.28 139.184 392.447 139.184 398.5 144.5Z" fill="#FB470C"/>
<path fill-rule="evenodd" clip-rule="evenodd" d="M398.5 144.5C399.651 146.779 400.651 149.112 401.5 151.5C401.44 152.043 401.107 152.376 400.5 152.5C399.205 149.988 398.539 147.321 398.5 144.5Z" fill="#892708"/>
<path fill-rule="evenodd" clip-rule="evenodd" d="M438.5 145.5C439.902 149.29 439.569 152.956 437.5 156.5C438.114 152.865 438.448 149.198 438.5 145.5Z" fill="#5D1B08"/>
<path fill-rule="evenodd" clip-rule="evenodd" d="M344.5 154.5C345.848 162.357 347.681 170.023 350 177.5C346.669 171.838 344.169 165.838 342.5 159.5C343.167 157.833 343.833 156.167 344.5 154.5Z" fill="#4D1807"/>
<path fill-rule="evenodd" clip-rule="evenodd" d="M437.5 158.5C437.232 160.099 437.566 161.432 438.5 162.5C437.91 163.766 437.41 165.099 437 166.5C436.199 163.633 436.366 160.966 437.5 158.5Z" fill="#541806"/>
<path fill-rule="evenodd" clip-rule="evenodd" d="M469.5 173.5C469.5 174.167 469.833 174.5 470.5 174.5C469.68 176.14 468.847 177.807 468 179.5C467.595 177.225 468.095 175.225 469.5 173.5Z" fill="#912808"/>
<path fill-rule="evenodd" clip-rule="evenodd" d="M463.5 210.5C468.643 209.946 473.31 210.946 477.5 213.5C472.609 212.99 467.942 211.99 463.5 210.5Z" fill="#AF330B"/>
<path fill-rule="evenodd" clip-rule="evenodd" d="M395.5 212.5C431.17 209.725 465.836 214.225 499.5 226C509.956 230.392 519.623 236.059 528.5 243C520.147 242.464 511.814 241.464 503.5 240C447.788 236.368 392.121 236.701 336.5 241C325.986 242.379 315.653 244.546 305.5 247.5C307.656 243.492 310.989 239.992 315.5 237C340.505 223.442 367.171 215.276 395.5 212.5Z" fill="#03697D"/>
<path fill-rule="evenodd" clip-rule="evenodd" d="M486.5 215.5C489.152 215.41 491.485 216.076 493.5 217.5C490.848 217.59 488.515 216.924 486.5 215.5Z" fill="#952A09"/>
<path opacity="0.596" fill-rule="evenodd" clip-rule="evenodd" d="M316.5 228.5C317.239 228.369 317.906 228.536 318.5 229C311.422 233.244 305.089 238.411 299.5 244.5C303.833 237.836 309.5 232.503 316.5 228.5Z" fill="#636363"/>
<path opacity="0.341" fill-rule="evenodd" clip-rule="evenodd" d="M505.5 220.5C513.432 224.469 521.099 228.969 528.5 234C532.439 237.429 535.772 241.263 538.5 245.5C528.856 235.851 517.856 228.185 505.5 222.5C504.227 221.743 504.227 221.077 505.5 220.5Z" fill="#595959"/>
<path fill-rule="evenodd" clip-rule="evenodd" d="M444.5 277.5C424.671 276.338 404.671 276.171 384.5 277C381.964 277.186 379.631 277.686 377.5 278.5C355.762 279.014 334.762 283.181 314.5 291C304.309 295.925 294.976 302.091 286.5 309.5C276.231 297.067 264.231 286.567 250.5 278C258.953 270.438 268.619 264.938 279.5 261.5C284.767 260.411 289.767 258.744 294.5 256.5C308.06 251.736 322.06 248.569 336.5 247C397.201 240.667 457.868 241 518.5 248C535.946 250.738 552.946 255.071 569.5 261C579.202 265.266 588.368 270.433 597 276.5C597.688 277.332 597.521 277.998 596.5 278.5C583.145 286.023 571.812 295.856 562.5 308C561.5 308.667 560.5 308.667 559.5 308C555.196 303.851 550.53 300.184 545.5 297C527.115 288.236 507.782 282.569 487.5 280C473.241 277.983 458.908 277.15 444.5 277.5Z" fill="#A0F1ED"/>
<path opacity="0.502" fill-rule="evenodd" clip-rule="evenodd" d="M541.5 245.5C546.643 246.992 551.643 248.659 556.5 250.5C551.88 250.076 547.38 249.076 543 247.5C541.97 247.164 541.47 246.497 541.5 245.5Z" fill="#454545"/>
<path fill-rule="evenodd" clip-rule="evenodd" d="M294.5 256.5C289.767 258.744 284.767 260.411 279.5 261.5C284.085 258.86 289.085 257.194 294.5 256.5Z" fill="#79B2AD"/>
<path opacity="0.71" fill-rule="evenodd" clip-rule="evenodd" d="M566.5 253.5C573.71 255.441 580.376 258.441 586.5 262.5C580.441 260.088 574.275 257.755 568 255.5C566.97 255.164 566.47 254.497 566.5 253.5Z" fill="#4B4B4B"/>
<path opacity="0.078" fill-rule="evenodd" clip-rule="evenodd" d="M596.5 268.5C598.411 269.075 600.078 270.075 601.5 271.5C599.315 272.087 597.648 271.087 596.5 268.5Z" fill="#5E5E5E"/>
<path opacity="0.537" fill-rule="evenodd" clip-rule="evenodd" d="M254.5 267.5C253.198 269.822 251.198 271.155 248.5 271.5C250.147 269.674 252.147 268.34 254.5 267.5Z" fill="#5A5A5A"/>
<path opacity="0.376" fill-rule="evenodd" clip-rule="evenodd" d="M248.5 271.5C247.135 273.86 245.135 275.527 242.5 276.5C243.911 274.086 245.911 272.419 248.5 271.5Z" fill="#5F5F5F"/>
<path fill-rule="evenodd" clip-rule="evenodd" d="M444.5 277.5C422.152 277.27 399.819 277.604 377.5 278.5C379.631 277.686 381.964 277.186 384.5 277C404.671 276.171 424.671 276.338 444.5 277.5Z" fill="#55817E"/>
<path opacity="0.231" fill-rule="evenodd" clip-rule="evenodd" d="M242.5 276.5C241.5 278.167 240.167 279.5 238.5 280.5C238.833 278.167 240.167 276.833 242.5 276.5Z" fill="#B3B3B3"/>
<path opacity="0.431" fill-rule="evenodd" clip-rule="evenodd" d="M602.5 272.5C606.855 274.855 610.188 278.188 612.5 282.5C608.758 279.425 605.425 276.091 602.5 272.5Z" fill="#545454"/>
<path fill-rule="evenodd" clip-rule="evenodd" d="M350.5 623.5C340.702 621.911 330.702 620.911 320.5 620.5C299.411 621.281 280.911 614.948 265 601.5C257.613 592.777 252.946 582.777 251 571.5C252.473 493.908 261.473 417.242 278 341.5C281.381 323.216 291.214 309.716 307.5 301C335.999 288.577 365.999 282.577 397.5 283C424.868 282.164 452.201 282.831 479.5 285C505.76 286.219 529.76 293.886 551.5 308C558.161 313.162 562.995 319.662 566 327.5C572.58 348.485 577.58 369.819 581 391.5C589.177 445.402 595.011 499.569 598.5 554C600.28 593.223 581.614 614.89 542.5 619C478.629 625.762 414.629 627.262 350.5 623.5Z" fill="#046A7E"/>
<path opacity="0.047" fill-rule="evenodd" clip-rule="evenodd" d="M612.5 282.5C614.914 283.911 616.581 285.911 617.5 288.5C615.086 287.089 613.419 285.089 612.5 282.5Z" fill="#7F7F7F"/>
<path fill-rule="evenodd" clip-rule="evenodd" d="M642.5 416.5C642.765 423.736 643.765 430.736 645.5 437.5C648.153 456.784 650.486 476.117 652.5 495.5C653.106 506.061 654.439 516.395 656.5 526.5C657.383 531.103 657.717 535.77 657.5 540.5C657.523 546.712 658.19 552.712 659.5 558.5C662.992 584.391 664.159 610.391 663 636.5C660.417 652.498 653.917 666.665 643.5 679C633.601 664.355 623.435 649.522 613 634.5C604.646 624.98 596.479 615.313 588.5 605.5C594.314 598.203 598.814 590.203 602 581.5C604.378 568.264 605.044 554.93 604 541.5C599.933 487.902 593.6 434.568 585 381.5C581.371 360.397 576.038 339.731 569 319.5C567.702 317.735 566.536 315.901 565.5 314C575.149 300.189 587.482 289.356 602.5 281.5C608.252 286.752 613.085 292.752 617 299.5C624.774 321.707 630.774 344.374 635 367.5C638.106 383.74 640.606 400.073 642.5 416.5Z" fill="#A1F2EE"/>
<path fill-rule="evenodd" clip-rule="evenodd" d="M250.5 484.5C249.004 490.605 248.337 496.938 248.5 503.5C245.745 525.416 244.579 547.416 245 569.5C246.618 582.526 251.451 594.193 259.5 604.5C238.817 626.874 220.817 651.208 205.5 677.5C195.619 666.422 189.452 653.422 187 638.5C186.098 618.455 186.598 598.455 188.5 578.5C190.057 572.739 190.724 566.739 190.5 560.5C190.726 551.465 191.393 542.465 192.5 533.5C194.078 528.417 194.745 523.084 194.5 517.5C194.784 507.287 195.784 497.287 197.5 487.5C199.078 482.417 199.745 477.084 199.5 471.5C203.971 427.456 210.804 383.789 220 340.5C222.842 326.817 226.842 313.483 232 300.5C235.185 293.486 239.685 287.486 245.5 282.5C260.64 290.304 272.974 301.304 282.5 315.5C278.807 321.4 275.973 327.733 274 334.5C262.221 383.894 254.387 433.894 250.5 484.5Z" fill="#A1F2EE"/>
<path opacity="0.953" fill-rule="evenodd" clip-rule="evenodd" d="M623.5 300.5C625.02 302.89 626.02 305.557 626.5 308.5C626.5 309.167 626.5 309.833 626.5 310.5C624.395 307.592 623.395 304.258 623.5 300.5Z" fill="#585858"/>
<path opacity="0.01" fill-rule="evenodd" clip-rule="evenodd" d="M626.5 308.5C628.382 309.221 628.715 310.221 627.5 311.5C627.5 310.833 627.167 310.5 626.5 310.5C626.5 309.833 626.5 309.167 626.5 308.5Z" fill="#EDEDED"/>
<path fill-rule="evenodd" clip-rule="evenodd" d="M595.5 311.5C608.183 310.674 613.017 316.341 610 328.5C604.553 334.29 598.553 334.957 592 330.5C586.686 322.905 587.853 316.572 595.5 311.5Z" fill="#1E2423"/>
<path fill-rule="evenodd" clip-rule="evenodd" d="M595.5 313.5C605.253 311.923 609.753 315.923 609 325.5C604.825 332.275 599.492 333.275 593 328.5C590.387 322.801 591.22 317.801 595.5 313.5Z" fill="#F5F5F5"/>
<path opacity="0.161" fill-rule="evenodd" clip-rule="evenodd" d="M221.5 313.5C221.741 316.034 220.741 317.7 218.5 318.5C219.11 316.566 220.11 314.899 221.5 313.5Z" fill="#959595"/>
<path fill-rule="evenodd" clip-rule="evenodd" d="M243.5 311.5C256.183 310.674 261.017 316.341 258 328.5C254.212 333.153 249.378 334.653 243.5 333C237.957 329.223 236.123 324.056 238 317.5C239.36 314.977 241.193 312.977 243.5 311.5Z" fill="#1D2221"/>
<path fill-rule="evenodd" clip-rule="evenodd" d="M243.5 313.5C253.654 311.496 258.154 315.496 257 325.5C252.825 332.275 247.492 333.275 241 328.5C238.387 322.801 239.22 317.801 243.5 313.5Z" fill="#F4F4F4"/>
<path opacity="0.055" fill-rule="evenodd" clip-rule="evenodd" d="M627.5 312.5C628.79 313.058 629.623 314.058 630 315.5C631.568 321.186 633.068 326.853 634.5 332.5C633.503 332.53 632.836 332.03 632.5 331C630.641 324.864 628.974 318.697 627.5 312.5Z" fill="#7E7E7E"/>
<path opacity="0.031" fill-rule="evenodd" clip-rule="evenodd" d="M218.5 319.5C219.097 319.735 219.43 320.235 219.5 321C218.667 324.498 217.834 327.998 217 331.5C216.764 333.119 215.931 334.119 214.5 334.5C215.583 329.411 216.916 324.411 218.5 319.5Z" fill="#929292"/>
<path opacity="0.076" fill-rule="evenodd" clip-rule="evenodd" d="M214.5 335.5C215.152 336.449 215.486 337.615 215.5 339C214.972 341.881 214.306 344.715 213.5 347.5C207.682 346.972 202.016 346.305 196.5 345.5C201.774 344.422 207.107 344.422 212.5 345.5C212.788 342.061 213.454 338.728 214.5 335.5Z" fill="#4B4B4B"/>
<path opacity="0.294" fill-rule="evenodd" clip-rule="evenodd" d="M634.5 333.5C635.5 337.5 636.5 341.5 637.5 345.5C637.44 346.043 637.107 346.376 636.5 346.5C634.319 342.188 633.652 337.854 634.5 333.5Z" fill="#696969"/>
<path opacity="0.082" fill-rule="evenodd" clip-rule="evenodd" d="M665.5 349.5C656.504 347.302 647.504 345.969 638.5 345.5C644.492 344.366 650.492 344.532 656.5 346C659.865 346.505 662.865 347.672 665.5 349.5Z" fill="#585858"/>
<path fill-rule="evenodd" clip-rule="evenodd" d="M195.5 459.5C194.028 463.919 193.362 468.586 193.5 473.5C193.167 476.167 192.833 478.833 192.5 481.5C191.187 487.959 190.521 494.626 190.5 501.5C188.611 513.061 187.278 524.728 186.5 536.5C168.092 538.056 156.259 530.056 151 512.5C150.333 504.167 150.333 495.833 151 487.5C155.687 453.066 161.02 418.733 167 384.5C169.122 375.462 172.788 367.128 178 359.5C188.322 351.43 199.489 349.597 211.5 354C208.971 365.105 206.804 376.272 205 387.5C200.947 411.372 197.78 435.372 195.5 459.5Z" fill="#8CD7CF"/>
<path fill-rule="evenodd" clip-rule="evenodd" d="M657.5 485.5C657.624 479.931 656.957 474.598 655.5 469.5C655.5 468.5 655.5 467.5 655.5 466.5C655.136 459.936 654.136 453.603 652.5 447.5C651.844 437.114 650.677 426.781 649 416.5C645.674 394.71 641.841 373.043 637.5 351.5C649.114 350.437 659.781 352.937 669.5 359C675.71 367.926 679.877 377.759 682 388.5C687.57 420.726 692.57 453.059 697 485.5C697.667 495.167 697.667 504.833 697 514.5C695.402 519.532 692.902 524.032 689.5 528C681.454 533.907 672.621 536.74 663 536.5C661.919 519.271 660.085 502.271 657.5 485.5Z" fill="#8CD6CE"/>
<path opacity="0.6" fill-rule="evenodd" clip-rule="evenodd" d="M669.5 351.5C672.189 352.189 673.856 353.856 674.5 356.5C672.451 355.118 670.785 353.452 669.5 351.5Z" fill="#707070"/>
<path opacity="0.561" fill-rule="evenodd" clip-rule="evenodd" d="M676.5 358.5C677.906 358.973 678.573 359.973 678.5 361.5C677.094 361.027 676.427 360.027 676.5 358.5Z" fill="#919191"/>
<path fill-rule="evenodd" clip-rule="evenodd" d="M337.5 359.5C356.195 360.101 368.028 369.434 373 387.5C377.443 403.711 375.443 419.044 367 433.5C357.095 447.471 344.261 451.304 328.5 445C314.642 433.973 307.975 419.473 308.5 401.5C308.927 386.817 314.593 374.65 325.5 365C329.317 362.562 333.317 360.728 337.5 359.5Z" fill="#090E0F"/>
<path fill-rule="evenodd" clip-rule="evenodd" d="M476.5 362.5C494.113 361.254 505.28 369.254 510 386.5C514.249 408.383 507.749 426.217 490.5 440C472.842 447.423 460.342 442.256 453 424.5C446.517 403.55 450.684 385.05 465.5 369C469.061 366.547 472.728 364.381 476.5 362.5Z" fill="#090F10"/>
<path fill-rule="evenodd" clip-rule="evenodd" d="M348.5 367.5C344.158 367.739 339.824 368.073 335.5 368.5C337.848 367.048 340.514 366.382 343.5 366.5C345.369 366.507 347.036 366.84 348.5 367.5Z" fill="#A0ADAF"/>
<path opacity="0.994" fill-rule="evenodd" clip-rule="evenodd" d="M348.5 367.5C361.271 372.453 368.771 381.786 371 395.5C374.697 414.869 368.863 430.369 353.5 442C341.179 446.738 331.012 443.905 323 433.5C313.138 417.876 311.804 401.543 319 384.5C322.982 377.473 328.482 372.14 335.5 368.5C339.824 368.073 344.158 367.739 348.5 367.5Z" fill="#F8F9F9"/>
<path opacity="0.224" fill-rule="evenodd" clip-rule="evenodd" d="M168.5 363.5C165.891 369.993 163.891 376.659 162.5 383.5C157.534 382.084 152.534 381.084 147.5 380.5C151.902 380.228 156.235 380.561 160.5 381.5C162.097 377.21 163.597 372.876 165 368.5C165.697 366.416 166.864 364.749 168.5 363.5Z" fill="#898989"/>
<path opacity="0.997" fill-rule="evenodd" clip-rule="evenodd" d="M477.5 370.5C490.558 369.364 499.391 375.03 504 387.5C508.387 404.913 504.887 420.413 493.5 434C475.095 446.392 462.595 441.892 456 420.5C453.157 404.059 456.991 389.559 467.5 377C470.491 374.152 473.824 371.985 477.5 370.5Z" fill="#F5F6F6"/>
<path opacity="0.051" fill-rule="evenodd" clip-rule="evenodd" d="M679.5 363.5C681.136 364.749 682.303 366.416 683 368.5C684.674 372.021 685.84 375.687 686.5 379.5C685.503 379.53 684.836 379.03 684.5 378C683.323 372.967 681.656 368.134 679.5 363.5Z" fill="#9A9A9A"/>
<path opacity="0.616" fill-rule="evenodd" clip-rule="evenodd" d="M691.5 380.5C697.402 379.962 703.068 380.795 708.5 383C711.107 385.066 713.107 387.566 714.5 390.5C711.917 387.095 708.584 384.595 704.5 383C699.924 382.728 695.591 381.895 691.5 380.5Z" fill="#555555"/>
<path opacity="0.545" fill-rule="evenodd" clip-rule="evenodd" d="M145.5 380.5C145.5 381.5 145.5 382.5 145.5 383.5C143.345 383.372 141.345 383.872 139.5 385C137.963 386.707 136.296 388.207 134.5 389.5C136.642 384.696 140.308 381.696 145.5 380.5Z" fill="#4D4D4D"/>
<path fill-rule="evenodd" clip-rule="evenodd" d="M340.5 384.5C346.316 383.989 350.983 385.989 354.5 390.5C348.909 391.651 347.075 394.984 349 400.5C352.128 403.1 355.295 403.1 358.5 400.5C361.759 411.605 358.759 420.772 349.5 428C341.773 430.424 335.606 428.257 331 421.5C323.678 408.206 325.511 396.372 336.5 386C338.058 385.79 339.391 385.29 340.5 384.5Z" fill="#060707"/>
<path fill-rule="evenodd" clip-rule="evenodd" d="M493.5 401.5C494.477 404.287 494.81 407.287 494.5 410.5C492.223 418.277 487.057 422.61 479 423.5C471.402 422.569 467.069 418.236 466 410.5C464.455 399.107 468.621 390.607 478.5 385C483.989 384.077 488.322 385.91 491.5 390.5C488.059 391.607 486.059 393.94 485.5 397.5C486.9 401.534 489.567 402.867 493.5 401.5Z" fill="#050505"/>
<path fill-rule="evenodd" clip-rule="evenodd" d="M699.5 387.5C696.813 387.336 694.146 387.503 691.5 388C689.881 388.236 688.881 389.069 688.5 390.5C687.596 389.791 687.263 388.791 687.5 387.5C691.648 386.356 695.648 386.356 699.5 387.5Z" fill="#712108"/>
<path fill-rule="evenodd" clip-rule="evenodd" d="M155.5 413.5C154.351 413.791 153.684 414.624 153.5 416C150.379 430.681 148.712 445.514 148.5 460.5C147.372 468.116 146.705 475.783 146.5 483.5C129.9 481.896 123.233 472.896 126.5 456.5C128.104 452.1 128.771 447.434 128.5 442.5C130.294 428.031 132.794 413.698 136 399.5C137.516 394.609 140.35 390.776 144.5 388C149.861 387.391 155.195 387.558 160.5 388.5C159.471 397.084 157.804 405.417 155.5 413.5Z" fill="#F9470C"/>
<path fill-rule="evenodd" clip-rule="evenodd" d="M699.5 387.5C702.841 387.656 705.674 388.989 708 391.5C711.144 396.765 712.977 402.431 713.5 408.5C713.743 414.184 714.243 419.851 715 425.5C715.2 427.32 716.034 428.653 717.5 429.5C718.408 433.758 719.075 438.092 719.5 442.5C719.156 447.122 719.823 451.455 721.5 455.5C725.072 472.4 718.406 481.734 701.5 483.5C700.595 472.494 699.595 461.494 698.5 450.5C698.157 440.021 696.824 429.688 694.5 419.5C693.817 419.137 693.15 418.804 692.5 418.5C690.332 409.321 688.998 399.988 688.5 390.5C688.881 389.069 689.881 388.236 691.5 388C694.146 387.503 696.813 387.336 699.5 387.5Z" fill="#FA470C"/>
<path opacity="0.094" fill-rule="evenodd" clip-rule="evenodd" d="M134.5 389.5C134.34 391.153 133.674 392.486 132.5 393.5C132.229 391.62 132.896 390.287 134.5 389.5Z" fill="#B3B3B3"/>
<path opacity="0.094" fill-rule="evenodd" clip-rule="evenodd" d="M714.5 390.5C715.674 391.514 716.34 392.847 716.5 394.5C714.896 393.713 714.229 392.38 714.5 390.5Z" fill="#BCBCBC"/>
<path fill-rule="evenodd" clip-rule="evenodd" d="M493.5 401.5C493.56 400.957 493.893 400.624 494.5 400.5C495.806 403.98 495.806 407.313 494.5 410.5C494.81 407.287 494.477 404.287 493.5 401.5Z" fill="#929494"/>
<path opacity="0.384" fill-rule="evenodd" clip-rule="evenodd" d="M717.5 399.5C720.168 407.168 721.835 415.168 722.5 423.5C720.086 415.769 718.42 407.769 717.5 399.5Z" fill="#646464"/>
<path fill-rule="evenodd" clip-rule="evenodd" d="M155.5 413.5C154.043 429.423 151.709 445.089 148.5 460.5C148.712 445.514 150.379 430.681 153.5 416C153.684 414.624 154.351 413.791 155.5 413.5Z" fill="#D3400C"/>
<path opacity="0.306" fill-rule="evenodd" clip-rule="evenodd" d="M130.5 399.5C129.787 405.741 128.454 411.741 126.5 417.5C126.96 411.186 128.293 405.186 130.5 399.5Z" fill="#737373"/>
<path fill-rule="evenodd" clip-rule="evenodd" d="M692.5 418.5C693.15 418.804 693.817 419.137 694.5 419.5C696.824 429.688 698.157 440.021 698.5 450.5C696.303 439.999 694.303 429.332 692.5 418.5Z" fill="#D43F0C"/>
<path fill-rule="evenodd" clip-rule="evenodd" d="M713.5 408.5C715.354 415.276 716.688 422.276 717.5 429.5C716.034 428.653 715.2 427.32 715 425.5C714.243 419.851 713.743 414.184 713.5 408.5Z" fill="#CD3C0C"/>
<path fill-rule="evenodd" clip-rule="evenodd" d="M642.5 416.5C644.453 423.234 645.453 430.234 645.5 437.5C643.765 430.736 642.765 423.736 642.5 416.5Z" fill="#71A7A3"/>
<path opacity="0.529" fill-rule="evenodd" clip-rule="evenodd" d="M126.5 417.5C126.382 423.591 125.549 429.591 124 435.5C123.617 436.056 123.117 436.389 122.5 436.5C123.855 430.051 125.189 423.717 126.5 417.5Z" fill="#606060"/>
<path opacity="0.871" fill-rule="evenodd" clip-rule="evenodd" d="M722.5 424.5C724.129 429.591 725.129 434.924 725.5 440.5C723.427 436.063 722.427 430.73 722.5 424.5Z" fill="#575757"/>
<path fill-rule="evenodd" clip-rule="evenodd" d="M128.5 442.5C128.771 447.434 128.104 452.1 126.5 456.5C126.69 451.63 127.356 446.964 128.5 442.5Z" fill="#A9330A"/>
<path fill-rule="evenodd" clip-rule="evenodd" d="M719.5 442.5C720.709 446.618 721.376 450.951 721.5 455.5C719.823 451.455 719.156 447.122 719.5 442.5Z" fill="#9F2F0A"/>
<path opacity="0.961" fill-rule="evenodd" clip-rule="evenodd" d="M122.5 437.5C123.124 437.917 123.457 438.584 123.5 439.5C122.78 444.137 122.28 448.803 122 453.5C121.998 456.051 121.164 458.051 119.5 459.5C120.355 452.138 121.355 444.805 122.5 437.5Z" fill="#484848"/>
<path fill-rule="evenodd" clip-rule="evenodd" d="M652.5 447.5C654.136 453.603 655.136 459.936 655.5 466.5C653.492 460.457 652.492 454.124 652.5 447.5Z" fill="#2B423F"/>
<path opacity="0.506" fill-rule="evenodd" clip-rule="evenodd" d="M726.5 442.5C726.802 447.091 727.469 451.591 728.5 456C727.944 456.383 727.611 456.883 727.5 457.5C726.623 453.678 725.956 449.678 725.5 445.5C725.52 444.274 725.853 443.274 726.5 442.5Z" fill="#727272"/>
<path opacity="0.847" fill-rule="evenodd" clip-rule="evenodd" d="M728.5 462.5C728.917 466.817 728.25 470.817 726.5 474.5C726.539 470.267 727.205 466.267 728.5 462.5Z" fill="#4E4E4E"/>
<path opacity="0.231" fill-rule="evenodd" clip-rule="evenodd" d="M119.5 460.5C120.35 465.733 121.35 471.066 122.5 476.5C121.207 475.158 120.374 473.491 120 471.5C119.501 467.848 119.335 464.182 119.5 460.5Z" fill="#666666"/>
<path fill-rule="evenodd" clip-rule="evenodd" d="M195.5 459.5C195.638 464.414 194.972 469.081 193.5 473.5C193.362 468.586 194.028 463.919 195.5 459.5Z" fill="#2D4542"/>
<path fill-rule="evenodd" clip-rule="evenodd" d="M655.5 469.5C656.957 474.598 657.624 479.931 657.5 485.5C656.194 480.384 655.527 475.051 655.5 469.5Z" fill="#304946"/>
<path opacity="0.055" fill-rule="evenodd" clip-rule="evenodd" d="M725.5 476.5C725.573 478.027 724.906 479.027 723.5 479.5C723.427 477.973 724.094 476.973 725.5 476.5Z" fill="#7C7C7C"/>
<path opacity="0.188" fill-rule="evenodd" clip-rule="evenodd" d="M122.5 476.5C123.906 476.973 124.573 477.973 124.5 479.5C123.094 479.027 122.427 478.027 122.5 476.5Z" fill="#858585"/>
<path fill-rule="evenodd" clip-rule="evenodd" d="M199.5 471.5C199.745 477.084 199.078 482.417 197.5 487.5C197.376 481.931 198.043 476.598 199.5 471.5Z" fill="#61928E"/>
<path fill-rule="evenodd" clip-rule="evenodd" d="M192.5 481.5C192.603 488.386 191.936 495.053 190.5 501.5C190.521 494.626 191.187 487.959 192.5 481.5Z" fill="#314B48"/>
<path opacity="0.086" fill-rule="evenodd" clip-rule="evenodd" d="M144.5 492.5C145.147 493.274 145.48 494.274 145.5 495.5C145.36 497.03 144.693 498.03 143.5 498.5C143.325 496.379 143.659 494.379 144.5 492.5Z" fill="#797979"/>
<path opacity="0.812" fill-rule="evenodd" clip-rule="evenodd" d="M703.5 489.5C704.207 492.786 704.54 496.119 704.5 499.5C703.223 498.306 702.556 496.64 702.5 494.5C702.507 492.631 702.84 490.964 703.5 489.5Z" fill="#4D4D4D"/>
<path fill-rule="evenodd" clip-rule="evenodd" d="M250.5 484.5C250.663 491.062 249.996 497.395 248.5 503.5C248.337 496.938 249.004 490.605 250.5 484.5Z" fill="#375351"/>
<path opacity="0.216" fill-rule="evenodd" clip-rule="evenodd" d="M143.5 508.5C145.458 514.909 147.791 521.242 150.5 527.5C147.676 525.2 145.843 522.2 145 518.5C144.39 515.173 143.89 511.839 143.5 508.5Z" fill="#6F6F6F"/>
<path opacity="0.075" fill-rule="evenodd" clip-rule="evenodd" d="M704.5 508.5C704.615 515.333 702.615 521.333 698.5 526.5C700.501 520.991 702.001 515.324 703 509.5C703.383 508.944 703.883 508.611 704.5 508.5Z" fill="#686868"/>
<path fill-rule="evenodd" clip-rule="evenodd" d="M652.5 495.5C654.719 505.584 656.053 515.918 656.5 526.5C654.439 516.395 653.106 506.061 652.5 495.5Z" fill="#5B8885"/>
<path fill-rule="evenodd" clip-rule="evenodd" d="M478.5 520.5C482.138 519.737 483.638 521.07 483 524.5C474.498 541.339 463.665 556.506 450.5 570C444.64 574.763 438.307 578.763 431.5 582C422.24 584.472 413.24 583.805 404.5 580C383.154 566.654 365.821 549.321 352.5 528C352.725 526.379 353.558 525.212 355 524.5C369.36 534.008 385.193 539.008 402.5 539.5C417.165 538.261 431.832 537.094 446.5 536C458.473 533.178 469.14 528.011 478.5 520.5Z" fill="#141616"/>
<path opacity="0.024" fill-rule="evenodd" clip-rule="evenodd" d="M150.5 527.5C152.833 529.167 154.833 531.167 156.5 533.5C153.5 532.5 151.5 530.5 150.5 527.5Z" fill="#727272"/>
<path fill-rule="evenodd" clip-rule="evenodd" d="M476.5 526.5C477.043 526.56 477.376 526.893 477.5 527.5C473.368 535.602 468.368 543.102 462.5 550C443.895 559.387 424.228 562.72 403.5 560C394.413 559.709 385.747 557.709 377.5 554C370.031 546.902 363.864 539.069 359 530.5C376.001 541.142 394.501 544.976 414.5 542C437.271 544.224 457.938 539.057 476.5 526.5Z" fill="#F9F9F9"/>
<path fill-rule="evenodd" clip-rule="evenodd" d="M194.5 517.5C194.745 523.084 194.078 528.417 192.5 533.5C192.376 527.931 193.043 522.598 194.5 517.5Z" fill="#5A8582"/>
<path fill-rule="evenodd" clip-rule="evenodd" d="M657.5 540.5C658.946 546.274 659.612 552.274 659.5 558.5C658.19 552.712 657.523 546.712 657.5 540.5Z" fill="#598583"/>
<path fill-rule="evenodd" clip-rule="evenodd" d="M427.5 580.5C420.711 580.799 414.044 580.132 407.5 578.5C398.9 573.945 391.067 568.278 384 561.5C383.312 560.668 383.479 560.002 384.5 559.5C410.067 567.02 435.234 565.687 460 555.5C460.5 555.667 461 555.833 461.5 556C452.203 567.15 440.87 575.317 427.5 580.5Z" fill="#F7F7F7"/>
<path opacity="0.675" fill-rule="evenodd" clip-rule="evenodd" d="M183.5 557.5C184.648 561.981 184.815 566.648 184 571.5C183.617 572.056 183.117 572.389 182.5 572.5C183.164 567.527 183.497 562.527 183.5 557.5Z" fill="#595959"/>
<path fill-rule="evenodd" clip-rule="evenodd" d="M552.5 571.5C555.68 571.176 556.847 572.51 556 575.5C550.184 585.089 541.851 589.089 531 587.5C530.833 587.167 530.667 586.833 530.5 586.5C541.263 586.457 548.597 581.457 552.5 571.5Z" fill="#051315"/>
<path opacity="0.858" fill-rule="evenodd" clip-rule="evenodd" d="M665.5 556.5C666.694 564.445 667.361 572.445 667.5 580.5C665.636 574.793 664.636 568.793 664.5 562.5C664.505 560.304 664.838 558.304 665.5 556.5Z" fill="#353535"/>
<path fill-rule="evenodd" clip-rule="evenodd" d="M190.5 560.5C190.724 566.739 190.057 572.739 188.5 578.5C188.523 572.288 189.19 566.288 190.5 560.5Z" fill="#649693"/>
<path fill-rule="evenodd" clip-rule="evenodd" d="M407.5 578.5C414.044 580.132 420.711 580.799 427.5 580.5C423.019 581.648 418.352 581.815 413.5 581C411.277 580.434 409.277 579.6 407.5 578.5Z" fill="#919191"/>
<path opacity="0.525" fill-rule="evenodd" clip-rule="evenodd" d="M668.5 583.5C668.413 588.537 668.746 593.537 669.5 598.5C668.883 598.389 668.383 598.056 668 597.5C667.185 592.648 667.352 587.981 668.5 583.5Z" fill="#5A5A5A"/>
<path fill-rule="evenodd" clip-rule="evenodd" d="M302.5 624.5C306.943 625.801 311.609 626.468 316.5 626.5C371.387 631.531 426.387 632.865 481.5 630.5C490.395 630.861 499.061 630.194 507.5 628.5C515.795 627.393 524.128 626.727 532.5 626.5C537.453 626.877 542.119 626.211 546.5 624.5C551.66 623.165 556.994 621.999 562.5 621C570.289 617.772 577.622 614.106 584.5 610C605.109 632.226 622.776 656.56 637.5 683C635.846 685.987 633.513 688.321 630.5 690C614.376 698.815 597.043 703.815 578.5 705C475.156 714.931 371.823 714.931 268.5 705C248.305 703.825 229.972 697.492 213.5 686C212.132 684.66 210.799 683.326 209.5 682C224.954 655.538 243.12 631.038 264 608.5C275.326 617.442 288.159 622.776 302.5 624.5Z" fill="#A1F3EF"/>
<path fill-rule="evenodd" clip-rule="evenodd" d="M320.5 620.5C330.702 620.911 340.702 621.911 350.5 623.5C340.267 623.41 330.267 622.41 320.5 620.5Z" fill="#03424F"/>
<path fill-rule="evenodd" clip-rule="evenodd" d="M302.5 624.5C307.434 624.229 312.1 624.896 316.5 626.5C311.609 626.468 306.943 625.801 302.5 624.5Z" fill="#4A706E"/>
<path fill-rule="evenodd" clip-rule="evenodd" d="M546.5 624.5C542.119 626.211 537.453 626.877 532.5 626.5C536.919 625.028 541.586 624.362 546.5 624.5Z" fill="#79B5B0"/>
<path fill-rule="evenodd" clip-rule="evenodd" d="M507.5 628.5C499.061 630.194 490.395 630.861 481.5 630.5C489.975 629.275 498.642 628.608 507.5 628.5Z" fill="#84C0BA"/>
<path opacity="0.635" fill-rule="evenodd" clip-rule="evenodd" d="M670.5 628.5C670.576 630.304 670.243 632.304 669.5 634.5C668.853 633.726 668.52 632.726 668.5 631.5C668.64 629.97 669.307 628.97 670.5 628.5Z" fill="#6A6A6A"/>
<path opacity="0.857" fill-rule="evenodd" clip-rule="evenodd" d="M669.5 636.5C668.726 644.271 666.726 651.604 663.5 658.5C664.644 650.7 666.644 643.367 669.5 636.5Z" fill="#474747"/>
<path opacity="0.259" fill-rule="evenodd" clip-rule="evenodd" d="M180.5 635.5C182.435 641.252 183.769 647.252 184.5 653.5C182.248 647.813 180.914 641.813 180.5 635.5Z" fill="#6D6D6D"/>
<path opacity="0.357" fill-rule="evenodd" clip-rule="evenodd" d="M184.5 653.5C186.585 655.684 187.585 658.351 187.5 661.5C185.98 659.11 184.98 656.443 184.5 653.5Z" fill="#717171"/>
<path opacity="0.376" fill-rule="evenodd" clip-rule="evenodd" d="M187.5 661.5C190.683 665.865 193.35 670.532 195.5 675.5C192.865 672.921 190.699 669.921 189 666.5C187.991 664.975 187.491 663.308 187.5 661.5Z" fill="#727272"/>
<path opacity="0.267" fill-rule="evenodd" clip-rule="evenodd" d="M663.5 658.5C661.79 664.924 658.79 670.591 654.5 675.5C657.249 669.667 660.249 664.001 663.5 658.5Z" fill="#848484"/>
<path opacity="0.184" fill-rule="evenodd" clip-rule="evenodd" d="M654.5 675.5C653.221 678.112 651.555 680.445 649.5 682.5C648.475 682.103 648.308 681.437 649 680.5C650.75 678.576 652.583 676.909 654.5 675.5Z" fill="#6A6A6A"/>
<path opacity="0.843" fill-rule="evenodd" clip-rule="evenodd" d="M195.5 675.5C200.5 681.167 205.833 686.5 211.5 691.5C204.5 687.833 199.167 682.5 195.5 675.5Z" fill="#575757"/>
<path opacity="0.039" fill-rule="evenodd" clip-rule="evenodd" d="M638.5 691.5C634.701 694.952 630.368 697.618 625.5 699.5C629.323 696.084 633.657 693.418 638.5 691.5Z" fill="#585858"/>
<path fill-rule="evenodd" clip-rule="evenodd" d="M249.5 707.5C303.473 715.603 357.806 719.269 412.5 718.5C476.434 718.763 540.101 715.263 603.5 708C601.006 713.505 597.339 718.172 592.5 722C587.833 725 583.167 728 578.5 731C539.438 746.184 498.771 754.518 456.5 756C405.802 759.244 355.802 754.911 306.5 743C292.293 738.695 278.627 733.028 265.5 726C260.871 723.095 256.704 719.595 253 715.5C251.007 713.182 249.841 710.516 249.5 707.5Z" fill="#036A7D"/>
<path opacity="0.376" fill-rule="evenodd" clip-rule="evenodd" d="M611.5 705.5C610.777 709.701 609.11 713.368 606.5 716.5C607.616 712.442 609.283 708.775 611.5 705.5Z" fill="#7E7E7E"/>
<path opacity="0.012" fill-rule="evenodd" clip-rule="evenodd" d="M606.5 716.5C606.573 718.027 605.906 719.027 604.5 719.5C604.285 717.821 604.952 716.821 606.5 716.5Z" fill="#848484"/>
<path opacity="0.024" fill-rule="evenodd" clip-rule="evenodd" d="M241.5 706.5C243.508 710.917 246.008 715.25 249 719.5C252.145 722.632 255.312 725.632 258.5 728.5C249.097 724.092 243.431 716.759 241.5 706.5Z" fill="#848484"/>
<path opacity="0.047" fill-rule="evenodd" clip-rule="evenodd" d="M604.5 719.5C600.659 725.014 595.659 729.014 589.5 731.5C594.309 727.262 599.309 723.262 604.5 719.5Z" fill="#646464"/>
<path opacity="0.278" fill-rule="evenodd" clip-rule="evenodd" d="M258.5 728.5C265.358 731.789 272.024 735.455 278.5 739.5C270.904 737.372 264.238 733.705 258.5 728.5Z" fill="#676767"/>
<path opacity="0.396" fill-rule="evenodd" clip-rule="evenodd" d="M589.5 731.5C584.316 735.26 578.65 738.26 572.5 740.5C577.613 736.773 583.279 733.773 589.5 731.5Z" fill="#444444"/>
<path opacity="0.478" fill-rule="evenodd" clip-rule="evenodd" d="M282.5 741.5C285.577 741.179 287.91 742.179 289.5 744.5C287.013 743.677 284.679 742.677 282.5 741.5Z" fill="#636363"/>
<path opacity="0.337" fill-rule="evenodd" clip-rule="evenodd" d="M571.5 740.5C567.556 742.964 563.223 744.63 558.5 745.5C558.611 744.883 558.944 744.383 559.5 744C563.438 742.526 567.438 741.359 571.5 740.5Z" fill="#464646"/>
<path opacity="0.706" fill-rule="evenodd" clip-rule="evenodd" d="M290.5 744.5C294.214 743.721 297.548 744.721 300.5 747.5C296.956 747.115 293.623 746.115 290.5 744.5Z" fill="#4A4A4A"/>
<path opacity="0.792" fill-rule="evenodd" clip-rule="evenodd" d="M300.5 747.5C305.806 748.053 310.806 749.386 315.5 751.5C310.191 750.924 305.191 749.591 300.5 747.5Z" fill="#5B5B5B"/>
<path opacity="0.706" fill-rule="evenodd" clip-rule="evenodd" d="M316.5 752.5C317.097 751.861 317.93 751.528 319 751.5C325.523 752.834 331.69 754.501 337.5 756.5C330.467 755.325 323.467 753.992 316.5 752.5Z" fill="#484848"/>
<path opacity="0.929" fill-rule="evenodd" clip-rule="evenodd" d="M338.5 756.5C338.735 755.903 339.235 755.57 340 755.5C343.461 756.218 346.961 756.718 350.5 757C351.416 757.278 352.082 757.778 352.5 758.5C347.703 758.477 343.036 757.811 338.5 756.5Z" fill="#444444"/>
<path opacity="0.337" fill-rule="evenodd" clip-rule="evenodd" d="M361.5 759.5C365.817 759.083 369.817 759.75 373.5 761.5C369.316 761.149 365.316 760.482 361.5 759.5Z" fill="#5D5D5D"/>
<path opacity="0.467" fill-rule="evenodd" clip-rule="evenodd" d="M386.5 762.5C387.622 761.844 388.955 761.511 390.5 761.5C392.333 761.585 393.666 762.252 394.5 763.5C391.794 763.425 389.127 763.092 386.5 762.5Z" fill="#5C5C5C"/>
<path opacity="0.082" fill-rule="evenodd" clip-rule="evenodd" d="M484.5 760.5C479.567 761.361 474.567 762.028 469.5 762.5C469.611 761.883 469.944 761.383 470.5 761C474.529 760.697 478.529 760.197 482.5 759.5C483.416 759.543 484.083 759.876 484.5 760.5Z" fill="#454545"/>
</svg>
