<svg width="140" height="28" fill="none" xmlns="http://www.w3.org/2000/svg"><path d="M120.571 18.657c.155 0 .274.076.358.229.096.152.143.362.143.628 0 .495-.113.89-.34 1.181-.572.737-1.151 1.308-1.736 1.715-.584.393-1.276.59-2.075.59-.776 0-1.438-.222-1.987-.667-.537-.444-1.05-1.206-1.539-2.285-.394-.864-.704-1.499-.931-1.905-.226-.42-.453-.718-.68-.895a1.506 1.506 0 00-.805-.324 220.05 220.05 0 00-.411 2.514 97.592 97.592 0 01-.179 1.162c-.12.775-.358 1.371-.716 1.79-.358.407-.901.61-1.629.61a3.318 3.318 0 01-2.129-.743c-.608-.508-1.08-1.206-1.414-2.095-.334-.902-.501-1.924-.501-3.067 0-2.133.346-3.974 1.038-5.524.704-1.549 1.682-2.73 2.935-3.542 1.264-.826 2.72-1.239 4.366-1.239 1.146 0 2.106.185 2.881.553.776.368 1.349.876 1.718 1.524.382.647.573 1.377.573 2.19a4.88 4.88 0 01-.483 2.095c-.31.673-.782 1.27-1.414 1.79-.632.521-1.402.909-2.309 1.163.573.165 1.014.431 1.325.8.31.368.62.908.931 1.619.333.762.662 1.32.983 1.676.335.355.716.533 1.146.533.382 0 .746-.133 1.092-.4.345-.279.781-.749 1.306-1.41.143-.177.304-.266.483-.266zm-12.062-1.752c-.405 0-.685-.102-.84-.305a1.157 1.157 0 01-.215-.686c0-.304.089-.546.268-.723a.922.922 0 01.644-.267h.448a107.8 107.8 0 01.537-3.22c.155-.825.656-1.237 1.503-1.237.68 0 1.02.323 1.02.971 0 .14-.006.248-.018.324l-.537 3.162a4.052 4.052 0 001.754-.495c.537-.293.96-.699 1.271-1.22.322-.52.483-1.11.483-1.77 0-.8-.257-1.43-.77-1.887-.513-.457-1.264-.685-2.255-.685-1.169 0-2.195.31-3.078.933-.871.61-1.55 1.524-2.04 2.743-.489 1.206-.733 2.68-.733 4.419 0 .813.077 1.511.232 2.095.155.584.346 1.022.573 1.314.227.293.441.439.644.439.155 0 .281-.083.376-.248.107-.165.191-.432.251-.8l.482-2.857zm19.888.152c.156 0 .275.083.358.248.084.165.126.374.126.628 0 .61-.173.972-.519 1.086a7.711 7.711 0 01-2.362.457c-.227 1.067-.675 1.924-1.343 2.572-.667.635-1.425.952-2.272.952-.716 0-1.33-.184-1.843-.552a3.498 3.498 0 01-1.146-1.467 4.964 4.964 0 01-.394-1.981c0-.965.174-1.822.52-2.571.345-.762.823-1.353 1.431-1.772a3.416 3.416 0 012.022-.648c.907 0 1.635.337 2.184 1.01.56.66.888 1.48.984 2.457.561-.038 1.229-.165 2.004-.38a.99.99 0 01.25-.039zm-5.869 3.924c.382 0 .71-.165.984-.495.286-.33.478-.807.573-1.429a2.66 2.66 0 01-.859-1.047 3.353 3.353 0 01-.287-1.372c0-.203.018-.406.054-.61h-.089c-.477 0-.877.248-1.199.743-.31.483-.466 1.169-.466 2.058 0 .698.126 1.231.376 1.6.263.368.567.552.913.552zm11.599-2.324c.155 0 .275.076.358.229.095.152.143.362.143.628 0 .508-.113.902-.34 1.181a7.827 7.827 0 01-1.682 1.657 3.392 3.392 0 01-2.04.648c-1.05 0-1.831-.508-2.344-1.524-.501-1.016-.752-2.33-.752-3.943 0-1.549.185-3.314.555-5.295.382-1.98.937-3.682 1.664-5.105.74-1.422 1.617-2.133 2.631-2.133.572 0 1.02.286 1.342.857.334.559.501 1.365.501 2.42 0 1.51-.394 3.263-1.181 5.256-.787 1.994-1.855 3.969-3.203 5.924.083.52.22.895.411 1.124a.956.956 0 00.752.324c.489 0 .918-.146 1.288-.438.37-.305.841-.82 1.414-1.543.143-.178.304-.267.483-.267zm-2.201-11.771c-.274 0-.584.527-.931 1.58-.346 1.055-.65 2.363-.912 3.925a30.257 30.257 0 00-.43 4.495 25.394 25.394 0 002.023-4.457c.501-1.499.751-2.864.751-4.096 0-.965-.167-1.447-.501-1.447zm6.427 13.333c.132-.127.263-.19.394-.19.143 0 .257.088.34.266.096.165.144.368.144.61 0 .533-.18.958-.537 1.276-.621.546-1.325.819-2.112.819-1.133 0-1.963-.502-2.488-1.505-.524-1.016-.787-2.336-.787-3.962 0-1.549.185-3.314.555-5.295.382-1.98.936-3.682 1.664-5.105.74-1.422 1.617-2.133 2.631-2.133.572 0 1.02.286 1.342.857.334.559.501 1.365.501 2.42 0 1.51-.394 3.263-1.181 5.256-.776 1.994-1.838 3.962-3.186 5.905.084.52.233.895.448 1.124.215.229.507.343.877.343.203 0 .429-.064.68-.19.262-.128.501-.293.715-.496zm-.59-13.333c-.275 0-.585.527-.931 1.58-.346 1.055-.65 2.363-.912 3.925a30.124 30.124 0 00-.43 4.495 25.394 25.394 0 002.023-4.457c.501-1.499.751-2.864.751-4.096 0-.965-.167-1.447-.501-1.447z" fill="#C4364E"/><path d="M32 5h6.942c2.408 0 4.417.906 6.027 2.718 1.61 1.794 2.416 3.997 2.416 6.609 0 2.594-.805 4.805-2.416 6.635-1.61 1.794-3.62 2.692-6.027 2.692H32V5zm2.365 16.309h4.577c1.814 0 3.298-.667 4.45-1.999 1.153-1.35 1.73-3.011 1.73-4.983 0-1.972-.577-3.633-1.73-4.983-1.152-1.333-2.636-1.999-4.45-1.999h-4.577v13.964zm24.556-3.918V10.33h2.213v13.324H58.92v-1.92C58.04 23.246 56.666 24 54.801 24c-1.491 0-2.686-.488-3.585-1.466-.898-.994-1.348-2.336-1.348-4.023V10.33h2.213v8.047c0 1.066.28 1.901.839 2.505.56.604 1.33.906 2.314.906 1.136 0 2.034-.364 2.695-1.092.662-.747.992-1.848.992-3.305zm7.793-7.061v2.238c.73-1.652 2.052-2.478 3.968-2.478v2.425c-1.085-.054-2.018.248-2.798.906-.78.657-1.17 1.714-1.17 3.17v7.063h-2.212V10.33h2.212zm15.966 2.29v-2.29h2.212v13.324H82.68v-2.292C81.594 23.12 79.992 24 77.873 24c-1.798 0-3.315-.675-4.553-2.025-1.254-1.368-1.881-3.03-1.881-4.983 0-1.937.627-3.589 1.882-4.957 1.254-1.368 2.771-2.052 4.552-2.052 2.119 0 3.72.88 4.806 2.638zm-4.527 9.14c1.289 0 2.365-.452 3.23-1.358.864-.942 1.297-2.079 1.297-3.411 0-1.35-.433-2.479-1.297-3.385-.865-.923-1.941-1.385-3.23-1.385-1.271 0-2.34.462-3.204 1.385-.865.906-1.297 2.034-1.297 3.385 0 1.332.432 2.469 1.297 3.41.865.907 1.933 1.36 3.204 1.36zm14.567-4.983L99 23.654h-2.746l-5.798-6.316v6.316h-2.213V5h2.213v11.219l5.492-5.89h2.849l-6.078 6.45zM2.24 0A2.24 2.24 0 000 2.243V24.67a2.24 2.24 0 002.24 2.242h15.68a2.24 2.24 0 002.24-2.242V2.243A2.24 2.24 0 0017.92 0H2.24zm19.89.76c.164.466.27.96.27 1.483V24.67a4.47 4.47 0 01-1.314 3.17l.829.132a2.243 2.243 0 002.564-1.866l3.493-22.15a2.242 2.242 0 00-1.862-2.567L22.13.76zM10.08 5.607c.23 0 .435.086.613.206l.052.013c1.988 1.62 6.055 5.635 6.055 8.19a3.922 3.922 0 01-3.92 3.926c-.904 0-1.724-.32-2.386-.835.575 1.537 1.483 2.484 2.596 3.117v.002a.56.56 0 01-.21 1.08h-5.6a.56.56 0 01-.21-1.08v-.002c1.113-.632 2.021-1.58 2.597-3.117a3.871 3.871 0 01-2.387.835 3.922 3.922 0 01-3.92-3.925c0-2.556 4.067-6.57 6.055-8.191l.053-.013a1.09 1.09 0 01.612-.206z" fill="#fff"/></svg>