<svg width="158" height="37" fill="none" xmlns="http://www.w3.org/2000/svg"><path d="M135.782 19.758c.176 0 .312.084.407.25.108.166.163.395.163.686 0 .54-.129.97-.387 1.29-.651.803-1.31 1.427-1.975 1.87-.664.43-1.452.646-2.361.646-.882 0-1.635-.243-2.259-.728-.611-.485-1.194-1.317-1.751-2.496-.447-.942-.8-1.636-1.058-2.08-.258-.457-.516-.783-.774-.977-.244-.194-.549-.312-.916-.353-.054.291-.21 1.206-.468 2.745a90.495 90.495 0 01-.203 1.268c-.136.846-.407 1.498-.814 1.955-.407.444-1.025.666-1.853.666-.909 0-1.716-.27-2.422-.811-.692-.555-1.228-1.317-1.608-2.288-.38-.984-.57-2.1-.57-3.348 0-2.329.394-4.34 1.181-6.03.8-1.692 1.913-2.981 3.338-3.868 1.438-.902 3.094-1.352 4.966-1.352 1.303 0 2.395.201 3.278.603.882.402 1.533.957 1.954 1.664.434.707.651 1.504.651 2.391 0 .776-.183 1.539-.55 2.287-.352.735-.888 1.387-1.608 1.955-.719.569-1.594.992-2.625 1.269.651.18 1.153.471 1.506.873s.706.991 1.059 1.768c.379.832.753 1.442 1.119 1.83.38.388.814.582 1.303.582.434 0 .848-.146 1.241-.437.394-.305.889-.818 1.486-1.539.163-.194.346-.29.55-.29zm-13.72-1.913c-.461 0-.78-.11-.956-.332a1.233 1.233 0 01-.244-.75c0-.332.101-.595.305-.79a1.07 1.07 0 01.733-.29h.509c.216-1.36.42-2.53.61-3.515.177-.901.747-1.352 1.71-1.352.774 0 1.16.354 1.16 1.06 0 .154-.006.271-.02.354l-.611 3.452a4.751 4.751 0 001.995-.54 3.657 3.657 0 001.445-1.331c.366-.569.55-1.213.55-1.934 0-.873-.292-1.56-.876-2.059-.583-.499-1.438-.748-2.564-.748-1.33 0-2.497.34-3.501 1.019-.991.665-1.764 1.663-2.321 2.994-.556 1.317-.834 2.925-.834 4.824 0 .888.088 1.65.265 2.288.176.638.393 1.116.651 1.435.258.319.502.478.732.478.177 0 .32-.09.428-.27.122-.18.217-.472.285-.874l.549-3.119zm22.622.167c.177 0 .312.09.407.27.095.18.142.409.142.686 0 .666-.196 1.06-.59 1.185-.814.292-1.71.458-2.687.5-.257 1.164-.767 2.1-1.526 2.807-.76.693-1.622 1.04-2.585 1.04-.814 0-1.513-.201-2.097-.604a3.843 3.843 0 01-1.303-1.6 5.23 5.23 0 01-.447-2.163c0-1.054.197-1.99.59-2.808.393-.831.936-1.476 1.628-1.934a3.997 3.997 0 012.3-.707c1.032 0 1.86.368 2.484 1.102.638.721 1.011 1.615 1.119 2.683.638-.042 1.398-.18 2.28-.416.108-.028.204-.041.285-.041zm-6.676 4.283c.434 0 .807-.18 1.119-.54.326-.36.543-.88.651-1.56a2.941 2.941 0 01-.977-1.144 3.538 3.538 0 01-.325-1.497c0-.222.02-.444.061-.665h-.102c-.543 0-.997.27-1.364.81-.352.527-.529 1.276-.529 2.246 0 .763.142 1.345.427 1.747.299.402.645.603 1.039.603zm13.193-2.537c.177 0 .312.084.407.25.109.166.163.395.163.686 0 .555-.129.984-.387 1.29a8.724 8.724 0 01-1.913 1.809c-.679.47-1.452.707-2.32.707-1.195 0-2.084-.555-2.667-1.664-.57-1.11-.855-2.544-.855-4.305 0-1.69.21-3.618.631-5.78.434-2.163 1.065-4.021 1.893-5.574.842-1.552 1.839-2.329 2.992-2.329.651 0 1.16.312 1.527.936.38.61.57 1.49.57 2.641 0 1.65-.448 3.563-1.344 5.74-.895 2.176-2.11 4.332-3.643 6.467.095.568.251.977.468 1.227.217.235.502.353.855.353.556 0 1.045-.16 1.465-.478.421-.333.957-.894 1.609-1.685.162-.194.345-.29.549-.29zm-2.504-12.851c-.312 0-.665.575-1.058 1.726-.394 1.15-.74 2.579-1.038 4.284a31.588 31.588 0 00-.489 4.907 27.166 27.166 0 002.301-4.866c.569-1.636.854-3.126.854-4.47 0-1.054-.19-1.581-.57-1.581zm7.311 14.556c.15-.138.299-.207.448-.207.163 0 .292.097.387.29.108.18.163.403.163.666 0 .582-.204 1.047-.611 1.393-.706.596-1.506.895-2.402.895-1.289 0-2.232-.548-2.829-1.643-.597-1.11-.896-2.551-.896-4.326 0-1.69.21-3.618.631-5.78.434-2.163 1.066-4.021 1.893-5.574.842-1.552 1.839-2.329 2.992-2.329.652 0 1.161.312 1.527.936.38.61.57 1.49.57 2.641 0 1.65-.448 3.563-1.344 5.74-.882 2.176-2.089 4.325-3.623 6.446.095.568.265.977.509 1.227.245.25.577.374.998.374.23 0 .488-.07.773-.208a3.21 3.21 0 00.814-.54zm-.671-14.556c-.313 0-.665.575-1.059 1.726-.394 1.15-.739 2.579-1.038 4.284a31.71 31.71 0 00-.489 4.907 27.166 27.166 0 002.301-4.866c.57-1.636.855-3.126.855-4.47 0-1.054-.191-1.581-.57-1.581z" fill="#C4364E"/><path d="M36.376 7.156h7.823c2.712 0 4.976.995 6.79 2.986 1.816 1.971 2.723 4.391 2.723 7.26 0 2.85-.907 5.28-2.722 7.29-1.815 1.97-4.079 2.956-6.791 2.956h-7.823V7.156zm2.665 17.916h5.158c2.044 0 3.715-.732 5.014-2.195 1.3-1.484 1.949-3.308 1.949-5.475 0-2.166-.65-3.99-1.949-5.474-1.299-1.464-2.97-2.196-5.014-2.196H39.04v15.34zm27.67-4.303V13.01h2.493v14.637h-2.492V25.54c-.994 1.659-2.541 2.488-4.643 2.488-1.68 0-3.028-.537-4.04-1.61-1.013-1.093-1.519-2.567-1.519-4.42V13.01h2.493v8.841c0 1.171.316 2.088.946 2.752.63.663 1.5.995 2.608.995 1.28 0 2.292-.4 3.037-1.2.745-.82 1.118-2.03 1.118-3.63zm8.782-7.758v2.46c.821-1.816 2.312-2.723 4.47-2.723v2.664c-1.222-.059-2.273.273-3.152.995s-1.318 1.883-1.318 3.484v7.757H73V13.011h2.493zm17.989 2.518V13.01h2.493v14.637h-2.493V25.13c-1.223 1.932-3.028 2.898-5.416 2.898-2.025 0-3.735-.742-5.13-2.225-1.413-1.503-2.12-3.327-2.12-5.474 0-2.128.707-3.943 2.12-5.445 1.414-1.503 3.124-2.255 5.13-2.255 2.388 0 4.193.966 5.416 2.899zm-5.1 10.04c1.451 0 2.664-.497 3.638-1.492.975-1.035 1.462-2.284 1.462-3.747 0-1.484-.487-2.723-1.462-3.718-.974-1.015-2.187-1.522-3.639-1.522-1.432 0-2.636.507-3.61 1.522-.974.995-1.462 2.234-1.462 3.718 0 1.463.488 2.713 1.462 3.747.974.995 2.178 1.493 3.61 1.493zm16.413-5.473l7.078 7.552h-3.095l-6.533-6.938v6.938h-2.493V7.156h2.493v12.325l6.19-6.47h3.209l-6.849 7.085zM2.483 1.626C1.111 1.626 0 2.763 0 4.166v25.402c0 1.404 1.111 2.54 2.483 2.54h17.385c1.372 0 2.483-1.136 2.483-2.54v-25.4c0-1.404-1.111-2.54-2.483-2.54H2.483zm22.05.861c.183.529.302 1.088.302 1.68v25.402c0 1.4-.558 2.672-1.458 3.591l.92.15c1.354.218 2.627-.729 2.842-2.114l3.873-25.09c.215-1.385-.71-2.688-2.064-2.907l-4.414-.712zm-13.357 5.49c.255 0 .481.097.679.233l.058.015c2.204 1.835 6.713 6.383 6.713 9.278 0 2.455-1.946 4.445-4.346 4.445a4.236 4.236 0 01-2.646-.945c.638 1.741 1.644 2.813 2.879 3.53v.002a.634.634 0 01.388.588c0 .35-.278.635-.621.635H8.07a.628.628 0 01-.62-.635c0-.267.16-.494.387-.588v-.002c1.235-.715 2.241-1.789 2.88-3.53a4.235 4.235 0 01-2.647.945c-2.4 0-4.346-1.99-4.346-4.445 0-2.895 4.51-7.443 6.713-9.278l.058-.015c.198-.136.424-.233.68-.233z" fill="#fff"/></svg>