<svg width="24" height="18" fill="none" xmlns="http://www.w3.org/2000/svg"><path d="M22.927 6.154v6.15c0 2.61-2.12 4.73-4.73 4.73H5.423a4.733 4.733 0 01-4.73-4.73v-6.15a4.731 4.731 0 014.73-4.73h12.772a4.732 4.732 0 014.731 4.73z" fill="#EA4640"/><path d="M15.358 9.229L9.68 11.594v-4.73l5.677 2.365z" fill="#fff"/><path d="M18.196.95H5.424A5.21 5.21 0 00.22 6.154v6.15a5.21 5.21 0 005.204 5.203h12.772a5.21 5.21 0 005.204-5.204v-6.15A5.21 5.21 0 0018.196.95zm4.258 11.353a4.262 4.262 0 01-4.258 4.258H5.424a4.262 4.262 0 01-4.258-4.258v-6.15a4.262 4.262 0 014.258-4.257h12.772a4.262 4.262 0 014.258 4.258v6.15z" fill="#231F20"/><path d="M15.54 8.792L9.863 6.427a.473.473 0 00-.655.436v4.731a.473.473 0 00.655.437l5.677-2.366a.473.473 0 000-.873zm-5.386 2.092V7.573l3.974 1.656-3.974 1.655z" fill="#231F20"/></svg>